M48
INCH,TZ
T1C0.0157
T2C0.0432
T3C0.0472
T4C0.0866
%
G90
G05
T1
X54900Y-36900
X55400Y-40800
X55900Y-39600
X56250Y-32815
X56500Y-35100
X56990Y-32706
X57000Y-35100
X57400Y-34500
X57500Y-32700
X58200Y-36600
X58500Y-35600
X59800Y-37100
X59848Y-32822
X60600Y-36100
X60600Y-37000
X60700Y-38100
X60996Y-34626
X61700Y-36200
X62270Y-35285
X62800Y-35250
X63790Y-35865
X63897Y-36189
X64005Y-36553
X64035Y-36868
X64113Y-35904
X64400Y-38760
X66075Y-36320
X66665Y-42185
X67595Y-38290
X67880Y-40120
X67905Y-38300
X68270Y-40135
T2
X61368Y-33800
X62368Y-33800
X63368Y-33800
X64832Y-33792
X65832Y-33792
T3
X54326Y-34974
X54326Y-38026
X55822Y-37967
X55831Y-35033
T4
X67592Y-33570
X54600Y-33600
T0
M30
