G04 #@! TF.GenerationSoftware,KiCad,Pcbnew,5.1.6-c6e7f7d~87~ubuntu20.04.1*
G04 #@! TF.CreationDate,2021-06-05T20:06:15-07:00*
G04 #@! TF.ProjectId,NixieSupply5vto170vDCMBoostMini,4e697869-6553-4757-9070-6c793576746f,rev?*
G04 #@! TF.SameCoordinates,Original*
G04 #@! TF.FileFunction,Copper,L2,Bot*
G04 #@! TF.FilePolarity,Positive*
%FSLAX46Y46*%
G04 Gerber Fmt 4.6, Leading zero omitted, Abs format (unit mm)*
G04 Created by KiCad (PCBNEW 5.1.6-c6e7f7d~87~ubuntu20.04.1) date 2021-06-05 20:06:15*
%MOMM*%
%LPD*%
G01*
G04 APERTURE LIST*
G04 #@! TA.AperFunction,ComponentPad*
%ADD10C,4.400000*%
G04 #@! TD*
G04 #@! TA.AperFunction,ComponentPad*
%ADD11C,1.800000*%
G04 #@! TD*
G04 #@! TA.AperFunction,ComponentPad*
%ADD12O,1.998980X1.998980*%
G04 #@! TD*
G04 #@! TA.AperFunction,ComponentPad*
%ADD13R,1.998980X1.998980*%
G04 #@! TD*
G04 #@! TA.AperFunction,ViaPad*
%ADD14C,0.685800*%
G04 #@! TD*
G04 #@! TA.AperFunction,Conductor*
%ADD15C,1.500000*%
G04 #@! TD*
G04 #@! TA.AperFunction,Conductor*
%ADD16C,2.000000*%
G04 #@! TD*
G04 #@! TA.AperFunction,Conductor*
%ADD17C,0.381000*%
G04 #@! TD*
G04 #@! TA.AperFunction,Conductor*
%ADD18C,1.000000*%
G04 #@! TD*
G04 #@! TA.AperFunction,Conductor*
%ADD19C,0.400000*%
G04 #@! TD*
G04 #@! TA.AperFunction,Conductor*
%ADD20C,0.254000*%
G04 #@! TD*
G04 APERTURE END LIST*
D10*
G04 #@! TO.P,J2,1*
G04 #@! TO.N,GND*
X171684000Y-85269000D03*
G04 #@! TD*
D11*
G04 #@! TO.P,P1,6*
G04 #@! TO.N,GND*
X141812000Y-88985000D03*
X141787000Y-96435000D03*
X137987000Y-88835000D03*
X137987000Y-96585000D03*
G04 #@! TD*
D10*
G04 #@! TO.P,J3,1*
G04 #@! TO.N,GND*
X138684000Y-85344000D03*
G04 #@! TD*
D12*
G04 #@! TO.P,J1,2*
G04 #@! TO.N,+160V*
X164673280Y-85831680D03*
D13*
G04 #@! TO.P,J1,1*
X167213280Y-85831680D03*
G04 #@! TD*
D12*
G04 #@! TO.P,J6,3*
G04 #@! TO.N,5v_Power*
X155874720Y-85852000D03*
D13*
G04 #@! TO.P,J6,1*
G04 #@! TO.N,GND*
X160954720Y-85852000D03*
D12*
G04 #@! TO.P,J6,2*
G04 #@! TO.N,N_ENABLE*
X158414720Y-85852000D03*
G04 #@! TD*
D14*
G04 #@! TO.N,GND*
X162648000Y-93645000D03*
X162298000Y-91920000D03*
X162848000Y-91195000D03*
X140716000Y-103632000D03*
X144780000Y-89154000D03*
X146050000Y-83058000D03*
X142875000Y-83350100D03*
X162573000Y-92845000D03*
X162026600Y-91097100D03*
X158165800Y-89623900D03*
X154178000Y-96774000D03*
X163576000Y-98450400D03*
X167830500Y-92252800D03*
X171691300Y-97256600D03*
X172478700Y-97282000D03*
X173405800Y-101942900D03*
X172415200Y-101904800D03*
X169329100Y-107149900D03*
G04 #@! TO.N,Net-(C5-Pad1)*
X145796000Y-87630000D03*
X148590000Y-90424000D03*
G04 #@! TO.N,Net-(C11-Pad1)*
X156718000Y-91948000D03*
X153924000Y-93980000D03*
G04 #@! TO.N,5v_Power*
X143510000Y-89154000D03*
X154929840Y-87950040D03*
X141986000Y-100584000D03*
X139446000Y-93726000D03*
G04 #@! TO.N,Net-(C6-Pad2)*
X159512000Y-89535000D03*
X153924000Y-91694000D03*
G04 #@! TO.N,Net-(C10-Pad1)*
X151892000Y-94234000D03*
X147828000Y-92964000D03*
G04 #@! TO.N,Net-(Q26-Pad1)*
X144754600Y-83073240D03*
X152013920Y-83367880D03*
G04 #@! TD*
D15*
G04 #@! TO.N,GND*
X171450000Y-85344000D02*
X171450000Y-85979000D01*
X171450000Y-85344000D02*
X171259500Y-85344000D01*
X171450000Y-85344000D02*
X171450000Y-89408000D01*
D16*
X160954720Y-85852000D02*
X160954720Y-87767160D01*
X160954720Y-87767160D02*
X160934400Y-87787480D01*
D17*
X162648000Y-93645000D02*
X162598000Y-93595000D01*
X162598000Y-93595000D02*
X162298000Y-91920000D01*
D15*
X137287000Y-83439000D02*
X137287000Y-87249000D01*
X137287000Y-87249000D02*
X137096500Y-87439500D01*
X137287000Y-83439000D02*
X140525500Y-83439000D01*
X138747500Y-85344000D02*
X140589000Y-83502500D01*
X137287000Y-83439000D02*
X138684000Y-84836000D01*
X140525500Y-83439000D02*
X140589000Y-83502500D01*
X138684000Y-85344000D02*
X138684000Y-84836000D01*
X138684000Y-85344000D02*
X138684000Y-85852000D01*
X138684000Y-85852000D02*
X137096500Y-87439500D01*
X137096500Y-87439500D02*
X137096500Y-89344500D01*
X138684000Y-85344000D02*
X138684000Y-88138000D01*
X138684000Y-88138000D02*
X137987000Y-88835000D01*
X138684000Y-85344000D02*
X138747500Y-85344000D01*
X138684000Y-85344000D02*
X139065000Y-85344000D01*
X139065000Y-85344000D02*
X140970000Y-87249000D01*
X141812000Y-88985000D02*
X141695080Y-88985000D01*
X141695080Y-88985000D02*
X140858240Y-88148160D01*
X141812000Y-88985000D02*
X141812000Y-87539840D01*
X141812000Y-87539840D02*
X141894560Y-87457280D01*
X141787000Y-96435000D02*
X141787000Y-96241480D01*
X141787000Y-96241480D02*
X142280640Y-95747840D01*
X142280640Y-95747840D02*
X142280640Y-95158560D01*
X137987000Y-96585000D02*
X137160000Y-95250000D01*
X137160000Y-95250000D02*
X137288040Y-95121960D01*
X137987000Y-88835000D02*
X137922000Y-90424000D01*
X137922000Y-90424000D02*
X138070360Y-90572360D01*
X138684000Y-85344000D02*
X142113000Y-85344000D01*
X142204440Y-85435440D02*
X142204440Y-85481160D01*
X142113000Y-85344000D02*
X142204440Y-85435440D01*
D17*
X144769840Y-89164160D02*
X144769840Y-89311480D01*
X144780000Y-89154000D02*
X144769840Y-89164160D01*
X146672300Y-83070700D02*
X146634200Y-83108800D01*
X146024600Y-83083400D02*
X146672300Y-83070700D01*
X146050000Y-83058000D02*
X146024600Y-83083400D01*
X142786100Y-83439000D02*
X142176500Y-83439000D01*
X142875000Y-83350100D02*
X142786100Y-83439000D01*
X162814300Y-92603700D02*
X162551700Y-92099600D01*
X162573000Y-92845000D02*
X162814300Y-92603700D01*
X162115500Y-91008200D02*
X162115500Y-90220800D01*
X162026600Y-91097100D02*
X162115500Y-91008200D01*
X158216600Y-89573100D02*
X158216600Y-89382600D01*
X158165800Y-89623900D02*
X158216600Y-89573100D01*
X154139900Y-96812100D02*
X154559000Y-96710500D01*
X154178000Y-96774000D02*
X154139900Y-96812100D01*
X163601400Y-98425000D02*
X163601400Y-97980500D01*
X163576000Y-98450400D02*
X163601400Y-98425000D01*
X167868600Y-92214700D02*
X167868600Y-91528900D01*
X167830500Y-92252800D02*
X167868600Y-92214700D01*
D18*
X172453300Y-97256600D02*
X171691300Y-97256600D01*
X172478700Y-97282000D02*
X172453300Y-97256600D01*
X172453300Y-101942900D02*
X173405800Y-101942900D01*
X172415200Y-101904800D02*
X172453300Y-101942900D01*
D17*
X169367200Y-107111800D02*
X169367200Y-106514900D01*
X169329100Y-107149900D02*
X169367200Y-107111800D01*
G04 #@! TO.N,Net-(C5-Pad1)*
X146812000Y-88646000D02*
X145796000Y-87630000D01*
X148590000Y-90424000D02*
X146812000Y-88646000D01*
G04 #@! TO.N,Net-(C11-Pad1)*
X155956000Y-91948000D02*
X156718000Y-91948000D01*
X153924000Y-93980000D02*
X155956000Y-91948000D01*
D18*
G04 #@! TO.N,5v_Power*
X153543000Y-87965280D02*
X154990800Y-87965280D01*
X144018000Y-88138000D02*
X143764000Y-88900000D01*
X147574000Y-86868000D02*
X146812000Y-86106000D01*
X146812000Y-86106000D02*
X145034000Y-86106000D01*
X145034000Y-86106000D02*
X144018000Y-87122000D01*
X144018000Y-87122000D02*
X144018000Y-88138000D01*
X148336000Y-86868000D02*
X150825200Y-86868000D01*
X150825200Y-86868000D02*
X153543000Y-87965280D01*
X148336000Y-86868000D02*
X147574000Y-86868000D01*
X143510000Y-89154000D02*
X143764000Y-88900000D01*
X154975560Y-87950040D02*
X154929840Y-87950040D01*
X154990800Y-87965280D02*
X154975560Y-87950040D01*
X139446000Y-93726000D02*
X139446000Y-95758000D01*
X139954000Y-96266000D02*
X139954000Y-96774000D01*
X141986000Y-100584000D02*
X139954000Y-98552000D01*
X139954000Y-98552000D02*
X139954000Y-96774000D01*
X139446000Y-95758000D02*
X139954000Y-96266000D01*
D17*
G04 #@! TO.N,Net-(C6-Pad2)*
X158496000Y-90487500D02*
X158559500Y-90487500D01*
X158559500Y-90487500D02*
X159512000Y-89535000D01*
D19*
X153924000Y-91694000D02*
X155057600Y-90220800D01*
X155057600Y-90220800D02*
X158496000Y-90487500D01*
D17*
G04 #@! TO.N,Net-(C10-Pad1)*
X149098000Y-94234000D02*
X151892000Y-94234000D01*
X147828000Y-92964000D02*
X149098000Y-94234000D01*
D19*
G04 #@! TO.N,Net-(Q26-Pad1)*
X145892520Y-84211160D02*
X144754600Y-83073240D01*
X147568920Y-84211160D02*
X145892520Y-84211160D01*
X147797520Y-83982560D02*
X147568920Y-84211160D01*
X151399240Y-83982560D02*
X147797520Y-83982560D01*
X152013920Y-83367880D02*
X151399240Y-83982560D01*
G04 #@! TD*
D20*
G04 #@! TO.N,GND*
G36*
X173888056Y-110591600D02*
G01*
X136524825Y-110591600D01*
X136521730Y-108342853D01*
X137257000Y-108342853D01*
X137257000Y-108623947D01*
X137311838Y-108899641D01*
X137419409Y-109159338D01*
X137575576Y-109393060D01*
X137774340Y-109591824D01*
X138008062Y-109747991D01*
X138267759Y-109855562D01*
X138543453Y-109910400D01*
X138824547Y-109910400D01*
X139100241Y-109855562D01*
X139359938Y-109747991D01*
X139593660Y-109591824D01*
X139792424Y-109393060D01*
X139948591Y-109159338D01*
X140056162Y-108899641D01*
X140111000Y-108623947D01*
X140111000Y-108393653D01*
X170277000Y-108393653D01*
X170277000Y-108674747D01*
X170331838Y-108950441D01*
X170439409Y-109210138D01*
X170595576Y-109443860D01*
X170794340Y-109642624D01*
X171028062Y-109798791D01*
X171287759Y-109906362D01*
X171563453Y-109961200D01*
X171844547Y-109961200D01*
X172120241Y-109906362D01*
X172379938Y-109798791D01*
X172613660Y-109642624D01*
X172812424Y-109443860D01*
X172968591Y-109210138D01*
X173076162Y-108950441D01*
X173131000Y-108674747D01*
X173131000Y-108393653D01*
X173076162Y-108117959D01*
X172968591Y-107858262D01*
X172812424Y-107624540D01*
X172613660Y-107425776D01*
X172379938Y-107269609D01*
X172120241Y-107162038D01*
X171844547Y-107107200D01*
X171563453Y-107107200D01*
X171287759Y-107162038D01*
X171028062Y-107269609D01*
X170794340Y-107425776D01*
X170595576Y-107624540D01*
X170439409Y-107858262D01*
X170331838Y-108117959D01*
X170277000Y-108393653D01*
X140111000Y-108393653D01*
X140111000Y-108342853D01*
X140056162Y-108067159D01*
X139948591Y-107807462D01*
X139792424Y-107573740D01*
X139593660Y-107374976D01*
X139359938Y-107218809D01*
X139100241Y-107111238D01*
X138824547Y-107056400D01*
X138543453Y-107056400D01*
X138267759Y-107111238D01*
X138008062Y-107218809D01*
X137774340Y-107374976D01*
X137575576Y-107573740D01*
X137419409Y-107807462D01*
X137311838Y-108067159D01*
X137257000Y-108342853D01*
X136521730Y-108342853D01*
X136506775Y-97478204D01*
X136645552Y-97685898D01*
X136886102Y-97926448D01*
X137168959Y-98115447D01*
X137483253Y-98245632D01*
X137816905Y-98312000D01*
X138157095Y-98312000D01*
X138490747Y-98245632D01*
X138805041Y-98115447D01*
X139087898Y-97926448D01*
X139127000Y-97887346D01*
X139127000Y-98511386D01*
X139123000Y-98552000D01*
X139127000Y-98592614D01*
X139127000Y-98592623D01*
X139138966Y-98714119D01*
X139186255Y-98870009D01*
X139186256Y-98870010D01*
X139263048Y-99013679D01*
X139314725Y-99076647D01*
X139366394Y-99139606D01*
X139397952Y-99165505D01*
X141429948Y-101197502D01*
X141524320Y-101274952D01*
X141667989Y-101351744D01*
X141823879Y-101399033D01*
X141986000Y-101415000D01*
X142148120Y-101399033D01*
X142304010Y-101351744D01*
X142447679Y-101274952D01*
X142573606Y-101171606D01*
X142676952Y-101045679D01*
X142753744Y-100902010D01*
X142801033Y-100746120D01*
X142817000Y-100584000D01*
X142801033Y-100421879D01*
X142753744Y-100265989D01*
X142676952Y-100122320D01*
X142599502Y-100027948D01*
X140781000Y-98209447D01*
X140781000Y-97839857D01*
X140968959Y-97965447D01*
X141283253Y-98095632D01*
X141616905Y-98162000D01*
X141957095Y-98162000D01*
X142290747Y-98095632D01*
X142605041Y-97965447D01*
X142887898Y-97776448D01*
X143128448Y-97535898D01*
X143317447Y-97253041D01*
X143447632Y-96938747D01*
X143514000Y-96605095D01*
X143514000Y-96264905D01*
X143447632Y-95931253D01*
X143317447Y-95616959D01*
X143128448Y-95334102D01*
X142887898Y-95093552D01*
X142605041Y-94904553D01*
X142290747Y-94774368D01*
X141957095Y-94708000D01*
X141616905Y-94708000D01*
X141315933Y-94767868D01*
X141301698Y-94746564D01*
X141200436Y-94645302D01*
X141081364Y-94565741D01*
X140949058Y-94510938D01*
X140808603Y-94483000D01*
X140665397Y-94483000D01*
X140524942Y-94510938D01*
X140392636Y-94565741D01*
X140273564Y-94645302D01*
X140273000Y-94645866D01*
X140273000Y-93685376D01*
X140261034Y-93563880D01*
X140213745Y-93407990D01*
X140136952Y-93264321D01*
X140033606Y-93138394D01*
X139907678Y-93035048D01*
X139764009Y-92958255D01*
X139608119Y-92910966D01*
X139476684Y-92898021D01*
X147158100Y-92898021D01*
X147158100Y-93029979D01*
X147183844Y-93159403D01*
X147234343Y-93281316D01*
X147307655Y-93391036D01*
X147400964Y-93484345D01*
X147510684Y-93557657D01*
X147632597Y-93608156D01*
X147762021Y-93633900D01*
X147766045Y-93633900D01*
X148714101Y-94581957D01*
X148730302Y-94601698D01*
X148809102Y-94666367D01*
X148886992Y-94708000D01*
X148899003Y-94714420D01*
X148996551Y-94744011D01*
X149097999Y-94754003D01*
X149123412Y-94751500D01*
X151462119Y-94751500D01*
X151464964Y-94754345D01*
X151574684Y-94827657D01*
X151696597Y-94878156D01*
X151826021Y-94903900D01*
X151957979Y-94903900D01*
X152087403Y-94878156D01*
X152209316Y-94827657D01*
X152319036Y-94754345D01*
X152412345Y-94661036D01*
X152485657Y-94551316D01*
X152536156Y-94429403D01*
X152561900Y-94299979D01*
X152561900Y-94168021D01*
X152536156Y-94038597D01*
X152485657Y-93916684D01*
X152483878Y-93914021D01*
X153254100Y-93914021D01*
X153254100Y-94045979D01*
X153279844Y-94175403D01*
X153330343Y-94297316D01*
X153403655Y-94407036D01*
X153496964Y-94500345D01*
X153606684Y-94573657D01*
X153728597Y-94624156D01*
X153858021Y-94649900D01*
X153989979Y-94649900D01*
X154119403Y-94624156D01*
X154241316Y-94573657D01*
X154351036Y-94500345D01*
X154444345Y-94407036D01*
X154517657Y-94297316D01*
X154568156Y-94175403D01*
X154593900Y-94045979D01*
X154593900Y-94041955D01*
X156170356Y-92465500D01*
X156288119Y-92465500D01*
X156290964Y-92468345D01*
X156400684Y-92541657D01*
X156522597Y-92592156D01*
X156652021Y-92617900D01*
X156783979Y-92617900D01*
X156913403Y-92592156D01*
X157035316Y-92541657D01*
X157145036Y-92468345D01*
X157238345Y-92375036D01*
X157311657Y-92265316D01*
X157362156Y-92143403D01*
X157387900Y-92013979D01*
X157387900Y-91882021D01*
X157362156Y-91752597D01*
X157311657Y-91630684D01*
X157238345Y-91520964D01*
X157145036Y-91427655D01*
X157035316Y-91354343D01*
X156913403Y-91303844D01*
X156783979Y-91278100D01*
X156652021Y-91278100D01*
X156522597Y-91303844D01*
X156400684Y-91354343D01*
X156290964Y-91427655D01*
X156288119Y-91430500D01*
X155981413Y-91430500D01*
X155956000Y-91427997D01*
X155930587Y-91430500D01*
X155854552Y-91437989D01*
X155757003Y-91467580D01*
X155667102Y-91515633D01*
X155588302Y-91580302D01*
X155572101Y-91600043D01*
X153862045Y-93310100D01*
X153858021Y-93310100D01*
X153728597Y-93335844D01*
X153606684Y-93386343D01*
X153496964Y-93459655D01*
X153403655Y-93552964D01*
X153330343Y-93662684D01*
X153279844Y-93784597D01*
X153254100Y-93914021D01*
X152483878Y-93914021D01*
X152412345Y-93806964D01*
X152319036Y-93713655D01*
X152209316Y-93640343D01*
X152087403Y-93589844D01*
X151957979Y-93564100D01*
X151826021Y-93564100D01*
X151696597Y-93589844D01*
X151574684Y-93640343D01*
X151464964Y-93713655D01*
X151462119Y-93716500D01*
X149312356Y-93716500D01*
X148497900Y-92902045D01*
X148497900Y-92898021D01*
X148472156Y-92768597D01*
X148421657Y-92646684D01*
X148348345Y-92536964D01*
X148255036Y-92443655D01*
X148145316Y-92370343D01*
X148023403Y-92319844D01*
X147893979Y-92294100D01*
X147762021Y-92294100D01*
X147632597Y-92319844D01*
X147510684Y-92370343D01*
X147400964Y-92443655D01*
X147307655Y-92536964D01*
X147234343Y-92646684D01*
X147183844Y-92768597D01*
X147158100Y-92898021D01*
X139476684Y-92898021D01*
X139446000Y-92894999D01*
X139283880Y-92910966D01*
X139127990Y-92958255D01*
X138984321Y-93035048D01*
X138858394Y-93138394D01*
X138755048Y-93264322D01*
X138678255Y-93407991D01*
X138630966Y-93563881D01*
X138619000Y-93685377D01*
X138619001Y-94977492D01*
X138490747Y-94924368D01*
X138157095Y-94858000D01*
X137816905Y-94858000D01*
X137483253Y-94924368D01*
X137168959Y-95054553D01*
X136886102Y-95243552D01*
X136645552Y-95484102D01*
X136504322Y-95695468D01*
X136498724Y-91628021D01*
X153254100Y-91628021D01*
X153254100Y-91759979D01*
X153279844Y-91889403D01*
X153330343Y-92011316D01*
X153403655Y-92121036D01*
X153496964Y-92214345D01*
X153606684Y-92287657D01*
X153728597Y-92338156D01*
X153858021Y-92363900D01*
X153989979Y-92363900D01*
X154119403Y-92338156D01*
X154241316Y-92287657D01*
X154351036Y-92214345D01*
X154444345Y-92121036D01*
X154517657Y-92011316D01*
X154568156Y-91889403D01*
X154593900Y-91759979D01*
X154593900Y-91687580D01*
X155301282Y-90768284D01*
X158481049Y-91014923D01*
X158558836Y-91013307D01*
X158605836Y-91002939D01*
X158660948Y-90997511D01*
X158758497Y-90967920D01*
X158848398Y-90919867D01*
X158927198Y-90855198D01*
X158943403Y-90835452D01*
X159573956Y-90204900D01*
X159577979Y-90204900D01*
X159707403Y-90179156D01*
X159829316Y-90128657D01*
X159939036Y-90055345D01*
X160032345Y-89962036D01*
X160105657Y-89852316D01*
X160156156Y-89730403D01*
X160181900Y-89600979D01*
X160181900Y-89469021D01*
X160156156Y-89339597D01*
X160105657Y-89217684D01*
X160032345Y-89107964D01*
X159939036Y-89014655D01*
X159829316Y-88941343D01*
X159707403Y-88890844D01*
X159577979Y-88865100D01*
X159446021Y-88865100D01*
X159316597Y-88890844D01*
X159194684Y-88941343D01*
X159084964Y-89014655D01*
X158991655Y-89107964D01*
X158918343Y-89217684D01*
X158867844Y-89339597D01*
X158842100Y-89469021D01*
X158842100Y-89473044D01*
X158366288Y-89948856D01*
X155121365Y-89697163D01*
X155092949Y-89692432D01*
X155043804Y-89693974D01*
X154994765Y-89694993D01*
X154992016Y-89695599D01*
X154989191Y-89695688D01*
X154941247Y-89706799D01*
X154893392Y-89717355D01*
X154890814Y-89718486D01*
X154888061Y-89719124D01*
X154843215Y-89739371D01*
X154798330Y-89759064D01*
X154796022Y-89760677D01*
X154793447Y-89761839D01*
X154753440Y-89790426D01*
X154713231Y-89818517D01*
X154711280Y-89820551D01*
X154708983Y-89822192D01*
X154675333Y-89858023D01*
X154641367Y-89893430D01*
X154625867Y-89917703D01*
X153759425Y-91043712D01*
X153728597Y-91049844D01*
X153606684Y-91100343D01*
X153496964Y-91173655D01*
X153403655Y-91266964D01*
X153330343Y-91376684D01*
X153279844Y-91498597D01*
X153254100Y-91628021D01*
X136498724Y-91628021D01*
X136496086Y-89712206D01*
X136645552Y-89935898D01*
X136886102Y-90176448D01*
X137168959Y-90365447D01*
X137483253Y-90495632D01*
X137816905Y-90562000D01*
X138157095Y-90562000D01*
X138490747Y-90495632D01*
X138805041Y-90365447D01*
X139087898Y-90176448D01*
X139125949Y-90138397D01*
X140010000Y-90138397D01*
X140010000Y-90281603D01*
X140037938Y-90422058D01*
X140092741Y-90554364D01*
X140172302Y-90673436D01*
X140273564Y-90774698D01*
X140392636Y-90854259D01*
X140524942Y-90909062D01*
X140665397Y-90937000D01*
X140808603Y-90937000D01*
X140949058Y-90909062D01*
X141081364Y-90854259D01*
X141200436Y-90774698D01*
X141301698Y-90673436D01*
X141318865Y-90647743D01*
X141641905Y-90712000D01*
X141982095Y-90712000D01*
X142315747Y-90645632D01*
X142630041Y-90515447D01*
X142912898Y-90326448D01*
X143153448Y-90085898D01*
X143251143Y-89939688D01*
X143347880Y-89969033D01*
X143510000Y-89985000D01*
X143672120Y-89969033D01*
X143828010Y-89921744D01*
X143971679Y-89844952D01*
X144066051Y-89767502D01*
X144340815Y-89492738D01*
X144391783Y-89444473D01*
X144421898Y-89401955D01*
X144454952Y-89361680D01*
X144468874Y-89335633D01*
X144485942Y-89311536D01*
X144507184Y-89263960D01*
X144531744Y-89218010D01*
X144552117Y-89150850D01*
X144780393Y-88466023D01*
X144785745Y-88456010D01*
X144806124Y-88388831D01*
X144815407Y-88360981D01*
X144817907Y-88349988D01*
X144833034Y-88300120D01*
X144835929Y-88270731D01*
X144842476Y-88241936D01*
X144843894Y-88189852D01*
X144845000Y-88178624D01*
X144845000Y-88149239D01*
X144846910Y-88079092D01*
X144845000Y-88067906D01*
X144845000Y-87564021D01*
X145126100Y-87564021D01*
X145126100Y-87695979D01*
X145151844Y-87825403D01*
X145202343Y-87947316D01*
X145275655Y-88057036D01*
X145368964Y-88150345D01*
X145478684Y-88223657D01*
X145600597Y-88274156D01*
X145730021Y-88299900D01*
X145734045Y-88299900D01*
X146464041Y-89029897D01*
X146464047Y-89029902D01*
X147920100Y-90485955D01*
X147920100Y-90489979D01*
X147945844Y-90619403D01*
X147996343Y-90741316D01*
X148069655Y-90851036D01*
X148162964Y-90944345D01*
X148272684Y-91017657D01*
X148394597Y-91068156D01*
X148524021Y-91093900D01*
X148655979Y-91093900D01*
X148785403Y-91068156D01*
X148907316Y-91017657D01*
X149017036Y-90944345D01*
X149110345Y-90851036D01*
X149183657Y-90741316D01*
X149234156Y-90619403D01*
X149259900Y-90489979D01*
X149259900Y-90358021D01*
X149234156Y-90228597D01*
X149183657Y-90106684D01*
X149110345Y-89996964D01*
X149017036Y-89903655D01*
X148907316Y-89830343D01*
X148785403Y-89779844D01*
X148655979Y-89754100D01*
X148651955Y-89754100D01*
X147195902Y-88298047D01*
X147195897Y-88298041D01*
X146465900Y-87568045D01*
X146465900Y-87564021D01*
X146440156Y-87434597D01*
X146389657Y-87312684D01*
X146316345Y-87202964D01*
X146223036Y-87109655D01*
X146113316Y-87036343D01*
X145991403Y-86985844D01*
X145861979Y-86960100D01*
X145730021Y-86960100D01*
X145600597Y-86985844D01*
X145478684Y-87036343D01*
X145368964Y-87109655D01*
X145275655Y-87202964D01*
X145202343Y-87312684D01*
X145151844Y-87434597D01*
X145126100Y-87564021D01*
X144845000Y-87564021D01*
X144845000Y-87464553D01*
X145376554Y-86933000D01*
X146469446Y-86933000D01*
X146960503Y-87424058D01*
X146986394Y-87455606D01*
X147017941Y-87481496D01*
X147017948Y-87481503D01*
X147112320Y-87558952D01*
X147177006Y-87593527D01*
X147255990Y-87635745D01*
X147411880Y-87683034D01*
X147533376Y-87695000D01*
X147533386Y-87695000D01*
X147574000Y-87699000D01*
X147614614Y-87695000D01*
X150664554Y-87695000D01*
X153192268Y-88715535D01*
X153224990Y-88733025D01*
X153267616Y-88745956D01*
X153271060Y-88747346D01*
X153306454Y-88757737D01*
X153380880Y-88780314D01*
X153384606Y-88780681D01*
X153388200Y-88781736D01*
X153465609Y-88788659D01*
X153502376Y-88792280D01*
X153506099Y-88792280D01*
X153550457Y-88796247D01*
X153587338Y-88792280D01*
X154950186Y-88792280D01*
X154990800Y-88796280D01*
X155031414Y-88792280D01*
X155031424Y-88792280D01*
X155152920Y-88780314D01*
X155308810Y-88733025D01*
X155402436Y-88682981D01*
X155452480Y-88656232D01*
X155578406Y-88552886D01*
X155681752Y-88426960D01*
X155732908Y-88331253D01*
X155758545Y-88283290D01*
X155805834Y-88127400D01*
X155821801Y-87965280D01*
X155805834Y-87803160D01*
X155758545Y-87647270D01*
X155681752Y-87503601D01*
X155669245Y-87488361D01*
X155604303Y-87409229D01*
X155604301Y-87409227D01*
X155578406Y-87377674D01*
X155570036Y-87370804D01*
X155563166Y-87362434D01*
X155437239Y-87259088D01*
X155293570Y-87182295D01*
X155137680Y-87135006D01*
X155016184Y-87123040D01*
X155016174Y-87123040D01*
X154975560Y-87119040D01*
X154934946Y-87123040D01*
X154889216Y-87123040D01*
X154767720Y-87135006D01*
X154756927Y-87138280D01*
X153703646Y-87138280D01*
X151175932Y-86117745D01*
X151143210Y-86100255D01*
X151100584Y-86087324D01*
X151097140Y-86085934D01*
X151061786Y-86075555D01*
X150987320Y-86052966D01*
X150983587Y-86052598D01*
X150979999Y-86051545D01*
X150902654Y-86044627D01*
X150865824Y-86041000D01*
X150862097Y-86041000D01*
X150817743Y-86037033D01*
X150780862Y-86041000D01*
X147916554Y-86041000D01*
X147425505Y-85549952D01*
X147399606Y-85518394D01*
X147273679Y-85415048D01*
X147130010Y-85338255D01*
X146974120Y-85290966D01*
X146852624Y-85279000D01*
X146852614Y-85279000D01*
X146812000Y-85275000D01*
X146771386Y-85279000D01*
X145074614Y-85279000D01*
X145034000Y-85275000D01*
X144993386Y-85279000D01*
X144993376Y-85279000D01*
X144871880Y-85290966D01*
X144715990Y-85338255D01*
X144649113Y-85374002D01*
X144572320Y-85415048D01*
X144477948Y-85492498D01*
X144446394Y-85518394D01*
X144420499Y-85549947D01*
X143461952Y-86508495D01*
X143430394Y-86534394D01*
X143404498Y-86565949D01*
X143327048Y-86660321D01*
X143298783Y-86713201D01*
X143250255Y-86803991D01*
X143202966Y-86959881D01*
X143191000Y-87081377D01*
X143191000Y-87081386D01*
X143187000Y-87122000D01*
X143191000Y-87162615D01*
X143191001Y-87940304D01*
X143153448Y-87884102D01*
X142912898Y-87643552D01*
X142630041Y-87454553D01*
X142315747Y-87324368D01*
X141982095Y-87258000D01*
X141641905Y-87258000D01*
X141308253Y-87324368D01*
X140993959Y-87454553D01*
X140711102Y-87643552D01*
X140470552Y-87884102D01*
X140281553Y-88166959D01*
X140151368Y-88481253D01*
X140085000Y-88814905D01*
X140085000Y-89155095D01*
X140151368Y-89488747D01*
X140233012Y-89685854D01*
X140172302Y-89746564D01*
X140092741Y-89865636D01*
X140037938Y-89997942D01*
X140010000Y-90138397D01*
X139125949Y-90138397D01*
X139328448Y-89935898D01*
X139517447Y-89653041D01*
X139647632Y-89338747D01*
X139714000Y-89005095D01*
X139714000Y-88664905D01*
X139647632Y-88331253D01*
X139517447Y-88016959D01*
X139328448Y-87734102D01*
X139087898Y-87493552D01*
X138805041Y-87304553D01*
X138490747Y-87174368D01*
X138157095Y-87108000D01*
X137816905Y-87108000D01*
X137483253Y-87174368D01*
X137168959Y-87304553D01*
X136886102Y-87493552D01*
X136645552Y-87734102D01*
X136493676Y-87961400D01*
X136486402Y-82676616D01*
X144224401Y-82660952D01*
X144160943Y-82755924D01*
X144110444Y-82877837D01*
X144084700Y-83007261D01*
X144084700Y-83139219D01*
X144110444Y-83268643D01*
X144160943Y-83390556D01*
X144234255Y-83500276D01*
X144327564Y-83593585D01*
X144437284Y-83666897D01*
X144559197Y-83717396D01*
X144676874Y-83740803D01*
X145501569Y-84565499D01*
X145518072Y-84585608D01*
X145598318Y-84651464D01*
X145689870Y-84700399D01*
X145789210Y-84730534D01*
X145892520Y-84740709D01*
X145918401Y-84738160D01*
X147543039Y-84738160D01*
X147568920Y-84740709D01*
X147594801Y-84738160D01*
X147672230Y-84730534D01*
X147771570Y-84700399D01*
X147863122Y-84651464D01*
X147943368Y-84585608D01*
X147959875Y-84565494D01*
X148015809Y-84509560D01*
X151373359Y-84509560D01*
X151399240Y-84512109D01*
X151425121Y-84509560D01*
X151502550Y-84501934D01*
X151601890Y-84471799D01*
X151693442Y-84422864D01*
X151773688Y-84357008D01*
X151790195Y-84336894D01*
X152091647Y-84035443D01*
X152209323Y-84012036D01*
X152331236Y-83961537D01*
X152440956Y-83888225D01*
X152534265Y-83794916D01*
X152607577Y-83685196D01*
X152658076Y-83563283D01*
X152683820Y-83433859D01*
X152683820Y-83301901D01*
X152658076Y-83172477D01*
X152607577Y-83050564D01*
X152534265Y-82940844D01*
X152440956Y-82847535D01*
X152331236Y-82774223D01*
X152209323Y-82723724D01*
X152079899Y-82697980D01*
X151947941Y-82697980D01*
X151818517Y-82723724D01*
X151696604Y-82774223D01*
X151586884Y-82847535D01*
X151493575Y-82940844D01*
X151420263Y-83050564D01*
X151369764Y-83172477D01*
X151346357Y-83290153D01*
X151180950Y-83455560D01*
X147823400Y-83455560D01*
X147797519Y-83453011D01*
X147694210Y-83463186D01*
X147594870Y-83493321D01*
X147503318Y-83542256D01*
X147423072Y-83608112D01*
X147406565Y-83628226D01*
X147350631Y-83684160D01*
X146110810Y-83684160D01*
X145422163Y-82995514D01*
X145398756Y-82877837D01*
X145348257Y-82755924D01*
X145283367Y-82658808D01*
X155307939Y-82638516D01*
X155193510Y-82752945D01*
X155097533Y-82896585D01*
X155031423Y-83056189D01*
X154997720Y-83225623D01*
X154997720Y-83398377D01*
X155031423Y-83567811D01*
X155097533Y-83727415D01*
X155193510Y-83871055D01*
X155315665Y-83993210D01*
X155459305Y-84089187D01*
X155618909Y-84155297D01*
X155788343Y-84189000D01*
X155961097Y-84189000D01*
X156130531Y-84155297D01*
X156290135Y-84089187D01*
X156433775Y-83993210D01*
X156555930Y-83871055D01*
X156651907Y-83727415D01*
X156718017Y-83567811D01*
X156751720Y-83398377D01*
X156751720Y-83225623D01*
X156718017Y-83056189D01*
X156651907Y-82896585D01*
X156555930Y-82752945D01*
X156439211Y-82636226D01*
X157853091Y-82633364D01*
X157733510Y-82752945D01*
X157637533Y-82896585D01*
X157571423Y-83056189D01*
X157537720Y-83225623D01*
X157537720Y-83398377D01*
X157571423Y-83567811D01*
X157637533Y-83727415D01*
X157733510Y-83871055D01*
X157855665Y-83993210D01*
X157999305Y-84089187D01*
X158158909Y-84155297D01*
X158328343Y-84189000D01*
X158501097Y-84189000D01*
X158670531Y-84155297D01*
X158830135Y-84089187D01*
X158973775Y-83993210D01*
X159095930Y-83871055D01*
X159191907Y-83727415D01*
X159258017Y-83567811D01*
X159291720Y-83398377D01*
X159291720Y-83225623D01*
X159258017Y-83056189D01*
X159191907Y-82896585D01*
X159095930Y-82752945D01*
X158974079Y-82631094D01*
X160399528Y-82628209D01*
X160395665Y-82630790D01*
X160273510Y-82752945D01*
X160177533Y-82896585D01*
X160111423Y-83056189D01*
X160077720Y-83225623D01*
X160077720Y-83398377D01*
X160111423Y-83567811D01*
X160177533Y-83727415D01*
X160273510Y-83871055D01*
X160395665Y-83993210D01*
X160438018Y-84021509D01*
X159955230Y-84021509D01*
X159793110Y-84037476D01*
X159637220Y-84084765D01*
X159493551Y-84161558D01*
X159367624Y-84264904D01*
X159264278Y-84390831D01*
X159187485Y-84534500D01*
X159140196Y-84690390D01*
X159135483Y-84738243D01*
X159043048Y-84676480D01*
X158801643Y-84576487D01*
X158545368Y-84525510D01*
X158284072Y-84525510D01*
X158027797Y-84576487D01*
X157786392Y-84676480D01*
X157569132Y-84821648D01*
X157384368Y-85006412D01*
X157239200Y-85223672D01*
X157144720Y-85451767D01*
X157050240Y-85223672D01*
X156905072Y-85006412D01*
X156720308Y-84821648D01*
X156503048Y-84676480D01*
X156261643Y-84576487D01*
X156005368Y-84525510D01*
X155744072Y-84525510D01*
X155487797Y-84576487D01*
X155246392Y-84676480D01*
X155029132Y-84821648D01*
X154844368Y-85006412D01*
X154699200Y-85223672D01*
X154599207Y-85465077D01*
X154548230Y-85721352D01*
X154548230Y-85982648D01*
X154599207Y-86238923D01*
X154699200Y-86480328D01*
X154844368Y-86697588D01*
X155029132Y-86882352D01*
X155246392Y-87027520D01*
X155487797Y-87127513D01*
X155744072Y-87178490D01*
X156005368Y-87178490D01*
X156261643Y-87127513D01*
X156503048Y-87027520D01*
X156720308Y-86882352D01*
X156905072Y-86697588D01*
X157050240Y-86480328D01*
X157144720Y-86252233D01*
X157239200Y-86480328D01*
X157384368Y-86697588D01*
X157569132Y-86882352D01*
X157786392Y-87027520D01*
X158027797Y-87127513D01*
X158284072Y-87178490D01*
X158545368Y-87178490D01*
X158801643Y-87127513D01*
X159043048Y-87027520D01*
X159135483Y-86965757D01*
X159140196Y-87013610D01*
X159187485Y-87169500D01*
X159264278Y-87313169D01*
X159367624Y-87439096D01*
X159493551Y-87542442D01*
X159637220Y-87619235D01*
X159793110Y-87666524D01*
X159955230Y-87682491D01*
X161954210Y-87682491D01*
X162116330Y-87666524D01*
X162272220Y-87619235D01*
X162415889Y-87542442D01*
X162541816Y-87439096D01*
X162645162Y-87313169D01*
X162716199Y-87180269D01*
X162827340Y-87346604D01*
X163158356Y-87677620D01*
X163547590Y-87937698D01*
X163980083Y-88116843D01*
X164439216Y-88208170D01*
X164907344Y-88208170D01*
X165366477Y-88116843D01*
X165553262Y-88039474D01*
X165684285Y-88109507D01*
X165943851Y-88188245D01*
X166213790Y-88214832D01*
X168212770Y-88214832D01*
X168482709Y-88188245D01*
X168742275Y-88109507D01*
X168981491Y-87981643D01*
X169191167Y-87809567D01*
X169363243Y-87599891D01*
X169491107Y-87360675D01*
X169569845Y-87101109D01*
X169596432Y-86831170D01*
X169596432Y-84832190D01*
X169569845Y-84562251D01*
X169491107Y-84302685D01*
X169363243Y-84063469D01*
X169191167Y-83853793D01*
X168981491Y-83681717D01*
X168742275Y-83553853D01*
X168482709Y-83475115D01*
X168212770Y-83448528D01*
X168076262Y-83448528D01*
X168090280Y-83378057D01*
X168090280Y-83205303D01*
X168056577Y-83035869D01*
X167990467Y-82876265D01*
X167894490Y-82732625D01*
X167775143Y-82613278D01*
X173812542Y-82601057D01*
X173888056Y-110591600D01*
G37*
X173888056Y-110591600D02*
X136524825Y-110591600D01*
X136521730Y-108342853D01*
X137257000Y-108342853D01*
X137257000Y-108623947D01*
X137311838Y-108899641D01*
X137419409Y-109159338D01*
X137575576Y-109393060D01*
X137774340Y-109591824D01*
X138008062Y-109747991D01*
X138267759Y-109855562D01*
X138543453Y-109910400D01*
X138824547Y-109910400D01*
X139100241Y-109855562D01*
X139359938Y-109747991D01*
X139593660Y-109591824D01*
X139792424Y-109393060D01*
X139948591Y-109159338D01*
X140056162Y-108899641D01*
X140111000Y-108623947D01*
X140111000Y-108393653D01*
X170277000Y-108393653D01*
X170277000Y-108674747D01*
X170331838Y-108950441D01*
X170439409Y-109210138D01*
X170595576Y-109443860D01*
X170794340Y-109642624D01*
X171028062Y-109798791D01*
X171287759Y-109906362D01*
X171563453Y-109961200D01*
X171844547Y-109961200D01*
X172120241Y-109906362D01*
X172379938Y-109798791D01*
X172613660Y-109642624D01*
X172812424Y-109443860D01*
X172968591Y-109210138D01*
X173076162Y-108950441D01*
X173131000Y-108674747D01*
X173131000Y-108393653D01*
X173076162Y-108117959D01*
X172968591Y-107858262D01*
X172812424Y-107624540D01*
X172613660Y-107425776D01*
X172379938Y-107269609D01*
X172120241Y-107162038D01*
X171844547Y-107107200D01*
X171563453Y-107107200D01*
X171287759Y-107162038D01*
X171028062Y-107269609D01*
X170794340Y-107425776D01*
X170595576Y-107624540D01*
X170439409Y-107858262D01*
X170331838Y-108117959D01*
X170277000Y-108393653D01*
X140111000Y-108393653D01*
X140111000Y-108342853D01*
X140056162Y-108067159D01*
X139948591Y-107807462D01*
X139792424Y-107573740D01*
X139593660Y-107374976D01*
X139359938Y-107218809D01*
X139100241Y-107111238D01*
X138824547Y-107056400D01*
X138543453Y-107056400D01*
X138267759Y-107111238D01*
X138008062Y-107218809D01*
X137774340Y-107374976D01*
X137575576Y-107573740D01*
X137419409Y-107807462D01*
X137311838Y-108067159D01*
X137257000Y-108342853D01*
X136521730Y-108342853D01*
X136506775Y-97478204D01*
X136645552Y-97685898D01*
X136886102Y-97926448D01*
X137168959Y-98115447D01*
X137483253Y-98245632D01*
X137816905Y-98312000D01*
X138157095Y-98312000D01*
X138490747Y-98245632D01*
X138805041Y-98115447D01*
X139087898Y-97926448D01*
X139127000Y-97887346D01*
X139127000Y-98511386D01*
X139123000Y-98552000D01*
X139127000Y-98592614D01*
X139127000Y-98592623D01*
X139138966Y-98714119D01*
X139186255Y-98870009D01*
X139186256Y-98870010D01*
X139263048Y-99013679D01*
X139314725Y-99076647D01*
X139366394Y-99139606D01*
X139397952Y-99165505D01*
X141429948Y-101197502D01*
X141524320Y-101274952D01*
X141667989Y-101351744D01*
X141823879Y-101399033D01*
X141986000Y-101415000D01*
X142148120Y-101399033D01*
X142304010Y-101351744D01*
X142447679Y-101274952D01*
X142573606Y-101171606D01*
X142676952Y-101045679D01*
X142753744Y-100902010D01*
X142801033Y-100746120D01*
X142817000Y-100584000D01*
X142801033Y-100421879D01*
X142753744Y-100265989D01*
X142676952Y-100122320D01*
X142599502Y-100027948D01*
X140781000Y-98209447D01*
X140781000Y-97839857D01*
X140968959Y-97965447D01*
X141283253Y-98095632D01*
X141616905Y-98162000D01*
X141957095Y-98162000D01*
X142290747Y-98095632D01*
X142605041Y-97965447D01*
X142887898Y-97776448D01*
X143128448Y-97535898D01*
X143317447Y-97253041D01*
X143447632Y-96938747D01*
X143514000Y-96605095D01*
X143514000Y-96264905D01*
X143447632Y-95931253D01*
X143317447Y-95616959D01*
X143128448Y-95334102D01*
X142887898Y-95093552D01*
X142605041Y-94904553D01*
X142290747Y-94774368D01*
X141957095Y-94708000D01*
X141616905Y-94708000D01*
X141315933Y-94767868D01*
X141301698Y-94746564D01*
X141200436Y-94645302D01*
X141081364Y-94565741D01*
X140949058Y-94510938D01*
X140808603Y-94483000D01*
X140665397Y-94483000D01*
X140524942Y-94510938D01*
X140392636Y-94565741D01*
X140273564Y-94645302D01*
X140273000Y-94645866D01*
X140273000Y-93685376D01*
X140261034Y-93563880D01*
X140213745Y-93407990D01*
X140136952Y-93264321D01*
X140033606Y-93138394D01*
X139907678Y-93035048D01*
X139764009Y-92958255D01*
X139608119Y-92910966D01*
X139476684Y-92898021D01*
X147158100Y-92898021D01*
X147158100Y-93029979D01*
X147183844Y-93159403D01*
X147234343Y-93281316D01*
X147307655Y-93391036D01*
X147400964Y-93484345D01*
X147510684Y-93557657D01*
X147632597Y-93608156D01*
X147762021Y-93633900D01*
X147766045Y-93633900D01*
X148714101Y-94581957D01*
X148730302Y-94601698D01*
X148809102Y-94666367D01*
X148886992Y-94708000D01*
X148899003Y-94714420D01*
X148996551Y-94744011D01*
X149097999Y-94754003D01*
X149123412Y-94751500D01*
X151462119Y-94751500D01*
X151464964Y-94754345D01*
X151574684Y-94827657D01*
X151696597Y-94878156D01*
X151826021Y-94903900D01*
X151957979Y-94903900D01*
X152087403Y-94878156D01*
X152209316Y-94827657D01*
X152319036Y-94754345D01*
X152412345Y-94661036D01*
X152485657Y-94551316D01*
X152536156Y-94429403D01*
X152561900Y-94299979D01*
X152561900Y-94168021D01*
X152536156Y-94038597D01*
X152485657Y-93916684D01*
X152483878Y-93914021D01*
X153254100Y-93914021D01*
X153254100Y-94045979D01*
X153279844Y-94175403D01*
X153330343Y-94297316D01*
X153403655Y-94407036D01*
X153496964Y-94500345D01*
X153606684Y-94573657D01*
X153728597Y-94624156D01*
X153858021Y-94649900D01*
X153989979Y-94649900D01*
X154119403Y-94624156D01*
X154241316Y-94573657D01*
X154351036Y-94500345D01*
X154444345Y-94407036D01*
X154517657Y-94297316D01*
X154568156Y-94175403D01*
X154593900Y-94045979D01*
X154593900Y-94041955D01*
X156170356Y-92465500D01*
X156288119Y-92465500D01*
X156290964Y-92468345D01*
X156400684Y-92541657D01*
X156522597Y-92592156D01*
X156652021Y-92617900D01*
X156783979Y-92617900D01*
X156913403Y-92592156D01*
X157035316Y-92541657D01*
X157145036Y-92468345D01*
X157238345Y-92375036D01*
X157311657Y-92265316D01*
X157362156Y-92143403D01*
X157387900Y-92013979D01*
X157387900Y-91882021D01*
X157362156Y-91752597D01*
X157311657Y-91630684D01*
X157238345Y-91520964D01*
X157145036Y-91427655D01*
X157035316Y-91354343D01*
X156913403Y-91303844D01*
X156783979Y-91278100D01*
X156652021Y-91278100D01*
X156522597Y-91303844D01*
X156400684Y-91354343D01*
X156290964Y-91427655D01*
X156288119Y-91430500D01*
X155981413Y-91430500D01*
X155956000Y-91427997D01*
X155930587Y-91430500D01*
X155854552Y-91437989D01*
X155757003Y-91467580D01*
X155667102Y-91515633D01*
X155588302Y-91580302D01*
X155572101Y-91600043D01*
X153862045Y-93310100D01*
X153858021Y-93310100D01*
X153728597Y-93335844D01*
X153606684Y-93386343D01*
X153496964Y-93459655D01*
X153403655Y-93552964D01*
X153330343Y-93662684D01*
X153279844Y-93784597D01*
X153254100Y-93914021D01*
X152483878Y-93914021D01*
X152412345Y-93806964D01*
X152319036Y-93713655D01*
X152209316Y-93640343D01*
X152087403Y-93589844D01*
X151957979Y-93564100D01*
X151826021Y-93564100D01*
X151696597Y-93589844D01*
X151574684Y-93640343D01*
X151464964Y-93713655D01*
X151462119Y-93716500D01*
X149312356Y-93716500D01*
X148497900Y-92902045D01*
X148497900Y-92898021D01*
X148472156Y-92768597D01*
X148421657Y-92646684D01*
X148348345Y-92536964D01*
X148255036Y-92443655D01*
X148145316Y-92370343D01*
X148023403Y-92319844D01*
X147893979Y-92294100D01*
X147762021Y-92294100D01*
X147632597Y-92319844D01*
X147510684Y-92370343D01*
X147400964Y-92443655D01*
X147307655Y-92536964D01*
X147234343Y-92646684D01*
X147183844Y-92768597D01*
X147158100Y-92898021D01*
X139476684Y-92898021D01*
X139446000Y-92894999D01*
X139283880Y-92910966D01*
X139127990Y-92958255D01*
X138984321Y-93035048D01*
X138858394Y-93138394D01*
X138755048Y-93264322D01*
X138678255Y-93407991D01*
X138630966Y-93563881D01*
X138619000Y-93685377D01*
X138619001Y-94977492D01*
X138490747Y-94924368D01*
X138157095Y-94858000D01*
X137816905Y-94858000D01*
X137483253Y-94924368D01*
X137168959Y-95054553D01*
X136886102Y-95243552D01*
X136645552Y-95484102D01*
X136504322Y-95695468D01*
X136498724Y-91628021D01*
X153254100Y-91628021D01*
X153254100Y-91759979D01*
X153279844Y-91889403D01*
X153330343Y-92011316D01*
X153403655Y-92121036D01*
X153496964Y-92214345D01*
X153606684Y-92287657D01*
X153728597Y-92338156D01*
X153858021Y-92363900D01*
X153989979Y-92363900D01*
X154119403Y-92338156D01*
X154241316Y-92287657D01*
X154351036Y-92214345D01*
X154444345Y-92121036D01*
X154517657Y-92011316D01*
X154568156Y-91889403D01*
X154593900Y-91759979D01*
X154593900Y-91687580D01*
X155301282Y-90768284D01*
X158481049Y-91014923D01*
X158558836Y-91013307D01*
X158605836Y-91002939D01*
X158660948Y-90997511D01*
X158758497Y-90967920D01*
X158848398Y-90919867D01*
X158927198Y-90855198D01*
X158943403Y-90835452D01*
X159573956Y-90204900D01*
X159577979Y-90204900D01*
X159707403Y-90179156D01*
X159829316Y-90128657D01*
X159939036Y-90055345D01*
X160032345Y-89962036D01*
X160105657Y-89852316D01*
X160156156Y-89730403D01*
X160181900Y-89600979D01*
X160181900Y-89469021D01*
X160156156Y-89339597D01*
X160105657Y-89217684D01*
X160032345Y-89107964D01*
X159939036Y-89014655D01*
X159829316Y-88941343D01*
X159707403Y-88890844D01*
X159577979Y-88865100D01*
X159446021Y-88865100D01*
X159316597Y-88890844D01*
X159194684Y-88941343D01*
X159084964Y-89014655D01*
X158991655Y-89107964D01*
X158918343Y-89217684D01*
X158867844Y-89339597D01*
X158842100Y-89469021D01*
X158842100Y-89473044D01*
X158366288Y-89948856D01*
X155121365Y-89697163D01*
X155092949Y-89692432D01*
X155043804Y-89693974D01*
X154994765Y-89694993D01*
X154992016Y-89695599D01*
X154989191Y-89695688D01*
X154941247Y-89706799D01*
X154893392Y-89717355D01*
X154890814Y-89718486D01*
X154888061Y-89719124D01*
X154843215Y-89739371D01*
X154798330Y-89759064D01*
X154796022Y-89760677D01*
X154793447Y-89761839D01*
X154753440Y-89790426D01*
X154713231Y-89818517D01*
X154711280Y-89820551D01*
X154708983Y-89822192D01*
X154675333Y-89858023D01*
X154641367Y-89893430D01*
X154625867Y-89917703D01*
X153759425Y-91043712D01*
X153728597Y-91049844D01*
X153606684Y-91100343D01*
X153496964Y-91173655D01*
X153403655Y-91266964D01*
X153330343Y-91376684D01*
X153279844Y-91498597D01*
X153254100Y-91628021D01*
X136498724Y-91628021D01*
X136496086Y-89712206D01*
X136645552Y-89935898D01*
X136886102Y-90176448D01*
X137168959Y-90365447D01*
X137483253Y-90495632D01*
X137816905Y-90562000D01*
X138157095Y-90562000D01*
X138490747Y-90495632D01*
X138805041Y-90365447D01*
X139087898Y-90176448D01*
X139125949Y-90138397D01*
X140010000Y-90138397D01*
X140010000Y-90281603D01*
X140037938Y-90422058D01*
X140092741Y-90554364D01*
X140172302Y-90673436D01*
X140273564Y-90774698D01*
X140392636Y-90854259D01*
X140524942Y-90909062D01*
X140665397Y-90937000D01*
X140808603Y-90937000D01*
X140949058Y-90909062D01*
X141081364Y-90854259D01*
X141200436Y-90774698D01*
X141301698Y-90673436D01*
X141318865Y-90647743D01*
X141641905Y-90712000D01*
X141982095Y-90712000D01*
X142315747Y-90645632D01*
X142630041Y-90515447D01*
X142912898Y-90326448D01*
X143153448Y-90085898D01*
X143251143Y-89939688D01*
X143347880Y-89969033D01*
X143510000Y-89985000D01*
X143672120Y-89969033D01*
X143828010Y-89921744D01*
X143971679Y-89844952D01*
X144066051Y-89767502D01*
X144340815Y-89492738D01*
X144391783Y-89444473D01*
X144421898Y-89401955D01*
X144454952Y-89361680D01*
X144468874Y-89335633D01*
X144485942Y-89311536D01*
X144507184Y-89263960D01*
X144531744Y-89218010D01*
X144552117Y-89150850D01*
X144780393Y-88466023D01*
X144785745Y-88456010D01*
X144806124Y-88388831D01*
X144815407Y-88360981D01*
X144817907Y-88349988D01*
X144833034Y-88300120D01*
X144835929Y-88270731D01*
X144842476Y-88241936D01*
X144843894Y-88189852D01*
X144845000Y-88178624D01*
X144845000Y-88149239D01*
X144846910Y-88079092D01*
X144845000Y-88067906D01*
X144845000Y-87564021D01*
X145126100Y-87564021D01*
X145126100Y-87695979D01*
X145151844Y-87825403D01*
X145202343Y-87947316D01*
X145275655Y-88057036D01*
X145368964Y-88150345D01*
X145478684Y-88223657D01*
X145600597Y-88274156D01*
X145730021Y-88299900D01*
X145734045Y-88299900D01*
X146464041Y-89029897D01*
X146464047Y-89029902D01*
X147920100Y-90485955D01*
X147920100Y-90489979D01*
X147945844Y-90619403D01*
X147996343Y-90741316D01*
X148069655Y-90851036D01*
X148162964Y-90944345D01*
X148272684Y-91017657D01*
X148394597Y-91068156D01*
X148524021Y-91093900D01*
X148655979Y-91093900D01*
X148785403Y-91068156D01*
X148907316Y-91017657D01*
X149017036Y-90944345D01*
X149110345Y-90851036D01*
X149183657Y-90741316D01*
X149234156Y-90619403D01*
X149259900Y-90489979D01*
X149259900Y-90358021D01*
X149234156Y-90228597D01*
X149183657Y-90106684D01*
X149110345Y-89996964D01*
X149017036Y-89903655D01*
X148907316Y-89830343D01*
X148785403Y-89779844D01*
X148655979Y-89754100D01*
X148651955Y-89754100D01*
X147195902Y-88298047D01*
X147195897Y-88298041D01*
X146465900Y-87568045D01*
X146465900Y-87564021D01*
X146440156Y-87434597D01*
X146389657Y-87312684D01*
X146316345Y-87202964D01*
X146223036Y-87109655D01*
X146113316Y-87036343D01*
X145991403Y-86985844D01*
X145861979Y-86960100D01*
X145730021Y-86960100D01*
X145600597Y-86985844D01*
X145478684Y-87036343D01*
X145368964Y-87109655D01*
X145275655Y-87202964D01*
X145202343Y-87312684D01*
X145151844Y-87434597D01*
X145126100Y-87564021D01*
X144845000Y-87564021D01*
X144845000Y-87464553D01*
X145376554Y-86933000D01*
X146469446Y-86933000D01*
X146960503Y-87424058D01*
X146986394Y-87455606D01*
X147017941Y-87481496D01*
X147017948Y-87481503D01*
X147112320Y-87558952D01*
X147177006Y-87593527D01*
X147255990Y-87635745D01*
X147411880Y-87683034D01*
X147533376Y-87695000D01*
X147533386Y-87695000D01*
X147574000Y-87699000D01*
X147614614Y-87695000D01*
X150664554Y-87695000D01*
X153192268Y-88715535D01*
X153224990Y-88733025D01*
X153267616Y-88745956D01*
X153271060Y-88747346D01*
X153306454Y-88757737D01*
X153380880Y-88780314D01*
X153384606Y-88780681D01*
X153388200Y-88781736D01*
X153465609Y-88788659D01*
X153502376Y-88792280D01*
X153506099Y-88792280D01*
X153550457Y-88796247D01*
X153587338Y-88792280D01*
X154950186Y-88792280D01*
X154990800Y-88796280D01*
X155031414Y-88792280D01*
X155031424Y-88792280D01*
X155152920Y-88780314D01*
X155308810Y-88733025D01*
X155402436Y-88682981D01*
X155452480Y-88656232D01*
X155578406Y-88552886D01*
X155681752Y-88426960D01*
X155732908Y-88331253D01*
X155758545Y-88283290D01*
X155805834Y-88127400D01*
X155821801Y-87965280D01*
X155805834Y-87803160D01*
X155758545Y-87647270D01*
X155681752Y-87503601D01*
X155669245Y-87488361D01*
X155604303Y-87409229D01*
X155604301Y-87409227D01*
X155578406Y-87377674D01*
X155570036Y-87370804D01*
X155563166Y-87362434D01*
X155437239Y-87259088D01*
X155293570Y-87182295D01*
X155137680Y-87135006D01*
X155016184Y-87123040D01*
X155016174Y-87123040D01*
X154975560Y-87119040D01*
X154934946Y-87123040D01*
X154889216Y-87123040D01*
X154767720Y-87135006D01*
X154756927Y-87138280D01*
X153703646Y-87138280D01*
X151175932Y-86117745D01*
X151143210Y-86100255D01*
X151100584Y-86087324D01*
X151097140Y-86085934D01*
X151061786Y-86075555D01*
X150987320Y-86052966D01*
X150983587Y-86052598D01*
X150979999Y-86051545D01*
X150902654Y-86044627D01*
X150865824Y-86041000D01*
X150862097Y-86041000D01*
X150817743Y-86037033D01*
X150780862Y-86041000D01*
X147916554Y-86041000D01*
X147425505Y-85549952D01*
X147399606Y-85518394D01*
X147273679Y-85415048D01*
X147130010Y-85338255D01*
X146974120Y-85290966D01*
X146852624Y-85279000D01*
X146852614Y-85279000D01*
X146812000Y-85275000D01*
X146771386Y-85279000D01*
X145074614Y-85279000D01*
X145034000Y-85275000D01*
X144993386Y-85279000D01*
X144993376Y-85279000D01*
X144871880Y-85290966D01*
X144715990Y-85338255D01*
X144649113Y-85374002D01*
X144572320Y-85415048D01*
X144477948Y-85492498D01*
X144446394Y-85518394D01*
X144420499Y-85549947D01*
X143461952Y-86508495D01*
X143430394Y-86534394D01*
X143404498Y-86565949D01*
X143327048Y-86660321D01*
X143298783Y-86713201D01*
X143250255Y-86803991D01*
X143202966Y-86959881D01*
X143191000Y-87081377D01*
X143191000Y-87081386D01*
X143187000Y-87122000D01*
X143191000Y-87162615D01*
X143191001Y-87940304D01*
X143153448Y-87884102D01*
X142912898Y-87643552D01*
X142630041Y-87454553D01*
X142315747Y-87324368D01*
X141982095Y-87258000D01*
X141641905Y-87258000D01*
X141308253Y-87324368D01*
X140993959Y-87454553D01*
X140711102Y-87643552D01*
X140470552Y-87884102D01*
X140281553Y-88166959D01*
X140151368Y-88481253D01*
X140085000Y-88814905D01*
X140085000Y-89155095D01*
X140151368Y-89488747D01*
X140233012Y-89685854D01*
X140172302Y-89746564D01*
X140092741Y-89865636D01*
X140037938Y-89997942D01*
X140010000Y-90138397D01*
X139125949Y-90138397D01*
X139328448Y-89935898D01*
X139517447Y-89653041D01*
X139647632Y-89338747D01*
X139714000Y-89005095D01*
X139714000Y-88664905D01*
X139647632Y-88331253D01*
X139517447Y-88016959D01*
X139328448Y-87734102D01*
X139087898Y-87493552D01*
X138805041Y-87304553D01*
X138490747Y-87174368D01*
X138157095Y-87108000D01*
X137816905Y-87108000D01*
X137483253Y-87174368D01*
X137168959Y-87304553D01*
X136886102Y-87493552D01*
X136645552Y-87734102D01*
X136493676Y-87961400D01*
X136486402Y-82676616D01*
X144224401Y-82660952D01*
X144160943Y-82755924D01*
X144110444Y-82877837D01*
X144084700Y-83007261D01*
X144084700Y-83139219D01*
X144110444Y-83268643D01*
X144160943Y-83390556D01*
X144234255Y-83500276D01*
X144327564Y-83593585D01*
X144437284Y-83666897D01*
X144559197Y-83717396D01*
X144676874Y-83740803D01*
X145501569Y-84565499D01*
X145518072Y-84585608D01*
X145598318Y-84651464D01*
X145689870Y-84700399D01*
X145789210Y-84730534D01*
X145892520Y-84740709D01*
X145918401Y-84738160D01*
X147543039Y-84738160D01*
X147568920Y-84740709D01*
X147594801Y-84738160D01*
X147672230Y-84730534D01*
X147771570Y-84700399D01*
X147863122Y-84651464D01*
X147943368Y-84585608D01*
X147959875Y-84565494D01*
X148015809Y-84509560D01*
X151373359Y-84509560D01*
X151399240Y-84512109D01*
X151425121Y-84509560D01*
X151502550Y-84501934D01*
X151601890Y-84471799D01*
X151693442Y-84422864D01*
X151773688Y-84357008D01*
X151790195Y-84336894D01*
X152091647Y-84035443D01*
X152209323Y-84012036D01*
X152331236Y-83961537D01*
X152440956Y-83888225D01*
X152534265Y-83794916D01*
X152607577Y-83685196D01*
X152658076Y-83563283D01*
X152683820Y-83433859D01*
X152683820Y-83301901D01*
X152658076Y-83172477D01*
X152607577Y-83050564D01*
X152534265Y-82940844D01*
X152440956Y-82847535D01*
X152331236Y-82774223D01*
X152209323Y-82723724D01*
X152079899Y-82697980D01*
X151947941Y-82697980D01*
X151818517Y-82723724D01*
X151696604Y-82774223D01*
X151586884Y-82847535D01*
X151493575Y-82940844D01*
X151420263Y-83050564D01*
X151369764Y-83172477D01*
X151346357Y-83290153D01*
X151180950Y-83455560D01*
X147823400Y-83455560D01*
X147797519Y-83453011D01*
X147694210Y-83463186D01*
X147594870Y-83493321D01*
X147503318Y-83542256D01*
X147423072Y-83608112D01*
X147406565Y-83628226D01*
X147350631Y-83684160D01*
X146110810Y-83684160D01*
X145422163Y-82995514D01*
X145398756Y-82877837D01*
X145348257Y-82755924D01*
X145283367Y-82658808D01*
X155307939Y-82638516D01*
X155193510Y-82752945D01*
X155097533Y-82896585D01*
X155031423Y-83056189D01*
X154997720Y-83225623D01*
X154997720Y-83398377D01*
X155031423Y-83567811D01*
X155097533Y-83727415D01*
X155193510Y-83871055D01*
X155315665Y-83993210D01*
X155459305Y-84089187D01*
X155618909Y-84155297D01*
X155788343Y-84189000D01*
X155961097Y-84189000D01*
X156130531Y-84155297D01*
X156290135Y-84089187D01*
X156433775Y-83993210D01*
X156555930Y-83871055D01*
X156651907Y-83727415D01*
X156718017Y-83567811D01*
X156751720Y-83398377D01*
X156751720Y-83225623D01*
X156718017Y-83056189D01*
X156651907Y-82896585D01*
X156555930Y-82752945D01*
X156439211Y-82636226D01*
X157853091Y-82633364D01*
X157733510Y-82752945D01*
X157637533Y-82896585D01*
X157571423Y-83056189D01*
X157537720Y-83225623D01*
X157537720Y-83398377D01*
X157571423Y-83567811D01*
X157637533Y-83727415D01*
X157733510Y-83871055D01*
X157855665Y-83993210D01*
X157999305Y-84089187D01*
X158158909Y-84155297D01*
X158328343Y-84189000D01*
X158501097Y-84189000D01*
X158670531Y-84155297D01*
X158830135Y-84089187D01*
X158973775Y-83993210D01*
X159095930Y-83871055D01*
X159191907Y-83727415D01*
X159258017Y-83567811D01*
X159291720Y-83398377D01*
X159291720Y-83225623D01*
X159258017Y-83056189D01*
X159191907Y-82896585D01*
X159095930Y-82752945D01*
X158974079Y-82631094D01*
X160399528Y-82628209D01*
X160395665Y-82630790D01*
X160273510Y-82752945D01*
X160177533Y-82896585D01*
X160111423Y-83056189D01*
X160077720Y-83225623D01*
X160077720Y-83398377D01*
X160111423Y-83567811D01*
X160177533Y-83727415D01*
X160273510Y-83871055D01*
X160395665Y-83993210D01*
X160438018Y-84021509D01*
X159955230Y-84021509D01*
X159793110Y-84037476D01*
X159637220Y-84084765D01*
X159493551Y-84161558D01*
X159367624Y-84264904D01*
X159264278Y-84390831D01*
X159187485Y-84534500D01*
X159140196Y-84690390D01*
X159135483Y-84738243D01*
X159043048Y-84676480D01*
X158801643Y-84576487D01*
X158545368Y-84525510D01*
X158284072Y-84525510D01*
X158027797Y-84576487D01*
X157786392Y-84676480D01*
X157569132Y-84821648D01*
X157384368Y-85006412D01*
X157239200Y-85223672D01*
X157144720Y-85451767D01*
X157050240Y-85223672D01*
X156905072Y-85006412D01*
X156720308Y-84821648D01*
X156503048Y-84676480D01*
X156261643Y-84576487D01*
X156005368Y-84525510D01*
X155744072Y-84525510D01*
X155487797Y-84576487D01*
X155246392Y-84676480D01*
X155029132Y-84821648D01*
X154844368Y-85006412D01*
X154699200Y-85223672D01*
X154599207Y-85465077D01*
X154548230Y-85721352D01*
X154548230Y-85982648D01*
X154599207Y-86238923D01*
X154699200Y-86480328D01*
X154844368Y-86697588D01*
X155029132Y-86882352D01*
X155246392Y-87027520D01*
X155487797Y-87127513D01*
X155744072Y-87178490D01*
X156005368Y-87178490D01*
X156261643Y-87127513D01*
X156503048Y-87027520D01*
X156720308Y-86882352D01*
X156905072Y-86697588D01*
X157050240Y-86480328D01*
X157144720Y-86252233D01*
X157239200Y-86480328D01*
X157384368Y-86697588D01*
X157569132Y-86882352D01*
X157786392Y-87027520D01*
X158027797Y-87127513D01*
X158284072Y-87178490D01*
X158545368Y-87178490D01*
X158801643Y-87127513D01*
X159043048Y-87027520D01*
X159135483Y-86965757D01*
X159140196Y-87013610D01*
X159187485Y-87169500D01*
X159264278Y-87313169D01*
X159367624Y-87439096D01*
X159493551Y-87542442D01*
X159637220Y-87619235D01*
X159793110Y-87666524D01*
X159955230Y-87682491D01*
X161954210Y-87682491D01*
X162116330Y-87666524D01*
X162272220Y-87619235D01*
X162415889Y-87542442D01*
X162541816Y-87439096D01*
X162645162Y-87313169D01*
X162716199Y-87180269D01*
X162827340Y-87346604D01*
X163158356Y-87677620D01*
X163547590Y-87937698D01*
X163980083Y-88116843D01*
X164439216Y-88208170D01*
X164907344Y-88208170D01*
X165366477Y-88116843D01*
X165553262Y-88039474D01*
X165684285Y-88109507D01*
X165943851Y-88188245D01*
X166213790Y-88214832D01*
X168212770Y-88214832D01*
X168482709Y-88188245D01*
X168742275Y-88109507D01*
X168981491Y-87981643D01*
X169191167Y-87809567D01*
X169363243Y-87599891D01*
X169491107Y-87360675D01*
X169569845Y-87101109D01*
X169596432Y-86831170D01*
X169596432Y-84832190D01*
X169569845Y-84562251D01*
X169491107Y-84302685D01*
X169363243Y-84063469D01*
X169191167Y-83853793D01*
X168981491Y-83681717D01*
X168742275Y-83553853D01*
X168482709Y-83475115D01*
X168212770Y-83448528D01*
X168076262Y-83448528D01*
X168090280Y-83378057D01*
X168090280Y-83205303D01*
X168056577Y-83035869D01*
X167990467Y-82876265D01*
X167894490Y-82732625D01*
X167775143Y-82613278D01*
X173812542Y-82601057D01*
X173888056Y-110591600D01*
G04 #@! TD*
M02*
