G04 #@! TF.FileFunction,Copper,L2,Bot,Signal*
%FSLAX46Y46*%
G04 Gerber Fmt 4.6, Leading zero omitted, Abs format (unit mm)*
G04 Created by KiCad (PCBNEW 4.0.7-e2-6376~60~ubuntu17.10.1) date Sun Feb  4 18:44:20 2018*
%MOMM*%
%LPD*%
G01*
G04 APERTURE LIST*
%ADD10C,0.100000*%
%ADD11C,1.800000*%
%ADD12C,4.400000*%
%ADD13O,1.998980X1.998980*%
%ADD14R,1.998980X1.998980*%
%ADD15C,0.685800*%
%ADD16C,1.500000*%
%ADD17C,0.381000*%
%ADD18C,1.000000*%
%ADD19C,0.400000*%
%ADD20C,0.254000*%
G04 APERTURE END LIST*
D10*
D11*
X141812000Y-88985000D03*
X141787000Y-96435000D03*
X137987000Y-88835000D03*
X137987000Y-96585000D03*
D12*
X171450000Y-85344000D03*
X138684000Y-85344000D03*
D13*
X159512000Y-85852000D03*
D14*
X167132000Y-85852000D03*
D13*
X164592000Y-85852000D03*
X162052000Y-85852000D03*
D15*
X150114000Y-83820000D03*
X140716000Y-103632000D03*
X144780000Y-89154000D03*
X146050000Y-83058000D03*
X142875000Y-83350100D03*
X162585400Y-92684600D03*
X162026600Y-91097100D03*
X158165800Y-89623900D03*
X154178000Y-96774000D03*
X163576000Y-98450400D03*
X167830500Y-92252800D03*
X171691300Y-97256600D03*
X172478700Y-97282000D03*
X173405800Y-101942900D03*
X172415200Y-101904800D03*
X169329100Y-107149900D03*
X145796000Y-87630000D03*
X148590000Y-90424000D03*
X156718000Y-91948000D03*
X153924000Y-93980000D03*
X141986000Y-100584000D03*
X139446000Y-93726000D03*
X143510000Y-89154000D03*
X152120600Y-85572600D03*
X152146000Y-83820000D03*
X156464000Y-85090000D03*
X159512000Y-89535000D03*
X153924000Y-91694000D03*
X151892000Y-94234000D03*
X147828000Y-92964000D03*
X148082000Y-85090000D03*
X157734000Y-87122000D03*
D16*
X171450000Y-85344000D02*
X171450000Y-89408000D01*
D17*
X150876000Y-84328000D02*
X150876000Y-84074000D01*
X150114000Y-83820000D02*
X150876000Y-84328000D01*
D16*
X141812000Y-88985000D02*
X141695080Y-88985000D01*
X141695080Y-88985000D02*
X140858240Y-88148160D01*
X141812000Y-88985000D02*
X141812000Y-87539840D01*
X141812000Y-87539840D02*
X141894560Y-87457280D01*
X141787000Y-96435000D02*
X141787000Y-96241480D01*
X141787000Y-96241480D02*
X142280640Y-95747840D01*
X142280640Y-95747840D02*
X142280640Y-95158560D01*
X137987000Y-96585000D02*
X137160000Y-95250000D01*
X137160000Y-95250000D02*
X137288040Y-95121960D01*
X137987000Y-88835000D02*
X137922000Y-90424000D01*
X137922000Y-90424000D02*
X138070360Y-90572360D01*
X138684000Y-85344000D02*
X142113000Y-85344000D01*
X142204440Y-85435440D02*
X142204440Y-85481160D01*
X142113000Y-85344000D02*
X142204440Y-85435440D01*
D17*
X144769840Y-89164160D02*
X144769840Y-89311480D01*
X144780000Y-89154000D02*
X144769840Y-89164160D01*
X146672300Y-83070700D02*
X146634200Y-83108800D01*
X146024600Y-83083400D02*
X146672300Y-83070700D01*
X146050000Y-83058000D02*
X146024600Y-83083400D01*
X142786100Y-83439000D02*
X142176500Y-83439000D01*
X142875000Y-83350100D02*
X142786100Y-83439000D01*
D18*
X164592000Y-85852000D02*
X164592000Y-83388200D01*
X164592000Y-83388200D02*
X164553900Y-83350100D01*
X164592000Y-85852000D02*
X164592000Y-88099900D01*
X164566600Y-88125300D02*
X164566600Y-88150700D01*
X164592000Y-88099900D02*
X164566600Y-88125300D01*
D17*
X162826700Y-92443300D02*
X162826700Y-92049600D01*
X162585400Y-92684600D02*
X162826700Y-92443300D01*
X162115500Y-91008200D02*
X162115500Y-90220800D01*
X162026600Y-91097100D02*
X162115500Y-91008200D01*
X158216600Y-89573100D02*
X158216600Y-89382600D01*
X158165800Y-89623900D02*
X158216600Y-89573100D01*
X154139900Y-96812100D02*
X154559000Y-96710500D01*
X154178000Y-96774000D02*
X154139900Y-96812100D01*
X163601400Y-98425000D02*
X163601400Y-97980500D01*
X163576000Y-98450400D02*
X163601400Y-98425000D01*
X167868600Y-92214700D02*
X167868600Y-91528900D01*
X167830500Y-92252800D02*
X167868600Y-92214700D01*
D18*
X172453300Y-97256600D02*
X171691300Y-97256600D01*
X172478700Y-97282000D02*
X172453300Y-97256600D01*
X172453300Y-101942900D02*
X173405800Y-101942900D01*
X172415200Y-101904800D02*
X172453300Y-101942900D01*
D17*
X169367200Y-107111800D02*
X169367200Y-106514900D01*
X169329100Y-107149900D02*
X169367200Y-107111800D01*
X146812000Y-88646000D02*
X145796000Y-87630000D01*
X148590000Y-90424000D02*
X146812000Y-88646000D01*
X155956000Y-91948000D02*
X156718000Y-91948000D01*
X153924000Y-93980000D02*
X155956000Y-91948000D01*
D18*
X139446000Y-93726000D02*
X139446000Y-95758000D01*
X139954000Y-96266000D02*
X139954000Y-96774000D01*
X141986000Y-100584000D02*
X139954000Y-98552000D01*
X139954000Y-98552000D02*
X139954000Y-96774000D01*
X139446000Y-95758000D02*
X139954000Y-96266000D01*
X143764000Y-88900000D02*
X143510000Y-89154000D01*
X148336000Y-86868000D02*
X147574000Y-86868000D01*
X150825200Y-86868000D02*
X152120600Y-85572600D01*
X148336000Y-86868000D02*
X150825200Y-86868000D01*
X144018000Y-87122000D02*
X144018000Y-88138000D01*
X145034000Y-86106000D02*
X144018000Y-87122000D01*
X146812000Y-86106000D02*
X145034000Y-86106000D01*
X147574000Y-86868000D02*
X146812000Y-86106000D01*
X144018000Y-88138000D02*
X143764000Y-88900000D01*
X155194000Y-83820000D02*
X152146000Y-83820000D01*
X156464000Y-85090000D02*
X155194000Y-83820000D01*
D17*
X158496000Y-90487500D02*
X158559500Y-90487500D01*
X158559500Y-90487500D02*
X159512000Y-89535000D01*
D19*
X153924000Y-91694000D02*
X155057600Y-90220800D01*
X155057600Y-90220800D02*
X158496000Y-90487500D01*
D17*
X149098000Y-94234000D02*
X151892000Y-94234000D01*
X147828000Y-92964000D02*
X149098000Y-94234000D01*
X149352000Y-82804000D02*
X156464000Y-82804000D01*
X148082000Y-85090000D02*
X148844000Y-84328000D01*
X148844000Y-84328000D02*
X148844000Y-83312000D01*
X148844000Y-83312000D02*
X149352000Y-82804000D01*
X157734000Y-84074000D02*
X157734000Y-87122000D01*
X156464000Y-82804000D02*
X157734000Y-84074000D01*
D20*
G36*
X148478072Y-82946072D02*
X148365892Y-83113961D01*
X148326500Y-83312000D01*
X148326500Y-84113644D01*
X148020098Y-84420046D01*
X147949333Y-84419984D01*
X147703028Y-84521755D01*
X147514418Y-84710037D01*
X147412217Y-84956164D01*
X147411984Y-85222667D01*
X147513755Y-85468972D01*
X147702037Y-85657582D01*
X147948164Y-85759783D01*
X148214667Y-85760016D01*
X148460972Y-85658245D01*
X148649582Y-85469963D01*
X148751783Y-85223836D01*
X148751846Y-85152010D01*
X149209928Y-84693928D01*
X149322108Y-84526039D01*
X149361501Y-84328000D01*
X149361500Y-84327995D01*
X149361500Y-83526356D01*
X149566355Y-83321500D01*
X151503575Y-83321500D01*
X151381952Y-83503521D01*
X151319000Y-83820000D01*
X151381952Y-84136479D01*
X151561223Y-84404777D01*
X151829521Y-84584048D01*
X152146000Y-84647000D01*
X154851446Y-84647000D01*
X155879223Y-85674777D01*
X156147521Y-85854048D01*
X156464000Y-85916999D01*
X156780479Y-85854048D01*
X157048777Y-85674777D01*
X157216500Y-85423762D01*
X157216500Y-86692042D01*
X157166418Y-86742037D01*
X157064217Y-86988164D01*
X157063984Y-87254667D01*
X157165755Y-87500972D01*
X157354037Y-87689582D01*
X157600164Y-87791783D01*
X157866667Y-87792016D01*
X158112972Y-87690245D01*
X158301582Y-87501963D01*
X158403783Y-87255836D01*
X158404016Y-86989333D01*
X158302245Y-86743028D01*
X158251500Y-86692195D01*
X158251500Y-86314400D01*
X158260496Y-86359626D01*
X158548043Y-86789970D01*
X158978387Y-87077517D01*
X159486013Y-87178490D01*
X159537987Y-87178490D01*
X160045613Y-87077517D01*
X160475957Y-86789970D01*
X160763504Y-86359626D01*
X160782000Y-86266640D01*
X160800496Y-86359626D01*
X161088043Y-86789970D01*
X161518387Y-87077517D01*
X162026013Y-87178490D01*
X162077987Y-87178490D01*
X162585613Y-87077517D01*
X163015957Y-86789970D01*
X163098354Y-86666654D01*
X163356984Y-87053721D01*
X163908338Y-87422124D01*
X164558705Y-87551490D01*
X164625295Y-87551490D01*
X165275662Y-87422124D01*
X165329560Y-87386111D01*
X165427093Y-87537681D01*
X165749636Y-87758065D01*
X166132510Y-87835599D01*
X168131490Y-87835599D01*
X168489172Y-87768297D01*
X168817681Y-87556907D01*
X169038065Y-87234364D01*
X169072023Y-87066673D01*
X169805137Y-87801067D01*
X170870624Y-88243495D01*
X172024315Y-88244502D01*
X173090572Y-87803934D01*
X173824602Y-87071184D01*
X173888056Y-110591600D01*
X136524825Y-110591600D01*
X136522313Y-108766003D01*
X137256752Y-108766003D01*
X137473543Y-109290675D01*
X137874614Y-109692447D01*
X138398907Y-109910152D01*
X138966603Y-109910648D01*
X139491275Y-109693857D01*
X139893047Y-109292786D01*
X140090691Y-108816803D01*
X170276752Y-108816803D01*
X170493543Y-109341475D01*
X170894614Y-109743247D01*
X171418907Y-109960952D01*
X171986603Y-109961448D01*
X172511275Y-109744657D01*
X172913047Y-109343586D01*
X173130752Y-108819293D01*
X173131248Y-108251597D01*
X172914457Y-107726925D01*
X172513386Y-107325153D01*
X171989093Y-107107448D01*
X171421397Y-107106952D01*
X170896725Y-107323743D01*
X170494953Y-107724814D01*
X170277248Y-108249107D01*
X170276752Y-108816803D01*
X140090691Y-108816803D01*
X140110752Y-108768493D01*
X140111248Y-108200797D01*
X139894457Y-107676125D01*
X139493386Y-107274353D01*
X138969093Y-107056648D01*
X138401397Y-107056152D01*
X137876725Y-107272943D01*
X137474953Y-107674014D01*
X137257248Y-108198307D01*
X137256752Y-108766003D01*
X136522313Y-108766003D01*
X136506381Y-97191457D01*
X136629795Y-97490143D01*
X137079489Y-97940623D01*
X137667344Y-98184722D01*
X138303863Y-98185277D01*
X138892143Y-97942205D01*
X139127000Y-97707758D01*
X139127000Y-98552000D01*
X139189952Y-98868479D01*
X139369223Y-99136777D01*
X141401223Y-101168777D01*
X141669521Y-101348048D01*
X141986000Y-101411000D01*
X142302479Y-101348048D01*
X142570777Y-101168777D01*
X142750048Y-100900479D01*
X142813000Y-100584000D01*
X142750048Y-100267521D01*
X142570777Y-99999223D01*
X140781000Y-98209446D01*
X140781000Y-97691962D01*
X140879489Y-97790623D01*
X141467344Y-98034722D01*
X142103863Y-98035277D01*
X142692143Y-97792205D01*
X143142623Y-97342511D01*
X143386722Y-96754656D01*
X143387277Y-96118137D01*
X143144205Y-95529857D01*
X142694511Y-95079377D01*
X142106656Y-94835278D01*
X141470137Y-94834723D01*
X141383368Y-94870575D01*
X141353680Y-94798725D01*
X141149350Y-94594039D01*
X140882244Y-94483126D01*
X140593025Y-94482874D01*
X140325725Y-94593320D01*
X140273000Y-94645953D01*
X140273000Y-93726000D01*
X140210048Y-93409521D01*
X140030777Y-93141223D01*
X139964095Y-93096667D01*
X147157984Y-93096667D01*
X147259755Y-93342972D01*
X147448037Y-93531582D01*
X147694164Y-93633783D01*
X147765990Y-93633846D01*
X148732072Y-94599928D01*
X148899961Y-94712108D01*
X149098000Y-94751500D01*
X151462042Y-94751500D01*
X151512037Y-94801582D01*
X151758164Y-94903783D01*
X152024667Y-94904016D01*
X152270972Y-94802245D01*
X152459582Y-94613963D01*
X152561783Y-94367836D01*
X152562006Y-94112667D01*
X153253984Y-94112667D01*
X153355755Y-94358972D01*
X153544037Y-94547582D01*
X153790164Y-94649783D01*
X154056667Y-94650016D01*
X154302972Y-94548245D01*
X154491582Y-94359963D01*
X154593783Y-94113836D01*
X154593846Y-94042010D01*
X156170356Y-92465500D01*
X156288042Y-92465500D01*
X156338037Y-92515582D01*
X156584164Y-92617783D01*
X156850667Y-92618016D01*
X157096972Y-92516245D01*
X157285582Y-92327963D01*
X157387783Y-92081836D01*
X157388016Y-91815333D01*
X157286245Y-91569028D01*
X157097963Y-91380418D01*
X156851836Y-91278217D01*
X156585333Y-91277984D01*
X156339028Y-91379755D01*
X156288195Y-91430500D01*
X155956000Y-91430500D01*
X155757961Y-91469892D01*
X155590072Y-91582072D01*
X153862098Y-93310046D01*
X153791333Y-93309984D01*
X153545028Y-93411755D01*
X153356418Y-93600037D01*
X153254217Y-93846164D01*
X153253984Y-94112667D01*
X152562006Y-94112667D01*
X152562016Y-94101333D01*
X152460245Y-93855028D01*
X152271963Y-93666418D01*
X152025836Y-93564217D01*
X151759333Y-93563984D01*
X151513028Y-93665755D01*
X151462195Y-93716500D01*
X149312356Y-93716500D01*
X148497954Y-92902098D01*
X148498016Y-92831333D01*
X148396245Y-92585028D01*
X148207963Y-92396418D01*
X147961836Y-92294217D01*
X147695333Y-92293984D01*
X147449028Y-92395755D01*
X147260418Y-92584037D01*
X147158217Y-92830164D01*
X147157984Y-93096667D01*
X139964095Y-93096667D01*
X139762479Y-92961952D01*
X139446000Y-92899000D01*
X139129521Y-92961952D01*
X138861223Y-93141223D01*
X138681952Y-93409521D01*
X138619000Y-93726000D01*
X138619000Y-95114975D01*
X138306656Y-94985278D01*
X137670137Y-94984723D01*
X137081857Y-95227795D01*
X136631377Y-95677489D01*
X136504717Y-95982521D01*
X136498997Y-91826667D01*
X153253984Y-91826667D01*
X153355755Y-92072972D01*
X153544037Y-92261582D01*
X153790164Y-92363783D01*
X154056667Y-92364016D01*
X154302972Y-92262245D01*
X154491582Y-92073963D01*
X154593783Y-91827836D01*
X154593906Y-91687573D01*
X155301281Y-90768284D01*
X158455246Y-91012922D01*
X158521538Y-91005000D01*
X158559500Y-91005000D01*
X158616630Y-90993636D01*
X158659418Y-90988523D01*
X158668788Y-90983261D01*
X158757539Y-90965608D01*
X158925428Y-90853428D01*
X159573901Y-90204954D01*
X159644667Y-90205016D01*
X159890972Y-90103245D01*
X160079582Y-89914963D01*
X160181783Y-89668836D01*
X160182016Y-89402333D01*
X160080245Y-89156028D01*
X159891963Y-88967418D01*
X159645836Y-88865217D01*
X159379333Y-88864984D01*
X159133028Y-88966755D01*
X158944418Y-89155037D01*
X158842217Y-89401164D01*
X158842154Y-89472990D01*
X158366288Y-89948856D01*
X155098354Y-89695378D01*
X155044068Y-89701865D01*
X154989521Y-89698216D01*
X154942974Y-89713946D01*
X154894182Y-89719777D01*
X154846511Y-89746545D01*
X154794718Y-89764048D01*
X154757731Y-89796397D01*
X154714889Y-89820453D01*
X154681091Y-89863425D01*
X154639938Y-89899417D01*
X153766807Y-91034118D01*
X153545028Y-91125755D01*
X153356418Y-91314037D01*
X153254217Y-91560164D01*
X153253984Y-91826667D01*
X136498997Y-91826667D01*
X136495678Y-89415554D01*
X136629795Y-89740143D01*
X137079489Y-90190623D01*
X137667344Y-90434722D01*
X138303863Y-90435277D01*
X138500629Y-90353975D01*
X140009874Y-90353975D01*
X140120320Y-90621275D01*
X140324650Y-90825961D01*
X140591756Y-90936874D01*
X140880975Y-90937126D01*
X141148275Y-90826680D01*
X141352961Y-90622350D01*
X141386786Y-90540891D01*
X141492344Y-90584722D01*
X142128863Y-90585277D01*
X142717143Y-90342205D01*
X143162683Y-89897443D01*
X143193521Y-89918048D01*
X143510000Y-89981000D01*
X143826479Y-89918048D01*
X144094777Y-89738777D01*
X144348777Y-89484777D01*
X144365285Y-89460071D01*
X144388760Y-89441852D01*
X144454406Y-89326692D01*
X144528048Y-89216479D01*
X144533845Y-89187336D01*
X144548561Y-89161520D01*
X144802561Y-88399520D01*
X144819139Y-88268009D01*
X144845000Y-88138000D01*
X144845000Y-87762667D01*
X145125984Y-87762667D01*
X145227755Y-88008972D01*
X145416037Y-88197582D01*
X145662164Y-88299783D01*
X145733990Y-88299846D01*
X147920046Y-90485902D01*
X147919984Y-90556667D01*
X148021755Y-90802972D01*
X148210037Y-90991582D01*
X148456164Y-91093783D01*
X148722667Y-91094016D01*
X148968972Y-90992245D01*
X149157582Y-90803963D01*
X149259783Y-90557836D01*
X149260016Y-90291333D01*
X149158245Y-90045028D01*
X148969963Y-89856418D01*
X148723836Y-89754217D01*
X148652010Y-89754154D01*
X146465954Y-87568098D01*
X146466016Y-87497333D01*
X146364245Y-87251028D01*
X146175963Y-87062418D01*
X145929836Y-86960217D01*
X145663333Y-86959984D01*
X145417028Y-87061755D01*
X145228418Y-87250037D01*
X145126217Y-87496164D01*
X145125984Y-87762667D01*
X144845000Y-87762667D01*
X144845000Y-87464554D01*
X145376554Y-86933000D01*
X146469446Y-86933000D01*
X146989223Y-87452777D01*
X147257521Y-87632048D01*
X147574000Y-87695000D01*
X150825200Y-87695000D01*
X151141679Y-87632048D01*
X151409977Y-87452777D01*
X152705377Y-86157377D01*
X152884648Y-85889079D01*
X152947599Y-85572600D01*
X152884648Y-85256121D01*
X152705377Y-84987823D01*
X152437079Y-84808552D01*
X152120600Y-84745601D01*
X151804121Y-84808552D01*
X151535823Y-84987823D01*
X150482646Y-86041000D01*
X147916554Y-86041000D01*
X147396777Y-85521223D01*
X147128479Y-85341952D01*
X146812000Y-85279000D01*
X145034000Y-85279000D01*
X144717521Y-85341952D01*
X144449223Y-85521223D01*
X143433223Y-86537223D01*
X143253952Y-86805521D01*
X143191000Y-87122000D01*
X143191000Y-88003796D01*
X143166537Y-88077185D01*
X142719511Y-87629377D01*
X142131656Y-87385278D01*
X141495137Y-87384723D01*
X140906857Y-87627795D01*
X140456377Y-88077489D01*
X140212278Y-88665344D01*
X140211723Y-89301863D01*
X140331213Y-89591052D01*
X140325725Y-89593320D01*
X140121039Y-89797650D01*
X140010126Y-90064756D01*
X140009874Y-90353975D01*
X138500629Y-90353975D01*
X138892143Y-90192205D01*
X139342623Y-89742511D01*
X139586722Y-89154656D01*
X139587277Y-88518137D01*
X139442729Y-88168304D01*
X140324572Y-87803934D01*
X141141067Y-86988863D01*
X141583495Y-85923376D01*
X141584502Y-84769685D01*
X141143934Y-83703428D01*
X140328863Y-82886933D01*
X139806178Y-82669896D01*
X148772399Y-82651746D01*
X148478072Y-82946072D01*
X148478072Y-82946072D01*
G37*
X148478072Y-82946072D02*
X148365892Y-83113961D01*
X148326500Y-83312000D01*
X148326500Y-84113644D01*
X148020098Y-84420046D01*
X147949333Y-84419984D01*
X147703028Y-84521755D01*
X147514418Y-84710037D01*
X147412217Y-84956164D01*
X147411984Y-85222667D01*
X147513755Y-85468972D01*
X147702037Y-85657582D01*
X147948164Y-85759783D01*
X148214667Y-85760016D01*
X148460972Y-85658245D01*
X148649582Y-85469963D01*
X148751783Y-85223836D01*
X148751846Y-85152010D01*
X149209928Y-84693928D01*
X149322108Y-84526039D01*
X149361501Y-84328000D01*
X149361500Y-84327995D01*
X149361500Y-83526356D01*
X149566355Y-83321500D01*
X151503575Y-83321500D01*
X151381952Y-83503521D01*
X151319000Y-83820000D01*
X151381952Y-84136479D01*
X151561223Y-84404777D01*
X151829521Y-84584048D01*
X152146000Y-84647000D01*
X154851446Y-84647000D01*
X155879223Y-85674777D01*
X156147521Y-85854048D01*
X156464000Y-85916999D01*
X156780479Y-85854048D01*
X157048777Y-85674777D01*
X157216500Y-85423762D01*
X157216500Y-86692042D01*
X157166418Y-86742037D01*
X157064217Y-86988164D01*
X157063984Y-87254667D01*
X157165755Y-87500972D01*
X157354037Y-87689582D01*
X157600164Y-87791783D01*
X157866667Y-87792016D01*
X158112972Y-87690245D01*
X158301582Y-87501963D01*
X158403783Y-87255836D01*
X158404016Y-86989333D01*
X158302245Y-86743028D01*
X158251500Y-86692195D01*
X158251500Y-86314400D01*
X158260496Y-86359626D01*
X158548043Y-86789970D01*
X158978387Y-87077517D01*
X159486013Y-87178490D01*
X159537987Y-87178490D01*
X160045613Y-87077517D01*
X160475957Y-86789970D01*
X160763504Y-86359626D01*
X160782000Y-86266640D01*
X160800496Y-86359626D01*
X161088043Y-86789970D01*
X161518387Y-87077517D01*
X162026013Y-87178490D01*
X162077987Y-87178490D01*
X162585613Y-87077517D01*
X163015957Y-86789970D01*
X163098354Y-86666654D01*
X163356984Y-87053721D01*
X163908338Y-87422124D01*
X164558705Y-87551490D01*
X164625295Y-87551490D01*
X165275662Y-87422124D01*
X165329560Y-87386111D01*
X165427093Y-87537681D01*
X165749636Y-87758065D01*
X166132510Y-87835599D01*
X168131490Y-87835599D01*
X168489172Y-87768297D01*
X168817681Y-87556907D01*
X169038065Y-87234364D01*
X169072023Y-87066673D01*
X169805137Y-87801067D01*
X170870624Y-88243495D01*
X172024315Y-88244502D01*
X173090572Y-87803934D01*
X173824602Y-87071184D01*
X173888056Y-110591600D01*
X136524825Y-110591600D01*
X136522313Y-108766003D01*
X137256752Y-108766003D01*
X137473543Y-109290675D01*
X137874614Y-109692447D01*
X138398907Y-109910152D01*
X138966603Y-109910648D01*
X139491275Y-109693857D01*
X139893047Y-109292786D01*
X140090691Y-108816803D01*
X170276752Y-108816803D01*
X170493543Y-109341475D01*
X170894614Y-109743247D01*
X171418907Y-109960952D01*
X171986603Y-109961448D01*
X172511275Y-109744657D01*
X172913047Y-109343586D01*
X173130752Y-108819293D01*
X173131248Y-108251597D01*
X172914457Y-107726925D01*
X172513386Y-107325153D01*
X171989093Y-107107448D01*
X171421397Y-107106952D01*
X170896725Y-107323743D01*
X170494953Y-107724814D01*
X170277248Y-108249107D01*
X170276752Y-108816803D01*
X140090691Y-108816803D01*
X140110752Y-108768493D01*
X140111248Y-108200797D01*
X139894457Y-107676125D01*
X139493386Y-107274353D01*
X138969093Y-107056648D01*
X138401397Y-107056152D01*
X137876725Y-107272943D01*
X137474953Y-107674014D01*
X137257248Y-108198307D01*
X137256752Y-108766003D01*
X136522313Y-108766003D01*
X136506381Y-97191457D01*
X136629795Y-97490143D01*
X137079489Y-97940623D01*
X137667344Y-98184722D01*
X138303863Y-98185277D01*
X138892143Y-97942205D01*
X139127000Y-97707758D01*
X139127000Y-98552000D01*
X139189952Y-98868479D01*
X139369223Y-99136777D01*
X141401223Y-101168777D01*
X141669521Y-101348048D01*
X141986000Y-101411000D01*
X142302479Y-101348048D01*
X142570777Y-101168777D01*
X142750048Y-100900479D01*
X142813000Y-100584000D01*
X142750048Y-100267521D01*
X142570777Y-99999223D01*
X140781000Y-98209446D01*
X140781000Y-97691962D01*
X140879489Y-97790623D01*
X141467344Y-98034722D01*
X142103863Y-98035277D01*
X142692143Y-97792205D01*
X143142623Y-97342511D01*
X143386722Y-96754656D01*
X143387277Y-96118137D01*
X143144205Y-95529857D01*
X142694511Y-95079377D01*
X142106656Y-94835278D01*
X141470137Y-94834723D01*
X141383368Y-94870575D01*
X141353680Y-94798725D01*
X141149350Y-94594039D01*
X140882244Y-94483126D01*
X140593025Y-94482874D01*
X140325725Y-94593320D01*
X140273000Y-94645953D01*
X140273000Y-93726000D01*
X140210048Y-93409521D01*
X140030777Y-93141223D01*
X139964095Y-93096667D01*
X147157984Y-93096667D01*
X147259755Y-93342972D01*
X147448037Y-93531582D01*
X147694164Y-93633783D01*
X147765990Y-93633846D01*
X148732072Y-94599928D01*
X148899961Y-94712108D01*
X149098000Y-94751500D01*
X151462042Y-94751500D01*
X151512037Y-94801582D01*
X151758164Y-94903783D01*
X152024667Y-94904016D01*
X152270972Y-94802245D01*
X152459582Y-94613963D01*
X152561783Y-94367836D01*
X152562006Y-94112667D01*
X153253984Y-94112667D01*
X153355755Y-94358972D01*
X153544037Y-94547582D01*
X153790164Y-94649783D01*
X154056667Y-94650016D01*
X154302972Y-94548245D01*
X154491582Y-94359963D01*
X154593783Y-94113836D01*
X154593846Y-94042010D01*
X156170356Y-92465500D01*
X156288042Y-92465500D01*
X156338037Y-92515582D01*
X156584164Y-92617783D01*
X156850667Y-92618016D01*
X157096972Y-92516245D01*
X157285582Y-92327963D01*
X157387783Y-92081836D01*
X157388016Y-91815333D01*
X157286245Y-91569028D01*
X157097963Y-91380418D01*
X156851836Y-91278217D01*
X156585333Y-91277984D01*
X156339028Y-91379755D01*
X156288195Y-91430500D01*
X155956000Y-91430500D01*
X155757961Y-91469892D01*
X155590072Y-91582072D01*
X153862098Y-93310046D01*
X153791333Y-93309984D01*
X153545028Y-93411755D01*
X153356418Y-93600037D01*
X153254217Y-93846164D01*
X153253984Y-94112667D01*
X152562006Y-94112667D01*
X152562016Y-94101333D01*
X152460245Y-93855028D01*
X152271963Y-93666418D01*
X152025836Y-93564217D01*
X151759333Y-93563984D01*
X151513028Y-93665755D01*
X151462195Y-93716500D01*
X149312356Y-93716500D01*
X148497954Y-92902098D01*
X148498016Y-92831333D01*
X148396245Y-92585028D01*
X148207963Y-92396418D01*
X147961836Y-92294217D01*
X147695333Y-92293984D01*
X147449028Y-92395755D01*
X147260418Y-92584037D01*
X147158217Y-92830164D01*
X147157984Y-93096667D01*
X139964095Y-93096667D01*
X139762479Y-92961952D01*
X139446000Y-92899000D01*
X139129521Y-92961952D01*
X138861223Y-93141223D01*
X138681952Y-93409521D01*
X138619000Y-93726000D01*
X138619000Y-95114975D01*
X138306656Y-94985278D01*
X137670137Y-94984723D01*
X137081857Y-95227795D01*
X136631377Y-95677489D01*
X136504717Y-95982521D01*
X136498997Y-91826667D01*
X153253984Y-91826667D01*
X153355755Y-92072972D01*
X153544037Y-92261582D01*
X153790164Y-92363783D01*
X154056667Y-92364016D01*
X154302972Y-92262245D01*
X154491582Y-92073963D01*
X154593783Y-91827836D01*
X154593906Y-91687573D01*
X155301281Y-90768284D01*
X158455246Y-91012922D01*
X158521538Y-91005000D01*
X158559500Y-91005000D01*
X158616630Y-90993636D01*
X158659418Y-90988523D01*
X158668788Y-90983261D01*
X158757539Y-90965608D01*
X158925428Y-90853428D01*
X159573901Y-90204954D01*
X159644667Y-90205016D01*
X159890972Y-90103245D01*
X160079582Y-89914963D01*
X160181783Y-89668836D01*
X160182016Y-89402333D01*
X160080245Y-89156028D01*
X159891963Y-88967418D01*
X159645836Y-88865217D01*
X159379333Y-88864984D01*
X159133028Y-88966755D01*
X158944418Y-89155037D01*
X158842217Y-89401164D01*
X158842154Y-89472990D01*
X158366288Y-89948856D01*
X155098354Y-89695378D01*
X155044068Y-89701865D01*
X154989521Y-89698216D01*
X154942974Y-89713946D01*
X154894182Y-89719777D01*
X154846511Y-89746545D01*
X154794718Y-89764048D01*
X154757731Y-89796397D01*
X154714889Y-89820453D01*
X154681091Y-89863425D01*
X154639938Y-89899417D01*
X153766807Y-91034118D01*
X153545028Y-91125755D01*
X153356418Y-91314037D01*
X153254217Y-91560164D01*
X153253984Y-91826667D01*
X136498997Y-91826667D01*
X136495678Y-89415554D01*
X136629795Y-89740143D01*
X137079489Y-90190623D01*
X137667344Y-90434722D01*
X138303863Y-90435277D01*
X138500629Y-90353975D01*
X140009874Y-90353975D01*
X140120320Y-90621275D01*
X140324650Y-90825961D01*
X140591756Y-90936874D01*
X140880975Y-90937126D01*
X141148275Y-90826680D01*
X141352961Y-90622350D01*
X141386786Y-90540891D01*
X141492344Y-90584722D01*
X142128863Y-90585277D01*
X142717143Y-90342205D01*
X143162683Y-89897443D01*
X143193521Y-89918048D01*
X143510000Y-89981000D01*
X143826479Y-89918048D01*
X144094777Y-89738777D01*
X144348777Y-89484777D01*
X144365285Y-89460071D01*
X144388760Y-89441852D01*
X144454406Y-89326692D01*
X144528048Y-89216479D01*
X144533845Y-89187336D01*
X144548561Y-89161520D01*
X144802561Y-88399520D01*
X144819139Y-88268009D01*
X144845000Y-88138000D01*
X144845000Y-87762667D01*
X145125984Y-87762667D01*
X145227755Y-88008972D01*
X145416037Y-88197582D01*
X145662164Y-88299783D01*
X145733990Y-88299846D01*
X147920046Y-90485902D01*
X147919984Y-90556667D01*
X148021755Y-90802972D01*
X148210037Y-90991582D01*
X148456164Y-91093783D01*
X148722667Y-91094016D01*
X148968972Y-90992245D01*
X149157582Y-90803963D01*
X149259783Y-90557836D01*
X149260016Y-90291333D01*
X149158245Y-90045028D01*
X148969963Y-89856418D01*
X148723836Y-89754217D01*
X148652010Y-89754154D01*
X146465954Y-87568098D01*
X146466016Y-87497333D01*
X146364245Y-87251028D01*
X146175963Y-87062418D01*
X145929836Y-86960217D01*
X145663333Y-86959984D01*
X145417028Y-87061755D01*
X145228418Y-87250037D01*
X145126217Y-87496164D01*
X145125984Y-87762667D01*
X144845000Y-87762667D01*
X144845000Y-87464554D01*
X145376554Y-86933000D01*
X146469446Y-86933000D01*
X146989223Y-87452777D01*
X147257521Y-87632048D01*
X147574000Y-87695000D01*
X150825200Y-87695000D01*
X151141679Y-87632048D01*
X151409977Y-87452777D01*
X152705377Y-86157377D01*
X152884648Y-85889079D01*
X152947599Y-85572600D01*
X152884648Y-85256121D01*
X152705377Y-84987823D01*
X152437079Y-84808552D01*
X152120600Y-84745601D01*
X151804121Y-84808552D01*
X151535823Y-84987823D01*
X150482646Y-86041000D01*
X147916554Y-86041000D01*
X147396777Y-85521223D01*
X147128479Y-85341952D01*
X146812000Y-85279000D01*
X145034000Y-85279000D01*
X144717521Y-85341952D01*
X144449223Y-85521223D01*
X143433223Y-86537223D01*
X143253952Y-86805521D01*
X143191000Y-87122000D01*
X143191000Y-88003796D01*
X143166537Y-88077185D01*
X142719511Y-87629377D01*
X142131656Y-87385278D01*
X141495137Y-87384723D01*
X140906857Y-87627795D01*
X140456377Y-88077489D01*
X140212278Y-88665344D01*
X140211723Y-89301863D01*
X140331213Y-89591052D01*
X140325725Y-89593320D01*
X140121039Y-89797650D01*
X140010126Y-90064756D01*
X140009874Y-90353975D01*
X138500629Y-90353975D01*
X138892143Y-90192205D01*
X139342623Y-89742511D01*
X139586722Y-89154656D01*
X139587277Y-88518137D01*
X139442729Y-88168304D01*
X140324572Y-87803934D01*
X141141067Y-86988863D01*
X141583495Y-85923376D01*
X141584502Y-84769685D01*
X141143934Y-83703428D01*
X140328863Y-82886933D01*
X139806178Y-82669896D01*
X148772399Y-82651746D01*
X148478072Y-82946072D01*
G36*
X169809428Y-82884066D02*
X168992933Y-83699137D01*
X168807333Y-84146112D01*
X168514364Y-83945935D01*
X168131490Y-83868401D01*
X166132510Y-83868401D01*
X165774828Y-83935703D01*
X165446319Y-84147093D01*
X165329600Y-84317916D01*
X165275662Y-84281876D01*
X164625295Y-84152510D01*
X164558705Y-84152510D01*
X163908338Y-84281876D01*
X163356984Y-84650279D01*
X163098354Y-85037346D01*
X163015957Y-84914030D01*
X162585613Y-84626483D01*
X162077987Y-84525510D01*
X162026013Y-84525510D01*
X161518387Y-84626483D01*
X161088043Y-84914030D01*
X160800496Y-85344374D01*
X160782000Y-85437360D01*
X160763504Y-85344374D01*
X160475957Y-84914030D01*
X160045613Y-84626483D01*
X159537987Y-84525510D01*
X159486013Y-84525510D01*
X158978387Y-84626483D01*
X158548043Y-84914030D01*
X158260496Y-85344374D01*
X158251500Y-85389600D01*
X158251500Y-84074000D01*
X158212108Y-83875961D01*
X158099928Y-83708072D01*
X157026892Y-82635036D01*
X170478026Y-82607807D01*
X169809428Y-82884066D01*
X169809428Y-82884066D01*
G37*
X169809428Y-82884066D02*
X168992933Y-83699137D01*
X168807333Y-84146112D01*
X168514364Y-83945935D01*
X168131490Y-83868401D01*
X166132510Y-83868401D01*
X165774828Y-83935703D01*
X165446319Y-84147093D01*
X165329600Y-84317916D01*
X165275662Y-84281876D01*
X164625295Y-84152510D01*
X164558705Y-84152510D01*
X163908338Y-84281876D01*
X163356984Y-84650279D01*
X163098354Y-85037346D01*
X163015957Y-84914030D01*
X162585613Y-84626483D01*
X162077987Y-84525510D01*
X162026013Y-84525510D01*
X161518387Y-84626483D01*
X161088043Y-84914030D01*
X160800496Y-85344374D01*
X160782000Y-85437360D01*
X160763504Y-85344374D01*
X160475957Y-84914030D01*
X160045613Y-84626483D01*
X159537987Y-84525510D01*
X159486013Y-84525510D01*
X158978387Y-84626483D01*
X158548043Y-84914030D01*
X158260496Y-85344374D01*
X158251500Y-85389600D01*
X158251500Y-84074000D01*
X158212108Y-83875961D01*
X158099928Y-83708072D01*
X157026892Y-82635036D01*
X170478026Y-82607807D01*
X169809428Y-82884066D01*
M02*
