G04 #@! TF.FileFunction,Legend,Top*
%FSLAX46Y46*%
G04 Gerber Fmt 4.6, Leading zero omitted, Abs format (unit mm)*
G04 Created by KiCad (PCBNEW 4.0.6+dfsg1-1) date Fri Mar 23 21:29:37 2018*
%MOMM*%
%LPD*%
G01*
G04 APERTURE LIST*
%ADD10C,0.100000*%
%ADD11C,0.200000*%
%ADD12C,0.120000*%
%ADD13C,0.150000*%
%ADD14C,0.125000*%
G04 APERTURE END LIST*
D10*
D11*
X150403560Y-84719160D02*
X150403560Y-84795360D01*
X150083520Y-84399120D02*
X150403560Y-84719160D01*
X150083520Y-83332320D02*
X150083520Y-84399120D01*
X146304000Y-89535000D02*
X146494500Y-89535000D01*
X145224500Y-88455500D02*
X146304000Y-89535000D01*
X144335500Y-93408500D02*
X143954500Y-93789500D01*
X146367500Y-93408500D02*
X144335500Y-93408500D01*
X168148000Y-93472000D02*
X167894000Y-93472000D01*
X168656000Y-92964000D02*
X168148000Y-93472000D01*
X168656000Y-91186000D02*
X168656000Y-92964000D01*
D12*
X143398120Y-86086220D02*
X144328120Y-86086220D01*
X146558120Y-86086220D02*
X145628120Y-86086220D01*
X146558120Y-86086220D02*
X146558120Y-83926220D01*
X143398120Y-86086220D02*
X143398120Y-84626220D01*
D13*
X154940000Y-92202000D02*
X154940000Y-97282000D01*
X154940000Y-97282000D02*
X150368000Y-97282000D01*
X150368000Y-97282000D02*
X150368000Y-92202000D01*
X150368000Y-92202000D02*
X154940000Y-92202000D01*
X153416000Y-92202000D02*
X153416000Y-92710000D01*
X153416000Y-92710000D02*
X152146000Y-92710000D01*
X152146000Y-92710000D02*
X152146000Y-92202000D01*
D12*
X136432000Y-88360000D02*
X136432000Y-97060000D01*
X142842000Y-88360000D02*
X142842000Y-97060000D01*
X142842000Y-97060000D02*
X136432000Y-97060000D01*
X136432000Y-88360000D02*
X142842000Y-88360000D01*
X166716000Y-93082000D02*
X165516000Y-93082000D01*
X165516000Y-91322000D02*
X166716000Y-91322000D01*
X165726000Y-94396000D02*
X165726000Y-95596000D01*
X163966000Y-95596000D02*
X163966000Y-94396000D01*
X162157300Y-93100600D02*
X162157300Y-94300600D01*
X160397300Y-94300600D02*
X160397300Y-93100600D01*
X160023700Y-92973600D02*
X160023700Y-94173600D01*
X158263700Y-94173600D02*
X158263700Y-92973600D01*
X150954180Y-87641540D02*
X152154180Y-87641540D01*
X152154180Y-89401540D02*
X150954180Y-89401540D01*
X151914300Y-89721800D02*
X153114300Y-89721800D01*
X153114300Y-91481800D02*
X151914300Y-91481800D01*
X146440000Y-93564000D02*
X146440000Y-92364000D01*
X148200000Y-92364000D02*
X148200000Y-93564000D01*
X168576100Y-95634100D02*
X168576100Y-94434100D01*
X170336100Y-94434100D02*
X170336100Y-95634100D01*
X138283840Y-103905760D02*
X138283840Y-105105760D01*
X136523840Y-105105760D02*
X136523840Y-103905760D01*
X162976000Y-100680000D02*
X162976000Y-99980000D01*
X164176000Y-99980000D02*
X164176000Y-100680000D01*
X160520000Y-90209000D02*
X159520000Y-90209000D01*
X159520000Y-91909000D02*
X160520000Y-91909000D01*
X144438000Y-90940000D02*
X144438000Y-91940000D01*
X146138000Y-91940000D02*
X146138000Y-90940000D01*
X148582000Y-87542000D02*
X147582000Y-87542000D01*
X147582000Y-89242000D02*
X148582000Y-89242000D01*
D13*
X162560000Y-101854000D02*
X157480000Y-101854000D01*
X157480000Y-101854000D02*
X157480000Y-97282000D01*
X157480000Y-97282000D02*
X162560000Y-97282000D01*
X162560000Y-97282000D02*
X162560000Y-101854000D01*
X162560000Y-100330000D02*
X162052000Y-100330000D01*
X162052000Y-100330000D02*
X162052000Y-99060000D01*
X162052000Y-99060000D02*
X162560000Y-99060000D01*
D12*
X141263480Y-86355480D02*
X141263480Y-85155480D01*
X143023480Y-85155480D02*
X143023480Y-86355480D01*
X167886000Y-106592000D02*
X166886000Y-106592000D01*
X166886000Y-108292000D02*
X167886000Y-108292000D01*
X166282000Y-94496000D02*
X166282000Y-95496000D01*
X167982000Y-95496000D02*
X167982000Y-94496000D01*
X146608720Y-89584160D02*
X146608720Y-91284160D01*
X146608720Y-91284160D02*
X149758720Y-91284160D01*
X146608720Y-89584160D02*
X149758720Y-89584160D01*
X153843880Y-85368840D02*
X153843880Y-86568840D01*
X152083880Y-86568840D02*
X152083880Y-85368840D01*
X150011240Y-86538360D02*
X150011240Y-85338360D01*
X151771240Y-85338360D02*
X151771240Y-86538360D01*
X139853300Y-99055300D02*
X139853300Y-100055300D01*
X141553300Y-100055300D02*
X141553300Y-99055300D01*
X152621540Y-84252960D02*
X151421540Y-84252960D01*
X151421540Y-82492960D02*
X152621540Y-82492960D01*
X173125500Y-95546800D02*
X173125500Y-94546800D01*
X171425500Y-94546800D02*
X171425500Y-95546800D01*
X156557600Y-89370800D02*
X155557600Y-89370800D01*
X155557600Y-91070800D02*
X156557600Y-91070800D01*
X146422000Y-94650000D02*
X146422000Y-95850000D01*
X144662000Y-95850000D02*
X144662000Y-94650000D01*
D13*
X152097814Y-101267260D02*
G75*
G03X152097814Y-101267260I-391234J0D01*
G01*
X144706340Y-100967540D02*
X144604740Y-100865940D01*
X144604740Y-100865940D02*
X144505680Y-100467160D01*
X144505680Y-100467160D02*
X144604740Y-99966780D01*
X144604740Y-99966780D02*
X144805400Y-99667060D01*
X144805400Y-99667060D02*
X145105120Y-99265740D01*
X145105120Y-99265740D02*
X145605500Y-99166680D01*
X145605500Y-99166680D02*
X146105880Y-99265740D01*
X146105880Y-99265740D02*
X146507200Y-99568000D01*
X146507200Y-99568000D02*
X146606260Y-99667060D01*
X146606260Y-99667060D02*
X147205700Y-99265740D01*
X147205700Y-99265740D02*
X148005800Y-98966020D01*
X148005800Y-98966020D02*
X149006560Y-98767900D01*
X149006560Y-98767900D02*
X150205440Y-98767900D01*
X150205440Y-98767900D02*
X151107140Y-98966020D01*
X151107140Y-98966020D02*
X151706580Y-99166680D01*
X151706580Y-99166680D02*
X152206960Y-99367340D01*
X152206960Y-99367340D02*
X152605740Y-99568000D01*
X152605740Y-99568000D02*
X152905460Y-99367340D01*
X152905460Y-99367340D02*
X153504900Y-99166680D01*
X153504900Y-99166680D02*
X153906220Y-99265740D01*
X153906220Y-99265740D02*
X154205940Y-99466400D01*
X154205940Y-99466400D02*
X154505660Y-99667060D01*
X154505660Y-99667060D02*
X154706320Y-100167440D01*
X154706320Y-100167440D02*
X154607260Y-100667820D01*
X154607260Y-100667820D02*
X154406600Y-101066600D01*
X144706340Y-107566460D02*
X144604740Y-107866180D01*
X144604740Y-107866180D02*
X144505680Y-108267500D01*
X144505680Y-108267500D02*
X144604740Y-108567220D01*
X144604740Y-108567220D02*
X144805400Y-108966000D01*
X144805400Y-108966000D02*
X145105120Y-109166660D01*
X145105120Y-109166660D02*
X145404840Y-109367320D01*
X145404840Y-109367320D02*
X145707100Y-109367320D01*
X145707100Y-109367320D02*
X146006820Y-109268260D01*
X146006820Y-109268260D02*
X146306540Y-109166660D01*
X146306540Y-109166660D02*
X146606260Y-108866940D01*
X146606260Y-108866940D02*
X147005040Y-109166660D01*
X147005040Y-109166660D02*
X147406360Y-109367320D01*
X147406360Y-109367320D02*
X147906740Y-109567980D01*
X147906740Y-109567980D02*
X148706840Y-109766100D01*
X148706840Y-109766100D02*
X149606000Y-109867700D01*
X149606000Y-109867700D02*
X150406100Y-109766100D01*
X150406100Y-109766100D02*
X151305260Y-109567980D01*
X151305260Y-109567980D02*
X152206960Y-109166660D01*
X152206960Y-109166660D02*
X152605740Y-108966000D01*
X152605740Y-108966000D02*
X152905460Y-109166660D01*
X152905460Y-109166660D02*
X153306780Y-109367320D01*
X153306780Y-109367320D02*
X153807160Y-109268260D01*
X153807160Y-109268260D02*
X154205940Y-109067600D01*
X154205940Y-109067600D02*
X154505660Y-108767880D01*
X154505660Y-108767880D02*
X154706320Y-108267500D01*
X154706320Y-108267500D02*
X154607260Y-107767120D01*
X154607260Y-107767120D02*
X154406600Y-107467400D01*
X155806140Y-100967540D02*
X155806140Y-98066860D01*
X155806140Y-98066860D02*
X143405860Y-98066860D01*
X143405860Y-98066860D02*
X143405860Y-100967540D01*
X143405860Y-110467140D02*
X155806140Y-110467140D01*
X155806140Y-110467140D02*
X155806140Y-107566460D01*
X143405860Y-110467140D02*
X143405860Y-107566460D01*
D12*
X171218000Y-102410000D02*
X167618000Y-102410000D01*
X167618000Y-105870000D02*
X171218000Y-105870000D01*
X171472000Y-97838000D02*
X167872000Y-97838000D01*
X167872000Y-101298000D02*
X171472000Y-101298000D01*
X139490000Y-102886000D02*
X139490000Y-104886000D01*
X142450000Y-104886000D02*
X142450000Y-102886000D01*
X136431840Y-99055680D02*
X136431840Y-101055680D01*
X139391840Y-101055680D02*
X139391840Y-99055680D01*
X164499500Y-108647500D02*
X164499500Y-105347500D01*
X164499500Y-105347500D02*
X159099500Y-105347500D01*
X164499500Y-108647500D02*
X159099500Y-108647500D01*
D13*
X163144200Y-83230720D02*
X168742360Y-83230720D01*
X168544240Y-82732880D02*
X168544240Y-83230720D01*
X163342320Y-83230720D02*
X163342320Y-82732880D01*
X165943280Y-82732880D02*
X165943280Y-83230720D01*
X168742360Y-88531700D02*
X163144200Y-88531700D01*
X168742360Y-82732880D02*
X163144200Y-82732880D01*
X163144200Y-82732880D02*
X163144200Y-88930480D01*
X163144200Y-88930480D02*
X168742360Y-88930480D01*
X168742360Y-88930480D02*
X168742360Y-82732880D01*
X154315160Y-88950800D02*
X162514280Y-88950800D01*
X154315160Y-88552020D02*
X162514280Y-88552020D01*
X154315160Y-83251040D02*
X162514280Y-83251040D01*
X162514280Y-82753200D02*
X154315160Y-82753200D01*
X157114240Y-83251040D02*
X157114240Y-82753200D01*
X162313620Y-82753200D02*
X162313620Y-83251040D01*
X154513280Y-83251040D02*
X154513280Y-82753200D01*
X159712660Y-82753200D02*
X159712660Y-83251040D01*
X154315160Y-82753200D02*
X154315160Y-88950800D01*
X162511740Y-88950800D02*
X162511740Y-82753200D01*
D12*
X146871240Y-84074760D02*
X146871240Y-86074760D01*
X149831240Y-86074760D02*
X149831240Y-84074760D01*
D13*
X171878667Y-88098381D02*
X171878667Y-88812667D01*
X171831047Y-88955524D01*
X171735809Y-89050762D01*
X171592952Y-89098381D01*
X171497714Y-89098381D01*
X172307238Y-88193619D02*
X172354857Y-88146000D01*
X172450095Y-88098381D01*
X172688191Y-88098381D01*
X172783429Y-88146000D01*
X172831048Y-88193619D01*
X172878667Y-88288857D01*
X172878667Y-88384095D01*
X172831048Y-88526952D01*
X172259619Y-89098381D01*
X172878667Y-89098381D01*
X143650388Y-83514434D02*
X143578960Y-83478720D01*
X143507531Y-83407291D01*
X143400388Y-83300149D01*
X143328960Y-83264434D01*
X143257531Y-83264434D01*
X143293246Y-83443006D02*
X143221817Y-83407291D01*
X143150388Y-83335863D01*
X143114674Y-83193006D01*
X143114674Y-82943006D01*
X143150388Y-82800149D01*
X143221817Y-82728720D01*
X143293246Y-82693006D01*
X143436103Y-82693006D01*
X143507531Y-82728720D01*
X143578960Y-82800149D01*
X143614674Y-82943006D01*
X143614674Y-83193006D01*
X143578960Y-83335863D01*
X143507531Y-83407291D01*
X143436103Y-83443006D01*
X143293246Y-83443006D01*
X143900388Y-82764434D02*
X143936102Y-82728720D01*
X144007531Y-82693006D01*
X144186102Y-82693006D01*
X144257531Y-82728720D01*
X144293245Y-82764434D01*
X144328960Y-82835863D01*
X144328960Y-82907291D01*
X144293245Y-83014434D01*
X143864674Y-83443006D01*
X144328960Y-83443006D01*
X144971817Y-82693006D02*
X144828960Y-82693006D01*
X144757531Y-82728720D01*
X144721817Y-82764434D01*
X144650388Y-82871577D01*
X144614674Y-83014434D01*
X144614674Y-83300149D01*
X144650388Y-83371577D01*
X144686103Y-83407291D01*
X144757531Y-83443006D01*
X144900388Y-83443006D01*
X144971817Y-83407291D01*
X145007531Y-83371577D01*
X145043246Y-83300149D01*
X145043246Y-83121577D01*
X145007531Y-83050149D01*
X144971817Y-83014434D01*
X144900388Y-82978720D01*
X144757531Y-82978720D01*
X144686103Y-83014434D01*
X144650388Y-83050149D01*
X144614674Y-83121577D01*
X147724881Y-96202405D02*
X148534405Y-96202405D01*
X148629643Y-96154786D01*
X148677262Y-96107167D01*
X148724881Y-96011929D01*
X148724881Y-95821452D01*
X148677262Y-95726214D01*
X148629643Y-95678595D01*
X148534405Y-95630976D01*
X147724881Y-95630976D01*
X148724881Y-94630976D02*
X148724881Y-95202405D01*
X148724881Y-94916691D02*
X147724881Y-94916691D01*
X147867738Y-95011929D01*
X147962976Y-95107167D01*
X148010595Y-95202405D01*
X144089381Y-90971595D02*
X143089381Y-90971595D01*
X143089381Y-90590642D01*
X143137000Y-90495404D01*
X143184619Y-90447785D01*
X143279857Y-90400166D01*
X143422714Y-90400166D01*
X143517952Y-90447785D01*
X143565571Y-90495404D01*
X143613190Y-90590642D01*
X143613190Y-90971595D01*
X144089381Y-89447785D02*
X144089381Y-90019214D01*
X144089381Y-89733500D02*
X143089381Y-89733500D01*
X143232238Y-89828738D01*
X143327476Y-89923976D01*
X143375095Y-90019214D01*
X165473143Y-91004381D02*
X165139809Y-90528190D01*
X164901714Y-91004381D02*
X164901714Y-90004381D01*
X165282667Y-90004381D01*
X165377905Y-90052000D01*
X165425524Y-90099619D01*
X165473143Y-90194857D01*
X165473143Y-90337714D01*
X165425524Y-90432952D01*
X165377905Y-90480571D01*
X165282667Y-90528190D01*
X164901714Y-90528190D01*
X166425524Y-91004381D02*
X165854095Y-91004381D01*
X166139809Y-91004381D02*
X166139809Y-90004381D01*
X166044571Y-90147238D01*
X165949333Y-90242476D01*
X165854095Y-90290095D01*
X167282667Y-90004381D02*
X167092190Y-90004381D01*
X166996952Y-90052000D01*
X166949333Y-90099619D01*
X166854095Y-90242476D01*
X166806476Y-90432952D01*
X166806476Y-90813905D01*
X166854095Y-90909143D01*
X166901714Y-90956762D01*
X166996952Y-91004381D01*
X167187429Y-91004381D01*
X167282667Y-90956762D01*
X167330286Y-90909143D01*
X167377905Y-90813905D01*
X167377905Y-90575810D01*
X167330286Y-90480571D01*
X167282667Y-90432952D01*
X167187429Y-90385333D01*
X166996952Y-90385333D01*
X166901714Y-90432952D01*
X166854095Y-90480571D01*
X166806476Y-90575810D01*
X163809941Y-96913937D02*
X163333750Y-97247271D01*
X163809941Y-97485366D02*
X162809941Y-97485366D01*
X162809941Y-97104413D01*
X162857560Y-97009175D01*
X162905179Y-96961556D01*
X163000417Y-96913937D01*
X163143274Y-96913937D01*
X163238512Y-96961556D01*
X163286131Y-97009175D01*
X163333750Y-97104413D01*
X163333750Y-97485366D01*
X163809941Y-95961556D02*
X163809941Y-96532985D01*
X163809941Y-96247271D02*
X162809941Y-96247271D01*
X162952798Y-96342509D01*
X163048036Y-96437747D01*
X163095655Y-96532985D01*
X162809941Y-95056794D02*
X162809941Y-95532985D01*
X163286131Y-95580604D01*
X163238512Y-95532985D01*
X163190893Y-95437747D01*
X163190893Y-95199651D01*
X163238512Y-95104413D01*
X163286131Y-95056794D01*
X163381370Y-95009175D01*
X163619465Y-95009175D01*
X163714703Y-95056794D01*
X163762322Y-95104413D01*
X163809941Y-95199651D01*
X163809941Y-95437747D01*
X163762322Y-95532985D01*
X163714703Y-95580604D01*
X163319721Y-94107237D02*
X162843530Y-94440571D01*
X163319721Y-94678666D02*
X162319721Y-94678666D01*
X162319721Y-94297713D01*
X162367340Y-94202475D01*
X162414959Y-94154856D01*
X162510197Y-94107237D01*
X162653054Y-94107237D01*
X162748292Y-94154856D01*
X162795911Y-94202475D01*
X162843530Y-94297713D01*
X162843530Y-94678666D01*
X163319721Y-93154856D02*
X163319721Y-93726285D01*
X163319721Y-93440571D02*
X162319721Y-93440571D01*
X162462578Y-93535809D01*
X162557816Y-93631047D01*
X162605435Y-93726285D01*
X162319721Y-92535809D02*
X162319721Y-92440570D01*
X162367340Y-92345332D01*
X162414959Y-92297713D01*
X162510197Y-92250094D01*
X162700673Y-92202475D01*
X162938769Y-92202475D01*
X163129245Y-92250094D01*
X163224483Y-92297713D01*
X163272102Y-92345332D01*
X163319721Y-92440570D01*
X163319721Y-92535809D01*
X163272102Y-92631047D01*
X163224483Y-92678666D01*
X163129245Y-92726285D01*
X162938769Y-92773904D01*
X162700673Y-92773904D01*
X162510197Y-92726285D01*
X162414959Y-92678666D01*
X162367340Y-92631047D01*
X162319721Y-92535809D01*
X158059381Y-93702166D02*
X157583190Y-94035500D01*
X158059381Y-94273595D02*
X157059381Y-94273595D01*
X157059381Y-93892642D01*
X157107000Y-93797404D01*
X157154619Y-93749785D01*
X157249857Y-93702166D01*
X157392714Y-93702166D01*
X157487952Y-93749785D01*
X157535571Y-93797404D01*
X157583190Y-93892642D01*
X157583190Y-94273595D01*
X157487952Y-93130738D02*
X157440333Y-93225976D01*
X157392714Y-93273595D01*
X157297476Y-93321214D01*
X157249857Y-93321214D01*
X157154619Y-93273595D01*
X157107000Y-93225976D01*
X157059381Y-93130738D01*
X157059381Y-92940261D01*
X157107000Y-92845023D01*
X157154619Y-92797404D01*
X157249857Y-92749785D01*
X157297476Y-92749785D01*
X157392714Y-92797404D01*
X157440333Y-92845023D01*
X157487952Y-92940261D01*
X157487952Y-93130738D01*
X157535571Y-93225976D01*
X157583190Y-93273595D01*
X157678429Y-93321214D01*
X157868905Y-93321214D01*
X157964143Y-93273595D01*
X158011762Y-93225976D01*
X158059381Y-93130738D01*
X158059381Y-92940261D01*
X158011762Y-92845023D01*
X157964143Y-92797404D01*
X157868905Y-92749785D01*
X157678429Y-92749785D01*
X157583190Y-92797404D01*
X157535571Y-92845023D01*
X157487952Y-92940261D01*
X153872126Y-89461880D02*
X153514983Y-89711880D01*
X153872126Y-89890452D02*
X153122126Y-89890452D01*
X153122126Y-89604737D01*
X153157840Y-89533309D01*
X153193554Y-89497594D01*
X153264983Y-89461880D01*
X153372126Y-89461880D01*
X153443554Y-89497594D01*
X153479269Y-89533309D01*
X153514983Y-89604737D01*
X153514983Y-89890452D01*
X153122126Y-88783309D02*
X153122126Y-89140452D01*
X153479269Y-89176166D01*
X153443554Y-89140452D01*
X153407840Y-89069023D01*
X153407840Y-88890452D01*
X153443554Y-88819023D01*
X153479269Y-88783309D01*
X153550697Y-88747594D01*
X153729269Y-88747594D01*
X153800697Y-88783309D01*
X153836411Y-88819023D01*
X153872126Y-88890452D01*
X153872126Y-89069023D01*
X153836411Y-89140452D01*
X153800697Y-89176166D01*
D14*
X150665667Y-91602690D02*
X150499000Y-91364595D01*
X150379953Y-91602690D02*
X150379953Y-91102690D01*
X150570429Y-91102690D01*
X150618048Y-91126500D01*
X150641857Y-91150310D01*
X150665667Y-91197929D01*
X150665667Y-91269357D01*
X150641857Y-91316976D01*
X150618048Y-91340786D01*
X150570429Y-91364595D01*
X150379953Y-91364595D01*
X150832334Y-91102690D02*
X151141857Y-91102690D01*
X150975191Y-91293167D01*
X151046619Y-91293167D01*
X151094238Y-91316976D01*
X151118048Y-91340786D01*
X151141857Y-91388405D01*
X151141857Y-91507452D01*
X151118048Y-91555071D01*
X151094238Y-91578881D01*
X151046619Y-91602690D01*
X150903762Y-91602690D01*
X150856143Y-91578881D01*
X150832334Y-91555071D01*
D13*
X144343381Y-94845166D02*
X143867190Y-95178500D01*
X144343381Y-95416595D02*
X143343381Y-95416595D01*
X143343381Y-95035642D01*
X143391000Y-94940404D01*
X143438619Y-94892785D01*
X143533857Y-94845166D01*
X143676714Y-94845166D01*
X143771952Y-94892785D01*
X143819571Y-94940404D01*
X143867190Y-95035642D01*
X143867190Y-95416595D01*
X143438619Y-94464214D02*
X143391000Y-94416595D01*
X143343381Y-94321357D01*
X143343381Y-94083261D01*
X143391000Y-93988023D01*
X143438619Y-93940404D01*
X143533857Y-93892785D01*
X143629095Y-93892785D01*
X143771952Y-93940404D01*
X144343381Y-94511833D01*
X144343381Y-93892785D01*
X169759334Y-93162381D02*
X169283143Y-93162381D01*
X169283143Y-92162381D01*
X170568858Y-92162381D02*
X170092667Y-92162381D01*
X170045048Y-92638571D01*
X170092667Y-92590952D01*
X170187905Y-92543333D01*
X170426001Y-92543333D01*
X170521239Y-92590952D01*
X170568858Y-92638571D01*
X170616477Y-92733810D01*
X170616477Y-92971905D01*
X170568858Y-93067143D01*
X170521239Y-93114762D01*
X170426001Y-93162381D01*
X170187905Y-93162381D01*
X170092667Y-93114762D01*
X170045048Y-93067143D01*
X139197341Y-106069426D02*
X139197341Y-106545617D01*
X138197341Y-106545617D01*
X138292579Y-105783712D02*
X138244960Y-105736093D01*
X138197341Y-105640855D01*
X138197341Y-105402759D01*
X138244960Y-105307521D01*
X138292579Y-105259902D01*
X138387817Y-105212283D01*
X138483055Y-105212283D01*
X138625912Y-105259902D01*
X139197341Y-105831331D01*
X139197341Y-105212283D01*
X163996643Y-103766857D02*
X164044262Y-103814476D01*
X164091881Y-103957333D01*
X164091881Y-104052571D01*
X164044262Y-104195429D01*
X163949024Y-104290667D01*
X163853786Y-104338286D01*
X163663310Y-104385905D01*
X163520452Y-104385905D01*
X163329976Y-104338286D01*
X163234738Y-104290667D01*
X163139500Y-104195429D01*
X163091881Y-104052571D01*
X163091881Y-103957333D01*
X163139500Y-103814476D01*
X163187119Y-103766857D01*
X164091881Y-102814476D02*
X164091881Y-103385905D01*
X164091881Y-103100191D02*
X163091881Y-103100191D01*
X163234738Y-103195429D01*
X163329976Y-103290667D01*
X163377595Y-103385905D01*
X163091881Y-101909714D02*
X163091881Y-102385905D01*
X163568071Y-102433524D01*
X163520452Y-102385905D01*
X163472833Y-102290667D01*
X163472833Y-102052571D01*
X163520452Y-101957333D01*
X163568071Y-101909714D01*
X163663310Y-101862095D01*
X163901405Y-101862095D01*
X163996643Y-101909714D01*
X164044262Y-101957333D01*
X164091881Y-102052571D01*
X164091881Y-102290667D01*
X164044262Y-102385905D01*
X163996643Y-102433524D01*
X162508963Y-91466943D02*
X162461344Y-91514562D01*
X162318487Y-91562181D01*
X162223249Y-91562181D01*
X162080391Y-91514562D01*
X161985153Y-91419324D01*
X161937534Y-91324086D01*
X161889915Y-91133610D01*
X161889915Y-90990752D01*
X161937534Y-90800276D01*
X161985153Y-90705038D01*
X162080391Y-90609800D01*
X162223249Y-90562181D01*
X162318487Y-90562181D01*
X162461344Y-90609800D01*
X162508963Y-90657419D01*
X163461344Y-91562181D02*
X162889915Y-91562181D01*
X163175629Y-91562181D02*
X163175629Y-90562181D01*
X163080391Y-90705038D01*
X162985153Y-90800276D01*
X162889915Y-90847895D01*
X164413725Y-91562181D02*
X163842296Y-91562181D01*
X164128010Y-91562181D02*
X164128010Y-90562181D01*
X164032772Y-90705038D01*
X163937534Y-90800276D01*
X163842296Y-90847895D01*
X144057643Y-92559166D02*
X144105262Y-92606785D01*
X144152881Y-92749642D01*
X144152881Y-92844880D01*
X144105262Y-92987738D01*
X144010024Y-93082976D01*
X143914786Y-93130595D01*
X143724310Y-93178214D01*
X143581452Y-93178214D01*
X143390976Y-93130595D01*
X143295738Y-93082976D01*
X143200500Y-92987738D01*
X143152881Y-92844880D01*
X143152881Y-92749642D01*
X143200500Y-92606785D01*
X143248119Y-92559166D01*
X143152881Y-92225833D02*
X143152881Y-91559166D01*
X144152881Y-91987738D01*
X146437623Y-88050666D02*
X146485242Y-88098285D01*
X146532861Y-88241142D01*
X146532861Y-88336380D01*
X146485242Y-88479238D01*
X146390004Y-88574476D01*
X146294766Y-88622095D01*
X146104290Y-88669714D01*
X145961432Y-88669714D01*
X145770956Y-88622095D01*
X145675718Y-88574476D01*
X145580480Y-88479238D01*
X145532861Y-88336380D01*
X145532861Y-88241142D01*
X145580480Y-88098285D01*
X145628099Y-88050666D01*
X145532861Y-87145904D02*
X145532861Y-87622095D01*
X146009051Y-87669714D01*
X145961432Y-87622095D01*
X145913813Y-87526857D01*
X145913813Y-87288761D01*
X145961432Y-87193523D01*
X146009051Y-87145904D01*
X146104290Y-87098285D01*
X146342385Y-87098285D01*
X146437623Y-87145904D01*
X146485242Y-87193523D01*
X146532861Y-87288761D01*
X146532861Y-87526857D01*
X146485242Y-87622095D01*
X146437623Y-87669714D01*
X159388822Y-104596179D02*
X159293584Y-104548560D01*
X159198346Y-104453322D01*
X159055489Y-104310465D01*
X158960250Y-104262846D01*
X158865012Y-104262846D01*
X158912631Y-104500941D02*
X158817393Y-104453322D01*
X158722155Y-104358084D01*
X158674536Y-104167608D01*
X158674536Y-103834274D01*
X158722155Y-103643798D01*
X158817393Y-103548560D01*
X158912631Y-103500941D01*
X159103108Y-103500941D01*
X159198346Y-103548560D01*
X159293584Y-103643798D01*
X159341203Y-103834274D01*
X159341203Y-104167608D01*
X159293584Y-104358084D01*
X159198346Y-104453322D01*
X159103108Y-104500941D01*
X158912631Y-104500941D01*
X160293584Y-104500941D02*
X159722155Y-104500941D01*
X160007869Y-104500941D02*
X160007869Y-103500941D01*
X159912631Y-103643798D01*
X159817393Y-103739036D01*
X159722155Y-103786655D01*
X140833814Y-88041741D02*
X140500480Y-87565550D01*
X140262385Y-88041741D02*
X140262385Y-87041741D01*
X140643338Y-87041741D01*
X140738576Y-87089360D01*
X140786195Y-87136979D01*
X140833814Y-87232217D01*
X140833814Y-87375074D01*
X140786195Y-87470312D01*
X140738576Y-87517931D01*
X140643338Y-87565550D01*
X140262385Y-87565550D01*
X141690957Y-87375074D02*
X141690957Y-88041741D01*
X141452861Y-86994122D02*
X141214766Y-87708408D01*
X141833814Y-87708408D01*
X166235143Y-109831143D02*
X166187524Y-109878762D01*
X166044667Y-109926381D01*
X165949429Y-109926381D01*
X165806571Y-109878762D01*
X165711333Y-109783524D01*
X165663714Y-109688286D01*
X165616095Y-109497810D01*
X165616095Y-109354952D01*
X165663714Y-109164476D01*
X165711333Y-109069238D01*
X165806571Y-108974000D01*
X165949429Y-108926381D01*
X166044667Y-108926381D01*
X166187524Y-108974000D01*
X166235143Y-109021619D01*
X167187524Y-109926381D02*
X166616095Y-109926381D01*
X166901809Y-109926381D02*
X166901809Y-108926381D01*
X166806571Y-109069238D01*
X166711333Y-109164476D01*
X166616095Y-109212095D01*
X167568476Y-109021619D02*
X167616095Y-108974000D01*
X167711333Y-108926381D01*
X167949429Y-108926381D01*
X168044667Y-108974000D01*
X168092286Y-109021619D01*
X168139905Y-109116857D01*
X168139905Y-109212095D01*
X168092286Y-109354952D01*
X167520857Y-109926381D01*
X168139905Y-109926381D01*
X168997334Y-90781143D02*
X168949715Y-90828762D01*
X168806858Y-90876381D01*
X168711620Y-90876381D01*
X168568762Y-90828762D01*
X168473524Y-90733524D01*
X168425905Y-90638286D01*
X168378286Y-90447810D01*
X168378286Y-90304952D01*
X168425905Y-90114476D01*
X168473524Y-90019238D01*
X168568762Y-89924000D01*
X168711620Y-89876381D01*
X168806858Y-89876381D01*
X168949715Y-89924000D01*
X168997334Y-89971619D01*
X169854477Y-89876381D02*
X169664000Y-89876381D01*
X169568762Y-89924000D01*
X169521143Y-89971619D01*
X169425905Y-90114476D01*
X169378286Y-90304952D01*
X169378286Y-90685905D01*
X169425905Y-90781143D01*
X169473524Y-90828762D01*
X169568762Y-90876381D01*
X169759239Y-90876381D01*
X169854477Y-90828762D01*
X169902096Y-90781143D01*
X169949715Y-90685905D01*
X169949715Y-90447810D01*
X169902096Y-90352571D01*
X169854477Y-90304952D01*
X169759239Y-90257333D01*
X169568762Y-90257333D01*
X169473524Y-90304952D01*
X169425905Y-90352571D01*
X169378286Y-90447810D01*
X143290065Y-88620861D02*
X143290065Y-87620861D01*
X143528160Y-87620861D01*
X143671018Y-87668480D01*
X143766256Y-87763718D01*
X143813875Y-87858956D01*
X143861494Y-88049432D01*
X143861494Y-88192290D01*
X143813875Y-88382766D01*
X143766256Y-88478004D01*
X143671018Y-88573242D01*
X143528160Y-88620861D01*
X143290065Y-88620861D01*
X144242446Y-87716099D02*
X144290065Y-87668480D01*
X144385303Y-87620861D01*
X144623399Y-87620861D01*
X144718637Y-87668480D01*
X144766256Y-87716099D01*
X144813875Y-87811337D01*
X144813875Y-87906575D01*
X144766256Y-88049432D01*
X144194827Y-88620861D01*
X144813875Y-88620861D01*
X153943246Y-87968360D02*
X153586103Y-88218360D01*
X153943246Y-88396932D02*
X153193246Y-88396932D01*
X153193246Y-88111217D01*
X153228960Y-88039789D01*
X153264674Y-88004074D01*
X153336103Y-87968360D01*
X153443246Y-87968360D01*
X153514674Y-88004074D01*
X153550389Y-88039789D01*
X153586103Y-88111217D01*
X153586103Y-88396932D01*
X153193246Y-87718360D02*
X153193246Y-87218360D01*
X153943246Y-87539789D01*
X149737540Y-83206786D02*
X149487540Y-82849643D01*
X149308968Y-83206786D02*
X149308968Y-82456786D01*
X149594683Y-82456786D01*
X149666111Y-82492500D01*
X149701826Y-82528214D01*
X149737540Y-82599643D01*
X149737540Y-82706786D01*
X149701826Y-82778214D01*
X149666111Y-82813929D01*
X149594683Y-82849643D01*
X149308968Y-82849643D01*
X150094683Y-83206786D02*
X150237540Y-83206786D01*
X150308968Y-83171071D01*
X150344683Y-83135357D01*
X150416111Y-83028214D01*
X150451826Y-82885357D01*
X150451826Y-82599643D01*
X150416111Y-82528214D01*
X150380397Y-82492500D01*
X150308968Y-82456786D01*
X150166111Y-82456786D01*
X150094683Y-82492500D01*
X150058968Y-82528214D01*
X150023254Y-82599643D01*
X150023254Y-82778214D01*
X150058968Y-82849643D01*
X150094683Y-82885357D01*
X150166111Y-82921071D01*
X150308968Y-82921071D01*
X150380397Y-82885357D01*
X150416111Y-82849643D01*
X150451826Y-82778214D01*
X142520943Y-99182157D02*
X142568562Y-99229776D01*
X142616181Y-99372633D01*
X142616181Y-99467871D01*
X142568562Y-99610729D01*
X142473324Y-99705967D01*
X142378086Y-99753586D01*
X142187610Y-99801205D01*
X142044752Y-99801205D01*
X141854276Y-99753586D01*
X141759038Y-99705967D01*
X141663800Y-99610729D01*
X141616181Y-99467871D01*
X141616181Y-99372633D01*
X141663800Y-99229776D01*
X141711419Y-99182157D01*
X142616181Y-98229776D02*
X142616181Y-98801205D01*
X142616181Y-98515491D02*
X141616181Y-98515491D01*
X141759038Y-98610729D01*
X141854276Y-98705967D01*
X141901895Y-98801205D01*
X142044752Y-97658348D02*
X141997133Y-97753586D01*
X141949514Y-97801205D01*
X141854276Y-97848824D01*
X141806657Y-97848824D01*
X141711419Y-97801205D01*
X141663800Y-97753586D01*
X141616181Y-97658348D01*
X141616181Y-97467871D01*
X141663800Y-97372633D01*
X141711419Y-97325014D01*
X141806657Y-97277395D01*
X141854276Y-97277395D01*
X141949514Y-97325014D01*
X141997133Y-97372633D01*
X142044752Y-97467871D01*
X142044752Y-97658348D01*
X142092371Y-97753586D01*
X142139990Y-97801205D01*
X142235229Y-97848824D01*
X142425705Y-97848824D01*
X142520943Y-97801205D01*
X142568562Y-97753586D01*
X142616181Y-97658348D01*
X142616181Y-97467871D01*
X142568562Y-97372633D01*
X142520943Y-97325014D01*
X142425705Y-97277395D01*
X142235229Y-97277395D01*
X142139990Y-97325014D01*
X142092371Y-97372633D01*
X142044752Y-97467871D01*
X154065166Y-83045840D02*
X153708023Y-83295840D01*
X154065166Y-83474412D02*
X153315166Y-83474412D01*
X153315166Y-83188697D01*
X153350880Y-83117269D01*
X153386594Y-83081554D01*
X153458023Y-83045840D01*
X153565166Y-83045840D01*
X153636594Y-83081554D01*
X153672309Y-83117269D01*
X153708023Y-83188697D01*
X153708023Y-83474412D01*
X154065166Y-82331554D02*
X154065166Y-82760126D01*
X154065166Y-82545840D02*
X153315166Y-82545840D01*
X153422309Y-82617269D01*
X153493737Y-82688697D01*
X153529451Y-82760126D01*
X172299334Y-93067143D02*
X172251715Y-93114762D01*
X172108858Y-93162381D01*
X172013620Y-93162381D01*
X171870762Y-93114762D01*
X171775524Y-93019524D01*
X171727905Y-92924286D01*
X171680286Y-92733810D01*
X171680286Y-92590952D01*
X171727905Y-92400476D01*
X171775524Y-92305238D01*
X171870762Y-92210000D01*
X172013620Y-92162381D01*
X172108858Y-92162381D01*
X172251715Y-92210000D01*
X172299334Y-92257619D01*
X172632667Y-92162381D02*
X173251715Y-92162381D01*
X172918381Y-92543333D01*
X173061239Y-92543333D01*
X173156477Y-92590952D01*
X173204096Y-92638571D01*
X173251715Y-92733810D01*
X173251715Y-92971905D01*
X173204096Y-93067143D01*
X173156477Y-93114762D01*
X173061239Y-93162381D01*
X172775524Y-93162381D01*
X172680286Y-93114762D01*
X172632667Y-93067143D01*
X168957667Y-108926381D02*
X168957667Y-109640667D01*
X168910047Y-109783524D01*
X168814809Y-109878762D01*
X168671952Y-109926381D01*
X168576714Y-109926381D01*
X169862429Y-109259714D02*
X169862429Y-109926381D01*
X169624333Y-108878762D02*
X169386238Y-109593048D01*
X170005286Y-109593048D01*
X140877967Y-109650281D02*
X140877967Y-110364567D01*
X140830347Y-110507424D01*
X140735109Y-110602662D01*
X140592252Y-110650281D01*
X140497014Y-110650281D01*
X141830348Y-109650281D02*
X141354157Y-109650281D01*
X141306538Y-110126471D01*
X141354157Y-110078852D01*
X141449395Y-110031233D01*
X141687491Y-110031233D01*
X141782729Y-110078852D01*
X141830348Y-110126471D01*
X141877967Y-110221710D01*
X141877967Y-110459805D01*
X141830348Y-110555043D01*
X141782729Y-110602662D01*
X141687491Y-110650281D01*
X141449395Y-110650281D01*
X141354157Y-110602662D01*
X141306538Y-110555043D01*
X140286147Y-82434181D02*
X140286147Y-83148467D01*
X140238527Y-83291324D01*
X140143289Y-83386562D01*
X140000432Y-83434181D01*
X139905194Y-83434181D01*
X140667099Y-82434181D02*
X141286147Y-82434181D01*
X140952813Y-82815133D01*
X141095671Y-82815133D01*
X141190909Y-82862752D01*
X141238528Y-82910371D01*
X141286147Y-83005610D01*
X141286147Y-83243705D01*
X141238528Y-83338943D01*
X141190909Y-83386562D01*
X141095671Y-83434181D01*
X140809956Y-83434181D01*
X140714718Y-83386562D01*
X140667099Y-83338943D01*
X156693057Y-91748497D02*
X156657343Y-91784211D01*
X156550200Y-91819926D01*
X156478771Y-91819926D01*
X156371628Y-91784211D01*
X156300200Y-91712783D01*
X156264485Y-91641354D01*
X156228771Y-91498497D01*
X156228771Y-91391354D01*
X156264485Y-91248497D01*
X156300200Y-91177069D01*
X156371628Y-91105640D01*
X156478771Y-91069926D01*
X156550200Y-91069926D01*
X156657343Y-91105640D01*
X156693057Y-91141354D01*
X157407343Y-91819926D02*
X156978771Y-91819926D01*
X157193057Y-91819926D02*
X157193057Y-91069926D01*
X157121628Y-91177069D01*
X157050200Y-91248497D01*
X156978771Y-91284211D01*
X157871629Y-91069926D02*
X157943057Y-91069926D01*
X158014486Y-91105640D01*
X158050200Y-91141354D01*
X158085914Y-91212783D01*
X158121629Y-91355640D01*
X158121629Y-91534211D01*
X158085914Y-91677069D01*
X158050200Y-91748497D01*
X158014486Y-91784211D01*
X157943057Y-91819926D01*
X157871629Y-91819926D01*
X157800200Y-91784211D01*
X157764486Y-91748497D01*
X157728771Y-91677069D01*
X157693057Y-91534211D01*
X157693057Y-91355640D01*
X157728771Y-91212783D01*
X157764486Y-91141354D01*
X157800200Y-91105640D01*
X157871629Y-91069926D01*
X147454881Y-96527857D02*
X146978690Y-96861191D01*
X147454881Y-97099286D02*
X146454881Y-97099286D01*
X146454881Y-96718333D01*
X146502500Y-96623095D01*
X146550119Y-96575476D01*
X146645357Y-96527857D01*
X146788214Y-96527857D01*
X146883452Y-96575476D01*
X146931071Y-96623095D01*
X146978690Y-96718333D01*
X146978690Y-97099286D01*
X147454881Y-95575476D02*
X147454881Y-96146905D01*
X147454881Y-95861191D02*
X146454881Y-95861191D01*
X146597738Y-95956429D01*
X146692976Y-96051667D01*
X146740595Y-96146905D01*
X146550119Y-95194524D02*
X146502500Y-95146905D01*
X146454881Y-95051667D01*
X146454881Y-94813571D01*
X146502500Y-94718333D01*
X146550119Y-94670714D01*
X146645357Y-94623095D01*
X146740595Y-94623095D01*
X146883452Y-94670714D01*
X147454881Y-95242143D01*
X147454881Y-94623095D01*
X156800254Y-110144821D02*
X156324063Y-110144821D01*
X156324063Y-109144821D01*
X157038349Y-109144821D02*
X157657397Y-109144821D01*
X157324063Y-109525773D01*
X157466921Y-109525773D01*
X157562159Y-109573392D01*
X157609778Y-109621011D01*
X157657397Y-109716250D01*
X157657397Y-109954345D01*
X157609778Y-110049583D01*
X157562159Y-110097202D01*
X157466921Y-110144821D01*
X157181206Y-110144821D01*
X157085968Y-110097202D01*
X157038349Y-110049583D01*
X164933334Y-102465143D02*
X164885715Y-102512762D01*
X164742858Y-102560381D01*
X164647620Y-102560381D01*
X164504762Y-102512762D01*
X164409524Y-102417524D01*
X164361905Y-102322286D01*
X164314286Y-102131810D01*
X164314286Y-101988952D01*
X164361905Y-101798476D01*
X164409524Y-101703238D01*
X164504762Y-101608000D01*
X164647620Y-101560381D01*
X164742858Y-101560381D01*
X164885715Y-101608000D01*
X164933334Y-101655619D01*
X165885715Y-102560381D02*
X165314286Y-102560381D01*
X165600000Y-102560381D02*
X165600000Y-101560381D01*
X165504762Y-101703238D01*
X165409524Y-101798476D01*
X165314286Y-101846095D01*
X165187334Y-97816943D02*
X165139715Y-97864562D01*
X164996858Y-97912181D01*
X164901620Y-97912181D01*
X164758762Y-97864562D01*
X164663524Y-97769324D01*
X164615905Y-97674086D01*
X164568286Y-97483610D01*
X164568286Y-97340752D01*
X164615905Y-97150276D01*
X164663524Y-97055038D01*
X164758762Y-96959800D01*
X164901620Y-96912181D01*
X164996858Y-96912181D01*
X165139715Y-96959800D01*
X165187334Y-97007419D01*
X165568286Y-97007419D02*
X165615905Y-96959800D01*
X165711143Y-96912181D01*
X165949239Y-96912181D01*
X166044477Y-96959800D01*
X166092096Y-97007419D01*
X166139715Y-97102657D01*
X166139715Y-97197895D01*
X166092096Y-97340752D01*
X165520667Y-97912181D01*
X166139715Y-97912181D01*
X141501834Y-107291143D02*
X141454215Y-107338762D01*
X141311358Y-107386381D01*
X141216120Y-107386381D01*
X141073262Y-107338762D01*
X140978024Y-107243524D01*
X140930405Y-107148286D01*
X140882786Y-106957810D01*
X140882786Y-106814952D01*
X140930405Y-106624476D01*
X140978024Y-106529238D01*
X141073262Y-106434000D01*
X141216120Y-106386381D01*
X141311358Y-106386381D01*
X141454215Y-106434000D01*
X141501834Y-106481619D01*
X141978024Y-107386381D02*
X142168500Y-107386381D01*
X142263739Y-107338762D01*
X142311358Y-107291143D01*
X142406596Y-107148286D01*
X142454215Y-106957810D01*
X142454215Y-106576857D01*
X142406596Y-106481619D01*
X142358977Y-106434000D01*
X142263739Y-106386381D01*
X142073262Y-106386381D01*
X141978024Y-106434000D01*
X141930405Y-106481619D01*
X141882786Y-106576857D01*
X141882786Y-106814952D01*
X141930405Y-106910190D01*
X141978024Y-106957810D01*
X142073262Y-107005429D01*
X142263739Y-107005429D01*
X142358977Y-106957810D01*
X142406596Y-106910190D01*
X142454215Y-106814952D01*
X139182297Y-97847037D02*
X139146583Y-97882751D01*
X139039440Y-97918466D01*
X138968011Y-97918466D01*
X138860868Y-97882751D01*
X138789440Y-97811323D01*
X138753725Y-97739894D01*
X138718011Y-97597037D01*
X138718011Y-97489894D01*
X138753725Y-97347037D01*
X138789440Y-97275609D01*
X138860868Y-97204180D01*
X138968011Y-97168466D01*
X139039440Y-97168466D01*
X139146583Y-97204180D01*
X139182297Y-97239894D01*
X139896583Y-97918466D02*
X139468011Y-97918466D01*
X139682297Y-97918466D02*
X139682297Y-97168466D01*
X139610868Y-97275609D01*
X139539440Y-97347037D01*
X139468011Y-97382751D01*
X140539440Y-97168466D02*
X140396583Y-97168466D01*
X140325154Y-97204180D01*
X140289440Y-97239894D01*
X140218011Y-97347037D01*
X140182297Y-97489894D01*
X140182297Y-97775609D01*
X140218011Y-97847037D01*
X140253726Y-97882751D01*
X140325154Y-97918466D01*
X140468011Y-97918466D01*
X140539440Y-97882751D01*
X140575154Y-97847037D01*
X140610869Y-97775609D01*
X140610869Y-97597037D01*
X140575154Y-97525609D01*
X140539440Y-97489894D01*
X140468011Y-97454180D01*
X140325154Y-97454180D01*
X140253726Y-97489894D01*
X140218011Y-97525609D01*
X140182297Y-97597037D01*
X160361405Y-109949881D02*
X160361405Y-108949881D01*
X160599500Y-108949881D01*
X160742358Y-108997500D01*
X160837596Y-109092738D01*
X160885215Y-109187976D01*
X160932834Y-109378452D01*
X160932834Y-109521310D01*
X160885215Y-109711786D01*
X160837596Y-109807024D01*
X160742358Y-109902262D01*
X160599500Y-109949881D01*
X160361405Y-109949881D01*
X161885215Y-109949881D02*
X161313786Y-109949881D01*
X161599500Y-109949881D02*
X161599500Y-108949881D01*
X161504262Y-109092738D01*
X161409024Y-109187976D01*
X161313786Y-109235595D01*
X169460587Y-87989161D02*
X169460587Y-88703447D01*
X169412967Y-88846304D01*
X169317729Y-88941542D01*
X169174872Y-88989161D01*
X169079634Y-88989161D01*
X170460587Y-88989161D02*
X169889158Y-88989161D01*
X170174872Y-88989161D02*
X170174872Y-87989161D01*
X170079634Y-88132018D01*
X169984396Y-88227256D01*
X169889158Y-88274875D01*
X161827887Y-89307421D02*
X161827887Y-90021707D01*
X161780267Y-90164564D01*
X161685029Y-90259802D01*
X161542172Y-90307421D01*
X161446934Y-90307421D01*
X162732649Y-89307421D02*
X162542172Y-89307421D01*
X162446934Y-89355040D01*
X162399315Y-89402659D01*
X162304077Y-89545516D01*
X162256458Y-89735992D01*
X162256458Y-90116945D01*
X162304077Y-90212183D01*
X162351696Y-90259802D01*
X162446934Y-90307421D01*
X162637411Y-90307421D01*
X162732649Y-90259802D01*
X162780268Y-90212183D01*
X162827887Y-90116945D01*
X162827887Y-89878850D01*
X162780268Y-89783611D01*
X162732649Y-89735992D01*
X162637411Y-89688373D01*
X162446934Y-89688373D01*
X162351696Y-89735992D01*
X162304077Y-89783611D01*
X162256458Y-89878850D01*
X146408597Y-83150597D02*
X146372883Y-83186311D01*
X146265740Y-83222026D01*
X146194311Y-83222026D01*
X146087168Y-83186311D01*
X146015740Y-83114883D01*
X145980025Y-83043454D01*
X145944311Y-82900597D01*
X145944311Y-82793454D01*
X145980025Y-82650597D01*
X146015740Y-82579169D01*
X146087168Y-82507740D01*
X146194311Y-82472026D01*
X146265740Y-82472026D01*
X146372883Y-82507740D01*
X146408597Y-82543454D01*
X147122883Y-83222026D02*
X146694311Y-83222026D01*
X146908597Y-83222026D02*
X146908597Y-82472026D01*
X146837168Y-82579169D01*
X146765740Y-82650597D01*
X146694311Y-82686311D01*
X147765740Y-82722026D02*
X147765740Y-83222026D01*
X147587169Y-82436311D02*
X147408597Y-82972026D01*
X147872883Y-82972026D01*
M02*
