G04 #@! TF.FileFunction,Copper,L1,Top,Signal*
%FSLAX46Y46*%
G04 Gerber Fmt 4.6, Leading zero omitted, Abs format (unit mm)*
G04 Created by KiCad (PCBNEW 4.0.7-e2-6376~60~ubuntu17.10.1) date Tue Feb 13 22:12:07 2018*
%MOMM*%
%LPD*%
G01*
G04 APERTURE LIST*
%ADD10C,0.100000*%
%ADD11R,0.800000X0.900000*%
%ADD12R,1.143000X0.508000*%
%ADD13R,1.350000X0.400000*%
%ADD14C,1.800000*%
%ADD15R,0.700000X1.300000*%
%ADD16R,1.300000X0.700000*%
%ADD17R,0.750000X0.800000*%
%ADD18R,1.000000X1.250000*%
%ADD19R,1.250000X1.000000*%
%ADD20R,0.508000X1.143000*%
%ADD21R,1.000000X1.000000*%
%ADD22C,4.400000*%
%ADD23R,2.900000X5.400000*%
%ADD24R,2.200000X3.000000*%
%ADD25O,1.998980X1.998980*%
%ADD26R,1.998980X1.998980*%
%ADD27R,2.500000X1.000000*%
%ADD28R,1.600000X1.000000*%
%ADD29R,2.500000X1.800000*%
%ADD30C,0.685800*%
%ADD31C,0.381000*%
%ADD32C,1.000000*%
%ADD33C,0.400000*%
%ADD34C,1.500000*%
G04 APERTURE END LIST*
D10*
D11*
X144968000Y-84344000D03*
X143068000Y-84344000D03*
X144018000Y-86344000D03*
D12*
X155829000Y-92837000D03*
X155829000Y-94107000D03*
X155829000Y-95377000D03*
X155829000Y-96647000D03*
X149479000Y-96647000D03*
X149479000Y-95377000D03*
X149479000Y-94107000D03*
X149479000Y-92837000D03*
D13*
X141812000Y-91410000D03*
X141812000Y-92060000D03*
X141812000Y-92710000D03*
X141812000Y-93360000D03*
X141812000Y-94010000D03*
D14*
X141812000Y-88985000D03*
X141787000Y-96435000D03*
X137987000Y-88835000D03*
X137987000Y-96585000D03*
D15*
X165166000Y-92202000D03*
X167066000Y-92202000D03*
D16*
X164846000Y-95946000D03*
X164846000Y-94046000D03*
X161277300Y-94650600D03*
X161277300Y-92750600D03*
X159143700Y-94523600D03*
X159143700Y-92623600D03*
D15*
X152308600Y-88544400D03*
X150408600Y-88544400D03*
X153464300Y-90601800D03*
X151564300Y-90601800D03*
D16*
X147320000Y-92014000D03*
X147320000Y-93914000D03*
X169456100Y-94084100D03*
X169456100Y-95984100D03*
X137414000Y-105344000D03*
X137414000Y-103444000D03*
D17*
X163576000Y-101080000D03*
X163576000Y-99580000D03*
D18*
X159020000Y-91059000D03*
X161020000Y-91059000D03*
D19*
X145288000Y-92440000D03*
X145288000Y-90440000D03*
D18*
X147082000Y-88392000D03*
X149082000Y-88392000D03*
D20*
X161925000Y-102743000D03*
X160655000Y-102743000D03*
X159385000Y-102743000D03*
X158115000Y-102743000D03*
X158115000Y-96393000D03*
X159385000Y-96393000D03*
X160655000Y-96393000D03*
X161925000Y-96393000D03*
D16*
X156667200Y-88046600D03*
X156667200Y-86146600D03*
D18*
X166386000Y-107442000D03*
X168386000Y-107442000D03*
D19*
X167132000Y-95996000D03*
X167132000Y-93996000D03*
D21*
X147258720Y-90434160D03*
X149758720Y-90434160D03*
D16*
X152120600Y-86852800D03*
X152120600Y-84952800D03*
X150215600Y-84902000D03*
X150215600Y-86802000D03*
D19*
X140716000Y-100822000D03*
X140716000Y-98822000D03*
D16*
X154457400Y-88008500D03*
X154457400Y-86108500D03*
D19*
X172275500Y-94046800D03*
X172275500Y-96046800D03*
D22*
X171450000Y-85344000D03*
X138684000Y-85344000D03*
D18*
X155057600Y-90220800D03*
X157057600Y-90220800D03*
D16*
X145542000Y-96200000D03*
X145542000Y-94300000D03*
D23*
X155006000Y-104267000D03*
X144206000Y-104267000D03*
D24*
X166518000Y-104140000D03*
X172318000Y-104140000D03*
X166772000Y-99568000D03*
X172572000Y-99568000D03*
D25*
X159512000Y-85852000D03*
D26*
X167132000Y-85852000D03*
D25*
X164592000Y-85852000D03*
X162052000Y-85852000D03*
D27*
X140970000Y-105386000D03*
X140970000Y-102386000D03*
D28*
X147828000Y-86590000D03*
X147828000Y-83590000D03*
D27*
X137922000Y-101830000D03*
X137922000Y-98830000D03*
D29*
X163099500Y-106997500D03*
X159099500Y-106997500D03*
D30*
X150114000Y-83820000D03*
X140716000Y-103632000D03*
X144780000Y-89154000D03*
X146050000Y-83058000D03*
X142875000Y-83350100D03*
X162585400Y-92684600D03*
X162026600Y-91097100D03*
X158165800Y-89623900D03*
X154178000Y-96774000D03*
X163576000Y-98450400D03*
X167830500Y-92252800D03*
X171691300Y-97256600D03*
X172478700Y-97282000D03*
X173405800Y-101942900D03*
X172415200Y-101904800D03*
X169329100Y-107149900D03*
X145796000Y-87630000D03*
X148590000Y-90424000D03*
X156718000Y-91948000D03*
X153924000Y-93980000D03*
X141986000Y-100584000D03*
X139446000Y-93726000D03*
X143510000Y-89154000D03*
X152120600Y-85572600D03*
X152146000Y-83820000D03*
X156464000Y-85090000D03*
X159512000Y-89535000D03*
X153924000Y-91694000D03*
X151892000Y-94234000D03*
X147828000Y-92964000D03*
X148082000Y-85090000D03*
X157734000Y-87122000D03*
D31*
X17526000Y-143263300D02*
X17526000Y-142989300D01*
X137987000Y-88835000D02*
X141662000Y-88835000D01*
X141662000Y-88835000D02*
X141812000Y-88985000D01*
X141812000Y-94010000D02*
X141812000Y-96410000D01*
X141812000Y-96410000D02*
X141787000Y-96435000D01*
X150215600Y-84902000D02*
X150215600Y-83921600D01*
X150215600Y-83921600D02*
X150114000Y-83820000D01*
D32*
X140970000Y-102386000D02*
X140970000Y-103378000D01*
X140970000Y-103378000D02*
X140716000Y-103632000D01*
X140716000Y-98822000D02*
X137930000Y-98822000D01*
X137930000Y-98822000D02*
X137922000Y-98830000D01*
X140716000Y-98822000D02*
X140716000Y-97506000D01*
X140716000Y-97506000D02*
X141787000Y-96435000D01*
X137922000Y-98830000D02*
X137922000Y-96650000D01*
X137922000Y-96650000D02*
X137987000Y-96585000D01*
D31*
X145288000Y-90440000D02*
X144764000Y-89170000D01*
X144764000Y-89170000D02*
X144780000Y-89154000D01*
X147828000Y-83590000D02*
X147828000Y-83413600D01*
X147828000Y-83413600D02*
X146050000Y-83058000D01*
X143068000Y-84344000D02*
X143068000Y-83543100D01*
X143068000Y-83543100D02*
X142875000Y-83350100D01*
X161277300Y-92750600D02*
X162519400Y-92750600D01*
X162519400Y-92750600D02*
X162585400Y-92684600D01*
X161020000Y-91059000D02*
X161988500Y-91059000D01*
X161988500Y-91059000D02*
X162026600Y-91097100D01*
X157057600Y-90220800D02*
X157568900Y-90220800D01*
X157568900Y-90220800D02*
X158165800Y-89623900D01*
X155194000Y-96774000D02*
X154178000Y-96634300D01*
X154178000Y-96634300D02*
X154178000Y-96774000D01*
X155829000Y-96647000D02*
X155194000Y-96774000D01*
X163576000Y-99580000D02*
X163576000Y-98450400D01*
X167066000Y-92202000D02*
X167779700Y-92202000D01*
X167779700Y-92202000D02*
X167830500Y-92252800D01*
D32*
X172572000Y-99568000D02*
X172572000Y-97375300D01*
X171958000Y-96989900D02*
X172275500Y-96046800D01*
X171691300Y-97256600D02*
X171958000Y-96989900D01*
X172572000Y-97375300D02*
X172478700Y-97282000D01*
X172318000Y-104140000D02*
X172318000Y-102002000D01*
X172572000Y-101109100D02*
X172572000Y-99568000D01*
X173405800Y-101942900D02*
X172572000Y-101109100D01*
X172318000Y-102002000D02*
X172415200Y-101904800D01*
X168386000Y-107442000D02*
X169037000Y-107442000D01*
D31*
X169037000Y-107442000D02*
X169329100Y-107149900D01*
X149758720Y-90434160D02*
X148600160Y-90434160D01*
X145872200Y-87553800D02*
X147082000Y-88392000D01*
X145796000Y-87630000D02*
X145872200Y-87553800D01*
X148600160Y-90434160D02*
X148590000Y-90424000D01*
X149758720Y-90434160D02*
X151396660Y-90434160D01*
X151396660Y-90434160D02*
X151564300Y-90601800D01*
X149479000Y-92837000D02*
X149479000Y-92583000D01*
X149479000Y-92583000D02*
X149758720Y-92303280D01*
X149758720Y-92303280D02*
X149758720Y-90434160D01*
X150408600Y-88544400D02*
X149107400Y-88366600D01*
X149107400Y-88366600D02*
X149082000Y-88392000D01*
X147320000Y-92014000D02*
X145714000Y-92014000D01*
X145714000Y-92014000D02*
X145288000Y-92440000D01*
D33*
X145288000Y-92440000D02*
X144780000Y-92964000D01*
X146558000Y-97282000D02*
X149479000Y-96647000D01*
X144780000Y-97282000D02*
X146558000Y-97282000D01*
X144272000Y-96774000D02*
X144780000Y-97282000D01*
X144272000Y-93472000D02*
X144272000Y-96774000D01*
X144780000Y-92964000D02*
X144272000Y-93472000D01*
D31*
X149479000Y-95377000D02*
X152273000Y-95377000D01*
X156972000Y-92202000D02*
X159143700Y-92202000D01*
X156718000Y-91948000D02*
X156972000Y-92202000D01*
X153670000Y-93980000D02*
X153924000Y-93980000D01*
X152273000Y-95377000D02*
X153670000Y-93980000D01*
X145542000Y-96200000D02*
X146116000Y-96200000D01*
X146116000Y-96200000D02*
X146685000Y-94869000D01*
X146685000Y-94869000D02*
X149479000Y-95377000D01*
X159143700Y-92623600D02*
X159143700Y-92202000D01*
X159143700Y-92202000D02*
X159143700Y-91182700D01*
X159143700Y-91182700D02*
X159020000Y-91059000D01*
D32*
X161925000Y-102743000D02*
X162991800Y-102743000D01*
D31*
X163576000Y-102158800D02*
X163576000Y-101080000D01*
X162991800Y-102743000D02*
X163576000Y-102158800D01*
D34*
X159099500Y-106997500D02*
X157038000Y-105918000D01*
X157038000Y-105918000D02*
X155006000Y-103886000D01*
X159099500Y-106997500D02*
X159036000Y-103092000D01*
D32*
X159036000Y-103092000D02*
X159385000Y-102743000D01*
D34*
X160655000Y-102743000D02*
X161925000Y-102743000D01*
X159385000Y-102743000D02*
X160655000Y-102743000D01*
X155006000Y-103886000D02*
X156972000Y-103886000D01*
X156972000Y-103886000D02*
X158115000Y-102743000D01*
X158115000Y-102743000D02*
X159385000Y-102743000D01*
D32*
X169456100Y-94084100D02*
X172238200Y-94084100D01*
X172238200Y-94084100D02*
X172275500Y-94046800D01*
X170548300Y-90893900D02*
X169824400Y-90893900D01*
X171958000Y-92303600D02*
X170548300Y-90893900D01*
X172275500Y-94046800D02*
X171958000Y-92303600D01*
X167132000Y-88201500D02*
X167132000Y-85852000D01*
X169824400Y-90893900D02*
X167132000Y-88201500D01*
D33*
X155829000Y-95377000D02*
X157099000Y-95377000D01*
X157099000Y-95377000D02*
X158115000Y-96393000D01*
D34*
X160655000Y-96393000D02*
X160655000Y-94523600D01*
X160655000Y-94523600D02*
X160436600Y-94742000D01*
X160274000Y-94742000D02*
X160274000Y-94523600D01*
X160436600Y-94742000D02*
X160274000Y-94742000D01*
X161544000Y-96393000D02*
X161544000Y-94917300D01*
X161544000Y-94917300D02*
X161277300Y-94650600D01*
X159143700Y-94523600D02*
X160274000Y-94523600D01*
X160274000Y-94523600D02*
X161150300Y-94523600D01*
X161150300Y-94523600D02*
X161277300Y-94650600D01*
D32*
X159385000Y-96393000D02*
X159385000Y-94764900D01*
D34*
X159385000Y-94764900D02*
X159143700Y-94523600D01*
D32*
X160655000Y-96393000D02*
X159385000Y-96393000D01*
D34*
X161925000Y-96393000D02*
X161544000Y-96393000D01*
X161544000Y-96393000D02*
X160655000Y-96393000D01*
D31*
X141812000Y-91410000D02*
X140462000Y-91410000D01*
X142544000Y-91410000D02*
X140462000Y-91410000D01*
D32*
X139446000Y-93726000D02*
X139700000Y-93472000D01*
X139700000Y-93472000D02*
X140432000Y-91440000D01*
D33*
X141748000Y-100822000D02*
X141986000Y-100584000D01*
D32*
X141748000Y-100822000D02*
X140716000Y-100822000D01*
D31*
X140462000Y-91410000D02*
X140432000Y-91440000D01*
X142544000Y-91410000D02*
X142916074Y-91340261D01*
D32*
X143510000Y-89154000D02*
X143140074Y-91116261D01*
D31*
X142916074Y-91340261D02*
X143140074Y-91116261D01*
D32*
X152120600Y-84952800D02*
X152120600Y-85572600D01*
X152120600Y-85572600D02*
X152146000Y-85598000D01*
X156667200Y-86146600D02*
X156667200Y-85293200D01*
X152120600Y-83845400D02*
X152120600Y-84952800D01*
X152146000Y-83820000D02*
X152120600Y-83845400D01*
X156667200Y-85293200D02*
X156464000Y-85090000D01*
X159512000Y-85852000D02*
X156961800Y-85852000D01*
X156961800Y-85852000D02*
X156667200Y-86146600D01*
D34*
X140716000Y-100822000D02*
X138930000Y-100822000D01*
X138930000Y-100822000D02*
X137922000Y-101830000D01*
X137414000Y-103444000D02*
X137414000Y-102338000D01*
X137414000Y-102338000D02*
X137922000Y-101830000D01*
D31*
X141812000Y-92060000D02*
X141812000Y-92710000D01*
D32*
X167132000Y-95996000D02*
X164896000Y-95996000D01*
X164896000Y-95996000D02*
X164846000Y-95946000D01*
X167132000Y-95996000D02*
X169444200Y-95996000D01*
X169444200Y-95996000D02*
X169456100Y-95984100D01*
X166772000Y-99568000D02*
X166772000Y-96356000D01*
X166772000Y-96356000D02*
X167132000Y-95996000D01*
X166518000Y-104140000D02*
X166518000Y-99822000D01*
X166518000Y-99822000D02*
X166772000Y-99568000D01*
X166386000Y-107442000D02*
X166386000Y-107064300D01*
X166386000Y-107064300D02*
X165239700Y-105918000D01*
X165239700Y-105918000D02*
X163099500Y-106997500D01*
X166518000Y-104140000D02*
X166518000Y-104639700D01*
X166518000Y-104639700D02*
X165239700Y-105918000D01*
X165239700Y-105918000D02*
X163099500Y-106997500D01*
D31*
X159512000Y-89535000D02*
X160401000Y-89535000D01*
X163830000Y-93472000D02*
X163830000Y-90868500D01*
X163830000Y-90868500D02*
X162496500Y-89535000D01*
X162496500Y-89535000D02*
X160401000Y-89535000D01*
X160401000Y-89535000D02*
X159575500Y-89535000D01*
D33*
X165166000Y-93406000D02*
X165100000Y-93472000D01*
X163830000Y-93472000D02*
X165100000Y-93472000D01*
X153924000Y-91694000D02*
X153464300Y-91234300D01*
X164846000Y-94046000D02*
X164846000Y-93726000D01*
X164846000Y-93726000D02*
X165166000Y-93406000D01*
X165166000Y-93406000D02*
X165166000Y-92202000D01*
X165166000Y-92202000D02*
X165166000Y-93406000D01*
X153464300Y-90601800D02*
X153464300Y-91234300D01*
D31*
X149479000Y-94107000D02*
X150749000Y-94107000D01*
X153464300Y-91391700D02*
X153464300Y-90601800D01*
X150749000Y-94107000D02*
X153464300Y-91391700D01*
X153464300Y-90601800D02*
X152524500Y-89662000D01*
X152524500Y-89662000D02*
X152524500Y-88760300D01*
X152524500Y-88760300D02*
X152308600Y-88544400D01*
X167132000Y-93996000D02*
X164896000Y-93996000D01*
X164896000Y-93996000D02*
X164846000Y-94046000D01*
X147258720Y-90434160D02*
X146822160Y-90434160D01*
X146822160Y-90434160D02*
X146304000Y-89408000D01*
X146304000Y-89408000D02*
X145796000Y-88900000D01*
X145796000Y-88900000D02*
X144018000Y-87122000D01*
X144018000Y-87122000D02*
X144018000Y-85852000D01*
X144018000Y-85852000D02*
X144018000Y-86344000D01*
D33*
X149961600Y-86802000D02*
X147920800Y-86243200D01*
X147920800Y-86243200D02*
X147828000Y-86590000D01*
X152120600Y-86852800D02*
X150012400Y-86852800D01*
X150012400Y-86852800D02*
X149961600Y-86802000D01*
D31*
X147828000Y-86590000D02*
X146558000Y-86360000D01*
X146558000Y-86360000D02*
X144018000Y-86344000D01*
D33*
X154457400Y-86108500D02*
X154457400Y-85064600D01*
D32*
X162052000Y-84074000D02*
X162052000Y-85852000D01*
X161544000Y-83566000D02*
X162052000Y-84074000D01*
X155956000Y-83566000D02*
X161544000Y-83566000D01*
D33*
X154457400Y-85064600D02*
X155956000Y-83566000D01*
D31*
X155057600Y-90220800D02*
X155057600Y-92065600D01*
X155057600Y-92065600D02*
X155829000Y-92837000D01*
X147320000Y-93914000D02*
X147320000Y-93472000D01*
X153416000Y-92710000D02*
X155702000Y-92710000D01*
X151892000Y-94234000D02*
X153416000Y-92710000D01*
X147320000Y-93472000D02*
X147828000Y-92964000D01*
X155702000Y-92710000D02*
X155829000Y-92837000D01*
X147320000Y-93914000D02*
X145928000Y-93914000D01*
X145928000Y-93914000D02*
X145542000Y-94300000D01*
D32*
X144206000Y-103886000D02*
X144206000Y-103444000D01*
D33*
X144206000Y-103444000D02*
X149098000Y-98552000D01*
X150876000Y-98552000D02*
X155321000Y-94107000D01*
X149098000Y-98552000D02*
X150876000Y-98552000D01*
X155321000Y-94107000D02*
X155829000Y-94107000D01*
D32*
X144206000Y-103886000D02*
X145542000Y-103886000D01*
D34*
X140970000Y-105386000D02*
X137456000Y-105386000D01*
X137456000Y-105386000D02*
X137414000Y-105344000D01*
X144206000Y-103886000D02*
X144206000Y-103886000D01*
X144206000Y-103886000D02*
X140970000Y-105386000D01*
D31*
X145812000Y-84344000D02*
X146558000Y-85090000D01*
X146558000Y-85090000D02*
X148082000Y-85090000D01*
X144968000Y-84344000D02*
X145812000Y-84344000D01*
X157734000Y-87122000D02*
X156809400Y-88046600D01*
X156809400Y-88046600D02*
X156667200Y-88046600D01*
D33*
X156667200Y-88046600D02*
X154495500Y-88046600D01*
X154495500Y-88046600D02*
X154457400Y-88008500D01*
M02*
