G04 #@! TF.GenerationSoftware,KiCad,Pcbnew,5.1.6-c6e7f7d~87~ubuntu20.04.1*
G04 #@! TF.CreationDate,2021-06-05T20:06:15-07:00*
G04 #@! TF.ProjectId,NixieSupply5vto170vDCMBoostMini,4e697869-6553-4757-9070-6c793576746f,rev?*
G04 #@! TF.SameCoordinates,Original*
G04 #@! TF.FileFunction,Legend,Bot*
G04 #@! TF.FilePolarity,Positive*
%FSLAX46Y46*%
G04 Gerber Fmt 4.6, Leading zero omitted, Abs format (unit mm)*
G04 Created by KiCad (PCBNEW 5.1.6-c6e7f7d~87~ubuntu20.04.1) date 2021-06-05 20:06:15*
%MOMM*%
%LPD*%
G01*
G04 APERTURE LIST*
%ADD10C,0.200000*%
%ADD11C,0.300000*%
%ADD12C,0.002540*%
%ADD13C,0.010000*%
G04 APERTURE END LIST*
D10*
X158622214Y-108465880D02*
X158622214Y-107465880D01*
X158288880Y-108180166D01*
X157955547Y-107465880D01*
X157955547Y-108465880D01*
X157050785Y-108465880D02*
X157050785Y-107942071D01*
X157098404Y-107846833D01*
X157193642Y-107799214D01*
X157384119Y-107799214D01*
X157479357Y-107846833D01*
X157050785Y-108418261D02*
X157146023Y-108465880D01*
X157384119Y-108465880D01*
X157479357Y-108418261D01*
X157526976Y-108323023D01*
X157526976Y-108227785D01*
X157479357Y-108132547D01*
X157384119Y-108084928D01*
X157146023Y-108084928D01*
X157050785Y-108037309D01*
X156574595Y-108465880D02*
X156574595Y-107799214D01*
X156574595Y-107989690D02*
X156526976Y-107894452D01*
X156479357Y-107846833D01*
X156384119Y-107799214D01*
X156288880Y-107799214D01*
X155955547Y-108465880D02*
X155955547Y-107465880D01*
X155860309Y-108084928D02*
X155574595Y-108465880D01*
X155574595Y-107799214D02*
X155955547Y-108180166D01*
X154431738Y-108418261D02*
X154288880Y-108465880D01*
X154050785Y-108465880D01*
X153955547Y-108418261D01*
X153907928Y-108370642D01*
X153860309Y-108275404D01*
X153860309Y-108180166D01*
X153907928Y-108084928D01*
X153955547Y-108037309D01*
X154050785Y-107989690D01*
X154241261Y-107942071D01*
X154336500Y-107894452D01*
X154384119Y-107846833D01*
X154431738Y-107751595D01*
X154431738Y-107656357D01*
X154384119Y-107561119D01*
X154336500Y-107513500D01*
X154241261Y-107465880D01*
X154003166Y-107465880D01*
X153860309Y-107513500D01*
X153431738Y-108465880D02*
X153431738Y-107799214D01*
X153431738Y-107894452D02*
X153384119Y-107846833D01*
X153288880Y-107799214D01*
X153146023Y-107799214D01*
X153050785Y-107846833D01*
X153003166Y-107942071D01*
X153003166Y-108465880D01*
X153003166Y-107942071D02*
X152955547Y-107846833D01*
X152860309Y-107799214D01*
X152717452Y-107799214D01*
X152622214Y-107846833D01*
X152574595Y-107942071D01*
X152574595Y-108465880D01*
X152098404Y-108465880D02*
X152098404Y-107799214D01*
X152098404Y-107465880D02*
X152146023Y-107513500D01*
X152098404Y-107561119D01*
X152050785Y-107513500D01*
X152098404Y-107465880D01*
X152098404Y-107561119D01*
X151765071Y-107799214D02*
X151384119Y-107799214D01*
X151622214Y-107465880D02*
X151622214Y-108323023D01*
X151574595Y-108418261D01*
X151479357Y-108465880D01*
X151384119Y-108465880D01*
X151050785Y-108465880D02*
X151050785Y-107465880D01*
X150622214Y-108465880D02*
X150622214Y-107942071D01*
X150669833Y-107846833D01*
X150765071Y-107799214D01*
X150907928Y-107799214D01*
X151003166Y-107846833D01*
X151050785Y-107894452D01*
X149431738Y-107561119D02*
X149384119Y-107513500D01*
X149288880Y-107465880D01*
X149050785Y-107465880D01*
X148955547Y-107513500D01*
X148907928Y-107561119D01*
X148860309Y-107656357D01*
X148860309Y-107751595D01*
X148907928Y-107894452D01*
X149479357Y-108465880D01*
X148860309Y-108465880D01*
X148241261Y-107465880D02*
X148146023Y-107465880D01*
X148050785Y-107513500D01*
X148003166Y-107561119D01*
X147955547Y-107656357D01*
X147907928Y-107846833D01*
X147907928Y-108084928D01*
X147955547Y-108275404D01*
X148003166Y-108370642D01*
X148050785Y-108418261D01*
X148146023Y-108465880D01*
X148241261Y-108465880D01*
X148336500Y-108418261D01*
X148384119Y-108370642D01*
X148431738Y-108275404D01*
X148479357Y-108084928D01*
X148479357Y-107846833D01*
X148431738Y-107656357D01*
X148384119Y-107561119D01*
X148336500Y-107513500D01*
X148241261Y-107465880D01*
X146955547Y-108465880D02*
X147526976Y-108465880D01*
X147241261Y-108465880D02*
X147241261Y-107465880D01*
X147336500Y-107608738D01*
X147431738Y-107703976D01*
X147526976Y-107751595D01*
X146384119Y-107894452D02*
X146479357Y-107846833D01*
X146526976Y-107799214D01*
X146574595Y-107703976D01*
X146574595Y-107656357D01*
X146526976Y-107561119D01*
X146479357Y-107513500D01*
X146384119Y-107465880D01*
X146193642Y-107465880D01*
X146098404Y-107513500D01*
X146050785Y-107561119D01*
X146003166Y-107656357D01*
X146003166Y-107703976D01*
X146050785Y-107799214D01*
X146098404Y-107846833D01*
X146193642Y-107894452D01*
X146384119Y-107894452D01*
X146479357Y-107942071D01*
X146526976Y-107989690D01*
X146574595Y-108084928D01*
X146574595Y-108275404D01*
X146526976Y-108370642D01*
X146479357Y-108418261D01*
X146384119Y-108465880D01*
X146193642Y-108465880D01*
X146098404Y-108418261D01*
X146050785Y-108370642D01*
X146003166Y-108275404D01*
X146003166Y-108084928D01*
X146050785Y-107989690D01*
X146098404Y-107942071D01*
X146193642Y-107894452D01*
X166582785Y-105259214D02*
X166297071Y-105925880D01*
X166011357Y-105449690D01*
X165725642Y-105925880D01*
X165439928Y-105259214D01*
X165011357Y-105259214D02*
X164725642Y-105925880D01*
X164439928Y-105449690D01*
X164154214Y-105925880D01*
X163868500Y-105259214D01*
X163439928Y-105259214D02*
X163154214Y-105925880D01*
X162868500Y-105449690D01*
X162582785Y-105925880D01*
X162297071Y-105259214D01*
X161725642Y-105830642D02*
X161654214Y-105878261D01*
X161725642Y-105925880D01*
X161797071Y-105878261D01*
X161725642Y-105830642D01*
X161725642Y-105925880D01*
X161082785Y-105878261D02*
X160939928Y-105925880D01*
X160654214Y-105925880D01*
X160511357Y-105878261D01*
X160439928Y-105783023D01*
X160439928Y-105735404D01*
X160511357Y-105640166D01*
X160654214Y-105592547D01*
X160868500Y-105592547D01*
X161011357Y-105544928D01*
X161082785Y-105449690D01*
X161082785Y-105402071D01*
X161011357Y-105306833D01*
X160868500Y-105259214D01*
X160654214Y-105259214D01*
X160511357Y-105306833D01*
X159154214Y-105259214D02*
X159154214Y-105925880D01*
X159797071Y-105259214D02*
X159797071Y-105783023D01*
X159725642Y-105878261D01*
X159582785Y-105925880D01*
X159368500Y-105925880D01*
X159225642Y-105878261D01*
X159154214Y-105830642D01*
X158439928Y-105925880D02*
X158439928Y-105259214D01*
X158439928Y-105449690D02*
X158368500Y-105354452D01*
X158297071Y-105306833D01*
X158154214Y-105259214D01*
X158011357Y-105259214D01*
X157725642Y-105259214D02*
X157154214Y-105259214D01*
X157511357Y-105925880D02*
X157511357Y-105068738D01*
X157439928Y-104973500D01*
X157297071Y-104925880D01*
X157154214Y-104925880D01*
X156654214Y-105259214D02*
X156654214Y-105925880D01*
X156654214Y-105354452D02*
X156582785Y-105306833D01*
X156439928Y-105259214D01*
X156225642Y-105259214D01*
X156082785Y-105306833D01*
X156011357Y-105402071D01*
X156011357Y-105925880D01*
X154654214Y-105878261D02*
X154797071Y-105925880D01*
X155082785Y-105925880D01*
X155225642Y-105878261D01*
X155297071Y-105830642D01*
X155368500Y-105735404D01*
X155368500Y-105449690D01*
X155297071Y-105354452D01*
X155225642Y-105306833D01*
X155082785Y-105259214D01*
X154797071Y-105259214D01*
X154654214Y-105306833D01*
X154011357Y-105925880D02*
X154011357Y-105259214D01*
X154011357Y-104925880D02*
X154082785Y-104973500D01*
X154011357Y-105021119D01*
X153939928Y-104973500D01*
X154011357Y-104925880D01*
X154011357Y-105021119D01*
X153297071Y-105925880D02*
X153297071Y-105259214D01*
X153297071Y-105449690D02*
X153225642Y-105354452D01*
X153154214Y-105306833D01*
X153011357Y-105259214D01*
X152868500Y-105259214D01*
X151725642Y-105878261D02*
X151868500Y-105925880D01*
X152154214Y-105925880D01*
X152297071Y-105878261D01*
X152368500Y-105830642D01*
X152439928Y-105735404D01*
X152439928Y-105449690D01*
X152368500Y-105354452D01*
X152297071Y-105306833D01*
X152154214Y-105259214D01*
X151868500Y-105259214D01*
X151725642Y-105306833D01*
X150439928Y-105259214D02*
X150439928Y-105925880D01*
X151082785Y-105259214D02*
X151082785Y-105783023D01*
X151011357Y-105878261D01*
X150868500Y-105925880D01*
X150654214Y-105925880D01*
X150511357Y-105878261D01*
X150439928Y-105830642D01*
X149725642Y-105925880D02*
X149725642Y-105259214D01*
X149725642Y-104925880D02*
X149797071Y-104973500D01*
X149725642Y-105021119D01*
X149654214Y-104973500D01*
X149725642Y-104925880D01*
X149725642Y-105021119D01*
X149225642Y-105259214D02*
X148654214Y-105259214D01*
X149011357Y-104925880D02*
X149011357Y-105783023D01*
X148939928Y-105878261D01*
X148797071Y-105925880D01*
X148654214Y-105925880D01*
X148225642Y-105878261D02*
X148082785Y-105925880D01*
X147797071Y-105925880D01*
X147654214Y-105878261D01*
X147582785Y-105783023D01*
X147582785Y-105735404D01*
X147654214Y-105640166D01*
X147797071Y-105592547D01*
X148011357Y-105592547D01*
X148154214Y-105544928D01*
X148225642Y-105449690D01*
X148225642Y-105402071D01*
X148154214Y-105306833D01*
X148011357Y-105259214D01*
X147797071Y-105259214D01*
X147654214Y-105306833D01*
X146939928Y-105830642D02*
X146868500Y-105878261D01*
X146939928Y-105925880D01*
X147011357Y-105878261D01*
X146939928Y-105830642D01*
X146939928Y-105925880D01*
X145582785Y-105878261D02*
X145725642Y-105925880D01*
X146011357Y-105925880D01*
X146154214Y-105878261D01*
X146225642Y-105830642D01*
X146297071Y-105735404D01*
X146297071Y-105449690D01*
X146225642Y-105354452D01*
X146154214Y-105306833D01*
X146011357Y-105259214D01*
X145725642Y-105259214D01*
X145582785Y-105306833D01*
X144725642Y-105925880D02*
X144868500Y-105878261D01*
X144939928Y-105830642D01*
X145011357Y-105735404D01*
X145011357Y-105449690D01*
X144939928Y-105354452D01*
X144868500Y-105306833D01*
X144725642Y-105259214D01*
X144511357Y-105259214D01*
X144368500Y-105306833D01*
X144297071Y-105354452D01*
X144225642Y-105449690D01*
X144225642Y-105735404D01*
X144297071Y-105830642D01*
X144368500Y-105878261D01*
X144511357Y-105925880D01*
X144725642Y-105925880D01*
X143582785Y-105925880D02*
X143582785Y-105259214D01*
X143582785Y-105354452D02*
X143511357Y-105306833D01*
X143368500Y-105259214D01*
X143154214Y-105259214D01*
X143011357Y-105306833D01*
X142939928Y-105402071D01*
X142939928Y-105925880D01*
X142939928Y-105402071D02*
X142868500Y-105306833D01*
X142725642Y-105259214D01*
X142511357Y-105259214D01*
X142368500Y-105306833D01*
X142297071Y-105402071D01*
X142297071Y-105925880D01*
D11*
X170483714Y-99548071D02*
X170483714Y-98048071D01*
X169626571Y-99548071D01*
X169626571Y-98048071D01*
X168912285Y-99548071D02*
X168912285Y-98548071D01*
X168912285Y-98048071D02*
X168983714Y-98119500D01*
X168912285Y-98190928D01*
X168840857Y-98119500D01*
X168912285Y-98048071D01*
X168912285Y-98190928D01*
X168340857Y-99548071D02*
X167555142Y-98548071D01*
X168340857Y-98548071D02*
X167555142Y-99548071D01*
X166983714Y-99548071D02*
X166983714Y-98548071D01*
X166983714Y-98048071D02*
X167055142Y-98119500D01*
X166983714Y-98190928D01*
X166912285Y-98119500D01*
X166983714Y-98048071D01*
X166983714Y-98190928D01*
X165698000Y-99476642D02*
X165840857Y-99548071D01*
X166126571Y-99548071D01*
X166269428Y-99476642D01*
X166340857Y-99333785D01*
X166340857Y-98762357D01*
X166269428Y-98619500D01*
X166126571Y-98548071D01*
X165840857Y-98548071D01*
X165698000Y-98619500D01*
X165626571Y-98762357D01*
X165626571Y-98905214D01*
X166340857Y-99048071D01*
X165055142Y-99476642D02*
X164840857Y-99548071D01*
X164483714Y-99548071D01*
X164340857Y-99476642D01*
X164269428Y-99405214D01*
X164198000Y-99262357D01*
X164198000Y-99119500D01*
X164269428Y-98976642D01*
X164340857Y-98905214D01*
X164483714Y-98833785D01*
X164769428Y-98762357D01*
X164912285Y-98690928D01*
X164983714Y-98619500D01*
X165055142Y-98476642D01*
X165055142Y-98333785D01*
X164983714Y-98190928D01*
X164912285Y-98119500D01*
X164769428Y-98048071D01*
X164412285Y-98048071D01*
X164198000Y-98119500D01*
X162912285Y-98548071D02*
X162912285Y-99548071D01*
X163555142Y-98548071D02*
X163555142Y-99333785D01*
X163483714Y-99476642D01*
X163340857Y-99548071D01*
X163126571Y-99548071D01*
X162983714Y-99476642D01*
X162912285Y-99405214D01*
X162198000Y-98548071D02*
X162198000Y-100048071D01*
X162198000Y-98619500D02*
X162055142Y-98548071D01*
X161769428Y-98548071D01*
X161626571Y-98619500D01*
X161555142Y-98690928D01*
X161483714Y-98833785D01*
X161483714Y-99262357D01*
X161555142Y-99405214D01*
X161626571Y-99476642D01*
X161769428Y-99548071D01*
X162055142Y-99548071D01*
X162198000Y-99476642D01*
X160840857Y-98548071D02*
X160840857Y-100048071D01*
X160840857Y-98619500D02*
X160698000Y-98548071D01*
X160412285Y-98548071D01*
X160269428Y-98619500D01*
X160198000Y-98690928D01*
X160126571Y-98833785D01*
X160126571Y-99262357D01*
X160198000Y-99405214D01*
X160269428Y-99476642D01*
X160412285Y-99548071D01*
X160698000Y-99548071D01*
X160840857Y-99476642D01*
X159269428Y-99548071D02*
X159412285Y-99476642D01*
X159483714Y-99333785D01*
X159483714Y-98048071D01*
X158840857Y-98548071D02*
X158483714Y-99548071D01*
X158126571Y-98548071D02*
X158483714Y-99548071D01*
X158626571Y-99905214D01*
X158698000Y-99976642D01*
X158840857Y-100048071D01*
X157555142Y-99548071D02*
X157555142Y-98048071D01*
X157055142Y-99119500D01*
X156555142Y-98048071D01*
X156555142Y-99548071D01*
X155840857Y-99548071D02*
X155840857Y-98548071D01*
X155840857Y-98048071D02*
X155912285Y-98119500D01*
X155840857Y-98190928D01*
X155769428Y-98119500D01*
X155840857Y-98048071D01*
X155840857Y-98190928D01*
X155126571Y-98548071D02*
X155126571Y-99548071D01*
X155126571Y-98690928D02*
X155055142Y-98619500D01*
X154912285Y-98548071D01*
X154698000Y-98548071D01*
X154555142Y-98619500D01*
X154483714Y-98762357D01*
X154483714Y-99548071D01*
X153769428Y-99548071D02*
X153769428Y-98548071D01*
X153769428Y-98048071D02*
X153840857Y-98119500D01*
X153769428Y-98190928D01*
X153698000Y-98119500D01*
X153769428Y-98048071D01*
X153769428Y-98190928D01*
X151055142Y-99548071D02*
X151555142Y-98833785D01*
X151912285Y-99548071D02*
X151912285Y-98048071D01*
X151340857Y-98048071D01*
X151198000Y-98119500D01*
X151126571Y-98190928D01*
X151055142Y-98333785D01*
X151055142Y-98548071D01*
X151126571Y-98690928D01*
X151198000Y-98762357D01*
X151340857Y-98833785D01*
X151912285Y-98833785D01*
X149840857Y-99476642D02*
X149983714Y-99548071D01*
X150269428Y-99548071D01*
X150412285Y-99476642D01*
X150483714Y-99333785D01*
X150483714Y-98762357D01*
X150412285Y-98619500D01*
X150269428Y-98548071D01*
X149983714Y-98548071D01*
X149840857Y-98619500D01*
X149769428Y-98762357D01*
X149769428Y-98905214D01*
X150483714Y-99048071D01*
X149269428Y-98548071D02*
X148912285Y-99548071D01*
X148555142Y-98548071D01*
X148126571Y-98048071D02*
X147198000Y-98048071D01*
X147698000Y-98619500D01*
X147483714Y-98619500D01*
X147340857Y-98690928D01*
X147269428Y-98762357D01*
X147198000Y-98905214D01*
X147198000Y-99262357D01*
X147269428Y-99405214D01*
X147340857Y-99476642D01*
X147483714Y-99548071D01*
X147912285Y-99548071D01*
X148055142Y-99476642D01*
X148126571Y-99405214D01*
X146912285Y-99690928D02*
X145769428Y-99690928D01*
X144626571Y-99548071D02*
X145483714Y-99548071D01*
X145055142Y-99548071D02*
X145055142Y-98048071D01*
X145198000Y-98262357D01*
X145340857Y-98405214D01*
X145483714Y-98476642D01*
X143769428Y-98690928D02*
X143912285Y-98619500D01*
X143983714Y-98548071D01*
X144055142Y-98405214D01*
X144055142Y-98333785D01*
X143983714Y-98190928D01*
X143912285Y-98119500D01*
X143769428Y-98048071D01*
X143483714Y-98048071D01*
X143340857Y-98119500D01*
X143269428Y-98190928D01*
X143198000Y-98333785D01*
X143198000Y-98405214D01*
X143269428Y-98548071D01*
X143340857Y-98619500D01*
X143483714Y-98690928D01*
X143769428Y-98690928D01*
X143912285Y-98762357D01*
X143983714Y-98833785D01*
X144055142Y-98976642D01*
X144055142Y-99262357D01*
X143983714Y-99405214D01*
X143912285Y-99476642D01*
X143769428Y-99548071D01*
X143483714Y-99548071D01*
X143340857Y-99476642D01*
X143269428Y-99405214D01*
X143198000Y-99262357D01*
X143198000Y-98976642D01*
X143269428Y-98833785D01*
X143340857Y-98762357D01*
X143483714Y-98690928D01*
X141769428Y-99548071D02*
X142626571Y-99548071D01*
X142198000Y-99548071D02*
X142198000Y-98048071D01*
X142340857Y-98262357D01*
X142483714Y-98405214D01*
X142626571Y-98476642D01*
X141198000Y-98190928D02*
X141126571Y-98119500D01*
X140983714Y-98048071D01*
X140626571Y-98048071D01*
X140483714Y-98119500D01*
X140412285Y-98190928D01*
X140340857Y-98333785D01*
X140340857Y-98476642D01*
X140412285Y-98690928D01*
X141269428Y-99548071D01*
X140340857Y-99548071D01*
D12*
G04 #@! TO.C,G\u002A\u002A\u002A*
G36*
X154929840Y-104734360D02*
G01*
X154904440Y-104719120D01*
X154846020Y-104683560D01*
X154762200Y-104627680D01*
X154663140Y-104561640D01*
X154564080Y-104495600D01*
X154482800Y-104442260D01*
X154426920Y-104404160D01*
X154401520Y-104391460D01*
X154388820Y-104396540D01*
X154343100Y-104419400D01*
X154274520Y-104454960D01*
X154233880Y-104475280D01*
X154172920Y-104500680D01*
X154139900Y-104508300D01*
X154134820Y-104498140D01*
X154111960Y-104449880D01*
X154076400Y-104368600D01*
X154030680Y-104259380D01*
X153974800Y-104132380D01*
X153918920Y-103997760D01*
X153860500Y-103858060D01*
X153804620Y-103723440D01*
X153756360Y-103604060D01*
X153715720Y-103507540D01*
X153690320Y-103438960D01*
X153680160Y-103411020D01*
X153682700Y-103403400D01*
X153715720Y-103372920D01*
X153769060Y-103332280D01*
X153888440Y-103235760D01*
X154005280Y-103090980D01*
X154076400Y-102925880D01*
X154099260Y-102740460D01*
X154078940Y-102570280D01*
X154012900Y-102407720D01*
X153898600Y-102260400D01*
X153758900Y-102151180D01*
X153596340Y-102082600D01*
X153416000Y-102059740D01*
X153243280Y-102080060D01*
X153075640Y-102146100D01*
X152928320Y-102257860D01*
X152864820Y-102328980D01*
X152778460Y-102478840D01*
X152730200Y-102636320D01*
X152725120Y-102676960D01*
X152732740Y-102852220D01*
X152783540Y-103022400D01*
X152877520Y-103172260D01*
X153007060Y-103296720D01*
X153022300Y-103306880D01*
X153080720Y-103352600D01*
X153121360Y-103383080D01*
X153151840Y-103408480D01*
X152928320Y-103946960D01*
X152892760Y-104030780D01*
X152831800Y-104178100D01*
X152778460Y-104305100D01*
X152735280Y-104406700D01*
X152704800Y-104472740D01*
X152692100Y-104500680D01*
X152692100Y-104503220D01*
X152671780Y-104505760D01*
X152631140Y-104490520D01*
X152554940Y-104454960D01*
X152506680Y-104429560D01*
X152448260Y-104401620D01*
X152422860Y-104391460D01*
X152400000Y-104404160D01*
X152346660Y-104439720D01*
X152265380Y-104493060D01*
X152168860Y-104556560D01*
X152077420Y-104620060D01*
X151993600Y-104675940D01*
X151932640Y-104714040D01*
X151902160Y-104731820D01*
X151897080Y-104731820D01*
X151871680Y-104716580D01*
X151823420Y-104675940D01*
X151749760Y-104607360D01*
X151645620Y-104503220D01*
X151630380Y-104487980D01*
X151544020Y-104401620D01*
X151475440Y-104327960D01*
X151429720Y-104277160D01*
X151411940Y-104254300D01*
X151427180Y-104223820D01*
X151465280Y-104162860D01*
X151521160Y-104076500D01*
X151589740Y-103977440D01*
X151767540Y-103718360D01*
X151671020Y-103474520D01*
X151640540Y-103398320D01*
X151602440Y-103309420D01*
X151574500Y-103243380D01*
X151559260Y-103215440D01*
X151533860Y-103205280D01*
X151465280Y-103190040D01*
X151368760Y-103169720D01*
X151254460Y-103149400D01*
X151142700Y-103129080D01*
X151043640Y-103108760D01*
X150972520Y-103096060D01*
X150939500Y-103088440D01*
X150931880Y-103083360D01*
X150924260Y-103068120D01*
X150921720Y-103035100D01*
X150919180Y-102974140D01*
X150916640Y-102880160D01*
X150916640Y-102740460D01*
X150916640Y-102725220D01*
X150919180Y-102595680D01*
X150921720Y-102489000D01*
X150924260Y-102422960D01*
X150929340Y-102395020D01*
X150959820Y-102387400D01*
X151030940Y-102372160D01*
X151130000Y-102354380D01*
X151249380Y-102331520D01*
X151257000Y-102328980D01*
X151373840Y-102306120D01*
X151472900Y-102285800D01*
X151544020Y-102270560D01*
X151571960Y-102260400D01*
X151579580Y-102252780D01*
X151602440Y-102207060D01*
X151635460Y-102133400D01*
X151676100Y-102044500D01*
X151714200Y-101950520D01*
X151747220Y-101866700D01*
X151770080Y-101805740D01*
X151777700Y-101777800D01*
X151775160Y-101775260D01*
X151757380Y-101747320D01*
X151716740Y-101686360D01*
X151660860Y-101602540D01*
X151592280Y-101500940D01*
X151587200Y-101493320D01*
X151518620Y-101394260D01*
X151462740Y-101307900D01*
X151427180Y-101249480D01*
X151411940Y-101221540D01*
X151411940Y-101219000D01*
X151434800Y-101188520D01*
X151485600Y-101132640D01*
X151559260Y-101056440D01*
X151645620Y-100967540D01*
X151673560Y-100942140D01*
X151772620Y-100845620D01*
X151838660Y-100784660D01*
X151881840Y-100751640D01*
X151902160Y-100744020D01*
X151932640Y-100761800D01*
X151996140Y-100802440D01*
X152079960Y-100860860D01*
X152181560Y-100929440D01*
X152189180Y-100934520D01*
X152288240Y-101003100D01*
X152372060Y-101058980D01*
X152430480Y-101099620D01*
X152458420Y-101114860D01*
X152460960Y-101114860D01*
X152501600Y-101102160D01*
X152572720Y-101076760D01*
X152661620Y-101043740D01*
X152753060Y-101005640D01*
X152836880Y-100970080D01*
X152900380Y-100942140D01*
X152930860Y-100924360D01*
X152941020Y-100888800D01*
X152958800Y-100812600D01*
X152979120Y-100711000D01*
X153004520Y-100589080D01*
X153007060Y-100568760D01*
X153029920Y-100449380D01*
X153047700Y-100350320D01*
X153062940Y-100281740D01*
X153070560Y-100253800D01*
X153085800Y-100251260D01*
X153144220Y-100246180D01*
X153233120Y-100243640D01*
X153342340Y-100243640D01*
X153454100Y-100243640D01*
X153563320Y-100246180D01*
X153657300Y-100248720D01*
X153725880Y-100253800D01*
X153753820Y-100258880D01*
X153753820Y-100261420D01*
X153763980Y-100299520D01*
X153781760Y-100373180D01*
X153802080Y-100477320D01*
X153824940Y-100599240D01*
X153830020Y-100622100D01*
X153852880Y-100738940D01*
X153873200Y-100838000D01*
X153885900Y-100904040D01*
X153893520Y-100931980D01*
X153906220Y-100937060D01*
X153954480Y-100957380D01*
X154033220Y-100990400D01*
X154132280Y-101031040D01*
X154360880Y-101122480D01*
X154642820Y-100931980D01*
X154668220Y-100914200D01*
X154769820Y-100845620D01*
X154851100Y-100789740D01*
X154909520Y-100751640D01*
X154932380Y-100738940D01*
X154934920Y-100738940D01*
X154962860Y-100764340D01*
X155018740Y-100817680D01*
X155094940Y-100891340D01*
X155183840Y-100977700D01*
X155247340Y-101043740D01*
X155326080Y-101122480D01*
X155374340Y-101175820D01*
X155402280Y-101208840D01*
X155409900Y-101229160D01*
X155407360Y-101244400D01*
X155389580Y-101272340D01*
X155348940Y-101333300D01*
X155290520Y-101419660D01*
X155221940Y-101518720D01*
X155166060Y-101602540D01*
X155105100Y-101696520D01*
X155067000Y-101762560D01*
X155051760Y-101795580D01*
X155056840Y-101808280D01*
X155074620Y-101864160D01*
X155110180Y-101947980D01*
X155150820Y-102047040D01*
X155249880Y-102268020D01*
X155394660Y-102295960D01*
X155483560Y-102313740D01*
X155605480Y-102336600D01*
X155724860Y-102359460D01*
X155907740Y-102395020D01*
X155915360Y-103070660D01*
X155887420Y-103083360D01*
X155859480Y-103090980D01*
X155790900Y-103106220D01*
X155694380Y-103126540D01*
X155577540Y-103146860D01*
X155481020Y-103164640D01*
X155381960Y-103184960D01*
X155310840Y-103197660D01*
X155280360Y-103205280D01*
X155270200Y-103215440D01*
X155247340Y-103263700D01*
X155211780Y-103339900D01*
X155171140Y-103431340D01*
X155133040Y-103525320D01*
X155097480Y-103614220D01*
X155074620Y-103680260D01*
X155064460Y-103713280D01*
X155077160Y-103741220D01*
X155115260Y-103799640D01*
X155168600Y-103880920D01*
X155237180Y-103979980D01*
X155303220Y-104076500D01*
X155361640Y-104160320D01*
X155399740Y-104221280D01*
X155417520Y-104249220D01*
X155407360Y-104267000D01*
X155369260Y-104315260D01*
X155295600Y-104391460D01*
X155183840Y-104500680D01*
X155166060Y-104518460D01*
X155079700Y-104602280D01*
X155006040Y-104670860D01*
X154952700Y-104716580D01*
X154929840Y-104734360D01*
G37*
X154929840Y-104734360D02*
X154904440Y-104719120D01*
X154846020Y-104683560D01*
X154762200Y-104627680D01*
X154663140Y-104561640D01*
X154564080Y-104495600D01*
X154482800Y-104442260D01*
X154426920Y-104404160D01*
X154401520Y-104391460D01*
X154388820Y-104396540D01*
X154343100Y-104419400D01*
X154274520Y-104454960D01*
X154233880Y-104475280D01*
X154172920Y-104500680D01*
X154139900Y-104508300D01*
X154134820Y-104498140D01*
X154111960Y-104449880D01*
X154076400Y-104368600D01*
X154030680Y-104259380D01*
X153974800Y-104132380D01*
X153918920Y-103997760D01*
X153860500Y-103858060D01*
X153804620Y-103723440D01*
X153756360Y-103604060D01*
X153715720Y-103507540D01*
X153690320Y-103438960D01*
X153680160Y-103411020D01*
X153682700Y-103403400D01*
X153715720Y-103372920D01*
X153769060Y-103332280D01*
X153888440Y-103235760D01*
X154005280Y-103090980D01*
X154076400Y-102925880D01*
X154099260Y-102740460D01*
X154078940Y-102570280D01*
X154012900Y-102407720D01*
X153898600Y-102260400D01*
X153758900Y-102151180D01*
X153596340Y-102082600D01*
X153416000Y-102059740D01*
X153243280Y-102080060D01*
X153075640Y-102146100D01*
X152928320Y-102257860D01*
X152864820Y-102328980D01*
X152778460Y-102478840D01*
X152730200Y-102636320D01*
X152725120Y-102676960D01*
X152732740Y-102852220D01*
X152783540Y-103022400D01*
X152877520Y-103172260D01*
X153007060Y-103296720D01*
X153022300Y-103306880D01*
X153080720Y-103352600D01*
X153121360Y-103383080D01*
X153151840Y-103408480D01*
X152928320Y-103946960D01*
X152892760Y-104030780D01*
X152831800Y-104178100D01*
X152778460Y-104305100D01*
X152735280Y-104406700D01*
X152704800Y-104472740D01*
X152692100Y-104500680D01*
X152692100Y-104503220D01*
X152671780Y-104505760D01*
X152631140Y-104490520D01*
X152554940Y-104454960D01*
X152506680Y-104429560D01*
X152448260Y-104401620D01*
X152422860Y-104391460D01*
X152400000Y-104404160D01*
X152346660Y-104439720D01*
X152265380Y-104493060D01*
X152168860Y-104556560D01*
X152077420Y-104620060D01*
X151993600Y-104675940D01*
X151932640Y-104714040D01*
X151902160Y-104731820D01*
X151897080Y-104731820D01*
X151871680Y-104716580D01*
X151823420Y-104675940D01*
X151749760Y-104607360D01*
X151645620Y-104503220D01*
X151630380Y-104487980D01*
X151544020Y-104401620D01*
X151475440Y-104327960D01*
X151429720Y-104277160D01*
X151411940Y-104254300D01*
X151427180Y-104223820D01*
X151465280Y-104162860D01*
X151521160Y-104076500D01*
X151589740Y-103977440D01*
X151767540Y-103718360D01*
X151671020Y-103474520D01*
X151640540Y-103398320D01*
X151602440Y-103309420D01*
X151574500Y-103243380D01*
X151559260Y-103215440D01*
X151533860Y-103205280D01*
X151465280Y-103190040D01*
X151368760Y-103169720D01*
X151254460Y-103149400D01*
X151142700Y-103129080D01*
X151043640Y-103108760D01*
X150972520Y-103096060D01*
X150939500Y-103088440D01*
X150931880Y-103083360D01*
X150924260Y-103068120D01*
X150921720Y-103035100D01*
X150919180Y-102974140D01*
X150916640Y-102880160D01*
X150916640Y-102740460D01*
X150916640Y-102725220D01*
X150919180Y-102595680D01*
X150921720Y-102489000D01*
X150924260Y-102422960D01*
X150929340Y-102395020D01*
X150959820Y-102387400D01*
X151030940Y-102372160D01*
X151130000Y-102354380D01*
X151249380Y-102331520D01*
X151257000Y-102328980D01*
X151373840Y-102306120D01*
X151472900Y-102285800D01*
X151544020Y-102270560D01*
X151571960Y-102260400D01*
X151579580Y-102252780D01*
X151602440Y-102207060D01*
X151635460Y-102133400D01*
X151676100Y-102044500D01*
X151714200Y-101950520D01*
X151747220Y-101866700D01*
X151770080Y-101805740D01*
X151777700Y-101777800D01*
X151775160Y-101775260D01*
X151757380Y-101747320D01*
X151716740Y-101686360D01*
X151660860Y-101602540D01*
X151592280Y-101500940D01*
X151587200Y-101493320D01*
X151518620Y-101394260D01*
X151462740Y-101307900D01*
X151427180Y-101249480D01*
X151411940Y-101221540D01*
X151411940Y-101219000D01*
X151434800Y-101188520D01*
X151485600Y-101132640D01*
X151559260Y-101056440D01*
X151645620Y-100967540D01*
X151673560Y-100942140D01*
X151772620Y-100845620D01*
X151838660Y-100784660D01*
X151881840Y-100751640D01*
X151902160Y-100744020D01*
X151932640Y-100761800D01*
X151996140Y-100802440D01*
X152079960Y-100860860D01*
X152181560Y-100929440D01*
X152189180Y-100934520D01*
X152288240Y-101003100D01*
X152372060Y-101058980D01*
X152430480Y-101099620D01*
X152458420Y-101114860D01*
X152460960Y-101114860D01*
X152501600Y-101102160D01*
X152572720Y-101076760D01*
X152661620Y-101043740D01*
X152753060Y-101005640D01*
X152836880Y-100970080D01*
X152900380Y-100942140D01*
X152930860Y-100924360D01*
X152941020Y-100888800D01*
X152958800Y-100812600D01*
X152979120Y-100711000D01*
X153004520Y-100589080D01*
X153007060Y-100568760D01*
X153029920Y-100449380D01*
X153047700Y-100350320D01*
X153062940Y-100281740D01*
X153070560Y-100253800D01*
X153085800Y-100251260D01*
X153144220Y-100246180D01*
X153233120Y-100243640D01*
X153342340Y-100243640D01*
X153454100Y-100243640D01*
X153563320Y-100246180D01*
X153657300Y-100248720D01*
X153725880Y-100253800D01*
X153753820Y-100258880D01*
X153753820Y-100261420D01*
X153763980Y-100299520D01*
X153781760Y-100373180D01*
X153802080Y-100477320D01*
X153824940Y-100599240D01*
X153830020Y-100622100D01*
X153852880Y-100738940D01*
X153873200Y-100838000D01*
X153885900Y-100904040D01*
X153893520Y-100931980D01*
X153906220Y-100937060D01*
X153954480Y-100957380D01*
X154033220Y-100990400D01*
X154132280Y-101031040D01*
X154360880Y-101122480D01*
X154642820Y-100931980D01*
X154668220Y-100914200D01*
X154769820Y-100845620D01*
X154851100Y-100789740D01*
X154909520Y-100751640D01*
X154932380Y-100738940D01*
X154934920Y-100738940D01*
X154962860Y-100764340D01*
X155018740Y-100817680D01*
X155094940Y-100891340D01*
X155183840Y-100977700D01*
X155247340Y-101043740D01*
X155326080Y-101122480D01*
X155374340Y-101175820D01*
X155402280Y-101208840D01*
X155409900Y-101229160D01*
X155407360Y-101244400D01*
X155389580Y-101272340D01*
X155348940Y-101333300D01*
X155290520Y-101419660D01*
X155221940Y-101518720D01*
X155166060Y-101602540D01*
X155105100Y-101696520D01*
X155067000Y-101762560D01*
X155051760Y-101795580D01*
X155056840Y-101808280D01*
X155074620Y-101864160D01*
X155110180Y-101947980D01*
X155150820Y-102047040D01*
X155249880Y-102268020D01*
X155394660Y-102295960D01*
X155483560Y-102313740D01*
X155605480Y-102336600D01*
X155724860Y-102359460D01*
X155907740Y-102395020D01*
X155915360Y-103070660D01*
X155887420Y-103083360D01*
X155859480Y-103090980D01*
X155790900Y-103106220D01*
X155694380Y-103126540D01*
X155577540Y-103146860D01*
X155481020Y-103164640D01*
X155381960Y-103184960D01*
X155310840Y-103197660D01*
X155280360Y-103205280D01*
X155270200Y-103215440D01*
X155247340Y-103263700D01*
X155211780Y-103339900D01*
X155171140Y-103431340D01*
X155133040Y-103525320D01*
X155097480Y-103614220D01*
X155074620Y-103680260D01*
X155064460Y-103713280D01*
X155077160Y-103741220D01*
X155115260Y-103799640D01*
X155168600Y-103880920D01*
X155237180Y-103979980D01*
X155303220Y-104076500D01*
X155361640Y-104160320D01*
X155399740Y-104221280D01*
X155417520Y-104249220D01*
X155407360Y-104267000D01*
X155369260Y-104315260D01*
X155295600Y-104391460D01*
X155183840Y-104500680D01*
X155166060Y-104518460D01*
X155079700Y-104602280D01*
X155006040Y-104670860D01*
X154952700Y-104716580D01*
X154929840Y-104734360D01*
D13*
G36*
X160346583Y-106582083D02*
G01*
X160273366Y-106584580D01*
X160206919Y-106589378D01*
X160151170Y-106596501D01*
X160131714Y-106600229D01*
X160099100Y-106609099D01*
X160055646Y-106623393D01*
X160005895Y-106641460D01*
X159954391Y-106661651D01*
X159905700Y-106682306D01*
X159870805Y-106698814D01*
X159830419Y-106719489D01*
X159788181Y-106742286D01*
X159747733Y-106765162D01*
X159712715Y-106786073D01*
X159686769Y-106802975D01*
X159676116Y-106811180D01*
X159664875Y-106820962D01*
X159645348Y-106837653D01*
X159626577Y-106853567D01*
X159535911Y-106940192D01*
X159452820Y-107039696D01*
X159379782Y-107148811D01*
X159325544Y-107250712D01*
X159278116Y-107361547D01*
X159243581Y-107466220D01*
X159221030Y-107568377D01*
X159209553Y-107671664D01*
X159207711Y-107722548D01*
X159206815Y-107763096D01*
X159205417Y-107797951D01*
X159203711Y-107823327D01*
X159201946Y-107835307D01*
X159202011Y-107848077D01*
X159204572Y-107851010D01*
X159208436Y-107861297D01*
X159210397Y-107882597D01*
X159210407Y-107896316D01*
X159211318Y-107922572D01*
X159214948Y-107942330D01*
X159217420Y-107947513D01*
X159222337Y-107960464D01*
X159221274Y-107964710D01*
X159220212Y-107978241D01*
X159224039Y-108004466D01*
X159231963Y-108040127D01*
X159243196Y-108081964D01*
X159256947Y-108126718D01*
X159269091Y-108162047D01*
X159308984Y-108259802D01*
X159357974Y-108359865D01*
X159411935Y-108453962D01*
X159424436Y-108473614D01*
X159465780Y-108529838D01*
X159518197Y-108589758D01*
X159577652Y-108649418D01*
X159640114Y-108704863D01*
X159701547Y-108752136D01*
X159723536Y-108766974D01*
X159781381Y-108801629D01*
X159847786Y-108837059D01*
X159917242Y-108870610D01*
X159984240Y-108899626D01*
X160043269Y-108921451D01*
X160045400Y-108922141D01*
X160151446Y-108949439D01*
X160266291Y-108966801D01*
X160384787Y-108973896D01*
X160501784Y-108970388D01*
X160600372Y-108958097D01*
X160690612Y-108937292D01*
X160789563Y-108905473D01*
X160894068Y-108863703D01*
X160935699Y-108844923D01*
X161025965Y-108798108D01*
X161105587Y-108745873D01*
X161179933Y-108684915D01*
X161205526Y-108661840D01*
X161226513Y-108642928D01*
X161239560Y-108631182D01*
X161241776Y-108629193D01*
X161283815Y-108586505D01*
X161328960Y-108531852D01*
X161374460Y-108469158D01*
X161417564Y-108402344D01*
X161455521Y-108335335D01*
X161474086Y-108297941D01*
X161498202Y-108244920D01*
X161516811Y-108199816D01*
X161531626Y-108157360D01*
X161544363Y-108112284D01*
X161556736Y-108059321D01*
X161565835Y-108016018D01*
X161575649Y-107964893D01*
X161582281Y-107920883D01*
X161586299Y-107877960D01*
X161587996Y-107836715D01*
X161390384Y-107836715D01*
X161388649Y-107872038D01*
X161384615Y-107906777D01*
X161377889Y-107946368D01*
X161371419Y-107979634D01*
X161360558Y-108032622D01*
X161351138Y-108073515D01*
X161341632Y-108106889D01*
X161330512Y-108137321D01*
X161316250Y-108169387D01*
X161297320Y-108207663D01*
X161291495Y-108219099D01*
X161250726Y-108294351D01*
X161210616Y-108357962D01*
X161167736Y-108414721D01*
X161118656Y-108469421D01*
X161095800Y-108492508D01*
X160999213Y-108575967D01*
X160892048Y-108646548D01*
X160775330Y-108703713D01*
X160650079Y-108746920D01*
X160583033Y-108763453D01*
X160518993Y-108773284D01*
X160444799Y-108778307D01*
X160366531Y-108778527D01*
X160290269Y-108773949D01*
X160222094Y-108764579D01*
X160214733Y-108763130D01*
X160165181Y-108752416D01*
X160121979Y-108741400D01*
X160082018Y-108728795D01*
X160042183Y-108713315D01*
X159999365Y-108693675D01*
X159950451Y-108668588D01*
X159892330Y-108636767D01*
X159846433Y-108610895D01*
X159777134Y-108563679D01*
X159708666Y-108502188D01*
X159642988Y-108429044D01*
X159582063Y-108346869D01*
X159527850Y-108258282D01*
X159482310Y-108165906D01*
X159450213Y-108081234D01*
X159429751Y-108012478D01*
X159415845Y-107951082D01*
X159407697Y-107891104D01*
X159404506Y-107826600D01*
X159405476Y-107751626D01*
X159405566Y-107749004D01*
X159407809Y-107700019D01*
X159410913Y-107652980D01*
X159414515Y-107612422D01*
X159418250Y-107582877D01*
X159419363Y-107576741D01*
X159444630Y-107482687D01*
X159481665Y-107385599D01*
X159528289Y-107289584D01*
X159582323Y-107198746D01*
X159641588Y-107117193D01*
X159694619Y-107058069D01*
X159754118Y-107005626D01*
X159825608Y-106953477D01*
X159904486Y-106904308D01*
X159986149Y-106860804D01*
X160065993Y-106825650D01*
X160130066Y-106804041D01*
X160187841Y-106791355D01*
X160256353Y-106781715D01*
X160330421Y-106775408D01*
X160404864Y-106772718D01*
X160474501Y-106773932D01*
X160534153Y-106779335D01*
X160545495Y-106781127D01*
X160577986Y-106786464D01*
X160608845Y-106791039D01*
X160621133Y-106792639D01*
X160659966Y-106800972D01*
X160709409Y-106817270D01*
X160766041Y-106840021D01*
X160826443Y-106867709D01*
X160887192Y-106898822D01*
X160944868Y-106931845D01*
X160967026Y-106945709D01*
X161051508Y-107009443D01*
X161130198Y-107087162D01*
X161201447Y-107176433D01*
X161263608Y-107274822D01*
X161315032Y-107379897D01*
X161354072Y-107489225D01*
X161366216Y-107535134D01*
X161372747Y-107563458D01*
X161377525Y-107587344D01*
X161380971Y-107610702D01*
X161383504Y-107637441D01*
X161385546Y-107671473D01*
X161387518Y-107716707D01*
X161388525Y-107742567D01*
X161390211Y-107795371D01*
X161390384Y-107836715D01*
X161587996Y-107836715D01*
X161588269Y-107830098D01*
X161588758Y-107772200D01*
X161587022Y-107688679D01*
X161581995Y-107620042D01*
X161575009Y-107573234D01*
X161568052Y-107538232D01*
X161562025Y-107507063D01*
X161558049Y-107485538D01*
X161557608Y-107482960D01*
X161551013Y-107458410D01*
X161544397Y-107442743D01*
X161538616Y-107429277D01*
X161538964Y-107425067D01*
X161539153Y-107417890D01*
X161533910Y-107398716D01*
X161524538Y-107371085D01*
X161512343Y-107338535D01*
X161498630Y-107304606D01*
X161484704Y-107272836D01*
X161476515Y-107255734D01*
X161407319Y-107131966D01*
X161330205Y-107022088D01*
X161243521Y-106924256D01*
X161145616Y-106836630D01*
X161034840Y-106757368D01*
X161023099Y-106749899D01*
X160973142Y-106721479D01*
X160912196Y-106691477D01*
X160845582Y-106662143D01*
X160778623Y-106635730D01*
X160716640Y-106614490D01*
X160676759Y-106603343D01*
X160628603Y-106594667D01*
X160567579Y-106588180D01*
X160497617Y-106583906D01*
X160422642Y-106581866D01*
X160346583Y-106582083D01*
G37*
X160346583Y-106582083D02*
X160273366Y-106584580D01*
X160206919Y-106589378D01*
X160151170Y-106596501D01*
X160131714Y-106600229D01*
X160099100Y-106609099D01*
X160055646Y-106623393D01*
X160005895Y-106641460D01*
X159954391Y-106661651D01*
X159905700Y-106682306D01*
X159870805Y-106698814D01*
X159830419Y-106719489D01*
X159788181Y-106742286D01*
X159747733Y-106765162D01*
X159712715Y-106786073D01*
X159686769Y-106802975D01*
X159676116Y-106811180D01*
X159664875Y-106820962D01*
X159645348Y-106837653D01*
X159626577Y-106853567D01*
X159535911Y-106940192D01*
X159452820Y-107039696D01*
X159379782Y-107148811D01*
X159325544Y-107250712D01*
X159278116Y-107361547D01*
X159243581Y-107466220D01*
X159221030Y-107568377D01*
X159209553Y-107671664D01*
X159207711Y-107722548D01*
X159206815Y-107763096D01*
X159205417Y-107797951D01*
X159203711Y-107823327D01*
X159201946Y-107835307D01*
X159202011Y-107848077D01*
X159204572Y-107851010D01*
X159208436Y-107861297D01*
X159210397Y-107882597D01*
X159210407Y-107896316D01*
X159211318Y-107922572D01*
X159214948Y-107942330D01*
X159217420Y-107947513D01*
X159222337Y-107960464D01*
X159221274Y-107964710D01*
X159220212Y-107978241D01*
X159224039Y-108004466D01*
X159231963Y-108040127D01*
X159243196Y-108081964D01*
X159256947Y-108126718D01*
X159269091Y-108162047D01*
X159308984Y-108259802D01*
X159357974Y-108359865D01*
X159411935Y-108453962D01*
X159424436Y-108473614D01*
X159465780Y-108529838D01*
X159518197Y-108589758D01*
X159577652Y-108649418D01*
X159640114Y-108704863D01*
X159701547Y-108752136D01*
X159723536Y-108766974D01*
X159781381Y-108801629D01*
X159847786Y-108837059D01*
X159917242Y-108870610D01*
X159984240Y-108899626D01*
X160043269Y-108921451D01*
X160045400Y-108922141D01*
X160151446Y-108949439D01*
X160266291Y-108966801D01*
X160384787Y-108973896D01*
X160501784Y-108970388D01*
X160600372Y-108958097D01*
X160690612Y-108937292D01*
X160789563Y-108905473D01*
X160894068Y-108863703D01*
X160935699Y-108844923D01*
X161025965Y-108798108D01*
X161105587Y-108745873D01*
X161179933Y-108684915D01*
X161205526Y-108661840D01*
X161226513Y-108642928D01*
X161239560Y-108631182D01*
X161241776Y-108629193D01*
X161283815Y-108586505D01*
X161328960Y-108531852D01*
X161374460Y-108469158D01*
X161417564Y-108402344D01*
X161455521Y-108335335D01*
X161474086Y-108297941D01*
X161498202Y-108244920D01*
X161516811Y-108199816D01*
X161531626Y-108157360D01*
X161544363Y-108112284D01*
X161556736Y-108059321D01*
X161565835Y-108016018D01*
X161575649Y-107964893D01*
X161582281Y-107920883D01*
X161586299Y-107877960D01*
X161587996Y-107836715D01*
X161390384Y-107836715D01*
X161388649Y-107872038D01*
X161384615Y-107906777D01*
X161377889Y-107946368D01*
X161371419Y-107979634D01*
X161360558Y-108032622D01*
X161351138Y-108073515D01*
X161341632Y-108106889D01*
X161330512Y-108137321D01*
X161316250Y-108169387D01*
X161297320Y-108207663D01*
X161291495Y-108219099D01*
X161250726Y-108294351D01*
X161210616Y-108357962D01*
X161167736Y-108414721D01*
X161118656Y-108469421D01*
X161095800Y-108492508D01*
X160999213Y-108575967D01*
X160892048Y-108646548D01*
X160775330Y-108703713D01*
X160650079Y-108746920D01*
X160583033Y-108763453D01*
X160518993Y-108773284D01*
X160444799Y-108778307D01*
X160366531Y-108778527D01*
X160290269Y-108773949D01*
X160222094Y-108764579D01*
X160214733Y-108763130D01*
X160165181Y-108752416D01*
X160121979Y-108741400D01*
X160082018Y-108728795D01*
X160042183Y-108713315D01*
X159999365Y-108693675D01*
X159950451Y-108668588D01*
X159892330Y-108636767D01*
X159846433Y-108610895D01*
X159777134Y-108563679D01*
X159708666Y-108502188D01*
X159642988Y-108429044D01*
X159582063Y-108346869D01*
X159527850Y-108258282D01*
X159482310Y-108165906D01*
X159450213Y-108081234D01*
X159429751Y-108012478D01*
X159415845Y-107951082D01*
X159407697Y-107891104D01*
X159404506Y-107826600D01*
X159405476Y-107751626D01*
X159405566Y-107749004D01*
X159407809Y-107700019D01*
X159410913Y-107652980D01*
X159414515Y-107612422D01*
X159418250Y-107582877D01*
X159419363Y-107576741D01*
X159444630Y-107482687D01*
X159481665Y-107385599D01*
X159528289Y-107289584D01*
X159582323Y-107198746D01*
X159641588Y-107117193D01*
X159694619Y-107058069D01*
X159754118Y-107005626D01*
X159825608Y-106953477D01*
X159904486Y-106904308D01*
X159986149Y-106860804D01*
X160065993Y-106825650D01*
X160130066Y-106804041D01*
X160187841Y-106791355D01*
X160256353Y-106781715D01*
X160330421Y-106775408D01*
X160404864Y-106772718D01*
X160474501Y-106773932D01*
X160534153Y-106779335D01*
X160545495Y-106781127D01*
X160577986Y-106786464D01*
X160608845Y-106791039D01*
X160621133Y-106792639D01*
X160659966Y-106800972D01*
X160709409Y-106817270D01*
X160766041Y-106840021D01*
X160826443Y-106867709D01*
X160887192Y-106898822D01*
X160944868Y-106931845D01*
X160967026Y-106945709D01*
X161051508Y-107009443D01*
X161130198Y-107087162D01*
X161201447Y-107176433D01*
X161263608Y-107274822D01*
X161315032Y-107379897D01*
X161354072Y-107489225D01*
X161366216Y-107535134D01*
X161372747Y-107563458D01*
X161377525Y-107587344D01*
X161380971Y-107610702D01*
X161383504Y-107637441D01*
X161385546Y-107671473D01*
X161387518Y-107716707D01*
X161388525Y-107742567D01*
X161390211Y-107795371D01*
X161390384Y-107836715D01*
X161587996Y-107836715D01*
X161588269Y-107830098D01*
X161588758Y-107772200D01*
X161587022Y-107688679D01*
X161581995Y-107620042D01*
X161575009Y-107573234D01*
X161568052Y-107538232D01*
X161562025Y-107507063D01*
X161558049Y-107485538D01*
X161557608Y-107482960D01*
X161551013Y-107458410D01*
X161544397Y-107442743D01*
X161538616Y-107429277D01*
X161538964Y-107425067D01*
X161539153Y-107417890D01*
X161533910Y-107398716D01*
X161524538Y-107371085D01*
X161512343Y-107338535D01*
X161498630Y-107304606D01*
X161484704Y-107272836D01*
X161476515Y-107255734D01*
X161407319Y-107131966D01*
X161330205Y-107022088D01*
X161243521Y-106924256D01*
X161145616Y-106836630D01*
X161034840Y-106757368D01*
X161023099Y-106749899D01*
X160973142Y-106721479D01*
X160912196Y-106691477D01*
X160845582Y-106662143D01*
X160778623Y-106635730D01*
X160716640Y-106614490D01*
X160676759Y-106603343D01*
X160628603Y-106594667D01*
X160567579Y-106588180D01*
X160497617Y-106583906D01*
X160422642Y-106581866D01*
X160346583Y-106582083D01*
G36*
X160286135Y-107107796D02*
G01*
X160237612Y-107114873D01*
X160148540Y-107141702D01*
X160066831Y-107183263D01*
X159993978Y-107238407D01*
X159931473Y-107305981D01*
X159880809Y-107384837D01*
X159876491Y-107393220D01*
X159861002Y-107424889D01*
X159849433Y-107450398D01*
X159843260Y-107466376D01*
X159842808Y-107470034D01*
X159852451Y-107473577D01*
X159874174Y-107480067D01*
X159903633Y-107488330D01*
X159936485Y-107497193D01*
X159968384Y-107505483D01*
X159994988Y-107512028D01*
X160011533Y-107515584D01*
X160024601Y-107515620D01*
X160035564Y-107508357D01*
X160047910Y-107490631D01*
X160057104Y-107474264D01*
X160101488Y-107408911D01*
X160156292Y-107356814D01*
X160221037Y-107318270D01*
X160295242Y-107293577D01*
X160364656Y-107283748D01*
X160428697Y-107283527D01*
X160488726Y-107290852D01*
X160540696Y-107304951D01*
X160580107Y-107324738D01*
X160597026Y-107335567D01*
X160607285Y-107340385D01*
X160607526Y-107340400D01*
X160620324Y-107346518D01*
X160640486Y-107362732D01*
X160664907Y-107385830D01*
X160690477Y-107412601D01*
X160714091Y-107439835D01*
X160732640Y-107464320D01*
X160741106Y-107478427D01*
X160763014Y-107525677D01*
X160775812Y-107559622D01*
X160779136Y-107573234D01*
X160782719Y-107591254D01*
X160788653Y-107617909D01*
X160792079Y-107632500D01*
X160797803Y-107668884D01*
X160801212Y-107717131D01*
X160802362Y-107772335D01*
X160801310Y-107829593D01*
X160798113Y-107884002D01*
X160792827Y-107930656D01*
X160788362Y-107954234D01*
X160774535Y-108007916D01*
X160760921Y-108049462D01*
X160745637Y-108083537D01*
X160726800Y-108114807D01*
X160719091Y-108125852D01*
X160668802Y-108181958D01*
X160608349Y-108224612D01*
X160538036Y-108253675D01*
X160458165Y-108269007D01*
X160403930Y-108271555D01*
X160320511Y-108263765D01*
X160244041Y-108241326D01*
X160175804Y-108205014D01*
X160117083Y-108155609D01*
X160069159Y-108093887D01*
X160048397Y-108056073D01*
X160034807Y-108026495D01*
X160024761Y-108002101D01*
X160020118Y-107987459D01*
X160020000Y-107986223D01*
X160015654Y-107978158D01*
X160001233Y-107976194D01*
X159974665Y-107980365D01*
X159945916Y-107987435D01*
X159921477Y-107993437D01*
X159905332Y-107996438D01*
X159901466Y-107996233D01*
X159894569Y-107997232D01*
X159877295Y-108003385D01*
X159869716Y-108006464D01*
X159849401Y-108014536D01*
X159837160Y-108018611D01*
X159835850Y-108018732D01*
X159826730Y-108018545D01*
X159825098Y-108030902D01*
X159830914Y-108056968D01*
X159834204Y-108067951D01*
X159844935Y-108098429D01*
X159858652Y-108131863D01*
X159873568Y-108164543D01*
X159887897Y-108192758D01*
X159899851Y-108212801D01*
X159907643Y-108220961D01*
X159907938Y-108220992D01*
X159915984Y-108227442D01*
X159929047Y-108243656D01*
X159935333Y-108252659D01*
X159955089Y-108278283D01*
X159977123Y-108301596D01*
X159981523Y-108305518D01*
X160004432Y-108325382D01*
X160025874Y-108344587D01*
X160026917Y-108345546D01*
X160046285Y-108360486D01*
X160063277Y-108369400D01*
X160076443Y-108376687D01*
X160079266Y-108381631D01*
X160086831Y-108388415D01*
X160107163Y-108398420D01*
X160136716Y-108410320D01*
X160171945Y-108422792D01*
X160209306Y-108434509D01*
X160245254Y-108444146D01*
X160248600Y-108444936D01*
X160280983Y-108450103D01*
X160324884Y-108453937D01*
X160374927Y-108456285D01*
X160425737Y-108456991D01*
X160471940Y-108455904D01*
X160508161Y-108452869D01*
X160511066Y-108452446D01*
X160553729Y-108443587D01*
X160602191Y-108429941D01*
X160650362Y-108413526D01*
X160692151Y-108396365D01*
X160714266Y-108385035D01*
X160791033Y-108330985D01*
X160861057Y-108263653D01*
X160898158Y-108218450D01*
X160918182Y-108190956D01*
X160933570Y-108168438D01*
X160941979Y-108154388D01*
X160942866Y-108151847D01*
X160946317Y-108141228D01*
X160955342Y-108120131D01*
X160967316Y-108094530D01*
X160979284Y-108068562D01*
X160987000Y-108049328D01*
X160988795Y-108041084D01*
X160989263Y-108032014D01*
X160993566Y-108011668D01*
X160998720Y-107991940D01*
X161006358Y-107953610D01*
X161012085Y-107902864D01*
X161015802Y-107844124D01*
X161017411Y-107781811D01*
X161016813Y-107720345D01*
X161013909Y-107664148D01*
X161008601Y-107617640D01*
X161007246Y-107609907D01*
X160999231Y-107571983D01*
X160990256Y-107536422D01*
X160981952Y-107509535D01*
X160980018Y-107504537D01*
X160970616Y-107479969D01*
X160964279Y-107459695D01*
X160963587Y-107456618D01*
X160953943Y-107429790D01*
X160934999Y-107394804D01*
X160909344Y-107355560D01*
X160879566Y-107315956D01*
X160848256Y-107279894D01*
X160841840Y-107273249D01*
X160777576Y-107218420D01*
X160701591Y-107172852D01*
X160612249Y-107135598D01*
X160591500Y-107128698D01*
X160542499Y-107117098D01*
X160482175Y-107109001D01*
X160415816Y-107104614D01*
X160348707Y-107104144D01*
X160286135Y-107107796D01*
G37*
X160286135Y-107107796D02*
X160237612Y-107114873D01*
X160148540Y-107141702D01*
X160066831Y-107183263D01*
X159993978Y-107238407D01*
X159931473Y-107305981D01*
X159880809Y-107384837D01*
X159876491Y-107393220D01*
X159861002Y-107424889D01*
X159849433Y-107450398D01*
X159843260Y-107466376D01*
X159842808Y-107470034D01*
X159852451Y-107473577D01*
X159874174Y-107480067D01*
X159903633Y-107488330D01*
X159936485Y-107497193D01*
X159968384Y-107505483D01*
X159994988Y-107512028D01*
X160011533Y-107515584D01*
X160024601Y-107515620D01*
X160035564Y-107508357D01*
X160047910Y-107490631D01*
X160057104Y-107474264D01*
X160101488Y-107408911D01*
X160156292Y-107356814D01*
X160221037Y-107318270D01*
X160295242Y-107293577D01*
X160364656Y-107283748D01*
X160428697Y-107283527D01*
X160488726Y-107290852D01*
X160540696Y-107304951D01*
X160580107Y-107324738D01*
X160597026Y-107335567D01*
X160607285Y-107340385D01*
X160607526Y-107340400D01*
X160620324Y-107346518D01*
X160640486Y-107362732D01*
X160664907Y-107385830D01*
X160690477Y-107412601D01*
X160714091Y-107439835D01*
X160732640Y-107464320D01*
X160741106Y-107478427D01*
X160763014Y-107525677D01*
X160775812Y-107559622D01*
X160779136Y-107573234D01*
X160782719Y-107591254D01*
X160788653Y-107617909D01*
X160792079Y-107632500D01*
X160797803Y-107668884D01*
X160801212Y-107717131D01*
X160802362Y-107772335D01*
X160801310Y-107829593D01*
X160798113Y-107884002D01*
X160792827Y-107930656D01*
X160788362Y-107954234D01*
X160774535Y-108007916D01*
X160760921Y-108049462D01*
X160745637Y-108083537D01*
X160726800Y-108114807D01*
X160719091Y-108125852D01*
X160668802Y-108181958D01*
X160608349Y-108224612D01*
X160538036Y-108253675D01*
X160458165Y-108269007D01*
X160403930Y-108271555D01*
X160320511Y-108263765D01*
X160244041Y-108241326D01*
X160175804Y-108205014D01*
X160117083Y-108155609D01*
X160069159Y-108093887D01*
X160048397Y-108056073D01*
X160034807Y-108026495D01*
X160024761Y-108002101D01*
X160020118Y-107987459D01*
X160020000Y-107986223D01*
X160015654Y-107978158D01*
X160001233Y-107976194D01*
X159974665Y-107980365D01*
X159945916Y-107987435D01*
X159921477Y-107993437D01*
X159905332Y-107996438D01*
X159901466Y-107996233D01*
X159894569Y-107997232D01*
X159877295Y-108003385D01*
X159869716Y-108006464D01*
X159849401Y-108014536D01*
X159837160Y-108018611D01*
X159835850Y-108018732D01*
X159826730Y-108018545D01*
X159825098Y-108030902D01*
X159830914Y-108056968D01*
X159834204Y-108067951D01*
X159844935Y-108098429D01*
X159858652Y-108131863D01*
X159873568Y-108164543D01*
X159887897Y-108192758D01*
X159899851Y-108212801D01*
X159907643Y-108220961D01*
X159907938Y-108220992D01*
X159915984Y-108227442D01*
X159929047Y-108243656D01*
X159935333Y-108252659D01*
X159955089Y-108278283D01*
X159977123Y-108301596D01*
X159981523Y-108305518D01*
X160004432Y-108325382D01*
X160025874Y-108344587D01*
X160026917Y-108345546D01*
X160046285Y-108360486D01*
X160063277Y-108369400D01*
X160076443Y-108376687D01*
X160079266Y-108381631D01*
X160086831Y-108388415D01*
X160107163Y-108398420D01*
X160136716Y-108410320D01*
X160171945Y-108422792D01*
X160209306Y-108434509D01*
X160245254Y-108444146D01*
X160248600Y-108444936D01*
X160280983Y-108450103D01*
X160324884Y-108453937D01*
X160374927Y-108456285D01*
X160425737Y-108456991D01*
X160471940Y-108455904D01*
X160508161Y-108452869D01*
X160511066Y-108452446D01*
X160553729Y-108443587D01*
X160602191Y-108429941D01*
X160650362Y-108413526D01*
X160692151Y-108396365D01*
X160714266Y-108385035D01*
X160791033Y-108330985D01*
X160861057Y-108263653D01*
X160898158Y-108218450D01*
X160918182Y-108190956D01*
X160933570Y-108168438D01*
X160941979Y-108154388D01*
X160942866Y-108151847D01*
X160946317Y-108141228D01*
X160955342Y-108120131D01*
X160967316Y-108094530D01*
X160979284Y-108068562D01*
X160987000Y-108049328D01*
X160988795Y-108041084D01*
X160989263Y-108032014D01*
X160993566Y-108011668D01*
X160998720Y-107991940D01*
X161006358Y-107953610D01*
X161012085Y-107902864D01*
X161015802Y-107844124D01*
X161017411Y-107781811D01*
X161016813Y-107720345D01*
X161013909Y-107664148D01*
X161008601Y-107617640D01*
X161007246Y-107609907D01*
X160999231Y-107571983D01*
X160990256Y-107536422D01*
X160981952Y-107509535D01*
X160980018Y-107504537D01*
X160970616Y-107479969D01*
X160964279Y-107459695D01*
X160963587Y-107456618D01*
X160953943Y-107429790D01*
X160934999Y-107394804D01*
X160909344Y-107355560D01*
X160879566Y-107315956D01*
X160848256Y-107279894D01*
X160841840Y-107273249D01*
X160777576Y-107218420D01*
X160701591Y-107172852D01*
X160612249Y-107135598D01*
X160591500Y-107128698D01*
X160542499Y-107117098D01*
X160482175Y-107109001D01*
X160415816Y-107104614D01*
X160348707Y-107104144D01*
X160286135Y-107107796D01*
G04 #@! TD*
M02*
