G04 #@! TF.FileFunction,Legend,Bot*
%FSLAX46Y46*%
G04 Gerber Fmt 4.6, Leading zero omitted, Abs format (unit mm)*
G04 Created by KiCad (PCBNEW 4.0.7-e2-6376~58~ubuntu14.04.1) date Sat Mar  3 15:58:33 2018*
%MOMM*%
%LPD*%
G01*
G04 APERTURE LIST*
%ADD10C,0.100000*%
%ADD11C,0.200000*%
%ADD12C,0.300000*%
%ADD13C,0.010000*%
%ADD14C,0.002540*%
G04 APERTURE END LIST*
D10*
D11*
X158622215Y-108465881D02*
X158622215Y-107465881D01*
X158288881Y-108180167D01*
X157955548Y-107465881D01*
X157955548Y-108465881D01*
X157050786Y-108465881D02*
X157050786Y-107942071D01*
X157098405Y-107846833D01*
X157193643Y-107799214D01*
X157384120Y-107799214D01*
X157479358Y-107846833D01*
X157050786Y-108418262D02*
X157146024Y-108465881D01*
X157384120Y-108465881D01*
X157479358Y-108418262D01*
X157526977Y-108323024D01*
X157526977Y-108227786D01*
X157479358Y-108132548D01*
X157384120Y-108084929D01*
X157146024Y-108084929D01*
X157050786Y-108037310D01*
X156574596Y-108465881D02*
X156574596Y-107799214D01*
X156574596Y-107989690D02*
X156526977Y-107894452D01*
X156479358Y-107846833D01*
X156384120Y-107799214D01*
X156288881Y-107799214D01*
X155955548Y-108465881D02*
X155955548Y-107465881D01*
X155860310Y-108084929D02*
X155574595Y-108465881D01*
X155574595Y-107799214D02*
X155955548Y-108180167D01*
X154431738Y-108418262D02*
X154288881Y-108465881D01*
X154050785Y-108465881D01*
X153955547Y-108418262D01*
X153907928Y-108370643D01*
X153860309Y-108275405D01*
X153860309Y-108180167D01*
X153907928Y-108084929D01*
X153955547Y-108037310D01*
X154050785Y-107989690D01*
X154241262Y-107942071D01*
X154336500Y-107894452D01*
X154384119Y-107846833D01*
X154431738Y-107751595D01*
X154431738Y-107656357D01*
X154384119Y-107561119D01*
X154336500Y-107513500D01*
X154241262Y-107465881D01*
X154003166Y-107465881D01*
X153860309Y-107513500D01*
X153431738Y-108465881D02*
X153431738Y-107799214D01*
X153431738Y-107894452D02*
X153384119Y-107846833D01*
X153288881Y-107799214D01*
X153146023Y-107799214D01*
X153050785Y-107846833D01*
X153003166Y-107942071D01*
X153003166Y-108465881D01*
X153003166Y-107942071D02*
X152955547Y-107846833D01*
X152860309Y-107799214D01*
X152717452Y-107799214D01*
X152622214Y-107846833D01*
X152574595Y-107942071D01*
X152574595Y-108465881D01*
X152098405Y-108465881D02*
X152098405Y-107799214D01*
X152098405Y-107465881D02*
X152146024Y-107513500D01*
X152098405Y-107561119D01*
X152050786Y-107513500D01*
X152098405Y-107465881D01*
X152098405Y-107561119D01*
X151765072Y-107799214D02*
X151384120Y-107799214D01*
X151622215Y-107465881D02*
X151622215Y-108323024D01*
X151574596Y-108418262D01*
X151479358Y-108465881D01*
X151384120Y-108465881D01*
X151050786Y-108465881D02*
X151050786Y-107465881D01*
X150622214Y-108465881D02*
X150622214Y-107942071D01*
X150669833Y-107846833D01*
X150765071Y-107799214D01*
X150907929Y-107799214D01*
X151003167Y-107846833D01*
X151050786Y-107894452D01*
X149431738Y-107561119D02*
X149384119Y-107513500D01*
X149288881Y-107465881D01*
X149050785Y-107465881D01*
X148955547Y-107513500D01*
X148907928Y-107561119D01*
X148860309Y-107656357D01*
X148860309Y-107751595D01*
X148907928Y-107894452D01*
X149479357Y-108465881D01*
X148860309Y-108465881D01*
X148241262Y-107465881D02*
X148146023Y-107465881D01*
X148050785Y-107513500D01*
X148003166Y-107561119D01*
X147955547Y-107656357D01*
X147907928Y-107846833D01*
X147907928Y-108084929D01*
X147955547Y-108275405D01*
X148003166Y-108370643D01*
X148050785Y-108418262D01*
X148146023Y-108465881D01*
X148241262Y-108465881D01*
X148336500Y-108418262D01*
X148384119Y-108370643D01*
X148431738Y-108275405D01*
X148479357Y-108084929D01*
X148479357Y-107846833D01*
X148431738Y-107656357D01*
X148384119Y-107561119D01*
X148336500Y-107513500D01*
X148241262Y-107465881D01*
X146955547Y-108465881D02*
X147526976Y-108465881D01*
X147241262Y-108465881D02*
X147241262Y-107465881D01*
X147336500Y-107608738D01*
X147431738Y-107703976D01*
X147526976Y-107751595D01*
X146384119Y-107894452D02*
X146479357Y-107846833D01*
X146526976Y-107799214D01*
X146574595Y-107703976D01*
X146574595Y-107656357D01*
X146526976Y-107561119D01*
X146479357Y-107513500D01*
X146384119Y-107465881D01*
X146193642Y-107465881D01*
X146098404Y-107513500D01*
X146050785Y-107561119D01*
X146003166Y-107656357D01*
X146003166Y-107703976D01*
X146050785Y-107799214D01*
X146098404Y-107846833D01*
X146193642Y-107894452D01*
X146384119Y-107894452D01*
X146479357Y-107942071D01*
X146526976Y-107989690D01*
X146574595Y-108084929D01*
X146574595Y-108275405D01*
X146526976Y-108370643D01*
X146479357Y-108418262D01*
X146384119Y-108465881D01*
X146193642Y-108465881D01*
X146098404Y-108418262D01*
X146050785Y-108370643D01*
X146003166Y-108275405D01*
X146003166Y-108084929D01*
X146050785Y-107989690D01*
X146098404Y-107942071D01*
X146193642Y-107894452D01*
X166582786Y-105259214D02*
X166297072Y-105925881D01*
X166011358Y-105449690D01*
X165725643Y-105925881D01*
X165439929Y-105259214D01*
X165011357Y-105259214D02*
X164725643Y-105925881D01*
X164439929Y-105449690D01*
X164154214Y-105925881D01*
X163868500Y-105259214D01*
X163439928Y-105259214D02*
X163154214Y-105925881D01*
X162868500Y-105449690D01*
X162582785Y-105925881D01*
X162297071Y-105259214D01*
X161725642Y-105830643D02*
X161654214Y-105878262D01*
X161725642Y-105925881D01*
X161797071Y-105878262D01*
X161725642Y-105830643D01*
X161725642Y-105925881D01*
X161082785Y-105878262D02*
X160939928Y-105925881D01*
X160654213Y-105925881D01*
X160511356Y-105878262D01*
X160439928Y-105783024D01*
X160439928Y-105735405D01*
X160511356Y-105640167D01*
X160654213Y-105592548D01*
X160868499Y-105592548D01*
X161011356Y-105544929D01*
X161082785Y-105449690D01*
X161082785Y-105402071D01*
X161011356Y-105306833D01*
X160868499Y-105259214D01*
X160654213Y-105259214D01*
X160511356Y-105306833D01*
X159154213Y-105259214D02*
X159154213Y-105925881D01*
X159797070Y-105259214D02*
X159797070Y-105783024D01*
X159725642Y-105878262D01*
X159582784Y-105925881D01*
X159368499Y-105925881D01*
X159225642Y-105878262D01*
X159154213Y-105830643D01*
X158439927Y-105925881D02*
X158439927Y-105259214D01*
X158439927Y-105449690D02*
X158368499Y-105354452D01*
X158297070Y-105306833D01*
X158154213Y-105259214D01*
X158011356Y-105259214D01*
X157725642Y-105259214D02*
X157154213Y-105259214D01*
X157511356Y-105925881D02*
X157511356Y-105068738D01*
X157439928Y-104973500D01*
X157297070Y-104925881D01*
X157154213Y-104925881D01*
X156654213Y-105259214D02*
X156654213Y-105925881D01*
X156654213Y-105354452D02*
X156582785Y-105306833D01*
X156439927Y-105259214D01*
X156225642Y-105259214D01*
X156082785Y-105306833D01*
X156011356Y-105402071D01*
X156011356Y-105925881D01*
X154654213Y-105878262D02*
X154797070Y-105925881D01*
X155082784Y-105925881D01*
X155225642Y-105878262D01*
X155297070Y-105830643D01*
X155368499Y-105735405D01*
X155368499Y-105449690D01*
X155297070Y-105354452D01*
X155225642Y-105306833D01*
X155082784Y-105259214D01*
X154797070Y-105259214D01*
X154654213Y-105306833D01*
X154011356Y-105925881D02*
X154011356Y-105259214D01*
X154011356Y-104925881D02*
X154082785Y-104973500D01*
X154011356Y-105021119D01*
X153939928Y-104973500D01*
X154011356Y-104925881D01*
X154011356Y-105021119D01*
X153297070Y-105925881D02*
X153297070Y-105259214D01*
X153297070Y-105449690D02*
X153225642Y-105354452D01*
X153154213Y-105306833D01*
X153011356Y-105259214D01*
X152868499Y-105259214D01*
X151725642Y-105878262D02*
X151868499Y-105925881D01*
X152154213Y-105925881D01*
X152297071Y-105878262D01*
X152368499Y-105830643D01*
X152439928Y-105735405D01*
X152439928Y-105449690D01*
X152368499Y-105354452D01*
X152297071Y-105306833D01*
X152154213Y-105259214D01*
X151868499Y-105259214D01*
X151725642Y-105306833D01*
X150439928Y-105259214D02*
X150439928Y-105925881D01*
X151082785Y-105259214D02*
X151082785Y-105783024D01*
X151011357Y-105878262D01*
X150868499Y-105925881D01*
X150654214Y-105925881D01*
X150511357Y-105878262D01*
X150439928Y-105830643D01*
X149725642Y-105925881D02*
X149725642Y-105259214D01*
X149725642Y-104925881D02*
X149797071Y-104973500D01*
X149725642Y-105021119D01*
X149654214Y-104973500D01*
X149725642Y-104925881D01*
X149725642Y-105021119D01*
X149225642Y-105259214D02*
X148654213Y-105259214D01*
X149011356Y-104925881D02*
X149011356Y-105783024D01*
X148939928Y-105878262D01*
X148797070Y-105925881D01*
X148654213Y-105925881D01*
X148225642Y-105878262D02*
X148082785Y-105925881D01*
X147797070Y-105925881D01*
X147654213Y-105878262D01*
X147582785Y-105783024D01*
X147582785Y-105735405D01*
X147654213Y-105640167D01*
X147797070Y-105592548D01*
X148011356Y-105592548D01*
X148154213Y-105544929D01*
X148225642Y-105449690D01*
X148225642Y-105402071D01*
X148154213Y-105306833D01*
X148011356Y-105259214D01*
X147797070Y-105259214D01*
X147654213Y-105306833D01*
X146939927Y-105830643D02*
X146868499Y-105878262D01*
X146939927Y-105925881D01*
X147011356Y-105878262D01*
X146939927Y-105830643D01*
X146939927Y-105925881D01*
X145582784Y-105878262D02*
X145725641Y-105925881D01*
X146011355Y-105925881D01*
X146154213Y-105878262D01*
X146225641Y-105830643D01*
X146297070Y-105735405D01*
X146297070Y-105449690D01*
X146225641Y-105354452D01*
X146154213Y-105306833D01*
X146011355Y-105259214D01*
X145725641Y-105259214D01*
X145582784Y-105306833D01*
X144725641Y-105925881D02*
X144868499Y-105878262D01*
X144939927Y-105830643D01*
X145011356Y-105735405D01*
X145011356Y-105449690D01*
X144939927Y-105354452D01*
X144868499Y-105306833D01*
X144725641Y-105259214D01*
X144511356Y-105259214D01*
X144368499Y-105306833D01*
X144297070Y-105354452D01*
X144225641Y-105449690D01*
X144225641Y-105735405D01*
X144297070Y-105830643D01*
X144368499Y-105878262D01*
X144511356Y-105925881D01*
X144725641Y-105925881D01*
X143582784Y-105925881D02*
X143582784Y-105259214D01*
X143582784Y-105354452D02*
X143511356Y-105306833D01*
X143368498Y-105259214D01*
X143154213Y-105259214D01*
X143011356Y-105306833D01*
X142939927Y-105402071D01*
X142939927Y-105925881D01*
X142939927Y-105402071D02*
X142868498Y-105306833D01*
X142725641Y-105259214D01*
X142511356Y-105259214D01*
X142368498Y-105306833D01*
X142297070Y-105402071D01*
X142297070Y-105925881D01*
D12*
X170483713Y-99548071D02*
X170483713Y-98048071D01*
X169626570Y-99548071D01*
X169626570Y-98048071D01*
X168912284Y-99548071D02*
X168912284Y-98548071D01*
X168912284Y-98048071D02*
X168983713Y-98119500D01*
X168912284Y-98190929D01*
X168840856Y-98119500D01*
X168912284Y-98048071D01*
X168912284Y-98190929D01*
X168340855Y-99548071D02*
X167555141Y-98548071D01*
X168340855Y-98548071D02*
X167555141Y-99548071D01*
X166983712Y-99548071D02*
X166983712Y-98548071D01*
X166983712Y-98048071D02*
X167055141Y-98119500D01*
X166983712Y-98190929D01*
X166912284Y-98119500D01*
X166983712Y-98048071D01*
X166983712Y-98190929D01*
X165697998Y-99476643D02*
X165840855Y-99548071D01*
X166126569Y-99548071D01*
X166269426Y-99476643D01*
X166340855Y-99333786D01*
X166340855Y-98762357D01*
X166269426Y-98619500D01*
X166126569Y-98548071D01*
X165840855Y-98548071D01*
X165697998Y-98619500D01*
X165626569Y-98762357D01*
X165626569Y-98905214D01*
X166340855Y-99048071D01*
X165055141Y-99476643D02*
X164840855Y-99548071D01*
X164483712Y-99548071D01*
X164340855Y-99476643D01*
X164269426Y-99405214D01*
X164197998Y-99262357D01*
X164197998Y-99119500D01*
X164269426Y-98976643D01*
X164340855Y-98905214D01*
X164483712Y-98833786D01*
X164769426Y-98762357D01*
X164912284Y-98690929D01*
X164983712Y-98619500D01*
X165055141Y-98476643D01*
X165055141Y-98333786D01*
X164983712Y-98190929D01*
X164912284Y-98119500D01*
X164769426Y-98048071D01*
X164412284Y-98048071D01*
X164197998Y-98119500D01*
X162912284Y-98548071D02*
X162912284Y-99548071D01*
X163555141Y-98548071D02*
X163555141Y-99333786D01*
X163483713Y-99476643D01*
X163340855Y-99548071D01*
X163126570Y-99548071D01*
X162983713Y-99476643D01*
X162912284Y-99405214D01*
X162197998Y-98548071D02*
X162197998Y-100048071D01*
X162197998Y-98619500D02*
X162055141Y-98548071D01*
X161769427Y-98548071D01*
X161626570Y-98619500D01*
X161555141Y-98690929D01*
X161483712Y-98833786D01*
X161483712Y-99262357D01*
X161555141Y-99405214D01*
X161626570Y-99476643D01*
X161769427Y-99548071D01*
X162055141Y-99548071D01*
X162197998Y-99476643D01*
X160840855Y-98548071D02*
X160840855Y-100048071D01*
X160840855Y-98619500D02*
X160697998Y-98548071D01*
X160412284Y-98548071D01*
X160269427Y-98619500D01*
X160197998Y-98690929D01*
X160126569Y-98833786D01*
X160126569Y-99262357D01*
X160197998Y-99405214D01*
X160269427Y-99476643D01*
X160412284Y-99548071D01*
X160697998Y-99548071D01*
X160840855Y-99476643D01*
X159269426Y-99548071D02*
X159412284Y-99476643D01*
X159483712Y-99333786D01*
X159483712Y-98048071D01*
X158840855Y-98548071D02*
X158483712Y-99548071D01*
X158126570Y-98548071D02*
X158483712Y-99548071D01*
X158626570Y-99905214D01*
X158697998Y-99976643D01*
X158840855Y-100048071D01*
X157555141Y-99548071D02*
X157555141Y-98048071D01*
X157055141Y-99119500D01*
X156555141Y-98048071D01*
X156555141Y-99548071D01*
X155840855Y-99548071D02*
X155840855Y-98548071D01*
X155840855Y-98048071D02*
X155912284Y-98119500D01*
X155840855Y-98190929D01*
X155769427Y-98119500D01*
X155840855Y-98048071D01*
X155840855Y-98190929D01*
X155126569Y-98548071D02*
X155126569Y-99548071D01*
X155126569Y-98690929D02*
X155055141Y-98619500D01*
X154912283Y-98548071D01*
X154697998Y-98548071D01*
X154555141Y-98619500D01*
X154483712Y-98762357D01*
X154483712Y-99548071D01*
X153769426Y-99548071D02*
X153769426Y-98548071D01*
X153769426Y-98048071D02*
X153840855Y-98119500D01*
X153769426Y-98190929D01*
X153697998Y-98119500D01*
X153769426Y-98048071D01*
X153769426Y-98190929D01*
X151055140Y-99548071D02*
X151555140Y-98833786D01*
X151912283Y-99548071D02*
X151912283Y-98048071D01*
X151340855Y-98048071D01*
X151197997Y-98119500D01*
X151126569Y-98190929D01*
X151055140Y-98333786D01*
X151055140Y-98548071D01*
X151126569Y-98690929D01*
X151197997Y-98762357D01*
X151340855Y-98833786D01*
X151912283Y-98833786D01*
X149840855Y-99476643D02*
X149983712Y-99548071D01*
X150269426Y-99548071D01*
X150412283Y-99476643D01*
X150483712Y-99333786D01*
X150483712Y-98762357D01*
X150412283Y-98619500D01*
X150269426Y-98548071D01*
X149983712Y-98548071D01*
X149840855Y-98619500D01*
X149769426Y-98762357D01*
X149769426Y-98905214D01*
X150483712Y-99048071D01*
X149269426Y-98548071D02*
X148912283Y-99548071D01*
X148555141Y-98548071D01*
X147197998Y-99548071D02*
X148055141Y-99548071D01*
X147626569Y-99548071D02*
X147626569Y-98048071D01*
X147769426Y-98262357D01*
X147912284Y-98405214D01*
X148055141Y-98476643D01*
X146912284Y-99690929D02*
X145769427Y-99690929D01*
X144626570Y-99548071D02*
X145483713Y-99548071D01*
X145055141Y-99548071D02*
X145055141Y-98048071D01*
X145197998Y-98262357D01*
X145340856Y-98405214D01*
X145483713Y-98476643D01*
X143769427Y-98690929D02*
X143912285Y-98619500D01*
X143983713Y-98548071D01*
X144055142Y-98405214D01*
X144055142Y-98333786D01*
X143983713Y-98190929D01*
X143912285Y-98119500D01*
X143769427Y-98048071D01*
X143483713Y-98048071D01*
X143340856Y-98119500D01*
X143269427Y-98190929D01*
X143197999Y-98333786D01*
X143197999Y-98405214D01*
X143269427Y-98548071D01*
X143340856Y-98619500D01*
X143483713Y-98690929D01*
X143769427Y-98690929D01*
X143912285Y-98762357D01*
X143983713Y-98833786D01*
X144055142Y-98976643D01*
X144055142Y-99262357D01*
X143983713Y-99405214D01*
X143912285Y-99476643D01*
X143769427Y-99548071D01*
X143483713Y-99548071D01*
X143340856Y-99476643D01*
X143269427Y-99405214D01*
X143197999Y-99262357D01*
X143197999Y-98976643D01*
X143269427Y-98833786D01*
X143340856Y-98762357D01*
X143483713Y-98690929D01*
X142269428Y-98048071D02*
X142126571Y-98048071D01*
X141983714Y-98119500D01*
X141912285Y-98190929D01*
X141840856Y-98333786D01*
X141769428Y-98619500D01*
X141769428Y-98976643D01*
X141840856Y-99262357D01*
X141912285Y-99405214D01*
X141983714Y-99476643D01*
X142126571Y-99548071D01*
X142269428Y-99548071D01*
X142412285Y-99476643D01*
X142483714Y-99405214D01*
X142555142Y-99262357D01*
X142626571Y-98976643D01*
X142626571Y-98619500D01*
X142555142Y-98333786D01*
X142483714Y-98190929D01*
X142412285Y-98119500D01*
X142269428Y-98048071D01*
X140483714Y-98548071D02*
X140483714Y-99548071D01*
X140840857Y-97976643D02*
X141198000Y-99048071D01*
X140269428Y-99048071D01*
D13*
G36*
X160156083Y-106836083D02*
X160082866Y-106838580D01*
X160016419Y-106843378D01*
X159960670Y-106850501D01*
X159941214Y-106854229D01*
X159908600Y-106863099D01*
X159865146Y-106877393D01*
X159815395Y-106895460D01*
X159763891Y-106915651D01*
X159715200Y-106936306D01*
X159680305Y-106952814D01*
X159639919Y-106973489D01*
X159597681Y-106996286D01*
X159557233Y-107019162D01*
X159522215Y-107040073D01*
X159496269Y-107056975D01*
X159485616Y-107065180D01*
X159474375Y-107074962D01*
X159454848Y-107091653D01*
X159436077Y-107107567D01*
X159345411Y-107194192D01*
X159262320Y-107293696D01*
X159189282Y-107402811D01*
X159135044Y-107504712D01*
X159087616Y-107615547D01*
X159053081Y-107720220D01*
X159030530Y-107822377D01*
X159019053Y-107925664D01*
X159017211Y-107976548D01*
X159016315Y-108017096D01*
X159014917Y-108051951D01*
X159013211Y-108077327D01*
X159011446Y-108089307D01*
X159011511Y-108102077D01*
X159014072Y-108105010D01*
X159017936Y-108115297D01*
X159019897Y-108136597D01*
X159019907Y-108150316D01*
X159020818Y-108176572D01*
X159024448Y-108196330D01*
X159026920Y-108201513D01*
X159031837Y-108214464D01*
X159030774Y-108218710D01*
X159029712Y-108232241D01*
X159033539Y-108258466D01*
X159041463Y-108294127D01*
X159052696Y-108335964D01*
X159066447Y-108380718D01*
X159078591Y-108416047D01*
X159118484Y-108513802D01*
X159167474Y-108613865D01*
X159221435Y-108707962D01*
X159233936Y-108727614D01*
X159275280Y-108783838D01*
X159327697Y-108843758D01*
X159387152Y-108903418D01*
X159449614Y-108958863D01*
X159511047Y-109006136D01*
X159533036Y-109020974D01*
X159590881Y-109055629D01*
X159657286Y-109091059D01*
X159726742Y-109124610D01*
X159793740Y-109153626D01*
X159852769Y-109175451D01*
X159854900Y-109176141D01*
X159960946Y-109203439D01*
X160075791Y-109220801D01*
X160194287Y-109227896D01*
X160311284Y-109224388D01*
X160409872Y-109212097D01*
X160500112Y-109191292D01*
X160599063Y-109159473D01*
X160703568Y-109117703D01*
X160745199Y-109098923D01*
X160835465Y-109052108D01*
X160915087Y-108999873D01*
X160989433Y-108938915D01*
X161015026Y-108915840D01*
X161036013Y-108896928D01*
X161049060Y-108885182D01*
X161051276Y-108883193D01*
X161093315Y-108840505D01*
X161138460Y-108785852D01*
X161183960Y-108723158D01*
X161227064Y-108656344D01*
X161265021Y-108589335D01*
X161283586Y-108551941D01*
X161307702Y-108498920D01*
X161326311Y-108453816D01*
X161341126Y-108411360D01*
X161353863Y-108366284D01*
X161366236Y-108313321D01*
X161375335Y-108270018D01*
X161385149Y-108218893D01*
X161391781Y-108174883D01*
X161395799Y-108131960D01*
X161397496Y-108090715D01*
X161199884Y-108090715D01*
X161198149Y-108126038D01*
X161194115Y-108160777D01*
X161187389Y-108200368D01*
X161180919Y-108233634D01*
X161170058Y-108286622D01*
X161160638Y-108327515D01*
X161151132Y-108360889D01*
X161140012Y-108391321D01*
X161125750Y-108423387D01*
X161106820Y-108461663D01*
X161100995Y-108473099D01*
X161060226Y-108548351D01*
X161020116Y-108611962D01*
X160977236Y-108668721D01*
X160928156Y-108723421D01*
X160905300Y-108746508D01*
X160808713Y-108829967D01*
X160701548Y-108900548D01*
X160584830Y-108957713D01*
X160459579Y-109000920D01*
X160392533Y-109017453D01*
X160328493Y-109027284D01*
X160254299Y-109032307D01*
X160176031Y-109032527D01*
X160099769Y-109027949D01*
X160031594Y-109018579D01*
X160024233Y-109017130D01*
X159974681Y-109006416D01*
X159931479Y-108995400D01*
X159891518Y-108982795D01*
X159851683Y-108967315D01*
X159808865Y-108947675D01*
X159759951Y-108922588D01*
X159701830Y-108890767D01*
X159655933Y-108864895D01*
X159586634Y-108817679D01*
X159518166Y-108756188D01*
X159452488Y-108683044D01*
X159391563Y-108600869D01*
X159337350Y-108512282D01*
X159291810Y-108419906D01*
X159259713Y-108335234D01*
X159239251Y-108266478D01*
X159225345Y-108205082D01*
X159217197Y-108145104D01*
X159214006Y-108080600D01*
X159214976Y-108005626D01*
X159215066Y-108003004D01*
X159217309Y-107954019D01*
X159220413Y-107906980D01*
X159224015Y-107866422D01*
X159227750Y-107836877D01*
X159228863Y-107830741D01*
X159254130Y-107736687D01*
X159291165Y-107639599D01*
X159337789Y-107543584D01*
X159391823Y-107452746D01*
X159451088Y-107371193D01*
X159504119Y-107312069D01*
X159563618Y-107259626D01*
X159635108Y-107207477D01*
X159713986Y-107158308D01*
X159795649Y-107114804D01*
X159875493Y-107079650D01*
X159939566Y-107058041D01*
X159997341Y-107045355D01*
X160065853Y-107035715D01*
X160139921Y-107029408D01*
X160214364Y-107026718D01*
X160284001Y-107027932D01*
X160343653Y-107033335D01*
X160354995Y-107035127D01*
X160387486Y-107040464D01*
X160418345Y-107045039D01*
X160430633Y-107046639D01*
X160469466Y-107054972D01*
X160518909Y-107071270D01*
X160575541Y-107094021D01*
X160635943Y-107121709D01*
X160696692Y-107152822D01*
X160754368Y-107185845D01*
X160776526Y-107199709D01*
X160861008Y-107263443D01*
X160939698Y-107341162D01*
X161010947Y-107430433D01*
X161073108Y-107528822D01*
X161124532Y-107633897D01*
X161163572Y-107743225D01*
X161175716Y-107789134D01*
X161182247Y-107817458D01*
X161187025Y-107841344D01*
X161190471Y-107864702D01*
X161193004Y-107891441D01*
X161195046Y-107925473D01*
X161197018Y-107970707D01*
X161198025Y-107996567D01*
X161199711Y-108049371D01*
X161199884Y-108090715D01*
X161397496Y-108090715D01*
X161397769Y-108084098D01*
X161398258Y-108026200D01*
X161396522Y-107942679D01*
X161391495Y-107874042D01*
X161384509Y-107827234D01*
X161377552Y-107792232D01*
X161371525Y-107761063D01*
X161367549Y-107739538D01*
X161367108Y-107736960D01*
X161360513Y-107712410D01*
X161353897Y-107696743D01*
X161348116Y-107683277D01*
X161348464Y-107679067D01*
X161348653Y-107671890D01*
X161343410Y-107652716D01*
X161334038Y-107625085D01*
X161321843Y-107592535D01*
X161308130Y-107558606D01*
X161294204Y-107526836D01*
X161286015Y-107509734D01*
X161216819Y-107385966D01*
X161139705Y-107276088D01*
X161053021Y-107178256D01*
X160955116Y-107090630D01*
X160844340Y-107011368D01*
X160832599Y-107003899D01*
X160782642Y-106975479D01*
X160721696Y-106945477D01*
X160655082Y-106916143D01*
X160588123Y-106889730D01*
X160526140Y-106868490D01*
X160486259Y-106857343D01*
X160438103Y-106848667D01*
X160377079Y-106842180D01*
X160307117Y-106837906D01*
X160232142Y-106835866D01*
X160156083Y-106836083D01*
X160156083Y-106836083D01*
G37*
X160156083Y-106836083D02*
X160082866Y-106838580D01*
X160016419Y-106843378D01*
X159960670Y-106850501D01*
X159941214Y-106854229D01*
X159908600Y-106863099D01*
X159865146Y-106877393D01*
X159815395Y-106895460D01*
X159763891Y-106915651D01*
X159715200Y-106936306D01*
X159680305Y-106952814D01*
X159639919Y-106973489D01*
X159597681Y-106996286D01*
X159557233Y-107019162D01*
X159522215Y-107040073D01*
X159496269Y-107056975D01*
X159485616Y-107065180D01*
X159474375Y-107074962D01*
X159454848Y-107091653D01*
X159436077Y-107107567D01*
X159345411Y-107194192D01*
X159262320Y-107293696D01*
X159189282Y-107402811D01*
X159135044Y-107504712D01*
X159087616Y-107615547D01*
X159053081Y-107720220D01*
X159030530Y-107822377D01*
X159019053Y-107925664D01*
X159017211Y-107976548D01*
X159016315Y-108017096D01*
X159014917Y-108051951D01*
X159013211Y-108077327D01*
X159011446Y-108089307D01*
X159011511Y-108102077D01*
X159014072Y-108105010D01*
X159017936Y-108115297D01*
X159019897Y-108136597D01*
X159019907Y-108150316D01*
X159020818Y-108176572D01*
X159024448Y-108196330D01*
X159026920Y-108201513D01*
X159031837Y-108214464D01*
X159030774Y-108218710D01*
X159029712Y-108232241D01*
X159033539Y-108258466D01*
X159041463Y-108294127D01*
X159052696Y-108335964D01*
X159066447Y-108380718D01*
X159078591Y-108416047D01*
X159118484Y-108513802D01*
X159167474Y-108613865D01*
X159221435Y-108707962D01*
X159233936Y-108727614D01*
X159275280Y-108783838D01*
X159327697Y-108843758D01*
X159387152Y-108903418D01*
X159449614Y-108958863D01*
X159511047Y-109006136D01*
X159533036Y-109020974D01*
X159590881Y-109055629D01*
X159657286Y-109091059D01*
X159726742Y-109124610D01*
X159793740Y-109153626D01*
X159852769Y-109175451D01*
X159854900Y-109176141D01*
X159960946Y-109203439D01*
X160075791Y-109220801D01*
X160194287Y-109227896D01*
X160311284Y-109224388D01*
X160409872Y-109212097D01*
X160500112Y-109191292D01*
X160599063Y-109159473D01*
X160703568Y-109117703D01*
X160745199Y-109098923D01*
X160835465Y-109052108D01*
X160915087Y-108999873D01*
X160989433Y-108938915D01*
X161015026Y-108915840D01*
X161036013Y-108896928D01*
X161049060Y-108885182D01*
X161051276Y-108883193D01*
X161093315Y-108840505D01*
X161138460Y-108785852D01*
X161183960Y-108723158D01*
X161227064Y-108656344D01*
X161265021Y-108589335D01*
X161283586Y-108551941D01*
X161307702Y-108498920D01*
X161326311Y-108453816D01*
X161341126Y-108411360D01*
X161353863Y-108366284D01*
X161366236Y-108313321D01*
X161375335Y-108270018D01*
X161385149Y-108218893D01*
X161391781Y-108174883D01*
X161395799Y-108131960D01*
X161397496Y-108090715D01*
X161199884Y-108090715D01*
X161198149Y-108126038D01*
X161194115Y-108160777D01*
X161187389Y-108200368D01*
X161180919Y-108233634D01*
X161170058Y-108286622D01*
X161160638Y-108327515D01*
X161151132Y-108360889D01*
X161140012Y-108391321D01*
X161125750Y-108423387D01*
X161106820Y-108461663D01*
X161100995Y-108473099D01*
X161060226Y-108548351D01*
X161020116Y-108611962D01*
X160977236Y-108668721D01*
X160928156Y-108723421D01*
X160905300Y-108746508D01*
X160808713Y-108829967D01*
X160701548Y-108900548D01*
X160584830Y-108957713D01*
X160459579Y-109000920D01*
X160392533Y-109017453D01*
X160328493Y-109027284D01*
X160254299Y-109032307D01*
X160176031Y-109032527D01*
X160099769Y-109027949D01*
X160031594Y-109018579D01*
X160024233Y-109017130D01*
X159974681Y-109006416D01*
X159931479Y-108995400D01*
X159891518Y-108982795D01*
X159851683Y-108967315D01*
X159808865Y-108947675D01*
X159759951Y-108922588D01*
X159701830Y-108890767D01*
X159655933Y-108864895D01*
X159586634Y-108817679D01*
X159518166Y-108756188D01*
X159452488Y-108683044D01*
X159391563Y-108600869D01*
X159337350Y-108512282D01*
X159291810Y-108419906D01*
X159259713Y-108335234D01*
X159239251Y-108266478D01*
X159225345Y-108205082D01*
X159217197Y-108145104D01*
X159214006Y-108080600D01*
X159214976Y-108005626D01*
X159215066Y-108003004D01*
X159217309Y-107954019D01*
X159220413Y-107906980D01*
X159224015Y-107866422D01*
X159227750Y-107836877D01*
X159228863Y-107830741D01*
X159254130Y-107736687D01*
X159291165Y-107639599D01*
X159337789Y-107543584D01*
X159391823Y-107452746D01*
X159451088Y-107371193D01*
X159504119Y-107312069D01*
X159563618Y-107259626D01*
X159635108Y-107207477D01*
X159713986Y-107158308D01*
X159795649Y-107114804D01*
X159875493Y-107079650D01*
X159939566Y-107058041D01*
X159997341Y-107045355D01*
X160065853Y-107035715D01*
X160139921Y-107029408D01*
X160214364Y-107026718D01*
X160284001Y-107027932D01*
X160343653Y-107033335D01*
X160354995Y-107035127D01*
X160387486Y-107040464D01*
X160418345Y-107045039D01*
X160430633Y-107046639D01*
X160469466Y-107054972D01*
X160518909Y-107071270D01*
X160575541Y-107094021D01*
X160635943Y-107121709D01*
X160696692Y-107152822D01*
X160754368Y-107185845D01*
X160776526Y-107199709D01*
X160861008Y-107263443D01*
X160939698Y-107341162D01*
X161010947Y-107430433D01*
X161073108Y-107528822D01*
X161124532Y-107633897D01*
X161163572Y-107743225D01*
X161175716Y-107789134D01*
X161182247Y-107817458D01*
X161187025Y-107841344D01*
X161190471Y-107864702D01*
X161193004Y-107891441D01*
X161195046Y-107925473D01*
X161197018Y-107970707D01*
X161198025Y-107996567D01*
X161199711Y-108049371D01*
X161199884Y-108090715D01*
X161397496Y-108090715D01*
X161397769Y-108084098D01*
X161398258Y-108026200D01*
X161396522Y-107942679D01*
X161391495Y-107874042D01*
X161384509Y-107827234D01*
X161377552Y-107792232D01*
X161371525Y-107761063D01*
X161367549Y-107739538D01*
X161367108Y-107736960D01*
X161360513Y-107712410D01*
X161353897Y-107696743D01*
X161348116Y-107683277D01*
X161348464Y-107679067D01*
X161348653Y-107671890D01*
X161343410Y-107652716D01*
X161334038Y-107625085D01*
X161321843Y-107592535D01*
X161308130Y-107558606D01*
X161294204Y-107526836D01*
X161286015Y-107509734D01*
X161216819Y-107385966D01*
X161139705Y-107276088D01*
X161053021Y-107178256D01*
X160955116Y-107090630D01*
X160844340Y-107011368D01*
X160832599Y-107003899D01*
X160782642Y-106975479D01*
X160721696Y-106945477D01*
X160655082Y-106916143D01*
X160588123Y-106889730D01*
X160526140Y-106868490D01*
X160486259Y-106857343D01*
X160438103Y-106848667D01*
X160377079Y-106842180D01*
X160307117Y-106837906D01*
X160232142Y-106835866D01*
X160156083Y-106836083D01*
G36*
X160095635Y-107361796D02*
X160047112Y-107368873D01*
X159958040Y-107395702D01*
X159876331Y-107437263D01*
X159803478Y-107492407D01*
X159740973Y-107559981D01*
X159690309Y-107638837D01*
X159685991Y-107647220D01*
X159670502Y-107678889D01*
X159658933Y-107704398D01*
X159652760Y-107720376D01*
X159652308Y-107724034D01*
X159661951Y-107727577D01*
X159683674Y-107734067D01*
X159713133Y-107742330D01*
X159745985Y-107751193D01*
X159777884Y-107759483D01*
X159804488Y-107766028D01*
X159821033Y-107769584D01*
X159834101Y-107769620D01*
X159845064Y-107762357D01*
X159857410Y-107744631D01*
X159866604Y-107728264D01*
X159910988Y-107662911D01*
X159965792Y-107610814D01*
X160030537Y-107572270D01*
X160104742Y-107547577D01*
X160174156Y-107537748D01*
X160238197Y-107537527D01*
X160298226Y-107544852D01*
X160350196Y-107558951D01*
X160389607Y-107578738D01*
X160406526Y-107589567D01*
X160416785Y-107594385D01*
X160417026Y-107594400D01*
X160429824Y-107600518D01*
X160449986Y-107616732D01*
X160474407Y-107639830D01*
X160499977Y-107666601D01*
X160523591Y-107693835D01*
X160542140Y-107718320D01*
X160550606Y-107732427D01*
X160572514Y-107779677D01*
X160585312Y-107813622D01*
X160588636Y-107827234D01*
X160592219Y-107845254D01*
X160598153Y-107871909D01*
X160601579Y-107886500D01*
X160607303Y-107922884D01*
X160610712Y-107971131D01*
X160611862Y-108026335D01*
X160610810Y-108083593D01*
X160607613Y-108138002D01*
X160602327Y-108184656D01*
X160597862Y-108208234D01*
X160584035Y-108261916D01*
X160570421Y-108303462D01*
X160555137Y-108337537D01*
X160536300Y-108368807D01*
X160528591Y-108379852D01*
X160478302Y-108435958D01*
X160417849Y-108478612D01*
X160347536Y-108507675D01*
X160267665Y-108523007D01*
X160213430Y-108525555D01*
X160130011Y-108517765D01*
X160053541Y-108495326D01*
X159985304Y-108459014D01*
X159926583Y-108409609D01*
X159878659Y-108347887D01*
X159857897Y-108310073D01*
X159844307Y-108280495D01*
X159834261Y-108256101D01*
X159829618Y-108241459D01*
X159829500Y-108240223D01*
X159825154Y-108232158D01*
X159810733Y-108230194D01*
X159784165Y-108234365D01*
X159755416Y-108241435D01*
X159730977Y-108247437D01*
X159714832Y-108250438D01*
X159710966Y-108250233D01*
X159704069Y-108251232D01*
X159686795Y-108257385D01*
X159679216Y-108260464D01*
X159658901Y-108268536D01*
X159646660Y-108272611D01*
X159645350Y-108272732D01*
X159636230Y-108272545D01*
X159634598Y-108284902D01*
X159640414Y-108310968D01*
X159643704Y-108321951D01*
X159654435Y-108352429D01*
X159668152Y-108385863D01*
X159683068Y-108418543D01*
X159697397Y-108446758D01*
X159709351Y-108466801D01*
X159717143Y-108474961D01*
X159717438Y-108474992D01*
X159725484Y-108481442D01*
X159738547Y-108497656D01*
X159744833Y-108506659D01*
X159764589Y-108532283D01*
X159786623Y-108555596D01*
X159791023Y-108559518D01*
X159813932Y-108579382D01*
X159835374Y-108598587D01*
X159836417Y-108599546D01*
X159855785Y-108614486D01*
X159872777Y-108623400D01*
X159885943Y-108630687D01*
X159888766Y-108635631D01*
X159896331Y-108642415D01*
X159916663Y-108652420D01*
X159946216Y-108664320D01*
X159981445Y-108676792D01*
X160018806Y-108688509D01*
X160054754Y-108698146D01*
X160058100Y-108698936D01*
X160090483Y-108704103D01*
X160134384Y-108707937D01*
X160184427Y-108710285D01*
X160235237Y-108710991D01*
X160281440Y-108709904D01*
X160317661Y-108706869D01*
X160320566Y-108706446D01*
X160363229Y-108697587D01*
X160411691Y-108683941D01*
X160459862Y-108667526D01*
X160501651Y-108650365D01*
X160523766Y-108639035D01*
X160600533Y-108584985D01*
X160670557Y-108517653D01*
X160707658Y-108472450D01*
X160727682Y-108444956D01*
X160743070Y-108422438D01*
X160751479Y-108408388D01*
X160752366Y-108405847D01*
X160755817Y-108395228D01*
X160764842Y-108374131D01*
X160776816Y-108348530D01*
X160788784Y-108322562D01*
X160796500Y-108303328D01*
X160798295Y-108295084D01*
X160798763Y-108286014D01*
X160803066Y-108265668D01*
X160808220Y-108245940D01*
X160815858Y-108207610D01*
X160821585Y-108156864D01*
X160825302Y-108098124D01*
X160826911Y-108035811D01*
X160826313Y-107974345D01*
X160823409Y-107918148D01*
X160818101Y-107871640D01*
X160816746Y-107863907D01*
X160808731Y-107825983D01*
X160799756Y-107790422D01*
X160791452Y-107763535D01*
X160789518Y-107758537D01*
X160780116Y-107733969D01*
X160773779Y-107713695D01*
X160773087Y-107710618D01*
X160763443Y-107683790D01*
X160744499Y-107648804D01*
X160718844Y-107609560D01*
X160689066Y-107569956D01*
X160657756Y-107533894D01*
X160651340Y-107527249D01*
X160587076Y-107472420D01*
X160511091Y-107426852D01*
X160421749Y-107389598D01*
X160401000Y-107382698D01*
X160351999Y-107371098D01*
X160291675Y-107363001D01*
X160225316Y-107358614D01*
X160158207Y-107358144D01*
X160095635Y-107361796D01*
X160095635Y-107361796D01*
G37*
X160095635Y-107361796D02*
X160047112Y-107368873D01*
X159958040Y-107395702D01*
X159876331Y-107437263D01*
X159803478Y-107492407D01*
X159740973Y-107559981D01*
X159690309Y-107638837D01*
X159685991Y-107647220D01*
X159670502Y-107678889D01*
X159658933Y-107704398D01*
X159652760Y-107720376D01*
X159652308Y-107724034D01*
X159661951Y-107727577D01*
X159683674Y-107734067D01*
X159713133Y-107742330D01*
X159745985Y-107751193D01*
X159777884Y-107759483D01*
X159804488Y-107766028D01*
X159821033Y-107769584D01*
X159834101Y-107769620D01*
X159845064Y-107762357D01*
X159857410Y-107744631D01*
X159866604Y-107728264D01*
X159910988Y-107662911D01*
X159965792Y-107610814D01*
X160030537Y-107572270D01*
X160104742Y-107547577D01*
X160174156Y-107537748D01*
X160238197Y-107537527D01*
X160298226Y-107544852D01*
X160350196Y-107558951D01*
X160389607Y-107578738D01*
X160406526Y-107589567D01*
X160416785Y-107594385D01*
X160417026Y-107594400D01*
X160429824Y-107600518D01*
X160449986Y-107616732D01*
X160474407Y-107639830D01*
X160499977Y-107666601D01*
X160523591Y-107693835D01*
X160542140Y-107718320D01*
X160550606Y-107732427D01*
X160572514Y-107779677D01*
X160585312Y-107813622D01*
X160588636Y-107827234D01*
X160592219Y-107845254D01*
X160598153Y-107871909D01*
X160601579Y-107886500D01*
X160607303Y-107922884D01*
X160610712Y-107971131D01*
X160611862Y-108026335D01*
X160610810Y-108083593D01*
X160607613Y-108138002D01*
X160602327Y-108184656D01*
X160597862Y-108208234D01*
X160584035Y-108261916D01*
X160570421Y-108303462D01*
X160555137Y-108337537D01*
X160536300Y-108368807D01*
X160528591Y-108379852D01*
X160478302Y-108435958D01*
X160417849Y-108478612D01*
X160347536Y-108507675D01*
X160267665Y-108523007D01*
X160213430Y-108525555D01*
X160130011Y-108517765D01*
X160053541Y-108495326D01*
X159985304Y-108459014D01*
X159926583Y-108409609D01*
X159878659Y-108347887D01*
X159857897Y-108310073D01*
X159844307Y-108280495D01*
X159834261Y-108256101D01*
X159829618Y-108241459D01*
X159829500Y-108240223D01*
X159825154Y-108232158D01*
X159810733Y-108230194D01*
X159784165Y-108234365D01*
X159755416Y-108241435D01*
X159730977Y-108247437D01*
X159714832Y-108250438D01*
X159710966Y-108250233D01*
X159704069Y-108251232D01*
X159686795Y-108257385D01*
X159679216Y-108260464D01*
X159658901Y-108268536D01*
X159646660Y-108272611D01*
X159645350Y-108272732D01*
X159636230Y-108272545D01*
X159634598Y-108284902D01*
X159640414Y-108310968D01*
X159643704Y-108321951D01*
X159654435Y-108352429D01*
X159668152Y-108385863D01*
X159683068Y-108418543D01*
X159697397Y-108446758D01*
X159709351Y-108466801D01*
X159717143Y-108474961D01*
X159717438Y-108474992D01*
X159725484Y-108481442D01*
X159738547Y-108497656D01*
X159744833Y-108506659D01*
X159764589Y-108532283D01*
X159786623Y-108555596D01*
X159791023Y-108559518D01*
X159813932Y-108579382D01*
X159835374Y-108598587D01*
X159836417Y-108599546D01*
X159855785Y-108614486D01*
X159872777Y-108623400D01*
X159885943Y-108630687D01*
X159888766Y-108635631D01*
X159896331Y-108642415D01*
X159916663Y-108652420D01*
X159946216Y-108664320D01*
X159981445Y-108676792D01*
X160018806Y-108688509D01*
X160054754Y-108698146D01*
X160058100Y-108698936D01*
X160090483Y-108704103D01*
X160134384Y-108707937D01*
X160184427Y-108710285D01*
X160235237Y-108710991D01*
X160281440Y-108709904D01*
X160317661Y-108706869D01*
X160320566Y-108706446D01*
X160363229Y-108697587D01*
X160411691Y-108683941D01*
X160459862Y-108667526D01*
X160501651Y-108650365D01*
X160523766Y-108639035D01*
X160600533Y-108584985D01*
X160670557Y-108517653D01*
X160707658Y-108472450D01*
X160727682Y-108444956D01*
X160743070Y-108422438D01*
X160751479Y-108408388D01*
X160752366Y-108405847D01*
X160755817Y-108395228D01*
X160764842Y-108374131D01*
X160776816Y-108348530D01*
X160788784Y-108322562D01*
X160796500Y-108303328D01*
X160798295Y-108295084D01*
X160798763Y-108286014D01*
X160803066Y-108265668D01*
X160808220Y-108245940D01*
X160815858Y-108207610D01*
X160821585Y-108156864D01*
X160825302Y-108098124D01*
X160826911Y-108035811D01*
X160826313Y-107974345D01*
X160823409Y-107918148D01*
X160818101Y-107871640D01*
X160816746Y-107863907D01*
X160808731Y-107825983D01*
X160799756Y-107790422D01*
X160791452Y-107763535D01*
X160789518Y-107758537D01*
X160780116Y-107733969D01*
X160773779Y-107713695D01*
X160773087Y-107710618D01*
X160763443Y-107683790D01*
X160744499Y-107648804D01*
X160718844Y-107609560D01*
X160689066Y-107569956D01*
X160657756Y-107533894D01*
X160651340Y-107527249D01*
X160587076Y-107472420D01*
X160511091Y-107426852D01*
X160421749Y-107389598D01*
X160401000Y-107382698D01*
X160351999Y-107371098D01*
X160291675Y-107363001D01*
X160225316Y-107358614D01*
X160158207Y-107358144D01*
X160095635Y-107361796D01*
D14*
G36*
X151945340Y-104543860D02*
X151919940Y-104528620D01*
X151861520Y-104493060D01*
X151777700Y-104437180D01*
X151678640Y-104371140D01*
X151579580Y-104305100D01*
X151498300Y-104251760D01*
X151442420Y-104213660D01*
X151417020Y-104200960D01*
X151404320Y-104206040D01*
X151358600Y-104228900D01*
X151290020Y-104264460D01*
X151249380Y-104284780D01*
X151188420Y-104310180D01*
X151155400Y-104317800D01*
X151150320Y-104307640D01*
X151127460Y-104259380D01*
X151091900Y-104178100D01*
X151046180Y-104068880D01*
X150990300Y-103941880D01*
X150934420Y-103807260D01*
X150876000Y-103667560D01*
X150820120Y-103532940D01*
X150771860Y-103413560D01*
X150731220Y-103317040D01*
X150705820Y-103248460D01*
X150695660Y-103220520D01*
X150698200Y-103212900D01*
X150731220Y-103182420D01*
X150784560Y-103141780D01*
X150903940Y-103045260D01*
X151020780Y-102900480D01*
X151091900Y-102735380D01*
X151114760Y-102549960D01*
X151094440Y-102379780D01*
X151028400Y-102217220D01*
X150914100Y-102069900D01*
X150774400Y-101960680D01*
X150611840Y-101892100D01*
X150431500Y-101869240D01*
X150258780Y-101889560D01*
X150091140Y-101955600D01*
X149943820Y-102067360D01*
X149880320Y-102138480D01*
X149793960Y-102288340D01*
X149745700Y-102445820D01*
X149740620Y-102486460D01*
X149748240Y-102661720D01*
X149799040Y-102831900D01*
X149893020Y-102981760D01*
X150022560Y-103106220D01*
X150037800Y-103116380D01*
X150096220Y-103162100D01*
X150136860Y-103192580D01*
X150167340Y-103217980D01*
X149943820Y-103756460D01*
X149908260Y-103840280D01*
X149847300Y-103987600D01*
X149793960Y-104114600D01*
X149750780Y-104216200D01*
X149720300Y-104282240D01*
X149707600Y-104310180D01*
X149707600Y-104312720D01*
X149687280Y-104315260D01*
X149646640Y-104300020D01*
X149570440Y-104264460D01*
X149522180Y-104239060D01*
X149463760Y-104211120D01*
X149438360Y-104200960D01*
X149415500Y-104213660D01*
X149362160Y-104249220D01*
X149280880Y-104302560D01*
X149184360Y-104366060D01*
X149092920Y-104429560D01*
X149009100Y-104485440D01*
X148948140Y-104523540D01*
X148917660Y-104541320D01*
X148912580Y-104541320D01*
X148887180Y-104526080D01*
X148838920Y-104485440D01*
X148765260Y-104416860D01*
X148661120Y-104312720D01*
X148645880Y-104297480D01*
X148559520Y-104211120D01*
X148490940Y-104137460D01*
X148445220Y-104086660D01*
X148427440Y-104063800D01*
X148427440Y-104063800D01*
X148442680Y-104033320D01*
X148480780Y-103972360D01*
X148536660Y-103886000D01*
X148605240Y-103786940D01*
X148783040Y-103527860D01*
X148686520Y-103284020D01*
X148656040Y-103207820D01*
X148617940Y-103118920D01*
X148590000Y-103052880D01*
X148574760Y-103024940D01*
X148549360Y-103014780D01*
X148480780Y-102999540D01*
X148384260Y-102979220D01*
X148269960Y-102958900D01*
X148158200Y-102938580D01*
X148059140Y-102918260D01*
X147988020Y-102905560D01*
X147955000Y-102897940D01*
X147947380Y-102892860D01*
X147939760Y-102877620D01*
X147937220Y-102844600D01*
X147934680Y-102783640D01*
X147932140Y-102689660D01*
X147932140Y-102549960D01*
X147932140Y-102534720D01*
X147934680Y-102405180D01*
X147937220Y-102298500D01*
X147939760Y-102232460D01*
X147944840Y-102204520D01*
X147944840Y-102204520D01*
X147975320Y-102196900D01*
X148046440Y-102181660D01*
X148145500Y-102163880D01*
X148264880Y-102141020D01*
X148272500Y-102138480D01*
X148389340Y-102115620D01*
X148488400Y-102095300D01*
X148559520Y-102080060D01*
X148587460Y-102069900D01*
X148595080Y-102062280D01*
X148617940Y-102016560D01*
X148650960Y-101942900D01*
X148691600Y-101854000D01*
X148729700Y-101760020D01*
X148762720Y-101676200D01*
X148785580Y-101615240D01*
X148793200Y-101587300D01*
X148790660Y-101584760D01*
X148772880Y-101556820D01*
X148732240Y-101495860D01*
X148676360Y-101412040D01*
X148607780Y-101310440D01*
X148602700Y-101302820D01*
X148534120Y-101203760D01*
X148478240Y-101117400D01*
X148442680Y-101058980D01*
X148427440Y-101031040D01*
X148427440Y-101028500D01*
X148450300Y-100998020D01*
X148501100Y-100942140D01*
X148574760Y-100865940D01*
X148661120Y-100777040D01*
X148689060Y-100751640D01*
X148788120Y-100655120D01*
X148854160Y-100594160D01*
X148897340Y-100561140D01*
X148917660Y-100553520D01*
X148917660Y-100553520D01*
X148948140Y-100571300D01*
X149011640Y-100611940D01*
X149095460Y-100670360D01*
X149197060Y-100738940D01*
X149204680Y-100744020D01*
X149303740Y-100812600D01*
X149387560Y-100868480D01*
X149445980Y-100909120D01*
X149473920Y-100924360D01*
X149476460Y-100924360D01*
X149517100Y-100911660D01*
X149588220Y-100886260D01*
X149677120Y-100853240D01*
X149768560Y-100815140D01*
X149852380Y-100779580D01*
X149915880Y-100751640D01*
X149946360Y-100733860D01*
X149946360Y-100733860D01*
X149956520Y-100698300D01*
X149974300Y-100622100D01*
X149994620Y-100520500D01*
X150020020Y-100398580D01*
X150022560Y-100378260D01*
X150045420Y-100258880D01*
X150063200Y-100159820D01*
X150078440Y-100091240D01*
X150086060Y-100063300D01*
X150101300Y-100060760D01*
X150159720Y-100055680D01*
X150248620Y-100053140D01*
X150357840Y-100053140D01*
X150469600Y-100053140D01*
X150578820Y-100055680D01*
X150672800Y-100058220D01*
X150741380Y-100063300D01*
X150769320Y-100068380D01*
X150769320Y-100070920D01*
X150779480Y-100109020D01*
X150797260Y-100182680D01*
X150817580Y-100286820D01*
X150840440Y-100408740D01*
X150845520Y-100431600D01*
X150868380Y-100548440D01*
X150888700Y-100647500D01*
X150901400Y-100713540D01*
X150909020Y-100741480D01*
X150921720Y-100746560D01*
X150969980Y-100766880D01*
X151048720Y-100799900D01*
X151147780Y-100840540D01*
X151376380Y-100931980D01*
X151658320Y-100741480D01*
X151683720Y-100723700D01*
X151785320Y-100655120D01*
X151866600Y-100599240D01*
X151925020Y-100561140D01*
X151947880Y-100548440D01*
X151950420Y-100548440D01*
X151978360Y-100573840D01*
X152034240Y-100627180D01*
X152110440Y-100700840D01*
X152199340Y-100787200D01*
X152262840Y-100853240D01*
X152341580Y-100931980D01*
X152389840Y-100985320D01*
X152417780Y-101018340D01*
X152425400Y-101038660D01*
X152422860Y-101053900D01*
X152405080Y-101081840D01*
X152364440Y-101142800D01*
X152306020Y-101229160D01*
X152237440Y-101328220D01*
X152181560Y-101412040D01*
X152120600Y-101506020D01*
X152082500Y-101572060D01*
X152067260Y-101605080D01*
X152072340Y-101617780D01*
X152090120Y-101673660D01*
X152125680Y-101757480D01*
X152166320Y-101856540D01*
X152265380Y-102077520D01*
X152410160Y-102105460D01*
X152499060Y-102123240D01*
X152620980Y-102146100D01*
X152740360Y-102168960D01*
X152923240Y-102204520D01*
X152930860Y-102880160D01*
X152902920Y-102892860D01*
X152874980Y-102900480D01*
X152806400Y-102915720D01*
X152709880Y-102936040D01*
X152593040Y-102956360D01*
X152496520Y-102974140D01*
X152397460Y-102994460D01*
X152326340Y-103007160D01*
X152295860Y-103014780D01*
X152285700Y-103024940D01*
X152262840Y-103073200D01*
X152227280Y-103149400D01*
X152186640Y-103240840D01*
X152148540Y-103334820D01*
X152112980Y-103423720D01*
X152090120Y-103489760D01*
X152079960Y-103522780D01*
X152092660Y-103550720D01*
X152130760Y-103609140D01*
X152184100Y-103690420D01*
X152252680Y-103789480D01*
X152318720Y-103886000D01*
X152377140Y-103969820D01*
X152415240Y-104030780D01*
X152433020Y-104058720D01*
X152422860Y-104076500D01*
X152384760Y-104124760D01*
X152311100Y-104200960D01*
X152199340Y-104310180D01*
X152181560Y-104327960D01*
X152095200Y-104411780D01*
X152021540Y-104480360D01*
X151968200Y-104526080D01*
X151945340Y-104543860D01*
X151945340Y-104543860D01*
G37*
X151945340Y-104543860D02*
X151919940Y-104528620D01*
X151861520Y-104493060D01*
X151777700Y-104437180D01*
X151678640Y-104371140D01*
X151579580Y-104305100D01*
X151498300Y-104251760D01*
X151442420Y-104213660D01*
X151417020Y-104200960D01*
X151404320Y-104206040D01*
X151358600Y-104228900D01*
X151290020Y-104264460D01*
X151249380Y-104284780D01*
X151188420Y-104310180D01*
X151155400Y-104317800D01*
X151150320Y-104307640D01*
X151127460Y-104259380D01*
X151091900Y-104178100D01*
X151046180Y-104068880D01*
X150990300Y-103941880D01*
X150934420Y-103807260D01*
X150876000Y-103667560D01*
X150820120Y-103532940D01*
X150771860Y-103413560D01*
X150731220Y-103317040D01*
X150705820Y-103248460D01*
X150695660Y-103220520D01*
X150698200Y-103212900D01*
X150731220Y-103182420D01*
X150784560Y-103141780D01*
X150903940Y-103045260D01*
X151020780Y-102900480D01*
X151091900Y-102735380D01*
X151114760Y-102549960D01*
X151094440Y-102379780D01*
X151028400Y-102217220D01*
X150914100Y-102069900D01*
X150774400Y-101960680D01*
X150611840Y-101892100D01*
X150431500Y-101869240D01*
X150258780Y-101889560D01*
X150091140Y-101955600D01*
X149943820Y-102067360D01*
X149880320Y-102138480D01*
X149793960Y-102288340D01*
X149745700Y-102445820D01*
X149740620Y-102486460D01*
X149748240Y-102661720D01*
X149799040Y-102831900D01*
X149893020Y-102981760D01*
X150022560Y-103106220D01*
X150037800Y-103116380D01*
X150096220Y-103162100D01*
X150136860Y-103192580D01*
X150167340Y-103217980D01*
X149943820Y-103756460D01*
X149908260Y-103840280D01*
X149847300Y-103987600D01*
X149793960Y-104114600D01*
X149750780Y-104216200D01*
X149720300Y-104282240D01*
X149707600Y-104310180D01*
X149707600Y-104312720D01*
X149687280Y-104315260D01*
X149646640Y-104300020D01*
X149570440Y-104264460D01*
X149522180Y-104239060D01*
X149463760Y-104211120D01*
X149438360Y-104200960D01*
X149415500Y-104213660D01*
X149362160Y-104249220D01*
X149280880Y-104302560D01*
X149184360Y-104366060D01*
X149092920Y-104429560D01*
X149009100Y-104485440D01*
X148948140Y-104523540D01*
X148917660Y-104541320D01*
X148912580Y-104541320D01*
X148887180Y-104526080D01*
X148838920Y-104485440D01*
X148765260Y-104416860D01*
X148661120Y-104312720D01*
X148645880Y-104297480D01*
X148559520Y-104211120D01*
X148490940Y-104137460D01*
X148445220Y-104086660D01*
X148427440Y-104063800D01*
X148427440Y-104063800D01*
X148442680Y-104033320D01*
X148480780Y-103972360D01*
X148536660Y-103886000D01*
X148605240Y-103786940D01*
X148783040Y-103527860D01*
X148686520Y-103284020D01*
X148656040Y-103207820D01*
X148617940Y-103118920D01*
X148590000Y-103052880D01*
X148574760Y-103024940D01*
X148549360Y-103014780D01*
X148480780Y-102999540D01*
X148384260Y-102979220D01*
X148269960Y-102958900D01*
X148158200Y-102938580D01*
X148059140Y-102918260D01*
X147988020Y-102905560D01*
X147955000Y-102897940D01*
X147947380Y-102892860D01*
X147939760Y-102877620D01*
X147937220Y-102844600D01*
X147934680Y-102783640D01*
X147932140Y-102689660D01*
X147932140Y-102549960D01*
X147932140Y-102534720D01*
X147934680Y-102405180D01*
X147937220Y-102298500D01*
X147939760Y-102232460D01*
X147944840Y-102204520D01*
X147944840Y-102204520D01*
X147975320Y-102196900D01*
X148046440Y-102181660D01*
X148145500Y-102163880D01*
X148264880Y-102141020D01*
X148272500Y-102138480D01*
X148389340Y-102115620D01*
X148488400Y-102095300D01*
X148559520Y-102080060D01*
X148587460Y-102069900D01*
X148595080Y-102062280D01*
X148617940Y-102016560D01*
X148650960Y-101942900D01*
X148691600Y-101854000D01*
X148729700Y-101760020D01*
X148762720Y-101676200D01*
X148785580Y-101615240D01*
X148793200Y-101587300D01*
X148790660Y-101584760D01*
X148772880Y-101556820D01*
X148732240Y-101495860D01*
X148676360Y-101412040D01*
X148607780Y-101310440D01*
X148602700Y-101302820D01*
X148534120Y-101203760D01*
X148478240Y-101117400D01*
X148442680Y-101058980D01*
X148427440Y-101031040D01*
X148427440Y-101028500D01*
X148450300Y-100998020D01*
X148501100Y-100942140D01*
X148574760Y-100865940D01*
X148661120Y-100777040D01*
X148689060Y-100751640D01*
X148788120Y-100655120D01*
X148854160Y-100594160D01*
X148897340Y-100561140D01*
X148917660Y-100553520D01*
X148917660Y-100553520D01*
X148948140Y-100571300D01*
X149011640Y-100611940D01*
X149095460Y-100670360D01*
X149197060Y-100738940D01*
X149204680Y-100744020D01*
X149303740Y-100812600D01*
X149387560Y-100868480D01*
X149445980Y-100909120D01*
X149473920Y-100924360D01*
X149476460Y-100924360D01*
X149517100Y-100911660D01*
X149588220Y-100886260D01*
X149677120Y-100853240D01*
X149768560Y-100815140D01*
X149852380Y-100779580D01*
X149915880Y-100751640D01*
X149946360Y-100733860D01*
X149946360Y-100733860D01*
X149956520Y-100698300D01*
X149974300Y-100622100D01*
X149994620Y-100520500D01*
X150020020Y-100398580D01*
X150022560Y-100378260D01*
X150045420Y-100258880D01*
X150063200Y-100159820D01*
X150078440Y-100091240D01*
X150086060Y-100063300D01*
X150101300Y-100060760D01*
X150159720Y-100055680D01*
X150248620Y-100053140D01*
X150357840Y-100053140D01*
X150469600Y-100053140D01*
X150578820Y-100055680D01*
X150672800Y-100058220D01*
X150741380Y-100063300D01*
X150769320Y-100068380D01*
X150769320Y-100070920D01*
X150779480Y-100109020D01*
X150797260Y-100182680D01*
X150817580Y-100286820D01*
X150840440Y-100408740D01*
X150845520Y-100431600D01*
X150868380Y-100548440D01*
X150888700Y-100647500D01*
X150901400Y-100713540D01*
X150909020Y-100741480D01*
X150921720Y-100746560D01*
X150969980Y-100766880D01*
X151048720Y-100799900D01*
X151147780Y-100840540D01*
X151376380Y-100931980D01*
X151658320Y-100741480D01*
X151683720Y-100723700D01*
X151785320Y-100655120D01*
X151866600Y-100599240D01*
X151925020Y-100561140D01*
X151947880Y-100548440D01*
X151950420Y-100548440D01*
X151978360Y-100573840D01*
X152034240Y-100627180D01*
X152110440Y-100700840D01*
X152199340Y-100787200D01*
X152262840Y-100853240D01*
X152341580Y-100931980D01*
X152389840Y-100985320D01*
X152417780Y-101018340D01*
X152425400Y-101038660D01*
X152422860Y-101053900D01*
X152405080Y-101081840D01*
X152364440Y-101142800D01*
X152306020Y-101229160D01*
X152237440Y-101328220D01*
X152181560Y-101412040D01*
X152120600Y-101506020D01*
X152082500Y-101572060D01*
X152067260Y-101605080D01*
X152072340Y-101617780D01*
X152090120Y-101673660D01*
X152125680Y-101757480D01*
X152166320Y-101856540D01*
X152265380Y-102077520D01*
X152410160Y-102105460D01*
X152499060Y-102123240D01*
X152620980Y-102146100D01*
X152740360Y-102168960D01*
X152923240Y-102204520D01*
X152930860Y-102880160D01*
X152902920Y-102892860D01*
X152874980Y-102900480D01*
X152806400Y-102915720D01*
X152709880Y-102936040D01*
X152593040Y-102956360D01*
X152496520Y-102974140D01*
X152397460Y-102994460D01*
X152326340Y-103007160D01*
X152295860Y-103014780D01*
X152285700Y-103024940D01*
X152262840Y-103073200D01*
X152227280Y-103149400D01*
X152186640Y-103240840D01*
X152148540Y-103334820D01*
X152112980Y-103423720D01*
X152090120Y-103489760D01*
X152079960Y-103522780D01*
X152092660Y-103550720D01*
X152130760Y-103609140D01*
X152184100Y-103690420D01*
X152252680Y-103789480D01*
X152318720Y-103886000D01*
X152377140Y-103969820D01*
X152415240Y-104030780D01*
X152433020Y-104058720D01*
X152422860Y-104076500D01*
X152384760Y-104124760D01*
X152311100Y-104200960D01*
X152199340Y-104310180D01*
X152181560Y-104327960D01*
X152095200Y-104411780D01*
X152021540Y-104480360D01*
X151968200Y-104526080D01*
X151945340Y-104543860D01*
M02*
