G04 #@! TF.FileFunction,Soldermask,Top*
%FSLAX46Y46*%
G04 Gerber Fmt 4.6, Leading zero omitted, Abs format (unit mm)*
G04 Created by KiCad (PCBNEW 4.0.6+dfsg1-1) date Fri Mar 23 21:29:37 2018*
%MOMM*%
%LPD*%
G01*
G04 APERTURE LIST*
%ADD10C,0.100000*%
%ADD11C,4.501600*%
%ADD12R,0.901600X1.001600*%
%ADD13R,1.244600X0.609600*%
%ADD14R,1.451600X0.501600*%
%ADD15C,1.901600*%
%ADD16R,0.801600X1.401600*%
%ADD17R,1.401600X0.801600*%
%ADD18R,0.851600X0.901600*%
%ADD19R,1.101600X1.351600*%
%ADD20R,1.351600X1.101600*%
%ADD21R,0.609600X1.244600*%
%ADD22R,1.101600X1.101600*%
%ADD23C,2.301600*%
%ADD24R,3.001600X5.501600*%
%ADD25R,2.301600X3.101600*%
%ADD26R,2.601600X1.101600*%
%ADD27R,2.601600X1.901600*%
%ADD28O,2.100580X2.100580*%
%ADD29R,2.100580X2.100580*%
%ADD30C,1.201600*%
G04 APERTURE END LIST*
D10*
D11*
X171684000Y-85269000D03*
D12*
X145928120Y-84326220D03*
X144028120Y-84326220D03*
X144978120Y-86326220D03*
D13*
X155829000Y-92837000D03*
X155829000Y-94107000D03*
X155829000Y-95377000D03*
X155829000Y-96647000D03*
X149479000Y-96647000D03*
X149479000Y-95377000D03*
X149479000Y-94107000D03*
X149479000Y-92837000D03*
D14*
X141812000Y-91410000D03*
X141812000Y-92060000D03*
X141812000Y-92710000D03*
X141812000Y-93360000D03*
X141812000Y-94010000D03*
D15*
X141812000Y-88985000D03*
X141787000Y-96435000D03*
X137987000Y-88835000D03*
X137987000Y-96585000D03*
D16*
X165166000Y-92202000D03*
X167066000Y-92202000D03*
D17*
X164846000Y-95946000D03*
X164846000Y-94046000D03*
X161277300Y-94650600D03*
X161277300Y-92750600D03*
X159143700Y-94523600D03*
X159143700Y-92623600D03*
D16*
X152504180Y-88521540D03*
X150604180Y-88521540D03*
X153464300Y-90601800D03*
X151564300Y-90601800D03*
D17*
X147320000Y-92014000D03*
X147320000Y-93914000D03*
X169456100Y-94084100D03*
X169456100Y-95984100D03*
X137403840Y-105455760D03*
X137403840Y-103555760D03*
D18*
X163576000Y-101080000D03*
X163576000Y-99580000D03*
D19*
X159020000Y-91059000D03*
X161020000Y-91059000D03*
D20*
X145288000Y-92440000D03*
X145288000Y-90440000D03*
D19*
X147082000Y-88392000D03*
X149082000Y-88392000D03*
D21*
X161925000Y-102743000D03*
X160655000Y-102743000D03*
X159385000Y-102743000D03*
X158115000Y-102743000D03*
X158115000Y-96393000D03*
X159385000Y-96393000D03*
X160655000Y-96393000D03*
X161925000Y-96393000D03*
D17*
X142143480Y-84805480D03*
X142143480Y-86705480D03*
D19*
X166386000Y-107442000D03*
X168386000Y-107442000D03*
D20*
X167132000Y-95996000D03*
X167132000Y-93996000D03*
D22*
X147258720Y-90434160D03*
X149758720Y-90434160D03*
D17*
X152963880Y-86918840D03*
X152963880Y-85018840D03*
X150891240Y-84988360D03*
X150891240Y-86888360D03*
D20*
X140703300Y-100555300D03*
X140703300Y-98555300D03*
D16*
X151071540Y-83372960D03*
X152971540Y-83372960D03*
D20*
X172275500Y-94046800D03*
X172275500Y-96046800D03*
D23*
X171704000Y-108534200D03*
X138684000Y-108483400D03*
D11*
X138684000Y-85344000D03*
D19*
X155057600Y-90220800D03*
X157057600Y-90220800D03*
D17*
X145542000Y-96200000D03*
X145542000Y-94300000D03*
D24*
X155006000Y-104267000D03*
X144206000Y-104267000D03*
D25*
X166518000Y-104140000D03*
X172318000Y-104140000D03*
X166772000Y-99568000D03*
X172572000Y-99568000D03*
D26*
X140970000Y-105386000D03*
X140970000Y-102386000D03*
X137911840Y-101555680D03*
X137911840Y-98555680D03*
D27*
X163099500Y-106997500D03*
X159099500Y-106997500D03*
D28*
X164673280Y-85831680D03*
D29*
X167213280Y-85831680D03*
D30*
X167213280Y-83291680D03*
X164673280Y-83291680D03*
D28*
X155874720Y-85852000D03*
D29*
X160954720Y-85852000D03*
D28*
X158414720Y-85852000D03*
D30*
X160954720Y-83312000D03*
X158414720Y-83312000D03*
X155874720Y-83312000D03*
D26*
X148351240Y-86574760D03*
X148351240Y-83574760D03*
M02*
