M48
;DRILL file {KiCad 4.0.6+dfsg1-1} date Fri Mar 23 21:29:39 2018
;FORMAT={-:-/ absolute / inch / decimal}
FMAT,2
INCH,TZ
T1C0.016
T2C0.043
T3C0.047
T4C0.087
T5C0.031
T6C0.043
T7C0.087
%
G90
G05
M72
T1
X5.49Y-3.69
X5.54Y-4.08
X5.59Y-3.96
X5.625Y-3.2815
X5.65Y-3.51
X5.699Y-3.2706
X5.7Y-3.51
X5.74Y-3.45
X5.75Y-3.27
X5.82Y-3.66
X5.85Y-3.56
X5.98Y-3.71
X5.9848Y-3.2822
X6.06Y-3.61
X6.06Y-3.7
X6.07Y-3.81
X6.0996Y-3.4626
X6.17Y-3.62
X6.227Y-3.5285
X6.28Y-3.525
X6.379Y-3.5865
X6.3897Y-3.6189
X6.4005Y-3.6553
X6.4035Y-3.6868
X6.4113Y-3.5904
X6.44Y-3.876
X6.6075Y-3.632
X6.6665Y-4.2185
X6.7595Y-3.829
X6.788Y-4.012
X6.7905Y-3.83
X6.827Y-4.0135
T2
X6.1368Y-3.38
X6.2368Y-3.38
X6.3368Y-3.38
X6.4832Y-3.3792
X6.5832Y-3.3792
T3
X5.4326Y-3.4974
X5.4326Y-3.8026
X5.5822Y-3.7967
X5.5831Y-3.5033
T4
X5.46Y-3.36
X6.7592Y-3.357
T5
X5.5408Y-3.5516
X5.5408Y-3.7484
T6
X6.1368Y-3.28
X6.2368Y-3.28
X6.3368Y-3.28
X6.4832Y-3.2792
X6.5832Y-3.2792
T7
X5.46Y-4.271
X6.76Y-4.273
T0
M30
