G04 #@! TF.GenerationSoftware,KiCad,Pcbnew,5.1.6-c6e7f7d~87~ubuntu20.04.1*
G04 #@! TF.CreationDate,2021-06-05T20:06:15-07:00*
G04 #@! TF.ProjectId,NixieSupply5vto170vDCMBoostMini,4e697869-6553-4757-9070-6c793576746f,rev?*
G04 #@! TF.SameCoordinates,Original*
G04 #@! TF.FileFunction,Copper,L1,Top*
G04 #@! TF.FilePolarity,Positive*
%FSLAX46Y46*%
G04 Gerber Fmt 4.6, Leading zero omitted, Abs format (unit mm)*
G04 Created by KiCad (PCBNEW 5.1.6-c6e7f7d~87~ubuntu20.04.1) date 2021-06-05 20:06:15*
%MOMM*%
%LPD*%
G01*
G04 APERTURE LIST*
G04 #@! TA.AperFunction,ComponentPad*
%ADD10C,4.400000*%
G04 #@! TD*
G04 #@! TA.AperFunction,SMDPad,CuDef*
%ADD11R,0.800000X0.900000*%
G04 #@! TD*
G04 #@! TA.AperFunction,SMDPad,CuDef*
%ADD12R,1.143000X0.508000*%
G04 #@! TD*
G04 #@! TA.AperFunction,SMDPad,CuDef*
%ADD13R,1.350000X0.400000*%
G04 #@! TD*
G04 #@! TA.AperFunction,ComponentPad*
%ADD14C,1.800000*%
G04 #@! TD*
G04 #@! TA.AperFunction,SMDPad,CuDef*
%ADD15R,0.700000X1.300000*%
G04 #@! TD*
G04 #@! TA.AperFunction,SMDPad,CuDef*
%ADD16R,1.300000X0.700000*%
G04 #@! TD*
G04 #@! TA.AperFunction,SMDPad,CuDef*
%ADD17R,0.750000X0.800000*%
G04 #@! TD*
G04 #@! TA.AperFunction,SMDPad,CuDef*
%ADD18R,1.000000X1.250000*%
G04 #@! TD*
G04 #@! TA.AperFunction,SMDPad,CuDef*
%ADD19R,1.250000X1.000000*%
G04 #@! TD*
G04 #@! TA.AperFunction,SMDPad,CuDef*
%ADD20R,0.508000X1.143000*%
G04 #@! TD*
G04 #@! TA.AperFunction,SMDPad,CuDef*
%ADD21R,1.000000X1.000000*%
G04 #@! TD*
G04 #@! TA.AperFunction,SMDPad,CuDef*
%ADD22R,2.900000X5.400000*%
G04 #@! TD*
G04 #@! TA.AperFunction,SMDPad,CuDef*
%ADD23R,2.200000X3.000000*%
G04 #@! TD*
G04 #@! TA.AperFunction,SMDPad,CuDef*
%ADD24R,2.500000X1.000000*%
G04 #@! TD*
G04 #@! TA.AperFunction,SMDPad,CuDef*
%ADD25R,2.500000X1.800000*%
G04 #@! TD*
G04 #@! TA.AperFunction,ComponentPad*
%ADD26O,1.998980X1.998980*%
G04 #@! TD*
G04 #@! TA.AperFunction,ComponentPad*
%ADD27R,1.998980X1.998980*%
G04 #@! TD*
G04 #@! TA.AperFunction,ViaPad*
%ADD28C,0.685800*%
G04 #@! TD*
G04 #@! TA.AperFunction,Conductor*
%ADD29C,0.381000*%
G04 #@! TD*
G04 #@! TA.AperFunction,Conductor*
%ADD30C,1.000000*%
G04 #@! TD*
G04 #@! TA.AperFunction,Conductor*
%ADD31C,0.400000*%
G04 #@! TD*
G04 #@! TA.AperFunction,Conductor*
%ADD32C,1.500000*%
G04 #@! TD*
G04 #@! TA.AperFunction,Conductor*
%ADD33C,0.800000*%
G04 #@! TD*
G04 #@! TA.AperFunction,Conductor*
%ADD34C,0.600000*%
G04 #@! TD*
G04 #@! TA.AperFunction,Conductor*
%ADD35C,0.254000*%
G04 #@! TD*
G04 APERTURE END LIST*
D10*
G04 #@! TO.P,J2,1*
G04 #@! TO.N,GND*
X171684000Y-85269000D03*
G04 #@! TD*
D11*
G04 #@! TO.P,Q26,1*
G04 #@! TO.N,Net-(Q26-Pad1)*
X145928120Y-84326220D03*
G04 #@! TO.P,Q26,2*
G04 #@! TO.N,GND*
X144028120Y-84326220D03*
G04 #@! TO.P,Q26,3*
G04 #@! TO.N,Net-(C14-Pad1)*
X144978120Y-86326220D03*
G04 #@! TD*
D12*
G04 #@! TO.P,U1,8*
G04 #@! TO.N,Net-(C10-Pad1)*
X155829000Y-92837000D03*
G04 #@! TO.P,U1,7*
G04 #@! TO.N,Net-(C9-Pad1)*
X155829000Y-94107000D03*
G04 #@! TO.P,U1,6*
G04 #@! TO.N,Net-(Q1-Pad4)*
X155829000Y-95377000D03*
G04 #@! TO.P,U1,5*
G04 #@! TO.N,GND*
X155829000Y-96647000D03*
G04 #@! TO.P,U1,4*
G04 #@! TO.N,Net-(C7-Pad1)*
X149479000Y-96647000D03*
G04 #@! TO.P,U1,3*
G04 #@! TO.N,Net-(C11-Pad1)*
X149479000Y-95377000D03*
G04 #@! TO.P,U1,2*
G04 #@! TO.N,Net-(C6-Pad2)*
X149479000Y-94107000D03*
G04 #@! TO.P,U1,1*
G04 #@! TO.N,Net-(C5-Pad1)*
X149479000Y-92837000D03*
G04 #@! TD*
D13*
G04 #@! TO.P,P1,1*
G04 #@! TO.N,5v_Power*
X141812000Y-91410000D03*
G04 #@! TO.P,P1,2*
G04 #@! TO.N,Net-(P1-Pad2)*
X141812000Y-92060000D03*
G04 #@! TO.P,P1,3*
G04 #@! TO.N,Net-(P1-Pad3)*
X141812000Y-92710000D03*
G04 #@! TO.P,P1,4*
G04 #@! TO.N,Net-(P1-Pad4)*
X141812000Y-93360000D03*
G04 #@! TO.P,P1,5*
G04 #@! TO.N,GND*
X141812000Y-94010000D03*
D14*
G04 #@! TO.P,P1,6*
X141812000Y-88985000D03*
X141787000Y-96435000D03*
X137987000Y-88835000D03*
X137987000Y-96585000D03*
G04 #@! TD*
D15*
G04 #@! TO.P,R16,1*
G04 #@! TO.N,Net-(C6-Pad2)*
X165166000Y-92202000D03*
G04 #@! TO.P,R16,2*
G04 #@! TO.N,GND*
X167066000Y-92202000D03*
G04 #@! TD*
D16*
G04 #@! TO.P,R15,1*
G04 #@! TO.N,Net-(C1-Pad1)*
X164846000Y-95946000D03*
G04 #@! TO.P,R15,2*
G04 #@! TO.N,Net-(C6-Pad2)*
X164846000Y-94046000D03*
G04 #@! TD*
G04 #@! TO.P,R10,1*
G04 #@! TO.N,Net-(Q1-Pad1)*
X161277300Y-94650600D03*
G04 #@! TO.P,R10,2*
G04 #@! TO.N,GND*
X161277300Y-92750600D03*
G04 #@! TD*
G04 #@! TO.P,R8,1*
G04 #@! TO.N,Net-(Q1-Pad1)*
X159143700Y-94523600D03*
G04 #@! TO.P,R8,2*
G04 #@! TO.N,Net-(C11-Pad1)*
X159143700Y-92623600D03*
G04 #@! TD*
D15*
G04 #@! TO.P,R5,1*
G04 #@! TO.N,Net-(C6-Pad2)*
X152504180Y-88521540D03*
G04 #@! TO.P,R5,2*
G04 #@! TO.N,Net-(C5-Pad2)*
X150604180Y-88521540D03*
G04 #@! TD*
G04 #@! TO.P,R3,1*
G04 #@! TO.N,Net-(C6-Pad2)*
X153464300Y-90601800D03*
G04 #@! TO.P,R3,2*
G04 #@! TO.N,Net-(C5-Pad1)*
X151564300Y-90601800D03*
G04 #@! TD*
D16*
G04 #@! TO.P,R2,1*
G04 #@! TO.N,Net-(C7-Pad1)*
X147320000Y-92014000D03*
G04 #@! TO.P,R2,2*
G04 #@! TO.N,Net-(C10-Pad1)*
X147320000Y-93914000D03*
G04 #@! TD*
G04 #@! TO.P,L5,1*
G04 #@! TO.N,+160V*
X169456100Y-94084100D03*
G04 #@! TO.P,L5,2*
G04 #@! TO.N,Net-(C1-Pad1)*
X169456100Y-95984100D03*
G04 #@! TD*
G04 #@! TO.P,L2,1*
G04 #@! TO.N,Net-(C9-Pad1)*
X137403840Y-105455760D03*
G04 #@! TO.P,L2,2*
G04 #@! TO.N,5v_Power*
X137403840Y-103555760D03*
G04 #@! TD*
D17*
G04 #@! TO.P,C15,1*
G04 #@! TO.N,Net-(C15-Pad1)*
X163576000Y-101080000D03*
G04 #@! TO.P,C15,2*
G04 #@! TO.N,GND*
X163576000Y-99580000D03*
G04 #@! TD*
D18*
G04 #@! TO.P,C11,1*
G04 #@! TO.N,Net-(C11-Pad1)*
X159020000Y-91059000D03*
G04 #@! TO.P,C11,2*
G04 #@! TO.N,GND*
X161020000Y-91059000D03*
G04 #@! TD*
D19*
G04 #@! TO.P,C7,1*
G04 #@! TO.N,Net-(C7-Pad1)*
X145288000Y-92440000D03*
G04 #@! TO.P,C7,2*
G04 #@! TO.N,GND*
X145288000Y-90440000D03*
G04 #@! TD*
D18*
G04 #@! TO.P,C5,1*
G04 #@! TO.N,Net-(C5-Pad1)*
X147082000Y-88392000D03*
G04 #@! TO.P,C5,2*
G04 #@! TO.N,Net-(C5-Pad2)*
X149082000Y-88392000D03*
G04 #@! TD*
D20*
G04 #@! TO.P,Q1,8*
G04 #@! TO.N,Net-(C15-Pad1)*
X161925000Y-102743000D03*
G04 #@! TO.P,Q1,7*
X160655000Y-102743000D03*
G04 #@! TO.P,Q1,6*
X159385000Y-102743000D03*
G04 #@! TO.P,Q1,5*
X158115000Y-102743000D03*
G04 #@! TO.P,Q1,4*
G04 #@! TO.N,Net-(Q1-Pad4)*
X158115000Y-96393000D03*
G04 #@! TO.P,Q1,3*
G04 #@! TO.N,Net-(Q1-Pad1)*
X159385000Y-96393000D03*
G04 #@! TO.P,Q1,2*
X160655000Y-96393000D03*
G04 #@! TO.P,Q1,1*
X161925000Y-96393000D03*
G04 #@! TD*
D16*
G04 #@! TO.P,R4,1*
G04 #@! TO.N,Net-(Q26-Pad1)*
X142143480Y-84805480D03*
G04 #@! TO.P,R4,2*
G04 #@! TO.N,5v_Power*
X142143480Y-86705480D03*
G04 #@! TD*
D18*
G04 #@! TO.P,C12,1*
G04 #@! TO.N,Net-(C1-Pad1)*
X166386000Y-107442000D03*
G04 #@! TO.P,C12,2*
G04 #@! TO.N,GND*
X168386000Y-107442000D03*
G04 #@! TD*
D19*
G04 #@! TO.P,C6,1*
G04 #@! TO.N,Net-(C1-Pad1)*
X167132000Y-95996000D03*
G04 #@! TO.P,C6,2*
G04 #@! TO.N,Net-(C6-Pad2)*
X167132000Y-93996000D03*
G04 #@! TD*
D21*
G04 #@! TO.P,D2,1*
G04 #@! TO.N,Net-(C14-Pad1)*
X147258720Y-90434160D03*
G04 #@! TO.P,D2,2*
G04 #@! TO.N,Net-(C5-Pad1)*
X149758720Y-90434160D03*
G04 #@! TD*
D16*
G04 #@! TO.P,R7,1*
G04 #@! TO.N,Net-(C14-Pad1)*
X152963880Y-86918840D03*
G04 #@! TO.P,R7,2*
G04 #@! TO.N,5v_Power*
X152963880Y-85018840D03*
G04 #@! TD*
G04 #@! TO.P,R9,1*
G04 #@! TO.N,GND*
X150891240Y-84988360D03*
G04 #@! TO.P,R9,2*
G04 #@! TO.N,Net-(C14-Pad1)*
X150891240Y-86888360D03*
G04 #@! TD*
D19*
G04 #@! TO.P,C18,1*
G04 #@! TO.N,5v_Power*
X140703300Y-100555300D03*
G04 #@! TO.P,C18,2*
G04 #@! TO.N,GND*
X140703300Y-98555300D03*
G04 #@! TD*
D15*
G04 #@! TO.P,R1,1*
G04 #@! TO.N,Net-(Q26-Pad1)*
X151071540Y-83372960D03*
G04 #@! TO.P,R1,2*
G04 #@! TO.N,N_ENABLE*
X152971540Y-83372960D03*
G04 #@! TD*
D19*
G04 #@! TO.P,C3,1*
G04 #@! TO.N,+160V*
X172275500Y-94046800D03*
G04 #@! TO.P,C3,2*
G04 #@! TO.N,GND*
X172275500Y-96046800D03*
G04 #@! TD*
D10*
G04 #@! TO.P,J3,1*
G04 #@! TO.N,GND*
X138684000Y-85344000D03*
G04 #@! TD*
D18*
G04 #@! TO.P,C10,1*
G04 #@! TO.N,Net-(C10-Pad1)*
X155057600Y-90220800D03*
G04 #@! TO.P,C10,2*
G04 #@! TO.N,GND*
X157057600Y-90220800D03*
G04 #@! TD*
D16*
G04 #@! TO.P,R12,1*
G04 #@! TO.N,Net-(C11-Pad1)*
X145542000Y-96200000D03*
G04 #@! TO.P,R12,2*
G04 #@! TO.N,Net-(C10-Pad1)*
X145542000Y-94300000D03*
G04 #@! TD*
D22*
G04 #@! TO.P,L3,1*
G04 #@! TO.N,Net-(C15-Pad1)*
X155006000Y-104267000D03*
G04 #@! TO.P,L3,2*
G04 #@! TO.N,Net-(C9-Pad1)*
X144206000Y-104267000D03*
G04 #@! TD*
D23*
G04 #@! TO.P,C1,1*
G04 #@! TO.N,Net-(C1-Pad1)*
X166518000Y-104140000D03*
G04 #@! TO.P,C1,2*
G04 #@! TO.N,GND*
X172318000Y-104140000D03*
G04 #@! TD*
G04 #@! TO.P,C2,1*
G04 #@! TO.N,Net-(C1-Pad1)*
X166772000Y-99568000D03*
G04 #@! TO.P,C2,2*
G04 #@! TO.N,GND*
X172572000Y-99568000D03*
G04 #@! TD*
D24*
G04 #@! TO.P,C9,1*
G04 #@! TO.N,Net-(C9-Pad1)*
X140970000Y-105386000D03*
G04 #@! TO.P,C9,2*
G04 #@! TO.N,GND*
X140970000Y-102386000D03*
G04 #@! TD*
G04 #@! TO.P,C16,1*
G04 #@! TO.N,5v_Power*
X137911840Y-101555680D03*
G04 #@! TO.P,C16,2*
G04 #@! TO.N,GND*
X137911840Y-98555680D03*
G04 #@! TD*
D25*
G04 #@! TO.P,D1,1*
G04 #@! TO.N,Net-(C1-Pad1)*
X163099500Y-106997500D03*
G04 #@! TO.P,D1,2*
G04 #@! TO.N,Net-(C15-Pad1)*
X159099500Y-106997500D03*
G04 #@! TD*
D26*
G04 #@! TO.P,J1,2*
G04 #@! TO.N,+160V*
X164673280Y-85831680D03*
D27*
G04 #@! TO.P,J1,1*
X167213280Y-85831680D03*
G04 #@! TD*
D26*
G04 #@! TO.P,J6,3*
G04 #@! TO.N,5v_Power*
X155874720Y-85852000D03*
D27*
G04 #@! TO.P,J6,1*
G04 #@! TO.N,GND*
X160954720Y-85852000D03*
D26*
G04 #@! TO.P,J6,2*
G04 #@! TO.N,N_ENABLE*
X158414720Y-85852000D03*
G04 #@! TD*
D24*
G04 #@! TO.P,C14,1*
G04 #@! TO.N,Net-(C14-Pad1)*
X148351240Y-86574760D03*
G04 #@! TO.P,C14,2*
G04 #@! TO.N,GND*
X148351240Y-83574760D03*
G04 #@! TD*
D28*
G04 #@! TO.N,GND*
X162648000Y-93645000D03*
X162298000Y-91920000D03*
X162848000Y-91195000D03*
X140716000Y-103632000D03*
X144780000Y-89154000D03*
X146050000Y-83058000D03*
X142875000Y-83350100D03*
X162573000Y-92845000D03*
X162026600Y-91097100D03*
X158165800Y-89623900D03*
X154178000Y-96774000D03*
X163576000Y-98450400D03*
X167830500Y-92252800D03*
X171691300Y-97256600D03*
X172478700Y-97282000D03*
X173405800Y-101942900D03*
X172415200Y-101904800D03*
X169329100Y-107149900D03*
G04 #@! TO.N,Net-(C5-Pad1)*
X145796000Y-87630000D03*
X148590000Y-90424000D03*
G04 #@! TO.N,Net-(C11-Pad1)*
X156718000Y-91948000D03*
X153924000Y-93980000D03*
G04 #@! TO.N,5v_Power*
X143510000Y-89154000D03*
X154929840Y-87950040D03*
X141986000Y-100584000D03*
X139446000Y-93726000D03*
G04 #@! TO.N,Net-(C6-Pad2)*
X159512000Y-89535000D03*
X153924000Y-91694000D03*
G04 #@! TO.N,Net-(C10-Pad1)*
X151892000Y-94234000D03*
X147828000Y-92964000D03*
G04 #@! TO.N,Net-(Q26-Pad1)*
X144754600Y-83073240D03*
X152013920Y-83367880D03*
G04 #@! TD*
D29*
G04 #@! TO.N,*
X17526000Y-143263300D02*
X17526000Y-142989300D01*
G04 #@! TO.N,GND*
X150891240Y-84988360D02*
X148523920Y-84988360D01*
X148351240Y-84815680D02*
X148351240Y-83574760D01*
X148523920Y-84988360D02*
X148351240Y-84815680D01*
X162298000Y-91920000D02*
X162573000Y-91470000D01*
X162610400Y-93607400D02*
X162648000Y-93645000D01*
X162573000Y-92845000D02*
X162610400Y-93607400D01*
X162573000Y-91470000D02*
X162848000Y-91195000D01*
X137987000Y-88835000D02*
X141662000Y-88835000D01*
X141662000Y-88835000D02*
X141812000Y-88985000D01*
X141812000Y-94010000D02*
X141812000Y-96410000D01*
X141812000Y-96410000D02*
X141787000Y-96435000D01*
D30*
X140970000Y-102386000D02*
X140970000Y-103378000D01*
X140970000Y-103378000D02*
X140716000Y-103632000D01*
X140703300Y-98555300D02*
X137930000Y-98822000D01*
X137930000Y-98822000D02*
X137922000Y-98830000D01*
X140703300Y-98555300D02*
X140716000Y-97506000D01*
X140716000Y-97506000D02*
X141787000Y-96435000D01*
X137922000Y-98830000D02*
X137922000Y-96650000D01*
X137922000Y-96650000D02*
X137987000Y-96585000D01*
D29*
X145288000Y-90440000D02*
X144764000Y-89170000D01*
X144764000Y-89170000D02*
X144780000Y-89154000D01*
X147828000Y-83590000D02*
X147828000Y-83413600D01*
X147828000Y-83413600D02*
X146050000Y-83058000D01*
X143687760Y-84283040D02*
X143068000Y-83543100D01*
X143068000Y-83543100D02*
X142875000Y-83350100D01*
X161277300Y-92750600D02*
X162507000Y-92911000D01*
X162507000Y-92911000D02*
X162573000Y-92845000D01*
X161020000Y-91059000D02*
X161988500Y-91059000D01*
X161988500Y-91059000D02*
X162026600Y-91097100D01*
X157057600Y-90220800D02*
X157568900Y-90220800D01*
X157568900Y-90220800D02*
X158165800Y-89623900D01*
X155194000Y-96774000D02*
X154178000Y-96634300D01*
X154178000Y-96634300D02*
X154178000Y-96774000D01*
X155829000Y-96647000D02*
X155194000Y-96774000D01*
X163576000Y-99580000D02*
X163576000Y-98450400D01*
X167066000Y-92202000D02*
X167779700Y-92202000D01*
X167779700Y-92202000D02*
X167830500Y-92252800D01*
D30*
X172572000Y-99568000D02*
X172572000Y-97375300D01*
X171958000Y-96989900D02*
X172275500Y-96046800D01*
X171691300Y-97256600D02*
X171958000Y-96989900D01*
X172572000Y-97375300D02*
X172478700Y-97282000D01*
X172318000Y-104140000D02*
X172318000Y-102002000D01*
X172572000Y-101109100D02*
X172572000Y-99568000D01*
X173405800Y-101942900D02*
X172572000Y-101109100D01*
X172318000Y-102002000D02*
X172415200Y-101904800D01*
X168386000Y-107442000D02*
X169037000Y-107442000D01*
D29*
X169037000Y-107442000D02*
X169329100Y-107149900D01*
G04 #@! TO.N,Net-(C5-Pad1)*
X149758720Y-90434160D02*
X148600160Y-90434160D01*
X145872200Y-87553800D02*
X147082000Y-88392000D01*
X145796000Y-87630000D02*
X145872200Y-87553800D01*
X148600160Y-90434160D02*
X148590000Y-90424000D01*
X149758720Y-90434160D02*
X151396660Y-90434160D01*
X151396660Y-90434160D02*
X151564300Y-90601800D01*
X149479000Y-92837000D02*
X149479000Y-92583000D01*
X149479000Y-92583000D02*
X149758720Y-92303280D01*
X149758720Y-92303280D02*
X149758720Y-90434160D01*
G04 #@! TO.N,Net-(C5-Pad2)*
X150408600Y-88544400D02*
X149107400Y-88366600D01*
X149107400Y-88366600D02*
X149082000Y-88392000D01*
G04 #@! TO.N,Net-(C7-Pad1)*
X147320000Y-92014000D02*
X145714000Y-92014000D01*
X145714000Y-92014000D02*
X145288000Y-92440000D01*
D31*
X145288000Y-92440000D02*
X144780000Y-92964000D01*
X146558000Y-97282000D02*
X149479000Y-96647000D01*
X144780000Y-97282000D02*
X146558000Y-97282000D01*
X144272000Y-96774000D02*
X144780000Y-97282000D01*
X144272000Y-93472000D02*
X144272000Y-96774000D01*
X144780000Y-92964000D02*
X144272000Y-93472000D01*
D29*
G04 #@! TO.N,Net-(C11-Pad1)*
X149479000Y-95377000D02*
X152273000Y-95377000D01*
X156972000Y-92202000D02*
X159143700Y-92202000D01*
X156718000Y-91948000D02*
X156972000Y-92202000D01*
X153670000Y-93980000D02*
X153924000Y-93980000D01*
X152273000Y-95377000D02*
X153670000Y-93980000D01*
X145542000Y-96200000D02*
X146116000Y-96200000D01*
X146116000Y-96200000D02*
X146685000Y-94869000D01*
X146685000Y-94869000D02*
X149479000Y-95377000D01*
X159143700Y-92623600D02*
X159143700Y-92202000D01*
X159143700Y-92202000D02*
X159143700Y-91182700D01*
X159143700Y-91182700D02*
X159020000Y-91059000D01*
D30*
G04 #@! TO.N,Net-(C15-Pad1)*
X161925000Y-102743000D02*
X162991800Y-102743000D01*
D29*
X163576000Y-102158800D02*
X163576000Y-101080000D01*
X162991800Y-102743000D02*
X163576000Y-102158800D01*
D32*
X159099500Y-106997500D02*
X157038000Y-105918000D01*
X157038000Y-105918000D02*
X155006000Y-103886000D01*
X159099500Y-106997500D02*
X159036000Y-103092000D01*
D30*
X159036000Y-103092000D02*
X159385000Y-102743000D01*
D32*
X160655000Y-102743000D02*
X161925000Y-102743000D01*
X159385000Y-102743000D02*
X160655000Y-102743000D01*
X155006000Y-103886000D02*
X156972000Y-103886000D01*
X156972000Y-103886000D02*
X158115000Y-102743000D01*
X158115000Y-102743000D02*
X159385000Y-102743000D01*
D30*
G04 #@! TO.N,+160V*
X167274240Y-85811360D02*
X164734240Y-85811360D01*
X169456100Y-94084100D02*
X172238200Y-94084100D01*
X172238200Y-94084100D02*
X172275500Y-94046800D01*
X171998640Y-90906600D02*
X169636440Y-88331040D01*
X171958000Y-92303600D02*
X171998640Y-90906600D01*
X172275500Y-94046800D02*
X171958000Y-92303600D01*
X168747440Y-87576660D02*
X167132000Y-85852000D01*
X169636440Y-88331040D02*
X168747440Y-87576660D01*
D31*
G04 #@! TO.N,Net-(Q1-Pad4)*
X155829000Y-95377000D02*
X157099000Y-95377000D01*
X157099000Y-95377000D02*
X158115000Y-96393000D01*
D32*
G04 #@! TO.N,Net-(Q1-Pad1)*
X160655000Y-96393000D02*
X160655000Y-94523600D01*
X160655000Y-94523600D02*
X160436600Y-94742000D01*
X160274000Y-94742000D02*
X160274000Y-94523600D01*
X160436600Y-94742000D02*
X160274000Y-94742000D01*
X161544000Y-96393000D02*
X161544000Y-94917300D01*
X161544000Y-94917300D02*
X161277300Y-94650600D01*
X159143700Y-94523600D02*
X160274000Y-94523600D01*
X160274000Y-94523600D02*
X161150300Y-94523600D01*
X161150300Y-94523600D02*
X161277300Y-94650600D01*
D30*
X159385000Y-96393000D02*
X159385000Y-94764900D01*
D32*
X159385000Y-94764900D02*
X159143700Y-94523600D01*
D30*
X160655000Y-96393000D02*
X159385000Y-96393000D01*
D32*
X161925000Y-96393000D02*
X161544000Y-96393000D01*
X161544000Y-96393000D02*
X160655000Y-96393000D01*
D30*
G04 #@! TO.N,5v_Power*
X155874720Y-87005160D02*
X155874720Y-85852000D01*
X154929840Y-87950040D02*
X155874720Y-87005160D01*
D31*
X152963880Y-85018840D02*
X154327860Y-85374480D01*
D33*
X154327860Y-85374480D02*
X155183920Y-85852000D01*
X155183920Y-85852000D02*
X155874720Y-85852000D01*
D34*
X142143480Y-86705480D02*
X142651520Y-86705480D01*
X142651520Y-86705480D02*
X143510000Y-87563960D01*
X143510000Y-87563960D02*
X143510000Y-89154000D01*
D29*
X141812000Y-91410000D02*
X140462000Y-91410000D01*
X142544000Y-91410000D02*
X140462000Y-91410000D01*
D30*
X139446000Y-93726000D02*
X139700000Y-93472000D01*
X139700000Y-93472000D02*
X140432000Y-91440000D01*
D31*
X141748000Y-100822000D02*
X141986000Y-100584000D01*
D30*
X141748000Y-100822000D02*
X140703300Y-100555300D01*
D29*
X140462000Y-91410000D02*
X140432000Y-91440000D01*
X142544000Y-91410000D02*
X142916074Y-91340261D01*
D30*
X143510000Y-89154000D02*
X143140074Y-91116261D01*
D29*
X142916074Y-91340261D02*
X143140074Y-91116261D01*
D32*
X140703300Y-100555300D02*
X138882120Y-100568760D01*
X138882120Y-100568760D02*
X137922000Y-101830000D01*
X137403840Y-103555760D02*
X137414000Y-102338000D01*
X137414000Y-102338000D02*
X137922000Y-101830000D01*
D30*
G04 #@! TO.N,Net-(C1-Pad1)*
X167132000Y-95996000D02*
X164896000Y-95996000D01*
X164896000Y-95996000D02*
X164846000Y-95946000D01*
X167132000Y-95996000D02*
X169444200Y-95996000D01*
X169444200Y-95996000D02*
X169456100Y-95984100D01*
X166772000Y-99568000D02*
X166772000Y-96356000D01*
X166772000Y-96356000D02*
X167132000Y-95996000D01*
X166518000Y-104140000D02*
X166518000Y-99822000D01*
X166518000Y-99822000D02*
X166772000Y-99568000D01*
X166386000Y-107442000D02*
X166386000Y-107064300D01*
X166386000Y-107064300D02*
X165239700Y-105918000D01*
X165239700Y-105918000D02*
X163099500Y-106997500D01*
X166518000Y-104140000D02*
X166518000Y-104639700D01*
X166518000Y-104639700D02*
X165239700Y-105918000D01*
X165239700Y-105918000D02*
X163099500Y-106997500D01*
D29*
G04 #@! TO.N,Net-(C6-Pad2)*
X159512000Y-89535000D02*
X160401000Y-89535000D01*
X163830000Y-93472000D02*
X163830000Y-90868500D01*
X163830000Y-90868500D02*
X162496500Y-89535000D01*
X162496500Y-89535000D02*
X160401000Y-89535000D01*
X160401000Y-89535000D02*
X159575500Y-89535000D01*
D31*
X165166000Y-93406000D02*
X165100000Y-93472000D01*
X163830000Y-93472000D02*
X165100000Y-93472000D01*
X153924000Y-91694000D02*
X153464300Y-91234300D01*
X164846000Y-94046000D02*
X164846000Y-93726000D01*
X164846000Y-93726000D02*
X165166000Y-93406000D01*
X165166000Y-93406000D02*
X165166000Y-92202000D01*
X165166000Y-92202000D02*
X165166000Y-93406000D01*
X153464300Y-90601800D02*
X153464300Y-91234300D01*
D29*
X149479000Y-94107000D02*
X150749000Y-94107000D01*
X153464300Y-91391700D02*
X153464300Y-90601800D01*
X150749000Y-94107000D02*
X153464300Y-91391700D01*
X153464300Y-90601800D02*
X152524500Y-89662000D01*
X152524500Y-89662000D02*
X152524500Y-88760300D01*
X152524500Y-88760300D02*
X152308600Y-88544400D01*
X167132000Y-93996000D02*
X164896000Y-93996000D01*
X164896000Y-93996000D02*
X164846000Y-94046000D01*
G04 #@! TO.N,Net-(C14-Pad1)*
X152963880Y-86918840D02*
X150921720Y-86918840D01*
X150921720Y-86918840D02*
X150891240Y-86888360D01*
X150891240Y-86888360D02*
X148664840Y-86888360D01*
X148664840Y-86888360D02*
X148351240Y-86574760D01*
X147258720Y-90434160D02*
X146822160Y-90434160D01*
X146822160Y-90434160D02*
X146304000Y-89408000D01*
X146304000Y-89408000D02*
X145796000Y-88900000D01*
X145796000Y-88900000D02*
X144665700Y-87419180D01*
X144665700Y-87419180D02*
X144665700Y-86149180D01*
X144665700Y-86149180D02*
X144637760Y-86283040D01*
D31*
X149959060Y-86824860D02*
X147920800Y-86243200D01*
X147920800Y-86243200D02*
X147828000Y-86590000D01*
X152120600Y-86911220D02*
X150009860Y-86875660D01*
X150009860Y-86875660D02*
X149959060Y-86824860D01*
D29*
X147828000Y-86590000D02*
X146558000Y-86360000D01*
X146558000Y-86360000D02*
X144637760Y-86283040D01*
D31*
G04 #@! TO.N,N_ENABLE*
X158414720Y-85852000D02*
X158386780Y-85852000D01*
X158386780Y-85852000D02*
X156918660Y-84383880D01*
X156918660Y-84383880D02*
X155028900Y-84383880D01*
X155028900Y-84383880D02*
X154017980Y-83372960D01*
X154017980Y-83372960D02*
X152971540Y-83372960D01*
D29*
G04 #@! TO.N,Net-(C10-Pad1)*
X155057600Y-90220800D02*
X155057600Y-92065600D01*
X155057600Y-92065600D02*
X155829000Y-92837000D01*
X147320000Y-93914000D02*
X147320000Y-93472000D01*
X153416000Y-92710000D02*
X155702000Y-92710000D01*
X151892000Y-94234000D02*
X153416000Y-92710000D01*
X147320000Y-93472000D02*
X147828000Y-92964000D01*
X155702000Y-92710000D02*
X155829000Y-92837000D01*
X147320000Y-93914000D02*
X145928000Y-93914000D01*
X145928000Y-93914000D02*
X145542000Y-94300000D01*
D30*
G04 #@! TO.N,Net-(C9-Pad1)*
X144206000Y-103886000D02*
X144206000Y-103444000D01*
D31*
X144206000Y-103444000D02*
X149098000Y-98552000D01*
X150876000Y-98552000D02*
X155321000Y-94107000D01*
X149098000Y-98552000D02*
X150876000Y-98552000D01*
X155321000Y-94107000D02*
X155829000Y-94107000D01*
D30*
X144206000Y-103886000D02*
X145542000Y-103886000D01*
D32*
X140970000Y-105386000D02*
X137445840Y-105497760D01*
X137445840Y-105497760D02*
X137403840Y-105455760D01*
X144206000Y-103886000D02*
X144206000Y-103886000D01*
X144206000Y-103886000D02*
X140970000Y-105386000D01*
D31*
G04 #@! TO.N,Net-(Q26-Pad1)*
X151071540Y-83372960D02*
X152008840Y-83372960D01*
X144754600Y-83073240D02*
X145928120Y-84246760D01*
X152008840Y-83372960D02*
X152013920Y-83367880D01*
X145928120Y-84246760D02*
X145928120Y-84326220D01*
X142143480Y-84805480D02*
X142610800Y-84805480D01*
X142610800Y-84805480D02*
X143134080Y-85328760D01*
X143134080Y-85328760D02*
X144925580Y-85328760D01*
X144925580Y-85328760D02*
X145928120Y-84326220D01*
D29*
X145587760Y-84283040D02*
X145812000Y-84344000D01*
G04 #@! TD*
D35*
G04 #@! TO.N,GND*
G36*
X163196000Y-91168183D02*
G01*
X163196000Y-93956211D01*
X162262849Y-93873264D01*
X161871710Y-93390092D01*
X161854224Y-93372370D01*
X161833617Y-93358400D01*
X161810680Y-93348718D01*
X161775116Y-93343018D01*
X160400000Y-93320099D01*
X160400000Y-90147000D01*
X162290861Y-90147000D01*
X163196000Y-91168183D01*
G37*
X163196000Y-91168183D02*
X163196000Y-93956211D01*
X162262849Y-93873264D01*
X161871710Y-93390092D01*
X161854224Y-93372370D01*
X161833617Y-93358400D01*
X161810680Y-93348718D01*
X161775116Y-93343018D01*
X160400000Y-93320099D01*
X160400000Y-90147000D01*
X162290861Y-90147000D01*
X163196000Y-91168183D01*
G04 #@! TD*
M02*
