G04 #@! TF.FileFunction,Soldermask,Top*
%FSLAX46Y46*%
G04 Gerber Fmt 4.6, Leading zero omitted, Abs format (unit mm)*
G04 Created by KiCad (PCBNEW 4.0.7) date 12/31/17 08:13:57*
%MOMM*%
%LPD*%
G01*
G04 APERTURE LIST*
%ADD10C,0.100000*%
%ADD11R,0.801600X1.401600*%
%ADD12R,1.401600X0.801600*%
%ADD13R,0.901600X0.851600*%
%ADD14R,1.351600X1.101600*%
%ADD15R,1.101600X1.351600*%
%ADD16R,0.609600X1.244600*%
%ADD17C,1.244600*%
%ADD18R,2.501600X5.101600*%
%ADD19R,0.901600X1.001600*%
%ADD20R,1.101600X1.101600*%
%ADD21C,2.301600*%
%ADD22C,4.501600*%
%ADD23R,2.501600X1.601600*%
%ADD24R,1.151600X1.601600*%
%ADD25C,2.501600*%
%ADD26R,2.501600X2.501600*%
%ADD27R,3.001600X5.501600*%
%ADD28R,1.451600X0.501600*%
%ADD29O,2.101600X1.551600*%
%ADD30O,1.901600X1.251600*%
%ADD31R,1.244600X0.609600*%
G04 APERTURE END LIST*
D10*
D11*
X157927000Y-108000800D03*
X159827000Y-108000800D03*
D12*
X165925500Y-85354200D03*
X165925500Y-83454200D03*
X165925500Y-89164200D03*
X165925500Y-87264200D03*
X160985200Y-90434200D03*
X160985200Y-88534200D03*
X158953200Y-90434200D03*
X158953200Y-88534200D03*
X156502100Y-90294500D03*
X156502100Y-88394500D03*
D11*
X152080000Y-83362800D03*
X150180000Y-83362800D03*
X150835400Y-85217000D03*
X148935400Y-85217000D03*
X147106600Y-93599000D03*
X149006600Y-93599000D03*
D12*
X170942000Y-86908600D03*
X170942000Y-88808600D03*
D11*
X137835600Y-95605600D03*
X139735600Y-95605600D03*
D13*
X161683000Y-108127800D03*
X163183000Y-108127800D03*
D14*
X158978600Y-87131400D03*
X158978600Y-85131400D03*
X145161000Y-89836500D03*
X145161000Y-87836500D03*
D15*
X146726400Y-83388200D03*
X148726400Y-83388200D03*
D16*
X161290000Y-98323400D03*
X160020000Y-98323400D03*
X158750000Y-98323400D03*
X157480000Y-98323400D03*
X157480000Y-91973400D03*
X158750000Y-91973400D03*
X160020000Y-91973400D03*
X161290000Y-91973400D03*
D17*
X158724600Y-101447600D03*
X172466000Y-84683600D03*
D18*
X164978200Y-99974400D03*
X171978200Y-99974400D03*
X165003600Y-93472000D03*
X172003600Y-93472000D03*
D19*
X146471600Y-76615800D03*
X148371600Y-76615800D03*
X147421600Y-74615800D03*
D12*
X152704800Y-74640400D03*
X152704800Y-76540400D03*
D15*
X164531800Y-104571800D03*
X166531800Y-104571800D03*
X169986200Y-84582000D03*
X167986200Y-84582000D03*
D14*
X167919400Y-89061800D03*
X167919400Y-87061800D03*
X147574000Y-80578200D03*
X147574000Y-78578200D03*
D20*
X144698400Y-85267800D03*
X147198400Y-85267800D03*
D12*
X151587200Y-80756800D03*
X151587200Y-78856800D03*
X149682200Y-78806000D03*
X149682200Y-80706000D03*
D15*
X140065000Y-92837000D03*
X138065000Y-92837000D03*
X140065000Y-90868500D03*
X138065000Y-90868500D03*
D12*
X150469600Y-76489600D03*
X150469600Y-74589600D03*
D15*
X140001500Y-101346000D03*
X138001500Y-101346000D03*
X170037000Y-82550000D03*
X168037000Y-82550000D03*
X140001500Y-103187500D03*
X138001500Y-103187500D03*
X140001500Y-105029000D03*
X138001500Y-105029000D03*
D21*
X171704000Y-108534200D03*
X138684000Y-108483400D03*
D22*
X171678600Y-75793600D03*
X138709400Y-75869800D03*
D15*
X154194000Y-85686900D03*
X156194000Y-85686900D03*
D11*
X143322000Y-93560900D03*
X145222000Y-93560900D03*
D23*
X159942900Y-104533700D03*
D24*
X157567900Y-104533700D03*
D25*
X159751000Y-78092300D03*
X156251000Y-78092300D03*
X163251000Y-78092300D03*
D26*
X166751000Y-78092300D03*
D27*
X154167800Y-103670100D03*
X143367800Y-103670100D03*
D28*
X141545300Y-83205800D03*
X141545300Y-83855800D03*
X141545300Y-84505800D03*
X141545300Y-85155800D03*
X141545300Y-85805800D03*
D29*
X141545300Y-80780800D03*
X141520300Y-88230800D03*
D30*
X137720300Y-80630800D03*
X137720300Y-88380800D03*
D31*
X153454100Y-87769700D03*
X153454100Y-89039700D03*
X153454100Y-90309700D03*
X153454100Y-91579700D03*
X147104100Y-91579700D03*
X147104100Y-90309700D03*
X147104100Y-89039700D03*
X147104100Y-87769700D03*
M02*
