G04 #@! TF.FileFunction,Legend,Top*
%FSLAX46Y46*%
G04 Gerber Fmt 4.6, Leading zero omitted, Abs format (unit mm)*
G04 Created by KiCad (PCBNEW 4.0.7) date 12/31/17 08:13:57*
%MOMM*%
%LPD*%
G01*
G04 APERTURE LIST*
%ADD10C,0.100000*%
%ADD11C,0.120000*%
%ADD12C,0.150000*%
G04 APERTURE END LIST*
D10*
D11*
X159477000Y-108880800D02*
X158277000Y-108880800D01*
X158277000Y-107120800D02*
X159477000Y-107120800D01*
X166805500Y-83804200D02*
X166805500Y-85004200D01*
X165045500Y-85004200D02*
X165045500Y-83804200D01*
X166805500Y-87614200D02*
X166805500Y-88814200D01*
X165045500Y-88814200D02*
X165045500Y-87614200D01*
X161865200Y-88884200D02*
X161865200Y-90084200D01*
X160105200Y-90084200D02*
X160105200Y-88884200D01*
X159833200Y-88884200D02*
X159833200Y-90084200D01*
X158073200Y-90084200D02*
X158073200Y-88884200D01*
X157382100Y-88744500D02*
X157382100Y-89944500D01*
X155622100Y-89944500D02*
X155622100Y-88744500D01*
X150530000Y-82482800D02*
X151730000Y-82482800D01*
X151730000Y-84242800D02*
X150530000Y-84242800D01*
X149285400Y-84337000D02*
X150485400Y-84337000D01*
X150485400Y-86097000D02*
X149285400Y-86097000D01*
X148656600Y-94479000D02*
X147456600Y-94479000D01*
X147456600Y-92719000D02*
X148656600Y-92719000D01*
X170062000Y-88458600D02*
X170062000Y-87258600D01*
X171822000Y-87258600D02*
X171822000Y-88458600D01*
X139385600Y-96485600D02*
X138185600Y-96485600D01*
X138185600Y-94725600D02*
X139385600Y-94725600D01*
X162083000Y-107527800D02*
X162783000Y-107527800D01*
X162783000Y-108727800D02*
X162083000Y-108727800D01*
X158128600Y-85631400D02*
X158128600Y-86631400D01*
X159828600Y-86631400D02*
X159828600Y-85631400D01*
X144311000Y-88336500D02*
X144311000Y-89336500D01*
X146011000Y-89336500D02*
X146011000Y-88336500D01*
X148226400Y-82538200D02*
X147226400Y-82538200D01*
X147226400Y-84238200D02*
X148226400Y-84238200D01*
D12*
X161925000Y-97434400D02*
X156845000Y-97434400D01*
X156845000Y-97434400D02*
X156845000Y-92862400D01*
X156845000Y-92862400D02*
X161925000Y-92862400D01*
X161925000Y-92862400D02*
X161925000Y-97434400D01*
X161925000Y-95910400D02*
X161417000Y-95910400D01*
X161417000Y-95910400D02*
X161417000Y-94640400D01*
X161417000Y-94640400D02*
X161925000Y-94640400D01*
D11*
X159527819Y-101447600D02*
G75*
G03X159527819Y-101447600I-803219J0D01*
G01*
X173269219Y-84683600D02*
G75*
G03X173269219Y-84683600I-803219J0D01*
G01*
X170778200Y-97244400D02*
X166178200Y-97244400D01*
X166178200Y-102704400D02*
X170778200Y-102704400D01*
X170803600Y-90742000D02*
X166203600Y-90742000D01*
X166203600Y-96202000D02*
X170803600Y-96202000D01*
X149001600Y-74855800D02*
X148071600Y-74855800D01*
X145841600Y-74855800D02*
X146771600Y-74855800D01*
X145841600Y-74855800D02*
X145841600Y-77015800D01*
X149001600Y-74855800D02*
X149001600Y-76315800D01*
X151824800Y-76190400D02*
X151824800Y-74990400D01*
X153584800Y-74990400D02*
X153584800Y-76190400D01*
X166031800Y-103721800D02*
X165031800Y-103721800D01*
X165031800Y-105421800D02*
X166031800Y-105421800D01*
X168486200Y-85432000D02*
X169486200Y-85432000D01*
X169486200Y-83732000D02*
X168486200Y-83732000D01*
X167069400Y-87561800D02*
X167069400Y-88561800D01*
X168769400Y-88561800D02*
X168769400Y-87561800D01*
X146724000Y-79078200D02*
X146724000Y-80078200D01*
X148424000Y-80078200D02*
X148424000Y-79078200D01*
X144048400Y-84417800D02*
X144048400Y-86117800D01*
X144048400Y-86117800D02*
X147198400Y-86117800D01*
X144048400Y-84417800D02*
X147198400Y-84417800D01*
X152467200Y-79206800D02*
X152467200Y-80406800D01*
X150707200Y-80406800D02*
X150707200Y-79206800D01*
X148802200Y-80356000D02*
X148802200Y-79156000D01*
X150562200Y-79156000D02*
X150562200Y-80356000D01*
X138565000Y-93687000D02*
X139565000Y-93687000D01*
X139565000Y-91987000D02*
X138565000Y-91987000D01*
X138565000Y-91718500D02*
X139565000Y-91718500D01*
X139565000Y-90018500D02*
X138565000Y-90018500D01*
X151349600Y-74939600D02*
X151349600Y-76139600D01*
X149589600Y-76139600D02*
X149589600Y-74939600D01*
X138501500Y-102196000D02*
X139501500Y-102196000D01*
X139501500Y-100496000D02*
X138501500Y-100496000D01*
X168537000Y-83400000D02*
X169537000Y-83400000D01*
X169537000Y-81700000D02*
X168537000Y-81700000D01*
X138501500Y-104037500D02*
X139501500Y-104037500D01*
X139501500Y-102337500D02*
X138501500Y-102337500D01*
X138501500Y-105879000D02*
X139501500Y-105879000D01*
X139501500Y-104179000D02*
X138501500Y-104179000D01*
X155694000Y-84836900D02*
X154694000Y-84836900D01*
X154694000Y-86536900D02*
X155694000Y-86536900D01*
X144872000Y-94440900D02*
X143672000Y-94440900D01*
X143672000Y-92680900D02*
X144872000Y-92680900D01*
X158092900Y-105533700D02*
X161292900Y-105533700D01*
X161292900Y-103533700D02*
X158092900Y-103533700D01*
X161292900Y-103533700D02*
X161292900Y-105533700D01*
D12*
X165001000Y-73992300D02*
X165001000Y-73592300D01*
X161501000Y-73992300D02*
X161501000Y-73592300D01*
X158001000Y-73992300D02*
X158001000Y-73592300D01*
X168501000Y-75092300D02*
X154501000Y-75092300D01*
X168501000Y-73992300D02*
X154501000Y-73992300D01*
X168501000Y-81192300D02*
X168501000Y-73592300D01*
X154501000Y-73592300D02*
X154501000Y-81192300D01*
X154501000Y-81192300D02*
X168501000Y-81192300D01*
X151259614Y-100670360D02*
G75*
G03X151259614Y-100670360I-391234J0D01*
G01*
X143868140Y-100370640D02*
X143766540Y-100269040D01*
X143766540Y-100269040D02*
X143667480Y-99870260D01*
X143667480Y-99870260D02*
X143766540Y-99369880D01*
X143766540Y-99369880D02*
X143967200Y-99070160D01*
X143967200Y-99070160D02*
X144266920Y-98668840D01*
X144266920Y-98668840D02*
X144767300Y-98569780D01*
X144767300Y-98569780D02*
X145267680Y-98668840D01*
X145267680Y-98668840D02*
X145669000Y-98971100D01*
X145669000Y-98971100D02*
X145768060Y-99070160D01*
X145768060Y-99070160D02*
X146367500Y-98668840D01*
X146367500Y-98668840D02*
X147167600Y-98369120D01*
X147167600Y-98369120D02*
X148168360Y-98171000D01*
X148168360Y-98171000D02*
X149367240Y-98171000D01*
X149367240Y-98171000D02*
X150268940Y-98369120D01*
X150268940Y-98369120D02*
X150868380Y-98569780D01*
X150868380Y-98569780D02*
X151368760Y-98770440D01*
X151368760Y-98770440D02*
X151767540Y-98971100D01*
X151767540Y-98971100D02*
X152067260Y-98770440D01*
X152067260Y-98770440D02*
X152666700Y-98569780D01*
X152666700Y-98569780D02*
X153068020Y-98668840D01*
X153068020Y-98668840D02*
X153367740Y-98869500D01*
X153367740Y-98869500D02*
X153667460Y-99070160D01*
X153667460Y-99070160D02*
X153868120Y-99570540D01*
X153868120Y-99570540D02*
X153769060Y-100070920D01*
X153769060Y-100070920D02*
X153568400Y-100469700D01*
X143868140Y-106969560D02*
X143766540Y-107269280D01*
X143766540Y-107269280D02*
X143667480Y-107670600D01*
X143667480Y-107670600D02*
X143766540Y-107970320D01*
X143766540Y-107970320D02*
X143967200Y-108369100D01*
X143967200Y-108369100D02*
X144266920Y-108569760D01*
X144266920Y-108569760D02*
X144566640Y-108770420D01*
X144566640Y-108770420D02*
X144868900Y-108770420D01*
X144868900Y-108770420D02*
X145168620Y-108671360D01*
X145168620Y-108671360D02*
X145468340Y-108569760D01*
X145468340Y-108569760D02*
X145768060Y-108270040D01*
X145768060Y-108270040D02*
X146166840Y-108569760D01*
X146166840Y-108569760D02*
X146568160Y-108770420D01*
X146568160Y-108770420D02*
X147068540Y-108971080D01*
X147068540Y-108971080D02*
X147868640Y-109169200D01*
X147868640Y-109169200D02*
X148767800Y-109270800D01*
X148767800Y-109270800D02*
X149567900Y-109169200D01*
X149567900Y-109169200D02*
X150467060Y-108971080D01*
X150467060Y-108971080D02*
X151368760Y-108569760D01*
X151368760Y-108569760D02*
X151767540Y-108369100D01*
X151767540Y-108369100D02*
X152067260Y-108569760D01*
X152067260Y-108569760D02*
X152468580Y-108770420D01*
X152468580Y-108770420D02*
X152968960Y-108671360D01*
X152968960Y-108671360D02*
X153367740Y-108470700D01*
X153367740Y-108470700D02*
X153667460Y-108170980D01*
X153667460Y-108170980D02*
X153868120Y-107670600D01*
X153868120Y-107670600D02*
X153769060Y-107170220D01*
X153769060Y-107170220D02*
X153568400Y-106870500D01*
X154967940Y-100370640D02*
X154967940Y-97469960D01*
X154967940Y-97469960D02*
X142567660Y-97469960D01*
X142567660Y-97469960D02*
X142567660Y-100370640D01*
X142567660Y-109870240D02*
X154967940Y-109870240D01*
X154967940Y-109870240D02*
X154967940Y-106969560D01*
X142567660Y-109870240D02*
X142567660Y-106969560D01*
D11*
X136165300Y-80155800D02*
X136165300Y-88855800D01*
X142575300Y-80155800D02*
X142575300Y-88855800D01*
X142575300Y-88855800D02*
X136165300Y-88855800D01*
X136165300Y-80155800D02*
X142575300Y-80155800D01*
D12*
X152565100Y-87134700D02*
X152565100Y-92214700D01*
X152565100Y-92214700D02*
X147993100Y-92214700D01*
X147993100Y-92214700D02*
X147993100Y-87134700D01*
X147993100Y-87134700D02*
X152565100Y-87134700D01*
X151041100Y-87134700D02*
X151041100Y-87642700D01*
X151041100Y-87642700D02*
X149771100Y-87642700D01*
X149771100Y-87642700D02*
X149771100Y-87134700D01*
X158018243Y-109939081D02*
X157684909Y-109462890D01*
X157446814Y-109939081D02*
X157446814Y-108939081D01*
X157827767Y-108939081D01*
X157923005Y-108986700D01*
X157970624Y-109034319D01*
X158018243Y-109129557D01*
X158018243Y-109272414D01*
X157970624Y-109367652D01*
X157923005Y-109415271D01*
X157827767Y-109462890D01*
X157446814Y-109462890D01*
X158970624Y-109939081D02*
X158399195Y-109939081D01*
X158684909Y-109939081D02*
X158684909Y-108939081D01*
X158589671Y-109081938D01*
X158494433Y-109177176D01*
X158399195Y-109224795D01*
X159923005Y-109939081D02*
X159351576Y-109939081D01*
X159637290Y-109939081D02*
X159637290Y-108939081D01*
X159542052Y-109081938D01*
X159446814Y-109177176D01*
X159351576Y-109224795D01*
X164727881Y-85047057D02*
X164251690Y-85380391D01*
X164727881Y-85618486D02*
X163727881Y-85618486D01*
X163727881Y-85237533D01*
X163775500Y-85142295D01*
X163823119Y-85094676D01*
X163918357Y-85047057D01*
X164061214Y-85047057D01*
X164156452Y-85094676D01*
X164204071Y-85142295D01*
X164251690Y-85237533D01*
X164251690Y-85618486D01*
X164727881Y-84094676D02*
X164727881Y-84666105D01*
X164727881Y-84380391D02*
X163727881Y-84380391D01*
X163870738Y-84475629D01*
X163965976Y-84570867D01*
X164013595Y-84666105D01*
X163727881Y-83237533D02*
X163727881Y-83428010D01*
X163775500Y-83523248D01*
X163823119Y-83570867D01*
X163965976Y-83666105D01*
X164156452Y-83713724D01*
X164537405Y-83713724D01*
X164632643Y-83666105D01*
X164680262Y-83618486D01*
X164727881Y-83523248D01*
X164727881Y-83332771D01*
X164680262Y-83237533D01*
X164632643Y-83189914D01*
X164537405Y-83142295D01*
X164299310Y-83142295D01*
X164204071Y-83189914D01*
X164156452Y-83237533D01*
X164108833Y-83332771D01*
X164108833Y-83523248D01*
X164156452Y-83618486D01*
X164204071Y-83666105D01*
X164299310Y-83713724D01*
X164803081Y-88793557D02*
X164326890Y-89126891D01*
X164803081Y-89364986D02*
X163803081Y-89364986D01*
X163803081Y-88984033D01*
X163850700Y-88888795D01*
X163898319Y-88841176D01*
X163993557Y-88793557D01*
X164136414Y-88793557D01*
X164231652Y-88841176D01*
X164279271Y-88888795D01*
X164326890Y-88984033D01*
X164326890Y-89364986D01*
X164803081Y-87841176D02*
X164803081Y-88412605D01*
X164803081Y-88126891D02*
X163803081Y-88126891D01*
X163945938Y-88222129D01*
X164041176Y-88317367D01*
X164088795Y-88412605D01*
X163803081Y-86936414D02*
X163803081Y-87412605D01*
X164279271Y-87460224D01*
X164231652Y-87412605D01*
X164184033Y-87317367D01*
X164184033Y-87079271D01*
X164231652Y-86984033D01*
X164279271Y-86936414D01*
X164374510Y-86888795D01*
X164612605Y-86888795D01*
X164707843Y-86936414D01*
X164755462Y-86984033D01*
X164803081Y-87079271D01*
X164803081Y-87317367D01*
X164755462Y-87412605D01*
X164707843Y-87460224D01*
X162974281Y-90127057D02*
X162498090Y-90460391D01*
X162974281Y-90698486D02*
X161974281Y-90698486D01*
X161974281Y-90317533D01*
X162021900Y-90222295D01*
X162069519Y-90174676D01*
X162164757Y-90127057D01*
X162307614Y-90127057D01*
X162402852Y-90174676D01*
X162450471Y-90222295D01*
X162498090Y-90317533D01*
X162498090Y-90698486D01*
X162974281Y-89174676D02*
X162974281Y-89746105D01*
X162974281Y-89460391D02*
X161974281Y-89460391D01*
X162117138Y-89555629D01*
X162212376Y-89650867D01*
X162259995Y-89746105D01*
X161974281Y-88555629D02*
X161974281Y-88460390D01*
X162021900Y-88365152D01*
X162069519Y-88317533D01*
X162164757Y-88269914D01*
X162355233Y-88222295D01*
X162593329Y-88222295D01*
X162783805Y-88269914D01*
X162879043Y-88317533D01*
X162926662Y-88365152D01*
X162974281Y-88460390D01*
X162974281Y-88555629D01*
X162926662Y-88650867D01*
X162879043Y-88698486D01*
X162783805Y-88746105D01*
X162593329Y-88793724D01*
X162355233Y-88793724D01*
X162164757Y-88746105D01*
X162069519Y-88698486D01*
X162021900Y-88650867D01*
X161974281Y-88555629D01*
X158275281Y-89536566D02*
X157799090Y-89869900D01*
X158275281Y-90107995D02*
X157275281Y-90107995D01*
X157275281Y-89727042D01*
X157322900Y-89631804D01*
X157370519Y-89584185D01*
X157465757Y-89536566D01*
X157608614Y-89536566D01*
X157703852Y-89584185D01*
X157751471Y-89631804D01*
X157799090Y-89727042D01*
X157799090Y-90107995D01*
X157703852Y-88965138D02*
X157656233Y-89060376D01*
X157608614Y-89107995D01*
X157513376Y-89155614D01*
X157465757Y-89155614D01*
X157370519Y-89107995D01*
X157322900Y-89060376D01*
X157275281Y-88965138D01*
X157275281Y-88774661D01*
X157322900Y-88679423D01*
X157370519Y-88631804D01*
X157465757Y-88584185D01*
X157513376Y-88584185D01*
X157608614Y-88631804D01*
X157656233Y-88679423D01*
X157703852Y-88774661D01*
X157703852Y-88965138D01*
X157751471Y-89060376D01*
X157799090Y-89107995D01*
X157894329Y-89155614D01*
X158084805Y-89155614D01*
X158180043Y-89107995D01*
X158227662Y-89060376D01*
X158275281Y-88965138D01*
X158275281Y-88774661D01*
X158227662Y-88679423D01*
X158180043Y-88631804D01*
X158084805Y-88584185D01*
X157894329Y-88584185D01*
X157799090Y-88631804D01*
X157751471Y-88679423D01*
X157703852Y-88774661D01*
X155304481Y-89511166D02*
X154828290Y-89844500D01*
X155304481Y-90082595D02*
X154304481Y-90082595D01*
X154304481Y-89701642D01*
X154352100Y-89606404D01*
X154399719Y-89558785D01*
X154494957Y-89511166D01*
X154637814Y-89511166D01*
X154733052Y-89558785D01*
X154780671Y-89606404D01*
X154828290Y-89701642D01*
X154828290Y-90082595D01*
X154304481Y-88654023D02*
X154304481Y-88844500D01*
X154352100Y-88939738D01*
X154399719Y-88987357D01*
X154542576Y-89082595D01*
X154733052Y-89130214D01*
X155114005Y-89130214D01*
X155209243Y-89082595D01*
X155256862Y-89034976D01*
X155304481Y-88939738D01*
X155304481Y-88749261D01*
X155256862Y-88654023D01*
X155209243Y-88606404D01*
X155114005Y-88558785D01*
X154875910Y-88558785D01*
X154780671Y-88606404D01*
X154733052Y-88654023D01*
X154685433Y-88749261D01*
X154685433Y-88939738D01*
X154733052Y-89034976D01*
X154780671Y-89082595D01*
X154875910Y-89130214D01*
X153693834Y-83738981D02*
X153360500Y-83262790D01*
X153122405Y-83738981D02*
X153122405Y-82738981D01*
X153503358Y-82738981D01*
X153598596Y-82786600D01*
X153646215Y-82834219D01*
X153693834Y-82929457D01*
X153693834Y-83072314D01*
X153646215Y-83167552D01*
X153598596Y-83215171D01*
X153503358Y-83262790D01*
X153122405Y-83262790D01*
X154598596Y-82738981D02*
X154122405Y-82738981D01*
X154074786Y-83215171D01*
X154122405Y-83167552D01*
X154217643Y-83119933D01*
X154455739Y-83119933D01*
X154550977Y-83167552D01*
X154598596Y-83215171D01*
X154646215Y-83310410D01*
X154646215Y-83548505D01*
X154598596Y-83643743D01*
X154550977Y-83691362D01*
X154455739Y-83738981D01*
X154217643Y-83738981D01*
X154122405Y-83691362D01*
X154074786Y-83643743D01*
X152487334Y-85732881D02*
X152154000Y-85256690D01*
X151915905Y-85732881D02*
X151915905Y-84732881D01*
X152296858Y-84732881D01*
X152392096Y-84780500D01*
X152439715Y-84828119D01*
X152487334Y-84923357D01*
X152487334Y-85066214D01*
X152439715Y-85161452D01*
X152392096Y-85209071D01*
X152296858Y-85256690D01*
X151915905Y-85256690D01*
X152820667Y-84732881D02*
X153439715Y-84732881D01*
X153106381Y-85113833D01*
X153249239Y-85113833D01*
X153344477Y-85161452D01*
X153392096Y-85209071D01*
X153439715Y-85304310D01*
X153439715Y-85542405D01*
X153392096Y-85637643D01*
X153344477Y-85685262D01*
X153249239Y-85732881D01*
X152963524Y-85732881D01*
X152868286Y-85685262D01*
X152820667Y-85637643D01*
X147648634Y-95791281D02*
X147315300Y-95315090D01*
X147077205Y-95791281D02*
X147077205Y-94791281D01*
X147458158Y-94791281D01*
X147553396Y-94838900D01*
X147601015Y-94886519D01*
X147648634Y-94981757D01*
X147648634Y-95124614D01*
X147601015Y-95219852D01*
X147553396Y-95267471D01*
X147458158Y-95315090D01*
X147077205Y-95315090D01*
X148029586Y-94886519D02*
X148077205Y-94838900D01*
X148172443Y-94791281D01*
X148410539Y-94791281D01*
X148505777Y-94838900D01*
X148553396Y-94886519D01*
X148601015Y-94981757D01*
X148601015Y-95076995D01*
X148553396Y-95219852D01*
X147981967Y-95791281D01*
X148601015Y-95791281D01*
X173044381Y-88025266D02*
X173044381Y-88501457D01*
X172044381Y-88501457D01*
X172044381Y-87215742D02*
X172044381Y-87691933D01*
X172520571Y-87739552D01*
X172472952Y-87691933D01*
X172425333Y-87596695D01*
X172425333Y-87358599D01*
X172472952Y-87263361D01*
X172520571Y-87215742D01*
X172615810Y-87168123D01*
X172853905Y-87168123D01*
X172949143Y-87215742D01*
X172996762Y-87263361D01*
X173044381Y-87358599D01*
X173044381Y-87596695D01*
X172996762Y-87691933D01*
X172949143Y-87739552D01*
X138669734Y-97734381D02*
X138193543Y-97734381D01*
X138193543Y-96734381D01*
X138955448Y-96829619D02*
X139003067Y-96782000D01*
X139098305Y-96734381D01*
X139336401Y-96734381D01*
X139431639Y-96782000D01*
X139479258Y-96829619D01*
X139526877Y-96924857D01*
X139526877Y-97020095D01*
X139479258Y-97162952D01*
X138907829Y-97734381D01*
X139526877Y-97734381D01*
X161612343Y-109996243D02*
X161564724Y-110043862D01*
X161421867Y-110091481D01*
X161326629Y-110091481D01*
X161183771Y-110043862D01*
X161088533Y-109948624D01*
X161040914Y-109853386D01*
X160993295Y-109662910D01*
X160993295Y-109520052D01*
X161040914Y-109329576D01*
X161088533Y-109234338D01*
X161183771Y-109139100D01*
X161326629Y-109091481D01*
X161421867Y-109091481D01*
X161564724Y-109139100D01*
X161612343Y-109186719D01*
X162564724Y-110091481D02*
X161993295Y-110091481D01*
X162279009Y-110091481D02*
X162279009Y-109091481D01*
X162183771Y-109234338D01*
X162088533Y-109329576D01*
X161993295Y-109377195D01*
X163469486Y-109091481D02*
X162993295Y-109091481D01*
X162945676Y-109567671D01*
X162993295Y-109520052D01*
X163088533Y-109472433D01*
X163326629Y-109472433D01*
X163421867Y-109520052D01*
X163469486Y-109567671D01*
X163517105Y-109662910D01*
X163517105Y-109901005D01*
X163469486Y-109996243D01*
X163421867Y-110043862D01*
X163326629Y-110091481D01*
X163088533Y-110091481D01*
X162993295Y-110043862D01*
X162945676Y-109996243D01*
X157835743Y-86774257D02*
X157883362Y-86821876D01*
X157930981Y-86964733D01*
X157930981Y-87059971D01*
X157883362Y-87202829D01*
X157788124Y-87298067D01*
X157692886Y-87345686D01*
X157502410Y-87393305D01*
X157359552Y-87393305D01*
X157169076Y-87345686D01*
X157073838Y-87298067D01*
X156978600Y-87202829D01*
X156930981Y-87059971D01*
X156930981Y-86964733D01*
X156978600Y-86821876D01*
X157026219Y-86774257D01*
X157930981Y-85821876D02*
X157930981Y-86393305D01*
X157930981Y-86107591D02*
X156930981Y-86107591D01*
X157073838Y-86202829D01*
X157169076Y-86298067D01*
X157216695Y-86393305D01*
X157930981Y-84869495D02*
X157930981Y-85440924D01*
X157930981Y-85155210D02*
X156930981Y-85155210D01*
X157073838Y-85250448D01*
X157169076Y-85345686D01*
X157216695Y-85440924D01*
X143800534Y-91695543D02*
X143752915Y-91743162D01*
X143610058Y-91790781D01*
X143514820Y-91790781D01*
X143371962Y-91743162D01*
X143276724Y-91647924D01*
X143229105Y-91552686D01*
X143181486Y-91362210D01*
X143181486Y-91219352D01*
X143229105Y-91028876D01*
X143276724Y-90933638D01*
X143371962Y-90838400D01*
X143514820Y-90790781D01*
X143610058Y-90790781D01*
X143752915Y-90838400D01*
X143800534Y-90886019D01*
X144133867Y-90790781D02*
X144800534Y-90790781D01*
X144371962Y-91790781D01*
X147559734Y-82245343D02*
X147512115Y-82292962D01*
X147369258Y-82340581D01*
X147274020Y-82340581D01*
X147131162Y-82292962D01*
X147035924Y-82197724D01*
X146988305Y-82102486D01*
X146940686Y-81912010D01*
X146940686Y-81769152D01*
X146988305Y-81578676D01*
X147035924Y-81483438D01*
X147131162Y-81388200D01*
X147274020Y-81340581D01*
X147369258Y-81340581D01*
X147512115Y-81388200D01*
X147559734Y-81435819D01*
X148464496Y-81340581D02*
X147988305Y-81340581D01*
X147940686Y-81816771D01*
X147988305Y-81769152D01*
X148083543Y-81721533D01*
X148321639Y-81721533D01*
X148416877Y-81769152D01*
X148464496Y-81816771D01*
X148512115Y-81912010D01*
X148512115Y-82150105D01*
X148464496Y-82245343D01*
X148416877Y-82292962D01*
X148321639Y-82340581D01*
X148083543Y-82340581D01*
X147988305Y-82292962D01*
X147940686Y-82245343D01*
X156503619Y-94786438D02*
X156456000Y-94881676D01*
X156360762Y-94976914D01*
X156217905Y-95119771D01*
X156170286Y-95215010D01*
X156170286Y-95310248D01*
X156408381Y-95262629D02*
X156360762Y-95357867D01*
X156265524Y-95453105D01*
X156075048Y-95500724D01*
X155741714Y-95500724D01*
X155551238Y-95453105D01*
X155456000Y-95357867D01*
X155408381Y-95262629D01*
X155408381Y-95072152D01*
X155456000Y-94976914D01*
X155551238Y-94881676D01*
X155741714Y-94834057D01*
X156075048Y-94834057D01*
X156265524Y-94881676D01*
X156360762Y-94976914D01*
X156408381Y-95072152D01*
X156408381Y-95262629D01*
X156408381Y-93881676D02*
X156408381Y-94453105D01*
X156408381Y-94167391D02*
X155408381Y-94167391D01*
X155551238Y-94262629D01*
X155646476Y-94357867D01*
X155694095Y-94453105D01*
X160199605Y-100595181D02*
X160771034Y-100595181D01*
X160485319Y-101595181D02*
X160485319Y-100595181D01*
X161104367Y-101595181D02*
X161104367Y-100595181D01*
X161485320Y-100595181D01*
X161580558Y-100642800D01*
X161628177Y-100690419D01*
X161675796Y-100785657D01*
X161675796Y-100928514D01*
X161628177Y-101023752D01*
X161580558Y-101071371D01*
X161485320Y-101118990D01*
X161104367Y-101118990D01*
X162628177Y-101595181D02*
X162056748Y-101595181D01*
X162342462Y-101595181D02*
X162342462Y-100595181D01*
X162247224Y-100738038D01*
X162151986Y-100833276D01*
X162056748Y-100880895D01*
X163009129Y-100690419D02*
X163056748Y-100642800D01*
X163151986Y-100595181D01*
X163390082Y-100595181D01*
X163485320Y-100642800D01*
X163532939Y-100690419D01*
X163580558Y-100785657D01*
X163580558Y-100880895D01*
X163532939Y-101023752D01*
X162961510Y-101595181D01*
X163580558Y-101595181D01*
X170651705Y-81037181D02*
X171223134Y-81037181D01*
X170937419Y-82037181D02*
X170937419Y-81037181D01*
X171556467Y-82037181D02*
X171556467Y-81037181D01*
X171937420Y-81037181D01*
X172032658Y-81084800D01*
X172080277Y-81132419D01*
X172127896Y-81227657D01*
X172127896Y-81370514D01*
X172080277Y-81465752D01*
X172032658Y-81513371D01*
X171937420Y-81560990D01*
X171556467Y-81560990D01*
X173080277Y-82037181D02*
X172508848Y-82037181D01*
X172794562Y-82037181D02*
X172794562Y-81037181D01*
X172699324Y-81180038D01*
X172604086Y-81275276D01*
X172508848Y-81322895D01*
X173937420Y-81370514D02*
X173937420Y-82037181D01*
X173699324Y-80989562D02*
X173461229Y-81703848D01*
X174080277Y-81703848D01*
X163133043Y-98959966D02*
X163180662Y-99007585D01*
X163228281Y-99150442D01*
X163228281Y-99245680D01*
X163180662Y-99388538D01*
X163085424Y-99483776D01*
X162990186Y-99531395D01*
X162799710Y-99579014D01*
X162656852Y-99579014D01*
X162466376Y-99531395D01*
X162371138Y-99483776D01*
X162275900Y-99388538D01*
X162228281Y-99245680D01*
X162228281Y-99150442D01*
X162275900Y-99007585D01*
X162323519Y-98959966D01*
X163228281Y-98007585D02*
X163228281Y-98579014D01*
X163228281Y-98293300D02*
X162228281Y-98293300D01*
X162371138Y-98388538D01*
X162466376Y-98483776D01*
X162513995Y-98579014D01*
X163082243Y-93676766D02*
X163129862Y-93724385D01*
X163177481Y-93867242D01*
X163177481Y-93962480D01*
X163129862Y-94105338D01*
X163034624Y-94200576D01*
X162939386Y-94248195D01*
X162748910Y-94295814D01*
X162606052Y-94295814D01*
X162415576Y-94248195D01*
X162320338Y-94200576D01*
X162225100Y-94105338D01*
X162177481Y-93962480D01*
X162177481Y-93867242D01*
X162225100Y-93724385D01*
X162272719Y-93676766D01*
X162272719Y-93295814D02*
X162225100Y-93248195D01*
X162177481Y-93152957D01*
X162177481Y-92914861D01*
X162225100Y-92819623D01*
X162272719Y-92772004D01*
X162367957Y-92724385D01*
X162463195Y-92724385D01*
X162606052Y-92772004D01*
X163177481Y-93343433D01*
X163177481Y-92724385D01*
X145469219Y-76187228D02*
X145421600Y-76282466D01*
X145326362Y-76377704D01*
X145183505Y-76520561D01*
X145135886Y-76615800D01*
X145135886Y-76711038D01*
X145373981Y-76663419D02*
X145326362Y-76758657D01*
X145231124Y-76853895D01*
X145040648Y-76901514D01*
X144707314Y-76901514D01*
X144516838Y-76853895D01*
X144421600Y-76758657D01*
X144373981Y-76663419D01*
X144373981Y-76472942D01*
X144421600Y-76377704D01*
X144516838Y-76282466D01*
X144707314Y-76234847D01*
X145040648Y-76234847D01*
X145231124Y-76282466D01*
X145326362Y-76377704D01*
X145373981Y-76472942D01*
X145373981Y-76663419D01*
X144469219Y-75853895D02*
X144421600Y-75806276D01*
X144373981Y-75711038D01*
X144373981Y-75472942D01*
X144421600Y-75377704D01*
X144469219Y-75330085D01*
X144564457Y-75282466D01*
X144659695Y-75282466D01*
X144802552Y-75330085D01*
X145373981Y-75901514D01*
X145373981Y-75282466D01*
X144373981Y-74425323D02*
X144373981Y-74615800D01*
X144421600Y-74711038D01*
X144469219Y-74758657D01*
X144612076Y-74853895D01*
X144802552Y-74901514D01*
X145183505Y-74901514D01*
X145278743Y-74853895D01*
X145326362Y-74806276D01*
X145373981Y-74711038D01*
X145373981Y-74520561D01*
X145326362Y-74425323D01*
X145278743Y-74377704D01*
X145183505Y-74330085D01*
X144945410Y-74330085D01*
X144850171Y-74377704D01*
X144802552Y-74425323D01*
X144754933Y-74520561D01*
X144754933Y-74711038D01*
X144802552Y-74806276D01*
X144850171Y-74853895D01*
X144945410Y-74901514D01*
X153198534Y-78239881D02*
X152865200Y-77763690D01*
X152627105Y-78239881D02*
X152627105Y-77239881D01*
X153008058Y-77239881D01*
X153103296Y-77287500D01*
X153150915Y-77335119D01*
X153198534Y-77430357D01*
X153198534Y-77573214D01*
X153150915Y-77668452D01*
X153103296Y-77716071D01*
X153008058Y-77763690D01*
X152627105Y-77763690D01*
X154055677Y-77573214D02*
X154055677Y-78239881D01*
X153817581Y-77192262D02*
X153579486Y-77906548D01*
X154198534Y-77906548D01*
X164888943Y-103428943D02*
X164841324Y-103476562D01*
X164698467Y-103524181D01*
X164603229Y-103524181D01*
X164460371Y-103476562D01*
X164365133Y-103381324D01*
X164317514Y-103286086D01*
X164269895Y-103095610D01*
X164269895Y-102952752D01*
X164317514Y-102762276D01*
X164365133Y-102667038D01*
X164460371Y-102571800D01*
X164603229Y-102524181D01*
X164698467Y-102524181D01*
X164841324Y-102571800D01*
X164888943Y-102619419D01*
X165841324Y-103524181D02*
X165269895Y-103524181D01*
X165555609Y-103524181D02*
X165555609Y-102524181D01*
X165460371Y-102667038D01*
X165365133Y-102762276D01*
X165269895Y-102809895D01*
X166222276Y-102619419D02*
X166269895Y-102571800D01*
X166365133Y-102524181D01*
X166603229Y-102524181D01*
X166698467Y-102571800D01*
X166746086Y-102619419D01*
X166793705Y-102714657D01*
X166793705Y-102809895D01*
X166746086Y-102952752D01*
X166174657Y-103524181D01*
X166793705Y-103524181D01*
X171442143Y-83008743D02*
X171394524Y-83056362D01*
X171251667Y-83103981D01*
X171156429Y-83103981D01*
X171013571Y-83056362D01*
X170918333Y-82961124D01*
X170870714Y-82865886D01*
X170823095Y-82675410D01*
X170823095Y-82532552D01*
X170870714Y-82342076D01*
X170918333Y-82246838D01*
X171013571Y-82151600D01*
X171156429Y-82103981D01*
X171251667Y-82103981D01*
X171394524Y-82151600D01*
X171442143Y-82199219D01*
X172394524Y-83103981D02*
X171823095Y-83103981D01*
X172108809Y-83103981D02*
X172108809Y-82103981D01*
X172013571Y-82246838D01*
X171918333Y-82342076D01*
X171823095Y-82389695D01*
X172727857Y-82103981D02*
X173346905Y-82103981D01*
X173013571Y-82484933D01*
X173156429Y-82484933D01*
X173251667Y-82532552D01*
X173299286Y-82580171D01*
X173346905Y-82675410D01*
X173346905Y-82913505D01*
X173299286Y-83008743D01*
X173251667Y-83056362D01*
X173156429Y-83103981D01*
X172870714Y-83103981D01*
X172775476Y-83056362D01*
X172727857Y-83008743D01*
X169902143Y-88266566D02*
X169949762Y-88314185D01*
X169997381Y-88457042D01*
X169997381Y-88552280D01*
X169949762Y-88695138D01*
X169854524Y-88790376D01*
X169759286Y-88837995D01*
X169568810Y-88885614D01*
X169425952Y-88885614D01*
X169235476Y-88837995D01*
X169140238Y-88790376D01*
X169045000Y-88695138D01*
X168997381Y-88552280D01*
X168997381Y-88457042D01*
X169045000Y-88314185D01*
X169092619Y-88266566D01*
X168997381Y-87409423D02*
X168997381Y-87599900D01*
X169045000Y-87695138D01*
X169092619Y-87742757D01*
X169235476Y-87837995D01*
X169425952Y-87885614D01*
X169806905Y-87885614D01*
X169902143Y-87837995D01*
X169949762Y-87790376D01*
X169997381Y-87695138D01*
X169997381Y-87504661D01*
X169949762Y-87409423D01*
X169902143Y-87361804D01*
X169806905Y-87314185D01*
X169568810Y-87314185D01*
X169473571Y-87361804D01*
X169425952Y-87409423D01*
X169378333Y-87504661D01*
X169378333Y-87695138D01*
X169425952Y-87790376D01*
X169473571Y-87837995D01*
X169568810Y-87885614D01*
X144924543Y-79897243D02*
X144876924Y-79944862D01*
X144734067Y-79992481D01*
X144638829Y-79992481D01*
X144495971Y-79944862D01*
X144400733Y-79849624D01*
X144353114Y-79754386D01*
X144305495Y-79563910D01*
X144305495Y-79421052D01*
X144353114Y-79230576D01*
X144400733Y-79135338D01*
X144495971Y-79040100D01*
X144638829Y-78992481D01*
X144734067Y-78992481D01*
X144876924Y-79040100D01*
X144924543Y-79087719D01*
X145876924Y-79992481D02*
X145305495Y-79992481D01*
X145591209Y-79992481D02*
X145591209Y-78992481D01*
X145495971Y-79135338D01*
X145400733Y-79230576D01*
X145305495Y-79278195D01*
X146734067Y-79325814D02*
X146734067Y-79992481D01*
X146495971Y-78944862D02*
X146257876Y-79659148D01*
X146876924Y-79659148D01*
X144295905Y-84158081D02*
X144295905Y-83158081D01*
X144534000Y-83158081D01*
X144676858Y-83205700D01*
X144772096Y-83300938D01*
X144819715Y-83396176D01*
X144867334Y-83586652D01*
X144867334Y-83729510D01*
X144819715Y-83919986D01*
X144772096Y-84015224D01*
X144676858Y-84110462D01*
X144534000Y-84158081D01*
X144295905Y-84158081D01*
X145248286Y-83253319D02*
X145295905Y-83205700D01*
X145391143Y-83158081D01*
X145629239Y-83158081D01*
X145724477Y-83205700D01*
X145772096Y-83253319D01*
X145819715Y-83348557D01*
X145819715Y-83443795D01*
X145772096Y-83586652D01*
X145200667Y-84158081D01*
X145819715Y-84158081D01*
X153817581Y-79808366D02*
X153341390Y-80141700D01*
X153817581Y-80379795D02*
X152817581Y-80379795D01*
X152817581Y-79998842D01*
X152865200Y-79903604D01*
X152912819Y-79855985D01*
X153008057Y-79808366D01*
X153150914Y-79808366D01*
X153246152Y-79855985D01*
X153293771Y-79903604D01*
X153341390Y-79998842D01*
X153341390Y-80379795D01*
X152817581Y-79475033D02*
X152817581Y-78808366D01*
X153817581Y-79236938D01*
X149693334Y-82354681D02*
X149360000Y-81878490D01*
X149121905Y-82354681D02*
X149121905Y-81354681D01*
X149502858Y-81354681D01*
X149598096Y-81402300D01*
X149645715Y-81449919D01*
X149693334Y-81545157D01*
X149693334Y-81688014D01*
X149645715Y-81783252D01*
X149598096Y-81830871D01*
X149502858Y-81878490D01*
X149121905Y-81878490D01*
X150169524Y-82354681D02*
X150360000Y-82354681D01*
X150455239Y-82307062D01*
X150502858Y-82259443D01*
X150598096Y-82116586D01*
X150645715Y-81926110D01*
X150645715Y-81545157D01*
X150598096Y-81449919D01*
X150550477Y-81402300D01*
X150455239Y-81354681D01*
X150264762Y-81354681D01*
X150169524Y-81402300D01*
X150121905Y-81449919D01*
X150074286Y-81545157D01*
X150074286Y-81783252D01*
X150121905Y-81878490D01*
X150169524Y-81926110D01*
X150264762Y-81973729D01*
X150455239Y-81973729D01*
X150550477Y-81926110D01*
X150598096Y-81878490D01*
X150645715Y-81783252D01*
X141911343Y-94432357D02*
X141958962Y-94479976D01*
X142006581Y-94622833D01*
X142006581Y-94718071D01*
X141958962Y-94860929D01*
X141863724Y-94956167D01*
X141768486Y-95003786D01*
X141578010Y-95051405D01*
X141435152Y-95051405D01*
X141244676Y-95003786D01*
X141149438Y-94956167D01*
X141054200Y-94860929D01*
X141006581Y-94718071D01*
X141006581Y-94622833D01*
X141054200Y-94479976D01*
X141101819Y-94432357D01*
X142006581Y-93479976D02*
X142006581Y-94051405D01*
X142006581Y-93765691D02*
X141006581Y-93765691D01*
X141149438Y-93860929D01*
X141244676Y-93956167D01*
X141292295Y-94051405D01*
X141006581Y-92622833D02*
X141006581Y-92813310D01*
X141054200Y-92908548D01*
X141101819Y-92956167D01*
X141244676Y-93051405D01*
X141435152Y-93099024D01*
X141816105Y-93099024D01*
X141911343Y-93051405D01*
X141958962Y-93003786D01*
X142006581Y-92908548D01*
X142006581Y-92718071D01*
X141958962Y-92622833D01*
X141911343Y-92575214D01*
X141816105Y-92527595D01*
X141578010Y-92527595D01*
X141482771Y-92575214D01*
X141435152Y-92622833D01*
X141387533Y-92718071D01*
X141387533Y-92908548D01*
X141435152Y-93003786D01*
X141482771Y-93051405D01*
X141578010Y-93099024D01*
X141835143Y-91739957D02*
X141882762Y-91787576D01*
X141930381Y-91930433D01*
X141930381Y-92025671D01*
X141882762Y-92168529D01*
X141787524Y-92263767D01*
X141692286Y-92311386D01*
X141501810Y-92359005D01*
X141358952Y-92359005D01*
X141168476Y-92311386D01*
X141073238Y-92263767D01*
X140978000Y-92168529D01*
X140930381Y-92025671D01*
X140930381Y-91930433D01*
X140978000Y-91787576D01*
X141025619Y-91739957D01*
X141930381Y-90787576D02*
X141930381Y-91359005D01*
X141930381Y-91073291D02*
X140930381Y-91073291D01*
X141073238Y-91168529D01*
X141168476Y-91263767D01*
X141216095Y-91359005D01*
X141358952Y-90216148D02*
X141311333Y-90311386D01*
X141263714Y-90359005D01*
X141168476Y-90406624D01*
X141120857Y-90406624D01*
X141025619Y-90359005D01*
X140978000Y-90311386D01*
X140930381Y-90216148D01*
X140930381Y-90025671D01*
X140978000Y-89930433D01*
X141025619Y-89882814D01*
X141120857Y-89835195D01*
X141168476Y-89835195D01*
X141263714Y-89882814D01*
X141311333Y-89930433D01*
X141358952Y-90025671D01*
X141358952Y-90216148D01*
X141406571Y-90311386D01*
X141454190Y-90359005D01*
X141549429Y-90406624D01*
X141739905Y-90406624D01*
X141835143Y-90359005D01*
X141882762Y-90311386D01*
X141930381Y-90216148D01*
X141930381Y-90025671D01*
X141882762Y-89930433D01*
X141835143Y-89882814D01*
X141739905Y-89835195D01*
X141549429Y-89835195D01*
X141454190Y-89882814D01*
X141406571Y-89930433D01*
X141358952Y-90025671D01*
X150379134Y-78074781D02*
X150045800Y-77598590D01*
X149807705Y-78074781D02*
X149807705Y-77074781D01*
X150188658Y-77074781D01*
X150283896Y-77122400D01*
X150331515Y-77170019D01*
X150379134Y-77265257D01*
X150379134Y-77408114D01*
X150331515Y-77503352D01*
X150283896Y-77550971D01*
X150188658Y-77598590D01*
X149807705Y-77598590D01*
X151331515Y-78074781D02*
X150760086Y-78074781D01*
X151045800Y-78074781D02*
X151045800Y-77074781D01*
X150950562Y-77217638D01*
X150855324Y-77312876D01*
X150760086Y-77360495D01*
X138212534Y-100039443D02*
X138164915Y-100087062D01*
X138022058Y-100134681D01*
X137926820Y-100134681D01*
X137783962Y-100087062D01*
X137688724Y-99991824D01*
X137641105Y-99896586D01*
X137593486Y-99706110D01*
X137593486Y-99563252D01*
X137641105Y-99372776D01*
X137688724Y-99277538D01*
X137783962Y-99182300D01*
X137926820Y-99134681D01*
X138022058Y-99134681D01*
X138164915Y-99182300D01*
X138212534Y-99229919D01*
X139069677Y-99468014D02*
X139069677Y-100134681D01*
X138831581Y-99087062D02*
X138593486Y-99801348D01*
X139212534Y-99801348D01*
X169733934Y-80913243D02*
X169686315Y-80960862D01*
X169543458Y-81008481D01*
X169448220Y-81008481D01*
X169305362Y-80960862D01*
X169210124Y-80865624D01*
X169162505Y-80770386D01*
X169114886Y-80579910D01*
X169114886Y-80437052D01*
X169162505Y-80246576D01*
X169210124Y-80151338D01*
X169305362Y-80056100D01*
X169448220Y-80008481D01*
X169543458Y-80008481D01*
X169686315Y-80056100D01*
X169733934Y-80103719D01*
X170067267Y-80008481D02*
X170686315Y-80008481D01*
X170352981Y-80389433D01*
X170495839Y-80389433D01*
X170591077Y-80437052D01*
X170638696Y-80484671D01*
X170686315Y-80579910D01*
X170686315Y-80818005D01*
X170638696Y-80913243D01*
X170591077Y-80960862D01*
X170495839Y-81008481D01*
X170210124Y-81008481D01*
X170114886Y-80960862D01*
X170067267Y-80913243D01*
X140803334Y-100166443D02*
X140755715Y-100214062D01*
X140612858Y-100261681D01*
X140517620Y-100261681D01*
X140374762Y-100214062D01*
X140279524Y-100118824D01*
X140231905Y-100023586D01*
X140184286Y-99833110D01*
X140184286Y-99690252D01*
X140231905Y-99499776D01*
X140279524Y-99404538D01*
X140374762Y-99309300D01*
X140517620Y-99261681D01*
X140612858Y-99261681D01*
X140755715Y-99309300D01*
X140803334Y-99356919D01*
X141374762Y-99690252D02*
X141279524Y-99642633D01*
X141231905Y-99595014D01*
X141184286Y-99499776D01*
X141184286Y-99452157D01*
X141231905Y-99356919D01*
X141279524Y-99309300D01*
X141374762Y-99261681D01*
X141565239Y-99261681D01*
X141660477Y-99309300D01*
X141708096Y-99356919D01*
X141755715Y-99452157D01*
X141755715Y-99499776D01*
X141708096Y-99595014D01*
X141660477Y-99642633D01*
X141565239Y-99690252D01*
X141374762Y-99690252D01*
X141279524Y-99737871D01*
X141231905Y-99785490D01*
X141184286Y-99880729D01*
X141184286Y-100071205D01*
X141231905Y-100166443D01*
X141279524Y-100214062D01*
X141374762Y-100261681D01*
X141565239Y-100261681D01*
X141660477Y-100214062D01*
X141708096Y-100166443D01*
X141755715Y-100071205D01*
X141755715Y-99880729D01*
X141708096Y-99785490D01*
X141660477Y-99737871D01*
X141565239Y-99690252D01*
X140777934Y-106872043D02*
X140730315Y-106919662D01*
X140587458Y-106967281D01*
X140492220Y-106967281D01*
X140349362Y-106919662D01*
X140254124Y-106824424D01*
X140206505Y-106729186D01*
X140158886Y-106538710D01*
X140158886Y-106395852D01*
X140206505Y-106205376D01*
X140254124Y-106110138D01*
X140349362Y-106014900D01*
X140492220Y-105967281D01*
X140587458Y-105967281D01*
X140730315Y-106014900D01*
X140777934Y-106062519D01*
X141254124Y-106967281D02*
X141444600Y-106967281D01*
X141539839Y-106919662D01*
X141587458Y-106872043D01*
X141682696Y-106729186D01*
X141730315Y-106538710D01*
X141730315Y-106157757D01*
X141682696Y-106062519D01*
X141635077Y-106014900D01*
X141539839Y-105967281D01*
X141349362Y-105967281D01*
X141254124Y-106014900D01*
X141206505Y-106062519D01*
X141158886Y-106157757D01*
X141158886Y-106395852D01*
X141206505Y-106491090D01*
X141254124Y-106538710D01*
X141349362Y-106586329D01*
X141539839Y-106586329D01*
X141635077Y-106538710D01*
X141682696Y-106491090D01*
X141730315Y-106395852D01*
X171370667Y-104786581D02*
X171370667Y-105500867D01*
X171323047Y-105643724D01*
X171227809Y-105738962D01*
X171084952Y-105786581D01*
X170989714Y-105786581D01*
X172275429Y-105119914D02*
X172275429Y-105786581D01*
X172037333Y-104738962D02*
X171799238Y-105453248D01*
X172418286Y-105453248D01*
X140877967Y-109650281D02*
X140877967Y-110364567D01*
X140830347Y-110507424D01*
X140735109Y-110602662D01*
X140592252Y-110650281D01*
X140497014Y-110650281D01*
X141830348Y-109650281D02*
X141354157Y-109650281D01*
X141306538Y-110126471D01*
X141354157Y-110078852D01*
X141449395Y-110031233D01*
X141687491Y-110031233D01*
X141782729Y-110078852D01*
X141830348Y-110126471D01*
X141877967Y-110221710D01*
X141877967Y-110459805D01*
X141830348Y-110555043D01*
X141782729Y-110602662D01*
X141687491Y-110650281D01*
X141449395Y-110650281D01*
X141354157Y-110602662D01*
X141306538Y-110555043D01*
X172221567Y-78573381D02*
X172221567Y-79287667D01*
X172173947Y-79430524D01*
X172078709Y-79525762D01*
X171935852Y-79573381D01*
X171840614Y-79573381D01*
X172650138Y-78668619D02*
X172697757Y-78621000D01*
X172792995Y-78573381D01*
X173031091Y-78573381D01*
X173126329Y-78621000D01*
X173173948Y-78668619D01*
X173221567Y-78763857D01*
X173221567Y-78859095D01*
X173173948Y-79001952D01*
X172602519Y-79573381D01*
X173221567Y-79573381D01*
X141373267Y-76439781D02*
X141373267Y-77154067D01*
X141325647Y-77296924D01*
X141230409Y-77392162D01*
X141087552Y-77439781D01*
X140992314Y-77439781D01*
X141754219Y-76439781D02*
X142373267Y-76439781D01*
X142039933Y-76820733D01*
X142182791Y-76820733D01*
X142278029Y-76868352D01*
X142325648Y-76915971D01*
X142373267Y-77011210D01*
X142373267Y-77249305D01*
X142325648Y-77344543D01*
X142278029Y-77392162D01*
X142182791Y-77439781D01*
X141897076Y-77439781D01*
X141801838Y-77392162D01*
X141754219Y-77344543D01*
X154525743Y-84558143D02*
X154478124Y-84605762D01*
X154335267Y-84653381D01*
X154240029Y-84653381D01*
X154097171Y-84605762D01*
X154001933Y-84510524D01*
X153954314Y-84415286D01*
X153906695Y-84224810D01*
X153906695Y-84081952D01*
X153954314Y-83891476D01*
X154001933Y-83796238D01*
X154097171Y-83701000D01*
X154240029Y-83653381D01*
X154335267Y-83653381D01*
X154478124Y-83701000D01*
X154525743Y-83748619D01*
X155478124Y-84653381D02*
X154906695Y-84653381D01*
X155192409Y-84653381D02*
X155192409Y-83653381D01*
X155097171Y-83796238D01*
X155001933Y-83891476D01*
X154906695Y-83939095D01*
X156097171Y-83653381D02*
X156192410Y-83653381D01*
X156287648Y-83701000D01*
X156335267Y-83748619D01*
X156382886Y-83843857D01*
X156430505Y-84034333D01*
X156430505Y-84272429D01*
X156382886Y-84462905D01*
X156335267Y-84558143D01*
X156287648Y-84605762D01*
X156192410Y-84653381D01*
X156097171Y-84653381D01*
X156001933Y-84605762D01*
X155954314Y-84558143D01*
X155906695Y-84462905D01*
X155859076Y-84272429D01*
X155859076Y-84034333D01*
X155906695Y-83843857D01*
X155954314Y-83748619D01*
X156001933Y-83701000D01*
X156097171Y-83653381D01*
X143552943Y-95715081D02*
X143219609Y-95238890D01*
X142981514Y-95715081D02*
X142981514Y-94715081D01*
X143362467Y-94715081D01*
X143457705Y-94762700D01*
X143505324Y-94810319D01*
X143552943Y-94905557D01*
X143552943Y-95048414D01*
X143505324Y-95143652D01*
X143457705Y-95191271D01*
X143362467Y-95238890D01*
X142981514Y-95238890D01*
X144505324Y-95715081D02*
X143933895Y-95715081D01*
X144219609Y-95715081D02*
X144219609Y-94715081D01*
X144124371Y-94857938D01*
X144029133Y-94953176D01*
X143933895Y-95000795D01*
X144886276Y-94810319D02*
X144933895Y-94762700D01*
X145029133Y-94715081D01*
X145267229Y-94715081D01*
X145362467Y-94762700D01*
X145410086Y-94810319D01*
X145457705Y-94905557D01*
X145457705Y-95000795D01*
X145410086Y-95143652D01*
X144838657Y-95715081D01*
X145457705Y-95715081D01*
X158354805Y-106986081D02*
X158354805Y-105986081D01*
X158592900Y-105986081D01*
X158735758Y-106033700D01*
X158830996Y-106128938D01*
X158878615Y-106224176D01*
X158926234Y-106414652D01*
X158926234Y-106557510D01*
X158878615Y-106747986D01*
X158830996Y-106843224D01*
X158735758Y-106938462D01*
X158592900Y-106986081D01*
X158354805Y-106986081D01*
X159878615Y-106986081D02*
X159307186Y-106986081D01*
X159592900Y-106986081D02*
X159592900Y-105986081D01*
X159497662Y-106128938D01*
X159402424Y-106224176D01*
X159307186Y-106271795D01*
X161167667Y-81844681D02*
X161167667Y-82558967D01*
X161120047Y-82701824D01*
X161024809Y-82797062D01*
X160881952Y-82844681D01*
X160786714Y-82844681D01*
X162167667Y-82844681D02*
X161596238Y-82844681D01*
X161881952Y-82844681D02*
X161881952Y-81844681D01*
X161786714Y-81987538D01*
X161691476Y-82082776D01*
X161596238Y-82130395D01*
X151217334Y-96654881D02*
X150741143Y-96654881D01*
X150741143Y-95654881D01*
X151455429Y-95654881D02*
X152074477Y-95654881D01*
X151741143Y-96035833D01*
X151884001Y-96035833D01*
X151979239Y-96083452D01*
X152026858Y-96131071D01*
X152074477Y-96226310D01*
X152074477Y-96464405D01*
X152026858Y-96559643D01*
X151979239Y-96607262D01*
X151884001Y-96654881D01*
X151598286Y-96654881D01*
X151503048Y-96607262D01*
X151455429Y-96559643D01*
X143887681Y-85243895D02*
X142887681Y-85243895D01*
X142887681Y-84862942D01*
X142935300Y-84767704D01*
X142982919Y-84720085D01*
X143078157Y-84672466D01*
X143221014Y-84672466D01*
X143316252Y-84720085D01*
X143363871Y-84767704D01*
X143411490Y-84862942D01*
X143411490Y-85243895D01*
X143887681Y-83720085D02*
X143887681Y-84291514D01*
X143887681Y-84005800D02*
X142887681Y-84005800D01*
X143030538Y-84101038D01*
X143125776Y-84196276D01*
X143173395Y-84291514D01*
X151001481Y-90436605D02*
X151811005Y-90436605D01*
X151906243Y-90388986D01*
X151953862Y-90341367D01*
X152001481Y-90246129D01*
X152001481Y-90055652D01*
X151953862Y-89960414D01*
X151906243Y-89912795D01*
X151811005Y-89865176D01*
X151001481Y-89865176D01*
X152001481Y-88865176D02*
X152001481Y-89436605D01*
X152001481Y-89150891D02*
X151001481Y-89150891D01*
X151144338Y-89246129D01*
X151239576Y-89341367D01*
X151287195Y-89436605D01*
M02*
