G04 #@! TF.FileFunction,Legend,Bot*
%FSLAX46Y46*%
G04 Gerber Fmt 4.6, Leading zero omitted, Abs format (unit mm)*
G04 Created by KiCad (PCBNEW 4.0.7-e2-6376~60~ubuntu17.10.1) date Sun Feb  4 21:07:57 2018*
%MOMM*%
%LPD*%
G01*
G04 APERTURE LIST*
%ADD10C,0.100000*%
%ADD11C,0.300000*%
G04 APERTURE END LIST*
D10*
D11*
X164868286Y-104898071D02*
X164582572Y-105898071D01*
X164296858Y-105183786D01*
X164011143Y-105898071D01*
X163725429Y-104898071D01*
X163296857Y-104898071D02*
X163011143Y-105898071D01*
X162725429Y-105183786D01*
X162439714Y-105898071D01*
X162154000Y-104898071D01*
X161725428Y-104898071D02*
X161439714Y-105898071D01*
X161154000Y-105183786D01*
X160868285Y-105898071D01*
X160582571Y-104898071D01*
X160011142Y-105755214D02*
X159939714Y-105826643D01*
X160011142Y-105898071D01*
X160082571Y-105826643D01*
X160011142Y-105755214D01*
X160011142Y-105898071D01*
X159368285Y-105826643D02*
X159225428Y-105898071D01*
X158939713Y-105898071D01*
X158796856Y-105826643D01*
X158725428Y-105683786D01*
X158725428Y-105612357D01*
X158796856Y-105469500D01*
X158939713Y-105398071D01*
X159153999Y-105398071D01*
X159296856Y-105326643D01*
X159368285Y-105183786D01*
X159368285Y-105112357D01*
X159296856Y-104969500D01*
X159153999Y-104898071D01*
X158939713Y-104898071D01*
X158796856Y-104969500D01*
X157439713Y-104898071D02*
X157439713Y-105898071D01*
X158082570Y-104898071D02*
X158082570Y-105683786D01*
X158011142Y-105826643D01*
X157868284Y-105898071D01*
X157653999Y-105898071D01*
X157511142Y-105826643D01*
X157439713Y-105755214D01*
X156725427Y-105898071D02*
X156725427Y-104898071D01*
X156725427Y-105183786D02*
X156653999Y-105040929D01*
X156582570Y-104969500D01*
X156439713Y-104898071D01*
X156296856Y-104898071D01*
X156011142Y-104898071D02*
X155439713Y-104898071D01*
X155796856Y-105898071D02*
X155796856Y-104612357D01*
X155725428Y-104469500D01*
X155582570Y-104398071D01*
X155439713Y-104398071D01*
X154939713Y-104898071D02*
X154939713Y-105898071D01*
X154939713Y-105040929D02*
X154868285Y-104969500D01*
X154725427Y-104898071D01*
X154511142Y-104898071D01*
X154368285Y-104969500D01*
X154296856Y-105112357D01*
X154296856Y-105898071D01*
X152939713Y-105826643D02*
X153082570Y-105898071D01*
X153368284Y-105898071D01*
X153511142Y-105826643D01*
X153582570Y-105755214D01*
X153653999Y-105612357D01*
X153653999Y-105183786D01*
X153582570Y-105040929D01*
X153511142Y-104969500D01*
X153368284Y-104898071D01*
X153082570Y-104898071D01*
X152939713Y-104969500D01*
X152296856Y-105898071D02*
X152296856Y-104898071D01*
X152296856Y-104398071D02*
X152368285Y-104469500D01*
X152296856Y-104540929D01*
X152225428Y-104469500D01*
X152296856Y-104398071D01*
X152296856Y-104540929D01*
X151582570Y-105898071D02*
X151582570Y-104898071D01*
X151582570Y-105183786D02*
X151511142Y-105040929D01*
X151439713Y-104969500D01*
X151296856Y-104898071D01*
X151153999Y-104898071D01*
X150011142Y-105826643D02*
X150153999Y-105898071D01*
X150439713Y-105898071D01*
X150582571Y-105826643D01*
X150653999Y-105755214D01*
X150725428Y-105612357D01*
X150725428Y-105183786D01*
X150653999Y-105040929D01*
X150582571Y-104969500D01*
X150439713Y-104898071D01*
X150153999Y-104898071D01*
X150011142Y-104969500D01*
X148725428Y-104898071D02*
X148725428Y-105898071D01*
X149368285Y-104898071D02*
X149368285Y-105683786D01*
X149296857Y-105826643D01*
X149153999Y-105898071D01*
X148939714Y-105898071D01*
X148796857Y-105826643D01*
X148725428Y-105755214D01*
X148011142Y-105898071D02*
X148011142Y-104898071D01*
X148011142Y-104398071D02*
X148082571Y-104469500D01*
X148011142Y-104540929D01*
X147939714Y-104469500D01*
X148011142Y-104398071D01*
X148011142Y-104540929D01*
X147511142Y-104898071D02*
X146939713Y-104898071D01*
X147296856Y-104398071D02*
X147296856Y-105683786D01*
X147225428Y-105826643D01*
X147082570Y-105898071D01*
X146939713Y-105898071D01*
X146511142Y-105826643D02*
X146368285Y-105898071D01*
X146082570Y-105898071D01*
X145939713Y-105826643D01*
X145868285Y-105683786D01*
X145868285Y-105612357D01*
X145939713Y-105469500D01*
X146082570Y-105398071D01*
X146296856Y-105398071D01*
X146439713Y-105326643D01*
X146511142Y-105183786D01*
X146511142Y-105112357D01*
X146439713Y-104969500D01*
X146296856Y-104898071D01*
X146082570Y-104898071D01*
X145939713Y-104969500D01*
X145225427Y-105755214D02*
X145153999Y-105826643D01*
X145225427Y-105898071D01*
X145296856Y-105826643D01*
X145225427Y-105755214D01*
X145225427Y-105898071D01*
X143868284Y-105826643D02*
X144011141Y-105898071D01*
X144296855Y-105898071D01*
X144439713Y-105826643D01*
X144511141Y-105755214D01*
X144582570Y-105612357D01*
X144582570Y-105183786D01*
X144511141Y-105040929D01*
X144439713Y-104969500D01*
X144296855Y-104898071D01*
X144011141Y-104898071D01*
X143868284Y-104969500D01*
X143011141Y-105898071D02*
X143153999Y-105826643D01*
X143225427Y-105755214D01*
X143296856Y-105612357D01*
X143296856Y-105183786D01*
X143225427Y-105040929D01*
X143153999Y-104969500D01*
X143011141Y-104898071D01*
X142796856Y-104898071D01*
X142653999Y-104969500D01*
X142582570Y-105040929D01*
X142511141Y-105183786D01*
X142511141Y-105612357D01*
X142582570Y-105755214D01*
X142653999Y-105826643D01*
X142796856Y-105898071D01*
X143011141Y-105898071D01*
X141868284Y-105898071D02*
X141868284Y-104898071D01*
X141868284Y-105040929D02*
X141796856Y-104969500D01*
X141653998Y-104898071D01*
X141439713Y-104898071D01*
X141296856Y-104969500D01*
X141225427Y-105112357D01*
X141225427Y-105898071D01*
X141225427Y-105112357D02*
X141153998Y-104969500D01*
X141011141Y-104898071D01*
X140796856Y-104898071D01*
X140653998Y-104969500D01*
X140582570Y-105112357D01*
X140582570Y-105898071D01*
X164697927Y-108176143D02*
X164840784Y-108247571D01*
X165126498Y-108247571D01*
X165269356Y-108176143D01*
X165340784Y-108104714D01*
X165412213Y-107961857D01*
X165412213Y-107533286D01*
X165340784Y-107390429D01*
X165269356Y-107319000D01*
X165126498Y-107247571D01*
X164840784Y-107247571D01*
X164697927Y-107319000D01*
X163840784Y-108247571D02*
X163983642Y-108176143D01*
X164055070Y-108104714D01*
X164126499Y-107961857D01*
X164126499Y-107533286D01*
X164055070Y-107390429D01*
X163983642Y-107319000D01*
X163840784Y-107247571D01*
X163626499Y-107247571D01*
X163483642Y-107319000D01*
X163412213Y-107390429D01*
X163340784Y-107533286D01*
X163340784Y-107961857D01*
X163412213Y-108104714D01*
X163483642Y-108176143D01*
X163626499Y-108247571D01*
X163840784Y-108247571D01*
X162697927Y-107247571D02*
X162697927Y-108747571D01*
X162697927Y-107319000D02*
X162555070Y-107247571D01*
X162269356Y-107247571D01*
X162126499Y-107319000D01*
X162055070Y-107390429D01*
X161983641Y-107533286D01*
X161983641Y-107961857D01*
X162055070Y-108104714D01*
X162126499Y-108176143D01*
X162269356Y-108247571D01*
X162555070Y-108247571D01*
X162697927Y-108176143D01*
X161483641Y-107247571D02*
X161126498Y-108247571D01*
X160769356Y-107247571D02*
X161126498Y-108247571D01*
X161269356Y-108604714D01*
X161340784Y-108676143D01*
X161483641Y-108747571D01*
X160197927Y-108247571D02*
X160197927Y-107247571D01*
X160197927Y-107533286D02*
X160126499Y-107390429D01*
X160055070Y-107319000D01*
X159912213Y-107247571D01*
X159769356Y-107247571D01*
X159269356Y-108247571D02*
X159269356Y-107247571D01*
X159269356Y-106747571D02*
X159340785Y-106819000D01*
X159269356Y-106890429D01*
X159197928Y-106819000D01*
X159269356Y-106747571D01*
X159269356Y-106890429D01*
X157912213Y-107247571D02*
X157912213Y-108461857D01*
X157983642Y-108604714D01*
X158055070Y-108676143D01*
X158197927Y-108747571D01*
X158412213Y-108747571D01*
X158555070Y-108676143D01*
X157912213Y-108176143D02*
X158055070Y-108247571D01*
X158340784Y-108247571D01*
X158483642Y-108176143D01*
X158555070Y-108104714D01*
X158626499Y-107961857D01*
X158626499Y-107533286D01*
X158555070Y-107390429D01*
X158483642Y-107319000D01*
X158340784Y-107247571D01*
X158055070Y-107247571D01*
X157912213Y-107319000D01*
X157197927Y-108247571D02*
X157197927Y-106747571D01*
X156555070Y-108247571D02*
X156555070Y-107461857D01*
X156626499Y-107319000D01*
X156769356Y-107247571D01*
X156983641Y-107247571D01*
X157126499Y-107319000D01*
X157197927Y-107390429D01*
X156055070Y-107247571D02*
X155483641Y-107247571D01*
X155840784Y-106747571D02*
X155840784Y-108033286D01*
X155769356Y-108176143D01*
X155626498Y-108247571D01*
X155483641Y-108247571D01*
X153412213Y-108819000D02*
X153483641Y-108747571D01*
X153626498Y-108533286D01*
X153697927Y-108390429D01*
X153769356Y-108176143D01*
X153840784Y-107819000D01*
X153840784Y-107533286D01*
X153769356Y-107176143D01*
X153697927Y-106961857D01*
X153626498Y-106819000D01*
X153483641Y-106604714D01*
X153412213Y-106533286D01*
X152197927Y-108176143D02*
X152340784Y-108247571D01*
X152626498Y-108247571D01*
X152769356Y-108176143D01*
X152840784Y-108104714D01*
X152912213Y-107961857D01*
X152912213Y-107533286D01*
X152840784Y-107390429D01*
X152769356Y-107319000D01*
X152626498Y-107247571D01*
X152340784Y-107247571D01*
X152197927Y-107319000D01*
X151697927Y-108819000D02*
X151626499Y-108747571D01*
X151483642Y-108533286D01*
X151412213Y-108390429D01*
X151340784Y-108176143D01*
X151269356Y-107819000D01*
X151269356Y-107533286D01*
X151340784Y-107176143D01*
X151412213Y-106961857D01*
X151483642Y-106819000D01*
X151626499Y-106604714D01*
X151697927Y-106533286D01*
X149483642Y-106890429D02*
X149412213Y-106819000D01*
X149269356Y-106747571D01*
X148912213Y-106747571D01*
X148769356Y-106819000D01*
X148697927Y-106890429D01*
X148626499Y-107033286D01*
X148626499Y-107176143D01*
X148697927Y-107390429D01*
X149555070Y-108247571D01*
X148626499Y-108247571D01*
X147697928Y-106747571D02*
X147555071Y-106747571D01*
X147412214Y-106819000D01*
X147340785Y-106890429D01*
X147269356Y-107033286D01*
X147197928Y-107319000D01*
X147197928Y-107676143D01*
X147269356Y-107961857D01*
X147340785Y-108104714D01*
X147412214Y-108176143D01*
X147555071Y-108247571D01*
X147697928Y-108247571D01*
X147840785Y-108176143D01*
X147912214Y-108104714D01*
X147983642Y-107961857D01*
X148055071Y-107676143D01*
X148055071Y-107319000D01*
X147983642Y-107033286D01*
X147912214Y-106890429D01*
X147840785Y-106819000D01*
X147697928Y-106747571D01*
X145769357Y-108247571D02*
X146626500Y-108247571D01*
X146197928Y-108247571D02*
X146197928Y-106747571D01*
X146340785Y-106961857D01*
X146483643Y-107104714D01*
X146626500Y-107176143D01*
X144912214Y-107390429D02*
X145055072Y-107319000D01*
X145126500Y-107247571D01*
X145197929Y-107104714D01*
X145197929Y-107033286D01*
X145126500Y-106890429D01*
X145055072Y-106819000D01*
X144912214Y-106747571D01*
X144626500Y-106747571D01*
X144483643Y-106819000D01*
X144412214Y-106890429D01*
X144340786Y-107033286D01*
X144340786Y-107104714D01*
X144412214Y-107247571D01*
X144483643Y-107319000D01*
X144626500Y-107390429D01*
X144912214Y-107390429D01*
X145055072Y-107461857D01*
X145126500Y-107533286D01*
X145197929Y-107676143D01*
X145197929Y-107961857D01*
X145126500Y-108104714D01*
X145055072Y-108176143D01*
X144912214Y-108247571D01*
X144626500Y-108247571D01*
X144483643Y-108176143D01*
X144412214Y-108104714D01*
X144340786Y-107961857D01*
X144340786Y-107676143D01*
X144412214Y-107533286D01*
X144483643Y-107461857D01*
X144626500Y-107390429D01*
X168614641Y-99357571D02*
X168614641Y-97857571D01*
X167757498Y-99357571D01*
X167757498Y-97857571D01*
X167043212Y-99357571D02*
X167043212Y-98357571D01*
X167043212Y-97857571D02*
X167114641Y-97929000D01*
X167043212Y-98000429D01*
X166971784Y-97929000D01*
X167043212Y-97857571D01*
X167043212Y-98000429D01*
X166471783Y-99357571D02*
X165686069Y-98357571D01*
X166471783Y-98357571D02*
X165686069Y-99357571D01*
X165114640Y-99357571D02*
X165114640Y-98357571D01*
X165114640Y-97857571D02*
X165186069Y-97929000D01*
X165114640Y-98000429D01*
X165043212Y-97929000D01*
X165114640Y-97857571D01*
X165114640Y-98000429D01*
X163828926Y-99286143D02*
X163971783Y-99357571D01*
X164257497Y-99357571D01*
X164400354Y-99286143D01*
X164471783Y-99143286D01*
X164471783Y-98571857D01*
X164400354Y-98429000D01*
X164257497Y-98357571D01*
X163971783Y-98357571D01*
X163828926Y-98429000D01*
X163757497Y-98571857D01*
X163757497Y-98714714D01*
X164471783Y-98857571D01*
X163186069Y-99286143D02*
X162971783Y-99357571D01*
X162614640Y-99357571D01*
X162471783Y-99286143D01*
X162400354Y-99214714D01*
X162328926Y-99071857D01*
X162328926Y-98929000D01*
X162400354Y-98786143D01*
X162471783Y-98714714D01*
X162614640Y-98643286D01*
X162900354Y-98571857D01*
X163043212Y-98500429D01*
X163114640Y-98429000D01*
X163186069Y-98286143D01*
X163186069Y-98143286D01*
X163114640Y-98000429D01*
X163043212Y-97929000D01*
X162900354Y-97857571D01*
X162543212Y-97857571D01*
X162328926Y-97929000D01*
X161043212Y-98357571D02*
X161043212Y-99357571D01*
X161686069Y-98357571D02*
X161686069Y-99143286D01*
X161614641Y-99286143D01*
X161471783Y-99357571D01*
X161257498Y-99357571D01*
X161114641Y-99286143D01*
X161043212Y-99214714D01*
X160328926Y-98357571D02*
X160328926Y-99857571D01*
X160328926Y-98429000D02*
X160186069Y-98357571D01*
X159900355Y-98357571D01*
X159757498Y-98429000D01*
X159686069Y-98500429D01*
X159614640Y-98643286D01*
X159614640Y-99071857D01*
X159686069Y-99214714D01*
X159757498Y-99286143D01*
X159900355Y-99357571D01*
X160186069Y-99357571D01*
X160328926Y-99286143D01*
X158971783Y-98357571D02*
X158971783Y-99857571D01*
X158971783Y-98429000D02*
X158828926Y-98357571D01*
X158543212Y-98357571D01*
X158400355Y-98429000D01*
X158328926Y-98500429D01*
X158257497Y-98643286D01*
X158257497Y-99071857D01*
X158328926Y-99214714D01*
X158400355Y-99286143D01*
X158543212Y-99357571D01*
X158828926Y-99357571D01*
X158971783Y-99286143D01*
X157400354Y-99357571D02*
X157543212Y-99286143D01*
X157614640Y-99143286D01*
X157614640Y-97857571D01*
X156971783Y-98357571D02*
X156614640Y-99357571D01*
X156257498Y-98357571D02*
X156614640Y-99357571D01*
X156757498Y-99714714D01*
X156828926Y-99786143D01*
X156971783Y-99857571D01*
X152543212Y-99357571D02*
X153043212Y-98643286D01*
X153400355Y-99357571D02*
X153400355Y-97857571D01*
X152828927Y-97857571D01*
X152686069Y-97929000D01*
X152614641Y-98000429D01*
X152543212Y-98143286D01*
X152543212Y-98357571D01*
X152614641Y-98500429D01*
X152686069Y-98571857D01*
X152828927Y-98643286D01*
X153400355Y-98643286D01*
X151328927Y-99286143D02*
X151471784Y-99357571D01*
X151757498Y-99357571D01*
X151900355Y-99286143D01*
X151971784Y-99143286D01*
X151971784Y-98571857D01*
X151900355Y-98429000D01*
X151757498Y-98357571D01*
X151471784Y-98357571D01*
X151328927Y-98429000D01*
X151257498Y-98571857D01*
X151257498Y-98714714D01*
X151971784Y-98857571D01*
X150757498Y-98357571D02*
X150400355Y-99357571D01*
X150043213Y-98357571D01*
X149543213Y-98000429D02*
X149471784Y-97929000D01*
X149328927Y-97857571D01*
X148971784Y-97857571D01*
X148828927Y-97929000D01*
X148757498Y-98000429D01*
X148686070Y-98143286D01*
X148686070Y-98286143D01*
X148757498Y-98500429D01*
X149614641Y-99357571D01*
X148686070Y-99357571D01*
X148400356Y-99500429D02*
X147257499Y-99500429D01*
X146114642Y-99357571D02*
X146971785Y-99357571D01*
X146543213Y-99357571D02*
X146543213Y-97857571D01*
X146686070Y-98071857D01*
X146828928Y-98214714D01*
X146971785Y-98286143D01*
X145257499Y-98500429D02*
X145400357Y-98429000D01*
X145471785Y-98357571D01*
X145543214Y-98214714D01*
X145543214Y-98143286D01*
X145471785Y-98000429D01*
X145400357Y-97929000D01*
X145257499Y-97857571D01*
X144971785Y-97857571D01*
X144828928Y-97929000D01*
X144757499Y-98000429D01*
X144686071Y-98143286D01*
X144686071Y-98214714D01*
X144757499Y-98357571D01*
X144828928Y-98429000D01*
X144971785Y-98500429D01*
X145257499Y-98500429D01*
X145400357Y-98571857D01*
X145471785Y-98643286D01*
X145543214Y-98786143D01*
X145543214Y-99071857D01*
X145471785Y-99214714D01*
X145400357Y-99286143D01*
X145257499Y-99357571D01*
X144971785Y-99357571D01*
X144828928Y-99286143D01*
X144757499Y-99214714D01*
X144686071Y-99071857D01*
X144686071Y-98786143D01*
X144757499Y-98643286D01*
X144828928Y-98571857D01*
X144971785Y-98500429D01*
X143757500Y-97857571D02*
X143614643Y-97857571D01*
X143471786Y-97929000D01*
X143400357Y-98000429D01*
X143328928Y-98143286D01*
X143257500Y-98429000D01*
X143257500Y-98786143D01*
X143328928Y-99071857D01*
X143400357Y-99214714D01*
X143471786Y-99286143D01*
X143614643Y-99357571D01*
X143757500Y-99357571D01*
X143900357Y-99286143D01*
X143971786Y-99214714D01*
X144043214Y-99071857D01*
X144114643Y-98786143D01*
X144114643Y-98429000D01*
X144043214Y-98143286D01*
X143971786Y-98000429D01*
X143900357Y-97929000D01*
X143757500Y-97857571D01*
X141971786Y-98357571D02*
X141971786Y-99357571D01*
X142328929Y-97786143D02*
X142686072Y-98857571D01*
X141757500Y-98857571D01*
X161575000Y-110279571D02*
X161575000Y-108779571D01*
X161075000Y-109851000D01*
X160575000Y-108779571D01*
X160575000Y-110279571D01*
X159217857Y-110279571D02*
X159217857Y-109493857D01*
X159289286Y-109351000D01*
X159432143Y-109279571D01*
X159717857Y-109279571D01*
X159860714Y-109351000D01*
X159217857Y-110208143D02*
X159360714Y-110279571D01*
X159717857Y-110279571D01*
X159860714Y-110208143D01*
X159932143Y-110065286D01*
X159932143Y-109922429D01*
X159860714Y-109779571D01*
X159717857Y-109708143D01*
X159360714Y-109708143D01*
X159217857Y-109636714D01*
X158503571Y-110279571D02*
X158503571Y-109279571D01*
X158503571Y-109565286D02*
X158432143Y-109422429D01*
X158360714Y-109351000D01*
X158217857Y-109279571D01*
X158075000Y-109279571D01*
X157575000Y-110279571D02*
X157575000Y-108779571D01*
X157432143Y-109708143D02*
X157003572Y-110279571D01*
X157003572Y-109279571D02*
X157575000Y-109851000D01*
X155289286Y-110208143D02*
X155075000Y-110279571D01*
X154717857Y-110279571D01*
X154575000Y-110208143D01*
X154503571Y-110136714D01*
X154432143Y-109993857D01*
X154432143Y-109851000D01*
X154503571Y-109708143D01*
X154575000Y-109636714D01*
X154717857Y-109565286D01*
X155003571Y-109493857D01*
X155146429Y-109422429D01*
X155217857Y-109351000D01*
X155289286Y-109208143D01*
X155289286Y-109065286D01*
X155217857Y-108922429D01*
X155146429Y-108851000D01*
X155003571Y-108779571D01*
X154646429Y-108779571D01*
X154432143Y-108851000D01*
X153789286Y-110279571D02*
X153789286Y-109279571D01*
X153789286Y-109422429D02*
X153717858Y-109351000D01*
X153575000Y-109279571D01*
X153360715Y-109279571D01*
X153217858Y-109351000D01*
X153146429Y-109493857D01*
X153146429Y-110279571D01*
X153146429Y-109493857D02*
X153075000Y-109351000D01*
X152932143Y-109279571D01*
X152717858Y-109279571D01*
X152575000Y-109351000D01*
X152503572Y-109493857D01*
X152503572Y-110279571D01*
X151789286Y-110279571D02*
X151789286Y-109279571D01*
X151789286Y-108779571D02*
X151860715Y-108851000D01*
X151789286Y-108922429D01*
X151717858Y-108851000D01*
X151789286Y-108779571D01*
X151789286Y-108922429D01*
X151289286Y-109279571D02*
X150717857Y-109279571D01*
X151075000Y-108779571D02*
X151075000Y-110065286D01*
X151003572Y-110208143D01*
X150860714Y-110279571D01*
X150717857Y-110279571D01*
X150217857Y-110279571D02*
X150217857Y-108779571D01*
X149575000Y-110279571D02*
X149575000Y-109493857D01*
X149646429Y-109351000D01*
X149789286Y-109279571D01*
X150003571Y-109279571D01*
X150146429Y-109351000D01*
X150217857Y-109422429D01*
M02*
