M48
;DRILL file {KiCad 4.0.7-e2-6376~58~ubuntu14.04.1} date Sat Feb  3 00:22:44 2018
;FORMAT={-:-/ absolute / inch / decimal}
FMAT,2
INCH,TZ
T1C0.016
T2C0.025
T3C0.047
T4C0.087
T5C0.031
T6C0.087
%
G90
G05
M72
T1
X5.385Y-3.577
X5.4095Y-3.875
X5.421Y-4.1575
X5.5725Y-3.4175
X5.656Y-3.276
X5.6855Y-3.6265
X5.715Y-3.4125
X5.7545Y-3.0915
X5.7575Y-3.2265
X5.8555Y-3.6055
X5.883Y-3.4875
X5.892Y-3.0635
X5.9675Y-3.421
X6.0925Y-3.456
X6.1Y-3.606
X6.199Y-3.37
X6.318Y-3.3665
X6.318Y-3.4065
X6.318Y-3.4465
X6.358Y-3.3665
X6.358Y-3.4065
X6.358Y-3.4465
X6.378Y-3.6485
X6.379Y-3.6095
X6.379Y-3.684
X6.533Y-3.238
X6.571Y-3.235
X6.602Y-3.382
X6.643Y-4.122
X6.681Y-4.122
X6.721Y-4.125
X6.736Y-3.81
X6.76Y-4.089
X6.761Y-4.126
X6.7625Y-4.
X6.7635Y-3.864
X6.766Y-3.756
X6.797Y-4.092
X6.798Y-4.0035
X6.8Y-3.807
T2
X6.3215Y-3.9745
X6.79Y-3.334
T3
X5.4221Y-3.1744
X5.4221Y-3.4796
X5.5717Y-3.4737
X5.5726Y-3.1803
X6.1516Y-3.0745
X6.2894Y-3.0745
X6.4272Y-3.0745
X6.565Y-3.0745
T4
X5.461Y-2.987
X6.759Y-2.984
T5
X5.5303Y-3.2286
X5.5303Y-3.4254
T6
X5.46Y-4.271
X6.76Y-4.273
T0
M30
