M48
INCH,TZ
T1C0.016
T2C0.025
T3C0.047
T4C0.087
%
G90
G05
T1
X53850Y-35770
X54095Y-38750
X54210Y-41575
X55725Y-34175
X56560Y-32760
X56855Y-36265
X57150Y-34125
X57545Y-30915
X57575Y-32265
X58555Y-36055
X58830Y-34875
X58920Y-30635
X59675Y-34210
X60925Y-34560
X61000Y-36060
X61990Y-33700
X63180Y-33665
X63180Y-34065
X63180Y-34465
X63580Y-33665
X63580Y-34065
X63580Y-34465
X63780Y-36485
X63790Y-36095
X63790Y-36840
X65330Y-32380
X65710Y-32350
X66020Y-33820
X66430Y-41220
X66810Y-41220
X67210Y-41250
X67360Y-38100
X67600Y-40890
X67610Y-41260
X67625Y-40000
X67635Y-38640
X67660Y-37560
X67970Y-40920
X67980Y-40035
X68000Y-38070
T2
X63215Y-39745
X67900Y-33340
T3
X54221Y-31744
X54221Y-34796
X55717Y-34737
X55726Y-31803
X61516Y-30745
X62894Y-30745
X64272Y-30745
X65650Y-30745
T4
X54610Y-29870
X67590Y-29840
T0
M30
